%TF.GenerationSoftware,KiCad,Pcbnew,(6.0.7)*%
%TF.CreationDate,2022-10-20T10:19:37-04:00*%
%TF.ProjectId,SpiritBall,53706972-6974-4426-916c-6c2e6b696361,rev?*%
%TF.SameCoordinates,Original*%
%TF.FileFunction,Copper,L2,Inr*%
%TF.FilePolarity,Positive*%
%FSLAX46Y46*%
G04 Gerber Fmt 4.6, Leading zero omitted, Abs format (unit mm)*
G04 Created by KiCad (PCBNEW (6.0.7)) date 2022-10-20 10:19:37*
%MOMM*%
%LPD*%
G01*
G04 APERTURE LIST*
%TA.AperFunction,ComponentPad*%
%ADD10R,1.000000X1.000000*%
%TD*%
%TA.AperFunction,ComponentPad*%
%ADD11O,1.000000X1.000000*%
%TD*%
%TA.AperFunction,ComponentPad*%
%ADD12O,1.100000X2.100000*%
%TD*%
%TA.AperFunction,ComponentPad*%
%ADD13O,1.100000X2.600000*%
%TD*%
%TA.AperFunction,ViaPad*%
%ADD14C,0.800000*%
%TD*%
G04 APERTURE END LIST*
D10*
%TO.N,EN{slash}CHIP_PU*%
%TO.C,J3*%
X84582000Y-110744000D03*
D11*
%TO.N,Net-(D38-Pad2)*%
X85852000Y-110744000D03*
%TO.N,UART_0_TXD*%
X84582000Y-112014000D03*
%TO.N,GND*%
X85852000Y-112014000D03*
%TO.N,UART_0_RXD*%
X84582000Y-113284000D03*
%TO.N,GPIO0{slash}BOOT*%
X85852000Y-113284000D03*
%TD*%
D12*
%TO.N,unconnected-(J1-PadS1)*%
%TO.C,J1*%
X105920000Y-59240000D03*
X97280000Y-59240000D03*
D13*
X105920000Y-53880000D03*
X97280000Y-53880000D03*
%TD*%
D10*
%TO.N,Net-(D37-Pad2)*%
%TO.C,J4*%
X86077435Y-95634251D03*
D11*
%TO.N,/ESP32-S3/Debug/ESP_TMS*%
X87347435Y-95634251D03*
%TO.N,GND*%
X86077435Y-96904251D03*
%TO.N,/ESP32-S3/Debug/ESP_TCK*%
X87347435Y-96904251D03*
%TO.N,GND*%
X86077435Y-98174251D03*
%TO.N,/ESP32-S3/Debug/ESP_TDO*%
X87347435Y-98174251D03*
%TO.N,GND*%
X86077435Y-99444251D03*
%TO.N,/ESP32-S3/Debug/ESP_TDI*%
X87347435Y-99444251D03*
%TO.N,GND*%
X86077435Y-100714251D03*
%TO.N,unconnected-(J4-Pad10)*%
X87347435Y-100714251D03*
%TD*%
D14*
%TO.N,GND*%
X59733511Y-126955246D03*
X85181054Y-147709756D03*
X68344202Y-65687004D03*
X83413600Y-84505800D03*
X53653905Y-111441919D03*
X74942207Y-60550597D03*
X93268959Y-149831578D03*
X101600000Y-150545801D03*
X134855799Y-65687005D03*
X123926600Y-100558600D03*
X148202735Y-86637499D03*
X64660135Y-133711334D03*
X107696000Y-57150000D03*
X125627677Y-144242258D03*
X124041011Y-92908066D03*
X90256914Y-53986706D03*
X138539864Y-133711335D03*
X143466488Y-126955247D03*
X56028728Y-119459186D03*
X150069463Y-94788062D03*
X82318198Y-56612185D03*
X90906600Y-107035600D03*
X58224057Y-78923604D03*
X118018945Y-147709756D03*
X120881802Y-56612185D03*
X132535180Y-139530279D03*
X70664820Y-139530278D03*
X54997265Y-86637498D03*
X149546095Y-111441920D03*
X109931040Y-149831578D03*
X112215944Y-107054555D03*
X140483260Y-71871504D03*
X53130537Y-94788061D03*
X62716741Y-71871503D03*
X52678351Y-103137424D03*
X116916200Y-103860600D03*
X147171272Y-119459187D03*
X77572322Y-144242257D03*
X128257794Y-60550598D03*
X125476000Y-113792000D03*
X98552000Y-60706000D03*
X82300283Y-111217347D03*
X150521649Y-103137425D03*
X144975944Y-78923605D03*
X101574600Y-65557400D03*
X112943087Y-53986706D03*
%TO.N,EN{slash}CHIP_PU*%
X77622400Y-108204000D03*
X113106200Y-101981000D03*
%TO.N,/ESP32-S3/LED Data*%
X98501200Y-86360000D03*
X111175800Y-86360000D03*
%TO.N,UART_0_TXD*%
X84302600Y-108407200D03*
X89382600Y-103236971D03*
%TO.N,+5V*%
X142454949Y-109986316D03*
X73262677Y-70998476D03*
X140431359Y-116817843D03*
X64639284Y-82277405D03*
X115590612Y-140890202D03*
X141310270Y-88850427D03*
X138560715Y-82277405D03*
X127959920Y-133920454D03*
X129937322Y-70998475D03*
X111265463Y-61028631D03*
X124315151Y-66621734D03*
X118030056Y-63265806D03*
X68467508Y-76268298D03*
X122074025Y-137935540D03*
X87609389Y-140890202D03*
X99314000Y-67818000D03*
X137274506Y-123205248D03*
X108698894Y-142698210D03*
X60299088Y-95795536D03*
X91934536Y-61028631D03*
X62768642Y-116817843D03*
X81125976Y-137935540D03*
X138684000Y-109220000D03*
X61889730Y-88850428D03*
X101600000Y-143306800D03*
X68072000Y-84505800D03*
X60745051Y-109986317D03*
X78884848Y-66621735D03*
X85169943Y-63265807D03*
X142900912Y-95795535D03*
X143286220Y-102910042D03*
X94501107Y-142698210D03*
X59913780Y-102910043D03*
X65925494Y-123205249D03*
X75240081Y-133920455D03*
X134732491Y-76268297D03*
X62966600Y-106426000D03*
X64414400Y-91440000D03*
X133076522Y-128962122D03*
X70123479Y-128962123D03*
%TO.N,+3.3V*%
X114109888Y-106362112D03*
X112547400Y-97891600D03*
%TO.N,GPIO0{slash}BOOT*%
X88646000Y-113284000D03*
X81284283Y-114988896D03*
%TO.N,USB_D-*%
X106807000Y-65532000D03*
X112344742Y-91806598D03*
X100812600Y-61036200D03*
X102438700Y-62036100D03*
%TO.N,/ESP32-S3/Debug/ESP_TMS*%
X90311029Y-100696971D03*
X76708000Y-96774000D03*
%TO.N,/ESP32-S3/Debug/ESP_TCK*%
X75946000Y-98298000D03*
%TO.N,/ESP32-S3/Debug/ESP_TDO*%
X82042000Y-102616000D03*
%TD*%
%TA.AperFunction,Conductor*%
%TO.N,GND*%
G36*
X101947275Y-52109743D02*
G01*
X102353731Y-52118257D01*
X103325441Y-52138612D01*
X103328957Y-52138734D01*
X104414376Y-52191819D01*
X104705849Y-52206075D01*
X104709345Y-52206294D01*
X105032174Y-52231135D01*
X105098559Y-52256305D01*
X105140799Y-52313369D01*
X105145481Y-52384211D01*
X105119029Y-52437755D01*
X105042391Y-52529089D01*
X105039427Y-52534481D01*
X105039424Y-52534485D01*
X104981731Y-52639428D01*
X104942387Y-52710995D01*
X104879621Y-52908861D01*
X104878935Y-52914978D01*
X104878934Y-52914982D01*
X104877989Y-52923408D01*
X104861500Y-53070413D01*
X104861500Y-54682237D01*
X104861800Y-54685293D01*
X104861800Y-54685300D01*
X104876034Y-54830466D01*
X104876635Y-54836592D01*
X104936632Y-55035315D01*
X105034087Y-55218599D01*
X105082917Y-55278471D01*
X105161390Y-55374689D01*
X105161393Y-55374692D01*
X105165285Y-55379464D01*
X105170033Y-55383392D01*
X105170034Y-55383393D01*
X105260902Y-55458566D01*
X105325230Y-55511783D01*
X105330647Y-55514712D01*
X105330650Y-55514714D01*
X105502410Y-55607584D01*
X105502415Y-55607586D01*
X105507830Y-55610514D01*
X105706129Y-55671898D01*
X105712254Y-55672542D01*
X105712255Y-55672542D01*
X105906446Y-55692952D01*
X105906448Y-55692952D01*
X105912575Y-55693596D01*
X105998485Y-55685777D01*
X106113164Y-55675341D01*
X106113167Y-55675340D01*
X106119303Y-55674782D01*
X106125209Y-55673044D01*
X106125213Y-55673043D01*
X106312531Y-55617912D01*
X106312530Y-55617912D01*
X106318440Y-55616173D01*
X106502400Y-55520001D01*
X106664177Y-55389929D01*
X106669662Y-55383393D01*
X106793650Y-55235629D01*
X106797609Y-55230911D01*
X106800573Y-55225519D01*
X106800576Y-55225515D01*
X106894646Y-55054402D01*
X106897613Y-55049005D01*
X106960379Y-54851139D01*
X106961350Y-54842489D01*
X106978107Y-54693087D01*
X106978500Y-54689587D01*
X106978500Y-53077763D01*
X106977780Y-53070413D01*
X106963966Y-52929534D01*
X106963965Y-52929531D01*
X106963365Y-52923408D01*
X106909637Y-52745448D01*
X106905152Y-52730593D01*
X106905151Y-52730590D01*
X106903368Y-52724685D01*
X106830717Y-52588050D01*
X106816397Y-52518513D01*
X106841944Y-52452272D01*
X106899249Y-52410359D01*
X106955139Y-52403586D01*
X107458258Y-52456466D01*
X107461753Y-52456883D01*
X108828135Y-52639197D01*
X108831592Y-52639707D01*
X109356260Y-52724685D01*
X110192373Y-52860106D01*
X110195838Y-52860717D01*
X111549900Y-53119019D01*
X111553347Y-53119726D01*
X112203482Y-53262667D01*
X112899754Y-53415752D01*
X112903134Y-53416546D01*
X113473835Y-53558837D01*
X114240692Y-53750036D01*
X114244094Y-53750935D01*
X115571797Y-54121636D01*
X115575172Y-54122629D01*
X116892017Y-54530261D01*
X116895363Y-54531348D01*
X118200333Y-54975596D01*
X118203616Y-54976765D01*
X118988473Y-55268650D01*
X119495717Y-55457293D01*
X119498997Y-55458566D01*
X120777077Y-55974943D01*
X120780321Y-55976306D01*
X122043599Y-56528219D01*
X122046732Y-56529641D01*
X123294061Y-57116588D01*
X123297170Y-57118104D01*
X124356506Y-57653214D01*
X124527644Y-57739662D01*
X124530762Y-57741292D01*
X124739309Y-57854053D01*
X125743392Y-58396958D01*
X125746433Y-58398659D01*
X126940233Y-59087899D01*
X126943255Y-59089700D01*
X128117387Y-59812031D01*
X128120358Y-59813917D01*
X129273810Y-60568715D01*
X129276727Y-60570682D01*
X129671802Y-60845266D01*
X130408713Y-61357433D01*
X130411524Y-61359445D01*
X131153349Y-61906366D01*
X131521128Y-62177516D01*
X131523930Y-62179644D01*
X132438587Y-62894251D01*
X132610163Y-63028301D01*
X132612896Y-63030498D01*
X132889399Y-63259241D01*
X133675073Y-63909208D01*
X133677753Y-63911489D01*
X133977967Y-64174306D01*
X134629595Y-64744763D01*
X134714942Y-64819479D01*
X134717546Y-64821823D01*
X135723062Y-65752940D01*
X135729007Y-65758445D01*
X135731555Y-65760871D01*
X136716474Y-66725376D01*
X136718953Y-66727873D01*
X137676542Y-67719485D01*
X137678948Y-67722047D01*
X137939992Y-68007928D01*
X138608461Y-68739995D01*
X138610797Y-68742626D01*
X139511528Y-69786132D01*
X139513790Y-69788827D01*
X140350807Y-70815111D01*
X140385070Y-70857122D01*
X140387244Y-70859866D01*
X141195131Y-71908928D01*
X141228313Y-71952016D01*
X141230421Y-71954833D01*
X142040694Y-73070079D01*
X142042722Y-73072954D01*
X142821534Y-74210379D01*
X142823481Y-74213310D01*
X143570212Y-75372012D01*
X143572077Y-75374996D01*
X144286184Y-76554126D01*
X144287964Y-76557160D01*
X144968870Y-77755770D01*
X144970565Y-77758854D01*
X145617710Y-78975959D01*
X145619319Y-78979088D01*
X146232265Y-80213859D01*
X146233785Y-80217032D01*
X146785614Y-81411296D01*
X146811997Y-81468395D01*
X146813418Y-81471586D01*
X147242886Y-82473611D01*
X147356474Y-82738631D01*
X147357815Y-82741884D01*
X147865282Y-84023600D01*
X147866531Y-84026890D01*
X148338003Y-85322250D01*
X148339160Y-85325572D01*
X148774280Y-86633590D01*
X148775344Y-86636944D01*
X149173772Y-87956602D01*
X149174742Y-87959984D01*
X149272340Y-88319202D01*
X149519176Y-89227706D01*
X149536173Y-89290267D01*
X149537048Y-89293675D01*
X149861186Y-90633506D01*
X149861966Y-90636937D01*
X150148580Y-91985348D01*
X150149263Y-91988800D01*
X150395565Y-93330789D01*
X150398104Y-93344625D01*
X150398687Y-93348071D01*
X150466138Y-93783779D01*
X150609586Y-94710398D01*
X150610075Y-94713882D01*
X150782841Y-96081463D01*
X150783234Y-96084960D01*
X150820938Y-96469491D01*
X150915302Y-97431891D01*
X150917756Y-97456922D01*
X150918049Y-97460412D01*
X150949794Y-97914386D01*
X151014209Y-98835569D01*
X151014405Y-98839082D01*
X151072129Y-100216331D01*
X151072228Y-100219848D01*
X151091475Y-101598241D01*
X151091475Y-101601759D01*
X151072228Y-102980152D01*
X151072129Y-102983669D01*
X151014405Y-104360918D01*
X151014209Y-104364431D01*
X150921989Y-105683246D01*
X150918050Y-105739572D01*
X150917757Y-105743063D01*
X150851439Y-106419435D01*
X150783234Y-107115040D01*
X150782841Y-107118537D01*
X150610075Y-108486118D01*
X150609586Y-108489602D01*
X150518009Y-109081155D01*
X150402309Y-109828537D01*
X150398691Y-109851906D01*
X150398108Y-109855351D01*
X150198579Y-110942500D01*
X150149263Y-111211200D01*
X150148580Y-111214652D01*
X149861966Y-112563063D01*
X149861186Y-112566494D01*
X149681611Y-113308771D01*
X149568654Y-113775683D01*
X149537048Y-113906325D01*
X149536174Y-113909729D01*
X149478951Y-114120344D01*
X149174742Y-115240016D01*
X149173772Y-115243398D01*
X148775344Y-116563056D01*
X148774280Y-116566410D01*
X148339160Y-117874428D01*
X148338003Y-117877750D01*
X147866531Y-119173110D01*
X147865282Y-119176400D01*
X147357815Y-120458116D01*
X147356475Y-120461366D01*
X146911586Y-121499372D01*
X146813428Y-121728391D01*
X146812007Y-121731582D01*
X146496625Y-122414131D01*
X146233785Y-122982968D01*
X146232265Y-122986141D01*
X145619319Y-124220912D01*
X145617710Y-124224041D01*
X144970565Y-125441146D01*
X144968870Y-125444230D01*
X144287964Y-126642840D01*
X144286184Y-126645874D01*
X143572077Y-127825004D01*
X143570212Y-127827988D01*
X142823481Y-128986690D01*
X142821534Y-128989621D01*
X142042722Y-130127046D01*
X142040694Y-130129921D01*
X141230421Y-131245167D01*
X141228324Y-131247970D01*
X140804453Y-131798377D01*
X140387255Y-132340120D01*
X140385081Y-132342864D01*
X139655267Y-133237705D01*
X139513790Y-133411173D01*
X139511528Y-133413868D01*
X138610797Y-134457374D01*
X138608461Y-134460005D01*
X137678950Y-135477950D01*
X137676542Y-135480515D01*
X136718953Y-136472127D01*
X136716474Y-136474624D01*
X135731555Y-137439129D01*
X135729011Y-137441551D01*
X134794307Y-138307096D01*
X134717557Y-138378167D01*
X134714954Y-138380510D01*
X134323986Y-138722777D01*
X133677753Y-139288511D01*
X133675073Y-139290792D01*
X132735663Y-140067941D01*
X132612905Y-140169495D01*
X132610172Y-140171692D01*
X132158046Y-140524931D01*
X131523930Y-141020356D01*
X131521128Y-141022484D01*
X130411524Y-141840555D01*
X130408713Y-141842567D01*
X129811017Y-142257977D01*
X129276727Y-142629318D01*
X129273810Y-142631285D01*
X128120358Y-143386083D01*
X128117387Y-143387969D01*
X127368558Y-143848652D01*
X126963382Y-144097918D01*
X126943255Y-144110300D01*
X126940243Y-144112095D01*
X126337658Y-144459998D01*
X125746448Y-144801333D01*
X125743392Y-144803042D01*
X125399390Y-144989043D01*
X124530762Y-145458708D01*
X124527644Y-145460338D01*
X123297170Y-146081896D01*
X123294061Y-146083412D01*
X122046732Y-146670359D01*
X122043599Y-146671781D01*
X120850135Y-147193193D01*
X120780321Y-147223694D01*
X120777077Y-147225057D01*
X119498997Y-147741434D01*
X119495717Y-147742707D01*
X119103265Y-147888659D01*
X118203616Y-148223235D01*
X118200333Y-148224404D01*
X116895363Y-148668652D01*
X116892017Y-148669739D01*
X115575172Y-149077371D01*
X115571797Y-149078364D01*
X114244094Y-149449065D01*
X114240692Y-149449964D01*
X113554933Y-149620943D01*
X112903134Y-149783454D01*
X112899754Y-149784248D01*
X112330429Y-149909422D01*
X111553347Y-150080274D01*
X111549900Y-150080981D01*
X110195838Y-150339283D01*
X110192373Y-150339894D01*
X109589107Y-150437602D01*
X108831592Y-150560293D01*
X108828135Y-150560803D01*
X108107546Y-150656950D01*
X107461751Y-150743117D01*
X107458255Y-150743534D01*
X106087271Y-150887631D01*
X106083816Y-150887946D01*
X104709345Y-150993706D01*
X104705849Y-150993925D01*
X104414376Y-151008181D01*
X103328957Y-151061266D01*
X103325441Y-151061388D01*
X102354158Y-151081734D01*
X101947275Y-151090257D01*
X101943781Y-151090282D01*
X101293370Y-151085741D01*
X100565275Y-151080658D01*
X100561758Y-151080584D01*
X99184108Y-151032475D01*
X99180593Y-151032303D01*
X97804813Y-150945746D01*
X97801305Y-150945476D01*
X96782582Y-150852765D01*
X96428502Y-150820541D01*
X96425017Y-150820176D01*
X95056146Y-150656948D01*
X95052672Y-150656484D01*
X94758213Y-150613002D01*
X93688981Y-150455111D01*
X93685553Y-150454556D01*
X92327924Y-150215170D01*
X92324469Y-150214510D01*
X90974164Y-149937332D01*
X90970730Y-149936578D01*
X89628643Y-149621794D01*
X89625229Y-149620943D01*
X88292464Y-149268811D01*
X88289075Y-149267865D01*
X86966633Y-148878650D01*
X86963272Y-148877609D01*
X85652259Y-148451635D01*
X85648928Y-148450501D01*
X84350321Y-147988088D01*
X84347023Y-147986862D01*
X83061796Y-147488355D01*
X83058534Y-147487037D01*
X81787734Y-146952842D01*
X81784510Y-146951433D01*
X81166519Y-146671100D01*
X80529142Y-146381973D01*
X80525971Y-146380481D01*
X80494674Y-146365216D01*
X79286979Y-145776184D01*
X79283839Y-145774598D01*
X78062188Y-145135934D01*
X78059093Y-145134260D01*
X76855791Y-144461757D01*
X76852744Y-144459998D01*
X75668657Y-143754141D01*
X75665660Y-143752297D01*
X74674732Y-143123435D01*
X74501756Y-143013661D01*
X74498846Y-143011757D01*
X74033993Y-142698210D01*
X93587603Y-142698210D01*
X93607565Y-142888138D01*
X93666580Y-143069766D01*
X93669883Y-143075488D01*
X93669884Y-143075489D01*
X93690152Y-143110594D01*
X93762067Y-143235154D01*
X93889854Y-143377076D01*
X94044355Y-143489328D01*
X94050383Y-143492012D01*
X94050385Y-143492013D01*
X94075076Y-143503006D01*
X94218819Y-143567004D01*
X94312219Y-143586857D01*
X94399163Y-143605338D01*
X94399168Y-143605338D01*
X94405620Y-143606710D01*
X94596594Y-143606710D01*
X94603046Y-143605338D01*
X94603051Y-143605338D01*
X94689995Y-143586857D01*
X94783395Y-143567004D01*
X94927138Y-143503006D01*
X94951829Y-143492013D01*
X94951831Y-143492012D01*
X94957859Y-143489328D01*
X95112360Y-143377076D01*
X95175637Y-143306800D01*
X100686496Y-143306800D01*
X100706458Y-143496728D01*
X100765473Y-143678356D01*
X100860960Y-143843744D01*
X100988747Y-143985666D01*
X101143248Y-144097918D01*
X101149276Y-144100602D01*
X101149278Y-144100603D01*
X101311681Y-144172909D01*
X101317712Y-144175594D01*
X101411113Y-144195447D01*
X101498056Y-144213928D01*
X101498061Y-144213928D01*
X101504513Y-144215300D01*
X101695487Y-144215300D01*
X101701939Y-144213928D01*
X101701944Y-144213928D01*
X101788887Y-144195447D01*
X101882288Y-144175594D01*
X101888319Y-144172909D01*
X102050722Y-144100603D01*
X102050724Y-144100602D01*
X102056752Y-144097918D01*
X102211253Y-143985666D01*
X102339040Y-143843744D01*
X102434527Y-143678356D01*
X102493542Y-143496728D01*
X102513504Y-143306800D01*
X102493542Y-143116872D01*
X102434527Y-142935244D01*
X102339040Y-142769856D01*
X102274530Y-142698210D01*
X107785390Y-142698210D01*
X107805352Y-142888138D01*
X107864367Y-143069766D01*
X107867670Y-143075488D01*
X107867671Y-143075489D01*
X107887939Y-143110594D01*
X107959854Y-143235154D01*
X108087641Y-143377076D01*
X108242142Y-143489328D01*
X108248170Y-143492012D01*
X108248172Y-143492013D01*
X108272863Y-143503006D01*
X108416606Y-143567004D01*
X108510006Y-143586857D01*
X108596950Y-143605338D01*
X108596955Y-143605338D01*
X108603407Y-143606710D01*
X108794381Y-143606710D01*
X108800833Y-143605338D01*
X108800838Y-143605338D01*
X108887782Y-143586857D01*
X108981182Y-143567004D01*
X109124925Y-143503006D01*
X109149616Y-143492013D01*
X109149618Y-143492012D01*
X109155646Y-143489328D01*
X109310147Y-143377076D01*
X109437934Y-143235154D01*
X109509849Y-143110594D01*
X109530117Y-143075489D01*
X109530118Y-143075488D01*
X109533421Y-143069766D01*
X109592436Y-142888138D01*
X109612398Y-142698210D01*
X109592436Y-142508282D01*
X109533421Y-142326654D01*
X109437934Y-142161266D01*
X109310147Y-142019344D01*
X109155646Y-141907092D01*
X109149618Y-141904408D01*
X109149616Y-141904407D01*
X108987213Y-141832101D01*
X108987212Y-141832101D01*
X108981182Y-141829416D01*
X108887782Y-141809563D01*
X108800838Y-141791082D01*
X108800833Y-141791082D01*
X108794381Y-141789710D01*
X108603407Y-141789710D01*
X108596955Y-141791082D01*
X108596950Y-141791082D01*
X108510006Y-141809563D01*
X108416606Y-141829416D01*
X108410576Y-141832101D01*
X108410575Y-141832101D01*
X108248172Y-141904407D01*
X108248170Y-141904408D01*
X108242142Y-141907092D01*
X108087641Y-142019344D01*
X107959854Y-142161266D01*
X107864367Y-142326654D01*
X107805352Y-142508282D01*
X107785390Y-142698210D01*
X102274530Y-142698210D01*
X102251416Y-142672539D01*
X102215675Y-142632845D01*
X102215674Y-142632844D01*
X102211253Y-142627934D01*
X102056752Y-142515682D01*
X102050724Y-142512998D01*
X102050722Y-142512997D01*
X101888319Y-142440691D01*
X101888318Y-142440691D01*
X101882288Y-142438006D01*
X101788888Y-142418153D01*
X101701944Y-142399672D01*
X101701939Y-142399672D01*
X101695487Y-142398300D01*
X101504513Y-142398300D01*
X101498061Y-142399672D01*
X101498056Y-142399672D01*
X101411112Y-142418153D01*
X101317712Y-142438006D01*
X101311682Y-142440691D01*
X101311681Y-142440691D01*
X101149278Y-142512997D01*
X101149276Y-142512998D01*
X101143248Y-142515682D01*
X100988747Y-142627934D01*
X100984326Y-142632844D01*
X100984325Y-142632845D01*
X100948585Y-142672539D01*
X100860960Y-142769856D01*
X100765473Y-142935244D01*
X100706458Y-143116872D01*
X100686496Y-143306800D01*
X95175637Y-143306800D01*
X95240147Y-143235154D01*
X95312062Y-143110594D01*
X95332330Y-143075489D01*
X95332331Y-143075488D01*
X95335634Y-143069766D01*
X95394649Y-142888138D01*
X95414611Y-142698210D01*
X95394649Y-142508282D01*
X95335634Y-142326654D01*
X95240147Y-142161266D01*
X95112360Y-142019344D01*
X94957859Y-141907092D01*
X94951831Y-141904408D01*
X94951829Y-141904407D01*
X94789426Y-141832101D01*
X94789425Y-141832101D01*
X94783395Y-141829416D01*
X94689995Y-141809563D01*
X94603051Y-141791082D01*
X94603046Y-141791082D01*
X94596594Y-141789710D01*
X94405620Y-141789710D01*
X94399168Y-141791082D01*
X94399163Y-141791082D01*
X94312219Y-141809563D01*
X94218819Y-141829416D01*
X94212789Y-141832101D01*
X94212788Y-141832101D01*
X94050385Y-141904407D01*
X94050383Y-141904408D01*
X94044355Y-141907092D01*
X93889854Y-142019344D01*
X93762067Y-142161266D01*
X93666580Y-142326654D01*
X93607565Y-142508282D01*
X93587603Y-142698210D01*
X74033993Y-142698210D01*
X73752413Y-142508282D01*
X73356003Y-142240900D01*
X73353113Y-142238892D01*
X72232220Y-141436411D01*
X72229415Y-141434343D01*
X71512536Y-140890202D01*
X86695885Y-140890202D01*
X86696575Y-140896767D01*
X86709681Y-141021460D01*
X86715847Y-141080130D01*
X86774862Y-141261758D01*
X86870349Y-141427146D01*
X86998136Y-141569068D01*
X87152637Y-141681320D01*
X87158665Y-141684004D01*
X87158667Y-141684005D01*
X87321070Y-141756311D01*
X87327101Y-141758996D01*
X87420501Y-141778849D01*
X87507445Y-141797330D01*
X87507450Y-141797330D01*
X87513902Y-141798702D01*
X87704876Y-141798702D01*
X87711328Y-141797330D01*
X87711333Y-141797330D01*
X87798277Y-141778849D01*
X87891677Y-141758996D01*
X87897708Y-141756311D01*
X88060111Y-141684005D01*
X88060113Y-141684004D01*
X88066141Y-141681320D01*
X88220642Y-141569068D01*
X88348429Y-141427146D01*
X88443916Y-141261758D01*
X88502931Y-141080130D01*
X88509098Y-141021460D01*
X88522203Y-140896767D01*
X88522893Y-140890202D01*
X114677108Y-140890202D01*
X114677798Y-140896767D01*
X114690904Y-141021460D01*
X114697070Y-141080130D01*
X114756085Y-141261758D01*
X114851572Y-141427146D01*
X114979359Y-141569068D01*
X115133860Y-141681320D01*
X115139888Y-141684004D01*
X115139890Y-141684005D01*
X115302293Y-141756311D01*
X115308324Y-141758996D01*
X115401724Y-141778849D01*
X115488668Y-141797330D01*
X115488673Y-141797330D01*
X115495125Y-141798702D01*
X115686099Y-141798702D01*
X115692551Y-141797330D01*
X115692556Y-141797330D01*
X115779500Y-141778849D01*
X115872900Y-141758996D01*
X115878931Y-141756311D01*
X116041334Y-141684005D01*
X116041336Y-141684004D01*
X116047364Y-141681320D01*
X116201865Y-141569068D01*
X116329652Y-141427146D01*
X116425139Y-141261758D01*
X116484154Y-141080130D01*
X116490321Y-141021460D01*
X116503426Y-140896767D01*
X116504116Y-140890202D01*
X116484154Y-140700274D01*
X116425139Y-140518646D01*
X116329652Y-140353258D01*
X116201865Y-140211336D01*
X116047364Y-140099084D01*
X116041336Y-140096400D01*
X116041334Y-140096399D01*
X115878931Y-140024093D01*
X115878930Y-140024093D01*
X115872900Y-140021408D01*
X115779500Y-140001555D01*
X115692556Y-139983074D01*
X115692551Y-139983074D01*
X115686099Y-139981702D01*
X115495125Y-139981702D01*
X115488673Y-139983074D01*
X115488668Y-139983074D01*
X115401724Y-140001555D01*
X115308324Y-140021408D01*
X115302294Y-140024093D01*
X115302293Y-140024093D01*
X115139890Y-140096399D01*
X115139888Y-140096400D01*
X115133860Y-140099084D01*
X114979359Y-140211336D01*
X114851572Y-140353258D01*
X114756085Y-140518646D01*
X114697070Y-140700274D01*
X114677108Y-140890202D01*
X88522893Y-140890202D01*
X88502931Y-140700274D01*
X88443916Y-140518646D01*
X88348429Y-140353258D01*
X88220642Y-140211336D01*
X88066141Y-140099084D01*
X88060113Y-140096400D01*
X88060111Y-140096399D01*
X87897708Y-140024093D01*
X87897707Y-140024093D01*
X87891677Y-140021408D01*
X87798277Y-140001555D01*
X87711333Y-139983074D01*
X87711328Y-139983074D01*
X87704876Y-139981702D01*
X87513902Y-139981702D01*
X87507450Y-139983074D01*
X87507445Y-139983074D01*
X87420501Y-140001555D01*
X87327101Y-140021408D01*
X87321071Y-140024093D01*
X87321070Y-140024093D01*
X87158667Y-140096399D01*
X87158665Y-140096400D01*
X87152637Y-140099084D01*
X86998136Y-140211336D01*
X86870349Y-140353258D01*
X86774862Y-140518646D01*
X86715847Y-140700274D01*
X86695885Y-140890202D01*
X71512536Y-140890202D01*
X71131392Y-140600898D01*
X71128630Y-140598740D01*
X70054297Y-139734954D01*
X70051586Y-139732711D01*
X69001796Y-138839270D01*
X68999149Y-138836952D01*
X68751987Y-138614406D01*
X67998028Y-137935540D01*
X80212472Y-137935540D01*
X80232434Y-138125468D01*
X80291449Y-138307096D01*
X80386936Y-138472484D01*
X80514723Y-138614406D01*
X80669224Y-138726658D01*
X80675252Y-138729342D01*
X80675254Y-138729343D01*
X80837657Y-138801649D01*
X80843688Y-138804334D01*
X80937089Y-138824187D01*
X81024032Y-138842668D01*
X81024037Y-138842668D01*
X81030489Y-138844040D01*
X81221463Y-138844040D01*
X81227915Y-138842668D01*
X81227920Y-138842668D01*
X81314863Y-138824187D01*
X81408264Y-138804334D01*
X81414295Y-138801649D01*
X81576698Y-138729343D01*
X81576700Y-138729342D01*
X81582728Y-138726658D01*
X81737229Y-138614406D01*
X81865016Y-138472484D01*
X81960503Y-138307096D01*
X82019518Y-138125468D01*
X82039480Y-137935540D01*
X121160521Y-137935540D01*
X121180483Y-138125468D01*
X121239498Y-138307096D01*
X121334985Y-138472484D01*
X121462772Y-138614406D01*
X121617273Y-138726658D01*
X121623301Y-138729342D01*
X121623303Y-138729343D01*
X121785706Y-138801649D01*
X121791737Y-138804334D01*
X121885138Y-138824187D01*
X121972081Y-138842668D01*
X121972086Y-138842668D01*
X121978538Y-138844040D01*
X122169512Y-138844040D01*
X122175964Y-138842668D01*
X122175969Y-138842668D01*
X122262912Y-138824187D01*
X122356313Y-138804334D01*
X122362344Y-138801649D01*
X122524747Y-138729343D01*
X122524749Y-138729342D01*
X122530777Y-138726658D01*
X122685278Y-138614406D01*
X122813065Y-138472484D01*
X122908552Y-138307096D01*
X122967567Y-138125468D01*
X122987529Y-137935540D01*
X122967567Y-137745612D01*
X122908552Y-137563984D01*
X122813065Y-137398596D01*
X122685278Y-137256674D01*
X122530777Y-137144422D01*
X122524749Y-137141738D01*
X122524747Y-137141737D01*
X122362344Y-137069431D01*
X122362343Y-137069431D01*
X122356313Y-137066746D01*
X122262912Y-137046893D01*
X122175969Y-137028412D01*
X122175964Y-137028412D01*
X122169512Y-137027040D01*
X121978538Y-137027040D01*
X121972086Y-137028412D01*
X121972081Y-137028412D01*
X121885138Y-137046893D01*
X121791737Y-137066746D01*
X121785707Y-137069431D01*
X121785706Y-137069431D01*
X121623303Y-137141737D01*
X121623301Y-137141738D01*
X121617273Y-137144422D01*
X121462772Y-137256674D01*
X121334985Y-137398596D01*
X121239498Y-137563984D01*
X121180483Y-137745612D01*
X121160521Y-137935540D01*
X82039480Y-137935540D01*
X82019518Y-137745612D01*
X81960503Y-137563984D01*
X81865016Y-137398596D01*
X81737229Y-137256674D01*
X81582728Y-137144422D01*
X81576700Y-137141738D01*
X81576698Y-137141737D01*
X81414295Y-137069431D01*
X81414294Y-137069431D01*
X81408264Y-137066746D01*
X81314863Y-137046893D01*
X81227920Y-137028412D01*
X81227915Y-137028412D01*
X81221463Y-137027040D01*
X81030489Y-137027040D01*
X81024037Y-137028412D01*
X81024032Y-137028412D01*
X80937089Y-137046893D01*
X80843688Y-137066746D01*
X80837658Y-137069431D01*
X80837657Y-137069431D01*
X80675254Y-137141737D01*
X80675252Y-137141738D01*
X80669224Y-137144422D01*
X80514723Y-137256674D01*
X80386936Y-137398596D01*
X80291449Y-137563984D01*
X80232434Y-137745612D01*
X80212472Y-137935540D01*
X67998028Y-137935540D01*
X67974754Y-137914584D01*
X67972175Y-137912196D01*
X66973884Y-136961536D01*
X66971370Y-136959074D01*
X66000031Y-135980931D01*
X65997587Y-135978400D01*
X65699860Y-135661352D01*
X65053954Y-134973532D01*
X65051582Y-134970935D01*
X64891491Y-134790620D01*
X64136320Y-133940051D01*
X64134057Y-133937429D01*
X64119814Y-133920455D01*
X74326577Y-133920455D01*
X74346539Y-134110383D01*
X74405554Y-134292011D01*
X74501041Y-134457399D01*
X74628828Y-134599321D01*
X74783329Y-134711573D01*
X74789357Y-134714257D01*
X74789359Y-134714258D01*
X74951760Y-134786563D01*
X74957793Y-134789249D01*
X75051194Y-134809102D01*
X75138137Y-134827583D01*
X75138142Y-134827583D01*
X75144594Y-134828955D01*
X75335568Y-134828955D01*
X75342020Y-134827583D01*
X75342025Y-134827583D01*
X75428968Y-134809102D01*
X75522369Y-134789249D01*
X75528402Y-134786563D01*
X75690803Y-134714258D01*
X75690805Y-134714257D01*
X75696833Y-134711573D01*
X75851334Y-134599321D01*
X75979121Y-134457399D01*
X76074608Y-134292011D01*
X76133623Y-134110383D01*
X76153585Y-133920455D01*
X76153585Y-133920454D01*
X127046416Y-133920454D01*
X127066378Y-134110382D01*
X127125393Y-134292010D01*
X127220880Y-134457398D01*
X127348667Y-134599320D01*
X127503168Y-134711572D01*
X127509196Y-134714256D01*
X127509198Y-134714257D01*
X127671601Y-134786563D01*
X127677632Y-134789248D01*
X127771032Y-134809101D01*
X127857976Y-134827582D01*
X127857981Y-134827582D01*
X127864433Y-134828954D01*
X128055407Y-134828954D01*
X128061859Y-134827582D01*
X128061864Y-134827582D01*
X128148808Y-134809101D01*
X128242208Y-134789248D01*
X128248239Y-134786563D01*
X128410642Y-134714257D01*
X128410644Y-134714256D01*
X128416672Y-134711572D01*
X128571173Y-134599320D01*
X128698960Y-134457398D01*
X128794447Y-134292010D01*
X128853462Y-134110382D01*
X128873424Y-133920454D01*
X128853462Y-133730526D01*
X128794447Y-133548898D01*
X128698960Y-133383510D01*
X128571173Y-133241588D01*
X128416672Y-133129336D01*
X128410644Y-133126652D01*
X128410642Y-133126651D01*
X128248239Y-133054345D01*
X128248238Y-133054345D01*
X128242208Y-133051660D01*
X128148807Y-133031807D01*
X128061864Y-133013326D01*
X128061859Y-133013326D01*
X128055407Y-133011954D01*
X127864433Y-133011954D01*
X127857981Y-133013326D01*
X127857976Y-133013326D01*
X127771033Y-133031807D01*
X127677632Y-133051660D01*
X127671602Y-133054345D01*
X127671601Y-133054345D01*
X127509198Y-133126651D01*
X127509196Y-133126652D01*
X127503168Y-133129336D01*
X127348667Y-133241588D01*
X127220880Y-133383510D01*
X127125393Y-133548898D01*
X127066378Y-133730526D01*
X127046416Y-133920454D01*
X76153585Y-133920454D01*
X76133623Y-133730527D01*
X76074608Y-133548899D01*
X75979121Y-133383511D01*
X75851334Y-133241589D01*
X75696833Y-133129337D01*
X75690805Y-133126653D01*
X75690803Y-133126652D01*
X75528400Y-133054346D01*
X75528397Y-133054345D01*
X75522369Y-133051661D01*
X75428969Y-133031808D01*
X75342025Y-133013327D01*
X75342020Y-133013327D01*
X75335568Y-133011955D01*
X75144594Y-133011955D01*
X75138142Y-133013327D01*
X75138137Y-133013327D01*
X75051193Y-133031808D01*
X74957793Y-133051661D01*
X74951765Y-133054345D01*
X74951762Y-133054346D01*
X74789359Y-133126652D01*
X74789357Y-133126653D01*
X74783329Y-133129337D01*
X74628828Y-133241589D01*
X74501041Y-133383511D01*
X74405554Y-133548899D01*
X74346539Y-133730527D01*
X74326577Y-133920455D01*
X64119814Y-133920455D01*
X63247959Y-132881417D01*
X63245738Y-132878694D01*
X62389489Y-131798377D01*
X62387342Y-131795589D01*
X61561581Y-130691772D01*
X61559513Y-130688925D01*
X60764914Y-129562508D01*
X60762926Y-129559605D01*
X60365960Y-128962123D01*
X69209975Y-128962123D01*
X69229937Y-129152051D01*
X69288952Y-129333679D01*
X69384439Y-129499067D01*
X69388857Y-129503974D01*
X69388858Y-129503975D01*
X69440261Y-129561064D01*
X69512226Y-129640989D01*
X69666727Y-129753241D01*
X69672755Y-129755925D01*
X69672757Y-129755926D01*
X69835158Y-129828231D01*
X69841191Y-129830917D01*
X69934592Y-129850770D01*
X70021535Y-129869251D01*
X70021540Y-129869251D01*
X70027992Y-129870623D01*
X70218966Y-129870623D01*
X70225418Y-129869251D01*
X70225423Y-129869251D01*
X70312366Y-129850770D01*
X70405767Y-129830917D01*
X70411800Y-129828231D01*
X70574201Y-129755926D01*
X70574203Y-129755925D01*
X70580231Y-129753241D01*
X70734732Y-129640989D01*
X70806697Y-129561064D01*
X70858100Y-129503975D01*
X70858101Y-129503974D01*
X70862519Y-129499067D01*
X70958006Y-129333679D01*
X71017021Y-129152051D01*
X71036983Y-128962123D01*
X71036983Y-128962122D01*
X132163018Y-128962122D01*
X132182980Y-129152050D01*
X132241995Y-129333678D01*
X132337482Y-129499066D01*
X132465269Y-129640988D01*
X132619770Y-129753240D01*
X132625798Y-129755924D01*
X132625800Y-129755925D01*
X132788203Y-129828231D01*
X132794234Y-129830916D01*
X132887634Y-129850769D01*
X132974578Y-129869250D01*
X132974583Y-129869250D01*
X132981035Y-129870622D01*
X133172009Y-129870622D01*
X133178461Y-129869250D01*
X133178466Y-129869250D01*
X133265410Y-129850769D01*
X133358810Y-129830916D01*
X133364841Y-129828231D01*
X133527244Y-129755925D01*
X133527246Y-129755924D01*
X133533274Y-129753240D01*
X133687775Y-129640988D01*
X133815562Y-129499066D01*
X133911049Y-129333678D01*
X133970064Y-129152050D01*
X133990026Y-128962122D01*
X133970064Y-128772194D01*
X133911049Y-128590566D01*
X133815562Y-128425178D01*
X133801853Y-128409952D01*
X133692197Y-128288167D01*
X133692196Y-128288166D01*
X133687775Y-128283256D01*
X133533274Y-128171004D01*
X133527246Y-128168320D01*
X133527244Y-128168319D01*
X133364841Y-128096013D01*
X133364840Y-128096013D01*
X133358810Y-128093328D01*
X133265410Y-128073475D01*
X133178466Y-128054994D01*
X133178461Y-128054994D01*
X133172009Y-128053622D01*
X132981035Y-128053622D01*
X132974583Y-128054994D01*
X132974578Y-128054994D01*
X132887634Y-128073475D01*
X132794234Y-128093328D01*
X132788204Y-128096013D01*
X132788203Y-128096013D01*
X132625800Y-128168319D01*
X132625798Y-128168320D01*
X132619770Y-128171004D01*
X132465269Y-128283256D01*
X132460848Y-128288166D01*
X132460847Y-128288167D01*
X132351192Y-128409952D01*
X132337482Y-128425178D01*
X132241995Y-128590566D01*
X132182980Y-128772194D01*
X132163018Y-128962122D01*
X71036983Y-128962122D01*
X71017021Y-128772195D01*
X70958006Y-128590567D01*
X70862519Y-128425179D01*
X70734732Y-128283257D01*
X70580231Y-128171005D01*
X70574203Y-128168321D01*
X70574201Y-128168320D01*
X70411798Y-128096014D01*
X70411795Y-128096013D01*
X70405767Y-128093329D01*
X70312367Y-128073476D01*
X70225423Y-128054995D01*
X70225418Y-128054995D01*
X70218966Y-128053623D01*
X70027992Y-128053623D01*
X70021540Y-128054995D01*
X70021535Y-128054995D01*
X69934591Y-128073476D01*
X69841191Y-128093329D01*
X69835163Y-128096013D01*
X69835160Y-128096014D01*
X69672757Y-128168320D01*
X69672755Y-128168321D01*
X69666727Y-128171005D01*
X69512226Y-128283257D01*
X69384439Y-128425179D01*
X69288952Y-128590567D01*
X69229937Y-128772195D01*
X69209975Y-128962123D01*
X60365960Y-128962123D01*
X60239771Y-128772194D01*
X60000066Y-128411410D01*
X59998171Y-128408469D01*
X59919930Y-128283256D01*
X59267674Y-127239428D01*
X59265851Y-127236418D01*
X58568286Y-126047448D01*
X58566548Y-126044389D01*
X57902431Y-124836365D01*
X57900780Y-124833258D01*
X57414982Y-123887998D01*
X57270694Y-123607243D01*
X57269132Y-123604099D01*
X57258797Y-123582527D01*
X57078036Y-123205249D01*
X65011990Y-123205249D01*
X65031952Y-123395177D01*
X65090967Y-123576805D01*
X65186454Y-123742193D01*
X65314241Y-123884115D01*
X65468742Y-123996367D01*
X65474770Y-123999051D01*
X65474772Y-123999052D01*
X65637173Y-124071357D01*
X65643206Y-124074043D01*
X65736606Y-124093896D01*
X65823550Y-124112377D01*
X65823555Y-124112377D01*
X65830007Y-124113749D01*
X66020981Y-124113749D01*
X66027433Y-124112377D01*
X66027438Y-124112377D01*
X66114382Y-124093896D01*
X66207782Y-124074043D01*
X66213815Y-124071357D01*
X66376216Y-123999052D01*
X66376218Y-123999051D01*
X66382246Y-123996367D01*
X66536747Y-123884115D01*
X66664534Y-123742193D01*
X66760021Y-123576805D01*
X66819036Y-123395177D01*
X66838998Y-123205249D01*
X66838998Y-123205248D01*
X136361002Y-123205248D01*
X136380964Y-123395176D01*
X136439979Y-123576804D01*
X136535466Y-123742192D01*
X136663253Y-123884114D01*
X136817754Y-123996366D01*
X136823782Y-123999050D01*
X136823784Y-123999051D01*
X136960825Y-124060065D01*
X136992218Y-124074042D01*
X137085619Y-124093895D01*
X137172562Y-124112376D01*
X137172567Y-124112376D01*
X137179019Y-124113748D01*
X137369993Y-124113748D01*
X137376445Y-124112376D01*
X137376450Y-124112376D01*
X137463393Y-124093895D01*
X137556794Y-124074042D01*
X137588187Y-124060065D01*
X137725228Y-123999051D01*
X137725230Y-123999050D01*
X137731258Y-123996366D01*
X137885759Y-123884114D01*
X138013546Y-123742192D01*
X138109033Y-123576804D01*
X138168048Y-123395176D01*
X138188010Y-123205248D01*
X138168048Y-123015320D01*
X138109033Y-122833692D01*
X138013546Y-122668304D01*
X137885759Y-122526382D01*
X137731258Y-122414130D01*
X137725230Y-122411446D01*
X137725228Y-122411445D01*
X137562825Y-122339139D01*
X137562824Y-122339139D01*
X137556794Y-122336454D01*
X137463393Y-122316601D01*
X137376450Y-122298120D01*
X137376445Y-122298120D01*
X137369993Y-122296748D01*
X137179019Y-122296748D01*
X137172567Y-122298120D01*
X137172562Y-122298120D01*
X137085619Y-122316601D01*
X136992218Y-122336454D01*
X136986188Y-122339139D01*
X136986187Y-122339139D01*
X136823784Y-122411445D01*
X136823782Y-122411446D01*
X136817754Y-122414130D01*
X136663253Y-122526382D01*
X136535466Y-122668304D01*
X136439979Y-122833692D01*
X136380964Y-123015320D01*
X136361002Y-123205248D01*
X66838998Y-123205248D01*
X66819036Y-123015321D01*
X66760021Y-122833693D01*
X66664534Y-122668305D01*
X66536747Y-122526383D01*
X66382246Y-122414131D01*
X66376218Y-122411447D01*
X66376216Y-122411446D01*
X66213813Y-122339140D01*
X66213810Y-122339139D01*
X66207782Y-122336455D01*
X66114382Y-122316602D01*
X66027438Y-122298121D01*
X66027433Y-122298121D01*
X66020981Y-122296749D01*
X65830007Y-122296749D01*
X65823555Y-122298121D01*
X65823550Y-122298121D01*
X65736606Y-122316602D01*
X65643206Y-122336455D01*
X65637178Y-122339139D01*
X65637175Y-122339140D01*
X65474772Y-122411446D01*
X65474770Y-122411447D01*
X65468742Y-122414131D01*
X65314241Y-122526383D01*
X65186454Y-122668305D01*
X65090967Y-122833693D01*
X65031952Y-123015321D01*
X65011990Y-123205249D01*
X57078036Y-123205249D01*
X56984029Y-123009042D01*
X56673494Y-122360905D01*
X56672018Y-122357711D01*
X56111327Y-121098380D01*
X56109941Y-121095146D01*
X55584632Y-119820648D01*
X55583337Y-119817377D01*
X55477091Y-119537684D01*
X55093805Y-118528675D01*
X55092621Y-118525420D01*
X54866506Y-117876104D01*
X54639287Y-117223622D01*
X54638177Y-117220286D01*
X54510514Y-116817843D01*
X61855138Y-116817843D01*
X61875100Y-117007771D01*
X61934115Y-117189399D01*
X62029602Y-117354787D01*
X62157389Y-117496709D01*
X62311890Y-117608961D01*
X62317918Y-117611645D01*
X62317920Y-117611646D01*
X62480323Y-117683952D01*
X62486354Y-117686637D01*
X62579755Y-117706490D01*
X62666698Y-117724971D01*
X62666703Y-117724971D01*
X62673155Y-117726343D01*
X62864129Y-117726343D01*
X62870581Y-117724971D01*
X62870586Y-117724971D01*
X62957529Y-117706490D01*
X63050930Y-117686637D01*
X63056961Y-117683952D01*
X63219364Y-117611646D01*
X63219366Y-117611645D01*
X63225394Y-117608961D01*
X63379895Y-117496709D01*
X63507682Y-117354787D01*
X63603169Y-117189399D01*
X63662184Y-117007771D01*
X63682146Y-116817843D01*
X139517855Y-116817843D01*
X139537817Y-117007771D01*
X139596832Y-117189399D01*
X139692319Y-117354787D01*
X139820106Y-117496709D01*
X139974607Y-117608961D01*
X139980635Y-117611645D01*
X139980637Y-117611646D01*
X140143040Y-117683952D01*
X140149071Y-117686637D01*
X140242472Y-117706490D01*
X140329415Y-117724971D01*
X140329420Y-117724971D01*
X140335872Y-117726343D01*
X140526846Y-117726343D01*
X140533298Y-117724971D01*
X140533303Y-117724971D01*
X140620246Y-117706490D01*
X140713647Y-117686637D01*
X140719678Y-117683952D01*
X140882081Y-117611646D01*
X140882083Y-117611645D01*
X140888111Y-117608961D01*
X141042612Y-117496709D01*
X141170399Y-117354787D01*
X141265886Y-117189399D01*
X141324901Y-117007771D01*
X141344863Y-116817843D01*
X141324901Y-116627915D01*
X141265886Y-116446287D01*
X141170399Y-116280899D01*
X141097556Y-116199998D01*
X141047034Y-116143888D01*
X141047033Y-116143887D01*
X141042612Y-116138977D01*
X140888111Y-116026725D01*
X140882083Y-116024041D01*
X140882081Y-116024040D01*
X140719678Y-115951734D01*
X140719677Y-115951734D01*
X140713647Y-115949049D01*
X140620247Y-115929196D01*
X140533303Y-115910715D01*
X140533298Y-115910715D01*
X140526846Y-115909343D01*
X140335872Y-115909343D01*
X140329420Y-115910715D01*
X140329415Y-115910715D01*
X140242471Y-115929196D01*
X140149071Y-115949049D01*
X140143041Y-115951734D01*
X140143040Y-115951734D01*
X139980637Y-116024040D01*
X139980635Y-116024041D01*
X139974607Y-116026725D01*
X139820106Y-116138977D01*
X139815685Y-116143887D01*
X139815684Y-116143888D01*
X139765163Y-116199998D01*
X139692319Y-116280899D01*
X139596832Y-116446287D01*
X139537817Y-116627915D01*
X139517855Y-116817843D01*
X63682146Y-116817843D01*
X63662184Y-116627915D01*
X63603169Y-116446287D01*
X63507682Y-116280899D01*
X63434839Y-116199998D01*
X63384317Y-116143888D01*
X63384316Y-116143887D01*
X63379895Y-116138977D01*
X63225394Y-116026725D01*
X63219366Y-116024041D01*
X63219364Y-116024040D01*
X63056961Y-115951734D01*
X63056960Y-115951734D01*
X63050930Y-115949049D01*
X62957530Y-115929196D01*
X62870586Y-115910715D01*
X62870581Y-115910715D01*
X62864129Y-115909343D01*
X62673155Y-115909343D01*
X62666703Y-115910715D01*
X62666698Y-115910715D01*
X62579754Y-115929196D01*
X62486354Y-115949049D01*
X62480324Y-115951734D01*
X62480323Y-115951734D01*
X62317920Y-116024040D01*
X62317918Y-116024041D01*
X62311890Y-116026725D01*
X62157389Y-116138977D01*
X62152968Y-116143887D01*
X62152967Y-116143888D01*
X62102446Y-116199998D01*
X62029602Y-116280899D01*
X61934115Y-116446287D01*
X61875100Y-116627915D01*
X61855138Y-116817843D01*
X54510514Y-116817843D01*
X54221344Y-115906264D01*
X54220335Y-115902920D01*
X54185863Y-115782699D01*
X53840364Y-114577804D01*
X53839445Y-114574419D01*
X53825677Y-114520794D01*
X53600637Y-113644324D01*
X53496635Y-113239261D01*
X53495807Y-113235841D01*
X53383354Y-112740876D01*
X73997673Y-112740876D01*
X74003752Y-112998833D01*
X74004586Y-113003537D01*
X74046057Y-113237536D01*
X74048780Y-113252903D01*
X74050318Y-113257433D01*
X74050318Y-113257434D01*
X74058146Y-113280495D01*
X74131721Y-113497238D01*
X74133925Y-113501480D01*
X74133925Y-113501481D01*
X74235063Y-113696179D01*
X74250666Y-113726217D01*
X74253492Y-113730085D01*
X74253493Y-113730087D01*
X74323454Y-113825852D01*
X74402877Y-113934569D01*
X74406248Y-113937958D01*
X74406250Y-113937960D01*
X74581477Y-114114107D01*
X74581482Y-114114111D01*
X74584853Y-114117500D01*
X74792405Y-114270800D01*
X74796635Y-114273026D01*
X74796639Y-114273028D01*
X75006033Y-114383195D01*
X75020758Y-114390942D01*
X75264656Y-114475161D01*
X75518486Y-114521519D01*
X75601050Y-114525846D01*
X75761896Y-114525846D01*
X75764275Y-114525665D01*
X75764276Y-114525665D01*
X75948802Y-114511629D01*
X75948807Y-114511628D01*
X75953569Y-114511266D01*
X75958222Y-114510187D01*
X75958225Y-114510187D01*
X76067137Y-114484942D01*
X76138015Y-114489046D01*
X76195422Y-114530817D01*
X76221133Y-114596995D01*
X76221415Y-114614276D01*
X76212511Y-114784184D01*
X76243005Y-114985818D01*
X76313420Y-115177202D01*
X76420881Y-115350518D01*
X76560997Y-115498687D01*
X76566227Y-115502349D01*
X76566228Y-115502350D01*
X76722811Y-115611990D01*
X76728044Y-115615654D01*
X76915199Y-115696643D01*
X76921447Y-115697948D01*
X76921446Y-115697948D01*
X77110071Y-115737355D01*
X77110075Y-115737355D01*
X77114816Y-115738346D01*
X77119653Y-115738599D01*
X77119657Y-115738600D01*
X77119723Y-115738603D01*
X77121495Y-115738696D01*
X77271250Y-115738696D01*
X77343896Y-115731317D01*
X77416817Y-115723910D01*
X77416818Y-115723910D01*
X77423166Y-115723265D01*
X77617761Y-115662282D01*
X77796120Y-115563417D01*
X77950956Y-115430706D01*
X78075944Y-115269572D01*
X78078757Y-115263855D01*
X78078764Y-115263844D01*
X78120710Y-115178598D01*
X78168732Y-115126307D01*
X78237402Y-115108281D01*
X78304917Y-115130241D01*
X78345388Y-115177114D01*
X78345420Y-115177202D01*
X78452881Y-115350518D01*
X78592997Y-115498687D01*
X78598227Y-115502349D01*
X78598228Y-115502350D01*
X78754811Y-115611990D01*
X78760044Y-115615654D01*
X78947199Y-115696643D01*
X78953447Y-115697948D01*
X78953446Y-115697948D01*
X79142071Y-115737355D01*
X79142075Y-115737355D01*
X79146816Y-115738346D01*
X79151653Y-115738599D01*
X79151657Y-115738600D01*
X79151723Y-115738603D01*
X79153495Y-115738696D01*
X79303250Y-115738696D01*
X79375896Y-115731317D01*
X79448817Y-115723910D01*
X79448818Y-115723910D01*
X79455166Y-115723265D01*
X79649761Y-115662282D01*
X79828120Y-115563417D01*
X79982956Y-115430706D01*
X80107944Y-115269572D01*
X80110757Y-115263855D01*
X80110764Y-115263844D01*
X80159031Y-115165752D01*
X80207053Y-115113461D01*
X80275723Y-115095435D01*
X80343238Y-115117395D01*
X80388162Y-115172371D01*
X80391917Y-115182443D01*
X80449756Y-115360452D01*
X80545243Y-115525840D01*
X80673030Y-115667762D01*
X80827531Y-115780014D01*
X80833559Y-115782698D01*
X80833561Y-115782699D01*
X80995964Y-115855005D01*
X81001995Y-115857690D01*
X81095395Y-115877543D01*
X81182339Y-115896024D01*
X81182344Y-115896024D01*
X81188796Y-115897396D01*
X81379770Y-115897396D01*
X81386222Y-115896024D01*
X81386227Y-115896024D01*
X81473171Y-115877543D01*
X81566571Y-115857690D01*
X81572602Y-115855005D01*
X81735005Y-115782699D01*
X81735007Y-115782698D01*
X81741035Y-115780014D01*
X81895536Y-115667762D01*
X82023323Y-115525840D01*
X82118810Y-115360452D01*
X82177825Y-115178824D01*
X82184282Y-115117395D01*
X82197097Y-114995461D01*
X82197787Y-114988896D01*
X82196800Y-114979501D01*
X82178515Y-114805531D01*
X82178515Y-114805529D01*
X82177825Y-114798968D01*
X82118810Y-114617340D01*
X82094030Y-114574419D01*
X82063069Y-114520794D01*
X82023323Y-114451952D01*
X82002074Y-114428352D01*
X81899958Y-114314941D01*
X81899957Y-114314940D01*
X81895536Y-114310030D01*
X81890192Y-114306147D01*
X81885285Y-114301729D01*
X81887279Y-114299515D01*
X81851906Y-114253322D01*
X81846069Y-114182565D01*
X81879412Y-114119886D01*
X81889924Y-114110291D01*
X81943423Y-114066737D01*
X81943429Y-114066731D01*
X81947134Y-114063715D01*
X82120290Y-113872415D01*
X82149978Y-113827477D01*
X82259880Y-113661117D01*
X82262518Y-113657124D01*
X82265285Y-113651123D01*
X82368538Y-113427148D01*
X82368539Y-113427145D01*
X82370544Y-113422796D01*
X82409461Y-113287523D01*
X82414545Y-113269851D01*
X83568719Y-113269851D01*
X83569235Y-113275995D01*
X83581562Y-113422796D01*
X83585268Y-113466934D01*
X83589074Y-113480206D01*
X83636134Y-113644324D01*
X83639783Y-113657050D01*
X83642602Y-113662535D01*
X83724014Y-113820944D01*
X83730187Y-113832956D01*
X83853035Y-113987953D01*
X83857728Y-113991947D01*
X83857729Y-113991948D01*
X83988051Y-114102860D01*
X84003650Y-114116136D01*
X84176294Y-114212624D01*
X84364392Y-114273740D01*
X84560777Y-114297158D01*
X84566912Y-114296686D01*
X84566914Y-114296686D01*
X84751830Y-114282457D01*
X84751834Y-114282456D01*
X84757972Y-114281984D01*
X84948463Y-114228798D01*
X84953967Y-114226018D01*
X84953969Y-114226017D01*
X85119493Y-114142405D01*
X85119495Y-114142404D01*
X85124996Y-114139625D01*
X85129850Y-114135833D01*
X85129859Y-114135827D01*
X85138548Y-114129038D01*
X85204542Y-114102860D01*
X85277592Y-114118339D01*
X85446294Y-114212624D01*
X85634392Y-114273740D01*
X85830777Y-114297158D01*
X85836912Y-114296686D01*
X85836914Y-114296686D01*
X86021830Y-114282457D01*
X86021834Y-114282456D01*
X86027972Y-114281984D01*
X86218463Y-114228798D01*
X86223967Y-114226018D01*
X86223969Y-114226017D01*
X86389495Y-114142404D01*
X86389497Y-114142403D01*
X86394996Y-114139625D01*
X86550847Y-114017861D01*
X86649749Y-113903282D01*
X86676049Y-113872813D01*
X86676050Y-113872811D01*
X86680078Y-113868145D01*
X86777769Y-113696179D01*
X86840197Y-113508513D01*
X86864985Y-113312295D01*
X86865380Y-113284000D01*
X87732496Y-113284000D01*
X87733186Y-113290565D01*
X87735100Y-113308771D01*
X87752458Y-113473928D01*
X87811473Y-113655556D01*
X87814776Y-113661278D01*
X87814777Y-113661279D01*
X87834927Y-113696179D01*
X87906960Y-113820944D01*
X87911378Y-113825851D01*
X87911379Y-113825852D01*
X88030325Y-113957955D01*
X88034747Y-113962866D01*
X88110441Y-114017861D01*
X88177713Y-114066737D01*
X88189248Y-114075118D01*
X88195276Y-114077802D01*
X88195278Y-114077803D01*
X88357681Y-114150109D01*
X88363712Y-114152794D01*
X88457112Y-114172647D01*
X88544056Y-114191128D01*
X88544061Y-114191128D01*
X88550513Y-114192500D01*
X88741487Y-114192500D01*
X88747939Y-114191128D01*
X88747944Y-114191128D01*
X88834888Y-114172647D01*
X88928288Y-114152794D01*
X88934319Y-114150109D01*
X89096722Y-114077803D01*
X89096724Y-114077802D01*
X89102752Y-114075118D01*
X89114288Y-114066737D01*
X89181559Y-114017861D01*
X89257253Y-113962866D01*
X89261675Y-113957955D01*
X89380621Y-113825852D01*
X89380622Y-113825851D01*
X89385040Y-113820944D01*
X89457073Y-113696179D01*
X89477223Y-113661279D01*
X89477224Y-113661278D01*
X89480527Y-113655556D01*
X89539542Y-113473928D01*
X89556901Y-113308771D01*
X89558814Y-113290565D01*
X89559504Y-113284000D01*
X89554802Y-113239261D01*
X89540232Y-113100635D01*
X89540232Y-113100633D01*
X89539542Y-113094072D01*
X89480527Y-112912444D01*
X89385040Y-112747056D01*
X89257253Y-112605134D01*
X89102752Y-112492882D01*
X89096724Y-112490198D01*
X89096722Y-112490197D01*
X88934319Y-112417891D01*
X88934318Y-112417891D01*
X88928288Y-112415206D01*
X88821630Y-112392535D01*
X88747944Y-112376872D01*
X88747939Y-112376872D01*
X88741487Y-112375500D01*
X88550513Y-112375500D01*
X88544061Y-112376872D01*
X88544056Y-112376872D01*
X88470370Y-112392535D01*
X88363712Y-112415206D01*
X88357682Y-112417891D01*
X88357681Y-112417891D01*
X88195278Y-112490197D01*
X88195276Y-112490198D01*
X88189248Y-112492882D01*
X88034747Y-112605134D01*
X87906960Y-112747056D01*
X87811473Y-112912444D01*
X87752458Y-113094072D01*
X87751768Y-113100633D01*
X87751768Y-113100635D01*
X87737198Y-113239261D01*
X87732496Y-113284000D01*
X86865380Y-113284000D01*
X86846080Y-113087167D01*
X86788916Y-112897831D01*
X86696066Y-112723204D01*
X86692170Y-112718427D01*
X86691404Y-112717274D01*
X86670366Y-112649466D01*
X86686795Y-112585308D01*
X86774262Y-112431337D01*
X86779256Y-112420121D01*
X86824142Y-112285190D01*
X86824643Y-112271097D01*
X86818454Y-112268000D01*
X85724000Y-112268000D01*
X85655879Y-112247998D01*
X85609386Y-112194342D01*
X85598000Y-112142000D01*
X85598000Y-111886000D01*
X85618002Y-111817879D01*
X85671658Y-111771386D01*
X85724000Y-111760000D01*
X86810183Y-111760000D01*
X86823714Y-111756027D01*
X86824806Y-111748433D01*
X86790231Y-111633919D01*
X86785560Y-111622586D01*
X86698537Y-111458918D01*
X86691435Y-111448228D01*
X86670398Y-111380420D01*
X86686827Y-111316264D01*
X86693677Y-111304207D01*
X86743819Y-111215942D01*
X86774723Y-111161542D01*
X86774725Y-111161537D01*
X86777769Y-111156179D01*
X86840197Y-110968513D01*
X86864985Y-110772295D01*
X86865380Y-110744000D01*
X86846080Y-110547167D01*
X86838863Y-110523261D01*
X86808395Y-110422350D01*
X86788916Y-110357831D01*
X86696066Y-110183204D01*
X86613880Y-110082434D01*
X86574960Y-110034713D01*
X86574957Y-110034710D01*
X86571065Y-110029938D01*
X86566316Y-110026009D01*
X86423425Y-109907799D01*
X86423421Y-109907797D01*
X86418675Y-109903870D01*
X86244701Y-109809802D01*
X86055768Y-109751318D01*
X86049643Y-109750674D01*
X86049642Y-109750674D01*
X85865204Y-109731289D01*
X85865202Y-109731289D01*
X85859075Y-109730645D01*
X85776576Y-109738153D01*
X85668251Y-109748011D01*
X85668248Y-109748012D01*
X85662112Y-109748570D01*
X85656206Y-109750308D01*
X85656202Y-109750309D01*
X85520551Y-109790233D01*
X85472381Y-109804410D01*
X85466797Y-109807329D01*
X85466727Y-109807343D01*
X85461209Y-109809573D01*
X85460785Y-109808524D01*
X85397164Y-109821165D01*
X85344846Y-109801096D01*
X85343760Y-109803079D01*
X85335892Y-109798771D01*
X85328705Y-109793385D01*
X85192316Y-109742255D01*
X85130134Y-109735500D01*
X84033866Y-109735500D01*
X83971684Y-109742255D01*
X83835295Y-109793385D01*
X83718739Y-109880739D01*
X83631385Y-109997295D01*
X83580255Y-110133684D01*
X83573500Y-110195866D01*
X83573500Y-111292134D01*
X83580255Y-111354316D01*
X83631385Y-111490705D01*
X83636771Y-111497892D01*
X83641079Y-111505760D01*
X83638858Y-111506976D01*
X83659013Y-111560910D01*
X83649993Y-111614605D01*
X83650567Y-111614787D01*
X83648706Y-111620654D01*
X83648705Y-111620656D01*
X83600891Y-111771386D01*
X83590765Y-111803306D01*
X83568719Y-111999851D01*
X83585268Y-112196934D01*
X83639783Y-112387050D01*
X83730187Y-112562956D01*
X83734016Y-112567787D01*
X83735839Y-112570088D01*
X83736414Y-112571509D01*
X83737353Y-112572966D01*
X83737076Y-112573144D01*
X83762474Y-112635898D01*
X83749301Y-112705662D01*
X83745846Y-112711474D01*
X83650567Y-112884787D01*
X83648706Y-112890654D01*
X83648705Y-112890656D01*
X83638238Y-112923653D01*
X83590765Y-113073306D01*
X83568719Y-113269851D01*
X82414545Y-113269851D01*
X82440562Y-113179418D01*
X82440563Y-113179413D01*
X82441883Y-113174825D01*
X82452300Y-113094072D01*
X82474282Y-112923653D01*
X82474893Y-112918916D01*
X82470141Y-112717274D01*
X82468927Y-112665738D01*
X82468927Y-112665733D01*
X82468814Y-112660959D01*
X82439026Y-112492882D01*
X82424621Y-112411598D01*
X82424620Y-112411592D01*
X82423786Y-112406889D01*
X82418914Y-112392535D01*
X82342382Y-112167082D01*
X82340845Y-112162554D01*
X82309567Y-112102341D01*
X82224109Y-111937827D01*
X82224107Y-111937824D01*
X82221900Y-111933575D01*
X82069689Y-111725223D01*
X82048238Y-111703659D01*
X81891089Y-111545685D01*
X81891084Y-111545681D01*
X81887713Y-111542292D01*
X81680161Y-111388992D01*
X81675930Y-111386766D01*
X81675922Y-111386761D01*
X81612945Y-111353627D01*
X81561972Y-111304207D01*
X81545810Y-111235075D01*
X81569589Y-111168179D01*
X81607758Y-111133498D01*
X81671884Y-111095800D01*
X81747033Y-111051622D01*
X81750744Y-111048601D01*
X81750748Y-111048598D01*
X81943422Y-110891737D01*
X81947134Y-110888715D01*
X82120290Y-110697415D01*
X82141584Y-110665183D01*
X82259880Y-110486117D01*
X82262518Y-110482124D01*
X82293901Y-110414050D01*
X82368538Y-110252148D01*
X82368539Y-110252145D01*
X82370544Y-110247796D01*
X82389127Y-110183204D01*
X82440562Y-110004418D01*
X82440563Y-110004413D01*
X82441883Y-109999825D01*
X82443137Y-109990109D01*
X82474282Y-109748653D01*
X82474893Y-109743916D01*
X82471437Y-109597279D01*
X82468927Y-109490738D01*
X82468927Y-109490733D01*
X82468814Y-109485959D01*
X82438464Y-109314708D01*
X82424621Y-109236598D01*
X82424620Y-109236592D01*
X82423786Y-109231889D01*
X82412649Y-109199079D01*
X82342382Y-108992082D01*
X82340845Y-108987554D01*
X82268583Y-108848444D01*
X82224109Y-108762827D01*
X82224107Y-108762824D01*
X82221900Y-108758575D01*
X82069689Y-108550223D01*
X82065533Y-108546045D01*
X81927413Y-108407200D01*
X83389096Y-108407200D01*
X83389786Y-108413765D01*
X83397391Y-108486118D01*
X83409058Y-108597128D01*
X83468073Y-108778756D01*
X83563560Y-108944144D01*
X83567978Y-108949051D01*
X83567979Y-108949052D01*
X83685154Y-109079188D01*
X83691347Y-109086066D01*
X83738356Y-109120220D01*
X83837860Y-109192514D01*
X83845848Y-109198318D01*
X83851876Y-109201002D01*
X83851878Y-109201003D01*
X84014281Y-109273309D01*
X84020312Y-109275994D01*
X84113712Y-109295847D01*
X84200656Y-109314328D01*
X84200661Y-109314328D01*
X84207113Y-109315700D01*
X84398087Y-109315700D01*
X84404539Y-109314328D01*
X84404544Y-109314328D01*
X84491488Y-109295847D01*
X84584888Y-109275994D01*
X84590919Y-109273309D01*
X84710654Y-109220000D01*
X137770496Y-109220000D01*
X137771186Y-109226565D01*
X137780204Y-109312362D01*
X137790458Y-109409928D01*
X137849473Y-109591556D01*
X137852776Y-109597278D01*
X137852777Y-109597279D01*
X137866499Y-109621046D01*
X137944960Y-109756944D01*
X137949378Y-109761851D01*
X137949379Y-109761852D01*
X138051580Y-109875358D01*
X138072747Y-109898866D01*
X138171843Y-109970864D01*
X138211705Y-109999825D01*
X138227248Y-110011118D01*
X138233276Y-110013802D01*
X138233278Y-110013803D01*
X138377250Y-110077903D01*
X138401712Y-110088794D01*
X138464326Y-110102103D01*
X138582056Y-110127128D01*
X138582061Y-110127128D01*
X138588513Y-110128500D01*
X138779487Y-110128500D01*
X138785939Y-110127128D01*
X138785944Y-110127128D01*
X138903674Y-110102103D01*
X138966288Y-110088794D01*
X138990750Y-110077903D01*
X139134722Y-110013803D01*
X139134724Y-110013802D01*
X139140752Y-110011118D01*
X139156296Y-109999825D01*
X139174889Y-109986316D01*
X141541445Y-109986316D01*
X141542135Y-109992881D01*
X141557760Y-110141540D01*
X141561407Y-110176244D01*
X141620422Y-110357872D01*
X141715909Y-110523260D01*
X141720327Y-110528167D01*
X141720328Y-110528168D01*
X141837777Y-110658608D01*
X141843696Y-110665182D01*
X141998197Y-110777434D01*
X142004225Y-110780118D01*
X142004227Y-110780119D01*
X142166630Y-110852425D01*
X142172661Y-110855110D01*
X142266061Y-110874963D01*
X142353005Y-110893444D01*
X142353010Y-110893444D01*
X142359462Y-110894816D01*
X142550436Y-110894816D01*
X142556888Y-110893444D01*
X142556893Y-110893444D01*
X142643836Y-110874963D01*
X142737237Y-110855110D01*
X142743268Y-110852425D01*
X142905671Y-110780119D01*
X142905673Y-110780118D01*
X142911701Y-110777434D01*
X143066202Y-110665182D01*
X143072121Y-110658608D01*
X143189570Y-110528168D01*
X143189571Y-110528167D01*
X143193989Y-110523260D01*
X143289476Y-110357872D01*
X143348491Y-110176244D01*
X143352139Y-110141540D01*
X143367763Y-109992881D01*
X143368453Y-109986316D01*
X143349767Y-109808524D01*
X143349181Y-109802951D01*
X143349181Y-109802949D01*
X143348491Y-109796388D01*
X143289476Y-109614760D01*
X143272451Y-109585271D01*
X143217872Y-109490738D01*
X143193989Y-109449372D01*
X143066202Y-109307450D01*
X142936802Y-109213435D01*
X142917043Y-109199079D01*
X142917042Y-109199078D01*
X142911701Y-109195198D01*
X142905673Y-109192514D01*
X142905671Y-109192513D01*
X142743268Y-109120207D01*
X142743267Y-109120207D01*
X142737237Y-109117522D01*
X142643836Y-109097669D01*
X142556893Y-109079188D01*
X142556888Y-109079188D01*
X142550436Y-109077816D01*
X142359462Y-109077816D01*
X142353010Y-109079188D01*
X142353005Y-109079188D01*
X142266061Y-109097669D01*
X142172661Y-109117522D01*
X142166631Y-109120207D01*
X142166630Y-109120207D01*
X142004227Y-109192513D01*
X142004225Y-109192514D01*
X141998197Y-109195198D01*
X141992856Y-109199078D01*
X141992855Y-109199079D01*
X141973096Y-109213435D01*
X141843696Y-109307450D01*
X141715909Y-109449372D01*
X141692026Y-109490738D01*
X141637448Y-109585271D01*
X141620422Y-109614760D01*
X141561407Y-109796388D01*
X141560717Y-109802949D01*
X141560717Y-109802951D01*
X141560131Y-109808524D01*
X141541445Y-109986316D01*
X139174889Y-109986316D01*
X139196157Y-109970864D01*
X139295253Y-109898866D01*
X139316420Y-109875358D01*
X139418621Y-109761852D01*
X139418622Y-109761851D01*
X139423040Y-109756944D01*
X139501501Y-109621046D01*
X139515223Y-109597279D01*
X139515224Y-109597278D01*
X139518527Y-109591556D01*
X139577542Y-109409928D01*
X139587797Y-109312362D01*
X139596814Y-109226565D01*
X139597504Y-109220000D01*
X139587016Y-109120208D01*
X139578232Y-109036635D01*
X139578232Y-109036633D01*
X139577542Y-109030072D01*
X139518527Y-108848444D01*
X139423040Y-108683056D01*
X139359401Y-108612377D01*
X139299675Y-108546045D01*
X139299674Y-108546044D01*
X139295253Y-108541134D01*
X139140752Y-108428882D01*
X139134724Y-108426198D01*
X139134722Y-108426197D01*
X138972319Y-108353891D01*
X138972318Y-108353891D01*
X138966288Y-108351206D01*
X138872888Y-108331353D01*
X138785944Y-108312872D01*
X138785939Y-108312872D01*
X138779487Y-108311500D01*
X138588513Y-108311500D01*
X138582061Y-108312872D01*
X138582056Y-108312872D01*
X138495112Y-108331353D01*
X138401712Y-108351206D01*
X138395682Y-108353891D01*
X138395681Y-108353891D01*
X138233278Y-108426197D01*
X138233276Y-108426198D01*
X138227248Y-108428882D01*
X138072747Y-108541134D01*
X138068326Y-108546044D01*
X138068325Y-108546045D01*
X138008600Y-108612377D01*
X137944960Y-108683056D01*
X137849473Y-108848444D01*
X137790458Y-109030072D01*
X137789768Y-109036633D01*
X137789768Y-109036635D01*
X137780984Y-109120208D01*
X137770496Y-109220000D01*
X84710654Y-109220000D01*
X84753322Y-109201003D01*
X84753324Y-109201002D01*
X84759352Y-109198318D01*
X84767341Y-109192514D01*
X84866844Y-109120220D01*
X84913853Y-109086066D01*
X84920046Y-109079188D01*
X85037221Y-108949052D01*
X85037222Y-108949051D01*
X85041640Y-108944144D01*
X85137127Y-108778756D01*
X85196142Y-108597128D01*
X85207810Y-108486118D01*
X85215414Y-108413765D01*
X85216104Y-108407200D01*
X85196142Y-108217272D01*
X85137127Y-108035644D01*
X85124673Y-108014072D01*
X85044941Y-107875974D01*
X85041640Y-107870256D01*
X84981020Y-107802930D01*
X84918275Y-107733245D01*
X84918274Y-107733244D01*
X84913853Y-107728334D01*
X84759352Y-107616082D01*
X84753324Y-107613398D01*
X84753322Y-107613397D01*
X84590919Y-107541091D01*
X84590918Y-107541091D01*
X84584888Y-107538406D01*
X84491488Y-107518553D01*
X84404544Y-107500072D01*
X84404539Y-107500072D01*
X84398087Y-107498700D01*
X84207113Y-107498700D01*
X84200661Y-107500072D01*
X84200656Y-107500072D01*
X84113712Y-107518553D01*
X84020312Y-107538406D01*
X84014282Y-107541091D01*
X84014281Y-107541091D01*
X83851878Y-107613397D01*
X83851876Y-107613398D01*
X83845848Y-107616082D01*
X83691347Y-107728334D01*
X83686926Y-107733244D01*
X83686925Y-107733245D01*
X83624181Y-107802930D01*
X83563560Y-107870256D01*
X83560259Y-107875974D01*
X83480528Y-108014072D01*
X83468073Y-108035644D01*
X83409058Y-108217272D01*
X83389096Y-108407200D01*
X81927413Y-108407200D01*
X81891089Y-108370685D01*
X81891084Y-108370681D01*
X81887713Y-108367292D01*
X81733070Y-108253071D01*
X81684013Y-108216837D01*
X81684012Y-108216836D01*
X81680161Y-108213992D01*
X81675931Y-108211766D01*
X81675927Y-108211764D01*
X81456045Y-108096079D01*
X81456043Y-108096078D01*
X81451808Y-108093850D01*
X81207910Y-108009631D01*
X80954080Y-107963273D01*
X80871516Y-107958946D01*
X80710670Y-107958946D01*
X80708291Y-107959127D01*
X80708290Y-107959127D01*
X80523764Y-107973163D01*
X80523759Y-107973164D01*
X80518997Y-107973526D01*
X80514344Y-107974605D01*
X80514341Y-107974605D01*
X80363231Y-108009631D01*
X80267632Y-108031790D01*
X80027972Y-108127404D01*
X79805533Y-108258170D01*
X79801822Y-108261191D01*
X79801818Y-108261194D01*
X79631068Y-108400206D01*
X79605432Y-108421077D01*
X79432276Y-108612377D01*
X79290048Y-108827668D01*
X79288047Y-108832008D01*
X79288045Y-108832012D01*
X79219091Y-108981586D01*
X79172407Y-109035075D01*
X79104215Y-109054834D01*
X79036166Y-109034589D01*
X79013116Y-109015408D01*
X78899954Y-108895742D01*
X78895569Y-108891105D01*
X78843619Y-108854729D01*
X78733755Y-108777802D01*
X78733754Y-108777801D01*
X78728522Y-108774138D01*
X78541367Y-108693149D01*
X78542281Y-108691037D01*
X78492036Y-108657189D01*
X78463946Y-108591986D01*
X78469189Y-108537819D01*
X78508103Y-108418055D01*
X78515942Y-108393928D01*
X78519041Y-108364448D01*
X78535214Y-108210565D01*
X78535904Y-108204000D01*
X78524163Y-108092286D01*
X78516632Y-108020635D01*
X78516632Y-108020633D01*
X78515942Y-108014072D01*
X78456927Y-107832444D01*
X78361440Y-107667056D01*
X78233653Y-107525134D01*
X78079152Y-107412882D01*
X78073124Y-107410198D01*
X78073122Y-107410197D01*
X77910719Y-107337891D01*
X77910718Y-107337891D01*
X77904688Y-107335206D01*
X77811288Y-107315353D01*
X77724344Y-107296872D01*
X77724339Y-107296872D01*
X77717887Y-107295500D01*
X77526913Y-107295500D01*
X77520461Y-107296872D01*
X77520456Y-107296872D01*
X77433513Y-107315353D01*
X77340112Y-107335206D01*
X77334082Y-107337891D01*
X77334081Y-107337891D01*
X77171678Y-107410197D01*
X77171676Y-107410198D01*
X77165648Y-107412882D01*
X77011147Y-107525134D01*
X76883360Y-107667056D01*
X76787873Y-107832444D01*
X76728858Y-108014072D01*
X76728168Y-108020633D01*
X76728168Y-108020635D01*
X76721638Y-108082770D01*
X76694625Y-108148427D01*
X76636404Y-108189057D01*
X76565459Y-108191760D01*
X76537661Y-108181109D01*
X76376045Y-108096079D01*
X76376043Y-108096078D01*
X76371808Y-108093850D01*
X76127910Y-108009631D01*
X75874080Y-107963273D01*
X75791516Y-107958946D01*
X75630670Y-107958946D01*
X75628291Y-107959127D01*
X75628290Y-107959127D01*
X75443764Y-107973163D01*
X75443759Y-107973164D01*
X75438997Y-107973526D01*
X75434344Y-107974605D01*
X75434341Y-107974605D01*
X75283231Y-108009631D01*
X75187632Y-108031790D01*
X74947972Y-108127404D01*
X74725533Y-108258170D01*
X74721822Y-108261191D01*
X74721818Y-108261194D01*
X74551068Y-108400206D01*
X74525432Y-108421077D01*
X74352276Y-108612377D01*
X74210048Y-108827668D01*
X74208047Y-108832008D01*
X74208045Y-108832012D01*
X74104028Y-109057644D01*
X74102022Y-109061996D01*
X74100698Y-109066597D01*
X74100698Y-109066598D01*
X74040457Y-109275994D01*
X74030683Y-109309967D01*
X74030072Y-109314702D01*
X74030071Y-109314708D01*
X74007365Y-109490738D01*
X73997673Y-109565876D01*
X73998413Y-109597279D01*
X74003362Y-109807264D01*
X74003752Y-109823833D01*
X74017050Y-109898866D01*
X74041126Y-110034713D01*
X74048780Y-110077903D01*
X74131721Y-110322238D01*
X74133925Y-110326480D01*
X74133925Y-110326481D01*
X74242704Y-110535889D01*
X74250666Y-110551217D01*
X74253492Y-110555085D01*
X74253493Y-110555087D01*
X74329114Y-110658600D01*
X74402877Y-110759569D01*
X74406248Y-110762958D01*
X74406250Y-110762960D01*
X74581477Y-110939107D01*
X74581482Y-110939111D01*
X74584853Y-110942500D01*
X74792405Y-111095800D01*
X74796636Y-111098026D01*
X74796644Y-111098031D01*
X74859621Y-111131165D01*
X74910594Y-111180585D01*
X74926756Y-111249717D01*
X74902977Y-111316613D01*
X74864808Y-111351294D01*
X74725533Y-111433170D01*
X74721822Y-111436191D01*
X74721818Y-111436194D01*
X74634876Y-111506976D01*
X74525432Y-111596077D01*
X74352276Y-111787377D01*
X74210048Y-112002668D01*
X74208047Y-112007008D01*
X74208045Y-112007012D01*
X74104028Y-112232644D01*
X74102022Y-112236996D01*
X74100698Y-112241597D01*
X74100698Y-112241598D01*
X74049339Y-112420121D01*
X74030683Y-112484967D01*
X74030072Y-112489702D01*
X74030071Y-112489708D01*
X73999251Y-112728644D01*
X73997673Y-112740876D01*
X53383354Y-112740876D01*
X53250998Y-112158311D01*
X53190392Y-111891550D01*
X53189662Y-111888115D01*
X52921904Y-110535836D01*
X52921297Y-110532534D01*
X52828911Y-109986317D01*
X59831547Y-109986317D01*
X59832237Y-109992881D01*
X59832237Y-109992882D01*
X59846347Y-110127128D01*
X59851509Y-110176245D01*
X59910524Y-110357873D01*
X60006011Y-110523261D01*
X60010429Y-110528168D01*
X60010430Y-110528169D01*
X60033059Y-110553301D01*
X60133798Y-110665183D01*
X60183052Y-110700968D01*
X60263709Y-110759569D01*
X60288299Y-110777435D01*
X60294327Y-110780119D01*
X60294329Y-110780120D01*
X60456730Y-110852425D01*
X60462763Y-110855111D01*
X60556163Y-110874964D01*
X60643107Y-110893445D01*
X60643112Y-110893445D01*
X60649564Y-110894817D01*
X60840538Y-110894817D01*
X60846990Y-110893445D01*
X60846995Y-110893445D01*
X60933939Y-110874964D01*
X61027339Y-110855111D01*
X61033372Y-110852425D01*
X61195773Y-110780120D01*
X61195775Y-110780119D01*
X61201803Y-110777435D01*
X61226394Y-110759569D01*
X61307050Y-110700968D01*
X61356304Y-110665183D01*
X61457043Y-110553301D01*
X61479672Y-110528169D01*
X61479673Y-110528168D01*
X61484091Y-110523261D01*
X61579578Y-110357873D01*
X61638593Y-110176245D01*
X61643756Y-110127128D01*
X61657865Y-109992882D01*
X61657865Y-109992881D01*
X61658555Y-109986317D01*
X61649364Y-109898866D01*
X61639283Y-109802952D01*
X61639283Y-109802950D01*
X61638593Y-109796389D01*
X61579578Y-109614761D01*
X61484091Y-109449373D01*
X61363732Y-109315700D01*
X61360726Y-109312362D01*
X61360725Y-109312361D01*
X61356304Y-109307451D01*
X61218994Y-109207689D01*
X61207145Y-109199080D01*
X61207144Y-109199079D01*
X61201803Y-109195199D01*
X61195775Y-109192515D01*
X61195773Y-109192514D01*
X61033370Y-109120208D01*
X61033367Y-109120207D01*
X61027339Y-109117523D01*
X60933938Y-109097670D01*
X60846995Y-109079189D01*
X60846990Y-109079189D01*
X60840538Y-109077817D01*
X60649564Y-109077817D01*
X60643112Y-109079189D01*
X60643107Y-109079189D01*
X60556164Y-109097670D01*
X60462763Y-109117523D01*
X60456735Y-109120207D01*
X60456732Y-109120208D01*
X60294329Y-109192514D01*
X60294327Y-109192515D01*
X60288299Y-109195199D01*
X60282958Y-109199079D01*
X60282957Y-109199080D01*
X60271108Y-109207689D01*
X60133798Y-109307451D01*
X60129377Y-109312361D01*
X60129376Y-109312362D01*
X60126371Y-109315700D01*
X60006011Y-109449373D01*
X59910524Y-109614761D01*
X59851509Y-109796389D01*
X59850819Y-109802950D01*
X59850819Y-109802952D01*
X59840738Y-109898866D01*
X59831547Y-109986317D01*
X52828911Y-109986317D01*
X52691385Y-109173212D01*
X52690854Y-109169782D01*
X52499000Y-107804672D01*
X52498559Y-107801181D01*
X52344898Y-106431259D01*
X52344555Y-106427757D01*
X52344407Y-106426000D01*
X62053096Y-106426000D01*
X62073058Y-106615928D01*
X62132073Y-106797556D01*
X62227560Y-106962944D01*
X62355347Y-107104866D01*
X62509848Y-107217118D01*
X62515876Y-107219802D01*
X62515878Y-107219803D01*
X62626916Y-107269240D01*
X62684312Y-107294794D01*
X62777713Y-107314647D01*
X62864656Y-107333128D01*
X62864661Y-107333128D01*
X62871113Y-107334500D01*
X63062087Y-107334500D01*
X63068539Y-107333128D01*
X63068544Y-107333128D01*
X63155487Y-107314647D01*
X63248888Y-107294794D01*
X63306284Y-107269240D01*
X63417322Y-107219803D01*
X63417324Y-107219802D01*
X63423352Y-107217118D01*
X63577853Y-107104866D01*
X63705640Y-106962944D01*
X63801127Y-106797556D01*
X63860142Y-106615928D01*
X63880104Y-106426000D01*
X63873389Y-106362112D01*
X113196384Y-106362112D01*
X113197074Y-106368677D01*
X113203652Y-106431259D01*
X113216346Y-106552040D01*
X113275361Y-106733668D01*
X113370848Y-106899056D01*
X113498635Y-107040978D01*
X113653136Y-107153230D01*
X113659164Y-107155914D01*
X113659166Y-107155915D01*
X113796631Y-107217118D01*
X113827600Y-107230906D01*
X113921001Y-107250759D01*
X114007944Y-107269240D01*
X114007949Y-107269240D01*
X114014401Y-107270612D01*
X114205375Y-107270612D01*
X114211827Y-107269240D01*
X114211832Y-107269240D01*
X114298775Y-107250759D01*
X114392176Y-107230906D01*
X114423145Y-107217118D01*
X114560610Y-107155915D01*
X114560612Y-107155914D01*
X114566640Y-107153230D01*
X114721141Y-107040978D01*
X114848928Y-106899056D01*
X114944415Y-106733668D01*
X115003430Y-106552040D01*
X115016125Y-106431259D01*
X115022702Y-106368677D01*
X115023392Y-106362112D01*
X115003430Y-106172184D01*
X114944415Y-105990556D01*
X114848928Y-105825168D01*
X114721141Y-105683246D01*
X114566640Y-105570994D01*
X114560612Y-105568310D01*
X114560610Y-105568309D01*
X114398207Y-105496003D01*
X114398206Y-105496003D01*
X114392176Y-105493318D01*
X114298776Y-105473465D01*
X114211832Y-105454984D01*
X114211827Y-105454984D01*
X114205375Y-105453612D01*
X114014401Y-105453612D01*
X114007949Y-105454984D01*
X114007944Y-105454984D01*
X113921000Y-105473465D01*
X113827600Y-105493318D01*
X113821570Y-105496003D01*
X113821569Y-105496003D01*
X113659166Y-105568309D01*
X113659164Y-105568310D01*
X113653136Y-105570994D01*
X113498635Y-105683246D01*
X113370848Y-105825168D01*
X113275361Y-105990556D01*
X113216346Y-106172184D01*
X113196384Y-106362112D01*
X63873389Y-106362112D01*
X63860142Y-106236072D01*
X63801127Y-106054444D01*
X63705640Y-105889056D01*
X63577853Y-105747134D01*
X63423352Y-105634882D01*
X63417324Y-105632198D01*
X63417322Y-105632197D01*
X63254919Y-105559891D01*
X63254918Y-105559891D01*
X63248888Y-105557206D01*
X63155487Y-105537353D01*
X63068544Y-105518872D01*
X63068539Y-105518872D01*
X63062087Y-105517500D01*
X62871113Y-105517500D01*
X62864661Y-105518872D01*
X62864656Y-105518872D01*
X62777712Y-105537353D01*
X62684312Y-105557206D01*
X62678282Y-105559891D01*
X62678281Y-105559891D01*
X62515878Y-105632197D01*
X62515876Y-105632198D01*
X62509848Y-105634882D01*
X62355347Y-105747134D01*
X62227560Y-105889056D01*
X62132073Y-106054444D01*
X62073058Y-106236072D01*
X62053096Y-106426000D01*
X52344407Y-106426000D01*
X52229208Y-105054128D01*
X52228962Y-105050619D01*
X52152010Y-103674233D01*
X52151863Y-103670717D01*
X52130615Y-102910043D01*
X59000276Y-102910043D01*
X59020238Y-103099971D01*
X59079253Y-103281599D01*
X59082556Y-103287321D01*
X59082557Y-103287322D01*
X59116466Y-103346053D01*
X59174740Y-103446987D01*
X59179158Y-103451894D01*
X59179159Y-103451895D01*
X59244533Y-103524500D01*
X59302527Y-103588909D01*
X59329529Y-103608527D01*
X59417565Y-103672489D01*
X59457028Y-103701161D01*
X59463056Y-103703845D01*
X59463058Y-103703846D01*
X59607594Y-103768197D01*
X59631492Y-103778837D01*
X59724892Y-103798690D01*
X59811836Y-103817171D01*
X59811841Y-103817171D01*
X59818293Y-103818543D01*
X60009267Y-103818543D01*
X60015719Y-103817171D01*
X60015724Y-103817171D01*
X60102667Y-103798690D01*
X60196068Y-103778837D01*
X60219966Y-103768197D01*
X60364502Y-103703846D01*
X60364504Y-103703845D01*
X60370532Y-103701161D01*
X60409996Y-103672489D01*
X60498031Y-103608527D01*
X60525033Y-103588909D01*
X60583027Y-103524500D01*
X60648401Y-103451895D01*
X60648402Y-103451894D01*
X60652820Y-103446987D01*
X60711094Y-103346053D01*
X60745003Y-103287322D01*
X60745004Y-103287321D01*
X60748307Y-103281599D01*
X60807322Y-103099971D01*
X60827284Y-102910043D01*
X60823254Y-102871700D01*
X60808012Y-102726678D01*
X60808012Y-102726676D01*
X60807322Y-102720115D01*
X60748307Y-102538487D01*
X60736447Y-102517944D01*
X60679779Y-102419794D01*
X60652820Y-102373099D01*
X60525033Y-102231177D01*
X60370532Y-102118925D01*
X60364504Y-102116241D01*
X60364502Y-102116240D01*
X60202099Y-102043934D01*
X60202096Y-102043933D01*
X60196068Y-102041249D01*
X60100325Y-102020898D01*
X60015724Y-102002915D01*
X60015719Y-102002915D01*
X60009267Y-102001543D01*
X59818293Y-102001543D01*
X59811841Y-102002915D01*
X59811836Y-102002915D01*
X59727235Y-102020898D01*
X59631492Y-102041249D01*
X59625464Y-102043933D01*
X59625461Y-102043934D01*
X59463058Y-102116240D01*
X59463056Y-102116241D01*
X59457028Y-102118925D01*
X59302527Y-102231177D01*
X59174740Y-102373099D01*
X59147781Y-102419794D01*
X59091114Y-102517944D01*
X59079253Y-102538487D01*
X59020238Y-102720115D01*
X59019548Y-102726676D01*
X59019548Y-102726678D01*
X59004306Y-102871700D01*
X59000276Y-102910043D01*
X52130615Y-102910043D01*
X52113373Y-102292763D01*
X52113324Y-102289245D01*
X52113324Y-100910755D01*
X52113373Y-100907237D01*
X52131983Y-100240980D01*
X74755390Y-100240980D01*
X74757380Y-100325415D01*
X74760483Y-100457082D01*
X74761469Y-100498937D01*
X74780754Y-100607752D01*
X74800253Y-100717774D01*
X74806497Y-100753007D01*
X74889438Y-100997342D01*
X74891642Y-101001584D01*
X74891642Y-101001585D01*
X74989233Y-101189455D01*
X75008383Y-101226321D01*
X75011209Y-101230189D01*
X75011210Y-101230191D01*
X75012928Y-101232542D01*
X75160594Y-101434673D01*
X75163965Y-101438062D01*
X75163967Y-101438064D01*
X75339194Y-101614211D01*
X75339199Y-101614215D01*
X75342570Y-101617604D01*
X75550122Y-101770904D01*
X75554352Y-101773130D01*
X75554356Y-101773132D01*
X75763750Y-101883299D01*
X75778475Y-101891046D01*
X76022373Y-101975265D01*
X76276203Y-102021623D01*
X76358767Y-102025950D01*
X76519613Y-102025950D01*
X76521992Y-102025769D01*
X76521993Y-102025769D01*
X76706519Y-102011733D01*
X76706524Y-102011732D01*
X76711286Y-102011370D01*
X76715939Y-102010291D01*
X76715942Y-102010291D01*
X76824854Y-101985046D01*
X76895732Y-101989150D01*
X76953139Y-102030921D01*
X76978850Y-102097099D01*
X76979132Y-102114380D01*
X76976169Y-102170928D01*
X76971987Y-102250729D01*
X76970228Y-102284288D01*
X77000722Y-102485922D01*
X77002928Y-102491917D01*
X77002928Y-102491918D01*
X77062914Y-102654955D01*
X77071137Y-102677306D01*
X77178598Y-102850622D01*
X77182979Y-102855255D01*
X77182980Y-102855256D01*
X77234789Y-102910043D01*
X77318714Y-102998791D01*
X77323944Y-103002453D01*
X77323945Y-103002454D01*
X77480528Y-103112094D01*
X77485761Y-103115758D01*
X77672916Y-103196747D01*
X77679164Y-103198052D01*
X77679163Y-103198052D01*
X77867788Y-103237459D01*
X77867792Y-103237459D01*
X77872533Y-103238450D01*
X77877370Y-103238703D01*
X77877374Y-103238704D01*
X77877440Y-103238707D01*
X77879212Y-103238800D01*
X78028967Y-103238800D01*
X78111605Y-103230406D01*
X78174534Y-103224014D01*
X78174535Y-103224014D01*
X78180883Y-103223369D01*
X78375478Y-103162386D01*
X78553837Y-103063521D01*
X78708673Y-102930810D01*
X78833661Y-102769676D01*
X78836474Y-102763959D01*
X78836481Y-102763948D01*
X78878427Y-102678702D01*
X78926449Y-102626411D01*
X78995119Y-102608385D01*
X79062634Y-102630345D01*
X79103105Y-102677218D01*
X79103137Y-102677306D01*
X79210598Y-102850622D01*
X79214979Y-102855255D01*
X79214980Y-102855256D01*
X79266789Y-102910043D01*
X79350714Y-102998791D01*
X79355944Y-103002453D01*
X79355945Y-103002454D01*
X79512528Y-103112094D01*
X79517761Y-103115758D01*
X79704916Y-103196747D01*
X79711164Y-103198052D01*
X79711163Y-103198052D01*
X79899788Y-103237459D01*
X79899792Y-103237459D01*
X79904533Y-103238450D01*
X79909370Y-103238703D01*
X79909374Y-103238704D01*
X79909440Y-103238707D01*
X79911212Y-103238800D01*
X80060967Y-103238800D01*
X80143605Y-103230406D01*
X80206534Y-103224014D01*
X80206535Y-103224014D01*
X80212883Y-103223369D01*
X80407478Y-103162386D01*
X80585837Y-103063521D01*
X80740673Y-102930810D01*
X80865661Y-102769676D01*
X80902810Y-102694179D01*
X80950832Y-102641888D01*
X81019502Y-102623861D01*
X81087017Y-102645821D01*
X81131942Y-102700796D01*
X81141175Y-102736637D01*
X81147768Y-102799365D01*
X81148458Y-102805928D01*
X81207473Y-102987556D01*
X81210776Y-102993278D01*
X81210777Y-102993279D01*
X81216074Y-103002454D01*
X81302960Y-103152944D01*
X81307378Y-103157851D01*
X81307379Y-103157852D01*
X81380186Y-103238712D01*
X81430747Y-103294866D01*
X81585248Y-103407118D01*
X81591276Y-103409802D01*
X81591278Y-103409803D01*
X81685817Y-103451894D01*
X81759712Y-103484794D01*
X81853113Y-103504647D01*
X81940056Y-103523128D01*
X81940061Y-103523128D01*
X81946513Y-103524500D01*
X82137487Y-103524500D01*
X82143939Y-103523128D01*
X82143944Y-103523128D01*
X82230888Y-103504647D01*
X82324288Y-103484794D01*
X82398183Y-103451894D01*
X82492722Y-103409803D01*
X82492724Y-103409802D01*
X82498752Y-103407118D01*
X82653253Y-103294866D01*
X82703814Y-103238712D01*
X82705382Y-103236971D01*
X88469096Y-103236971D01*
X88469786Y-103243536D01*
X88473787Y-103281599D01*
X88489058Y-103426899D01*
X88548073Y-103608527D01*
X88643560Y-103773915D01*
X88771347Y-103915837D01*
X88925848Y-104028089D01*
X88931876Y-104030773D01*
X88931878Y-104030774D01*
X89094281Y-104103080D01*
X89100312Y-104105765D01*
X89193712Y-104125618D01*
X89280656Y-104144099D01*
X89280661Y-104144099D01*
X89287113Y-104145471D01*
X89478087Y-104145471D01*
X89484539Y-104144099D01*
X89484544Y-104144099D01*
X89571487Y-104125618D01*
X89664888Y-104105765D01*
X89670919Y-104103080D01*
X89833322Y-104030774D01*
X89833324Y-104030773D01*
X89839352Y-104028089D01*
X89993853Y-103915837D01*
X90121640Y-103773915D01*
X90217127Y-103608527D01*
X90276142Y-103426899D01*
X90291414Y-103281599D01*
X90295414Y-103243536D01*
X90296104Y-103236971D01*
X90294474Y-103221460D01*
X90276832Y-103053606D01*
X90276832Y-103053604D01*
X90276142Y-103047043D01*
X90231627Y-102910042D01*
X142372716Y-102910042D01*
X142392678Y-103099970D01*
X142451693Y-103281598D01*
X142547180Y-103446986D01*
X142674967Y-103588908D01*
X142829468Y-103701160D01*
X142835496Y-103703844D01*
X142835498Y-103703845D01*
X142861191Y-103715284D01*
X143003932Y-103778836D01*
X143097332Y-103798689D01*
X143184276Y-103817170D01*
X143184281Y-103817170D01*
X143190733Y-103818542D01*
X143381707Y-103818542D01*
X143388159Y-103817170D01*
X143388164Y-103817170D01*
X143475108Y-103798689D01*
X143568508Y-103778836D01*
X143711249Y-103715284D01*
X143736942Y-103703845D01*
X143736944Y-103703844D01*
X143742972Y-103701160D01*
X143897473Y-103588908D01*
X144025260Y-103446986D01*
X144120747Y-103281598D01*
X144179762Y-103099970D01*
X144199724Y-102910042D01*
X144179762Y-102720114D01*
X144120747Y-102538486D01*
X144025260Y-102373098D01*
X143897473Y-102231176D01*
X143742972Y-102118924D01*
X143736944Y-102116240D01*
X143736942Y-102116239D01*
X143574539Y-102043933D01*
X143574538Y-102043933D01*
X143568508Y-102041248D01*
X143472769Y-102020898D01*
X143388164Y-102002914D01*
X143388159Y-102002914D01*
X143381707Y-102001542D01*
X143190733Y-102001542D01*
X143184281Y-102002914D01*
X143184276Y-102002914D01*
X143099671Y-102020898D01*
X143003932Y-102041248D01*
X142997902Y-102043933D01*
X142997901Y-102043933D01*
X142835498Y-102116239D01*
X142835496Y-102116240D01*
X142829468Y-102118924D01*
X142674967Y-102231176D01*
X142547180Y-102373098D01*
X142451693Y-102538486D01*
X142392678Y-102720114D01*
X142372716Y-102910042D01*
X90231627Y-102910042D01*
X90217127Y-102865415D01*
X90121640Y-102700027D01*
X90116375Y-102694179D01*
X89998275Y-102563016D01*
X89998274Y-102563015D01*
X89993853Y-102558105D01*
X89894502Y-102485922D01*
X89844694Y-102449734D01*
X89844693Y-102449733D01*
X89839352Y-102445853D01*
X89833324Y-102443169D01*
X89833322Y-102443168D01*
X89670919Y-102370862D01*
X89670918Y-102370862D01*
X89664888Y-102368177D01*
X89561829Y-102346271D01*
X89484544Y-102329843D01*
X89484539Y-102329843D01*
X89478087Y-102328471D01*
X89287113Y-102328471D01*
X89280661Y-102329843D01*
X89280656Y-102329843D01*
X89203371Y-102346271D01*
X89100312Y-102368177D01*
X89094282Y-102370862D01*
X89094281Y-102370862D01*
X88931878Y-102443168D01*
X88931876Y-102443169D01*
X88925848Y-102445853D01*
X88920507Y-102449733D01*
X88920506Y-102449734D01*
X88870698Y-102485922D01*
X88771347Y-102558105D01*
X88766926Y-102563015D01*
X88766925Y-102563016D01*
X88648826Y-102694179D01*
X88643560Y-102700027D01*
X88548073Y-102865415D01*
X88489058Y-103047043D01*
X88488368Y-103053604D01*
X88488368Y-103053606D01*
X88470726Y-103221460D01*
X88469096Y-103236971D01*
X82705382Y-103236971D01*
X82776621Y-103157852D01*
X82776622Y-103157851D01*
X82781040Y-103152944D01*
X82867926Y-103002454D01*
X82873223Y-102993279D01*
X82873224Y-102993278D01*
X82876527Y-102987556D01*
X82935542Y-102805928D01*
X82938814Y-102774803D01*
X82954814Y-102622565D01*
X82955504Y-102616000D01*
X82942463Y-102491918D01*
X82936232Y-102432635D01*
X82936232Y-102432633D01*
X82935542Y-102426072D01*
X82876527Y-102244444D01*
X82866626Y-102227294D01*
X82806299Y-102122806D01*
X82781040Y-102079056D01*
X82746999Y-102041249D01*
X82692750Y-101981000D01*
X112192696Y-101981000D01*
X112193386Y-101987565D01*
X112203169Y-102080641D01*
X112212658Y-102170928D01*
X112271673Y-102352556D01*
X112274976Y-102358278D01*
X112274977Y-102358279D01*
X112286834Y-102378816D01*
X112367160Y-102517944D01*
X112371578Y-102522851D01*
X112371579Y-102522852D01*
X112482301Y-102645821D01*
X112494947Y-102659866D01*
X112577871Y-102720114D01*
X112638209Y-102763952D01*
X112649448Y-102772118D01*
X112655476Y-102774802D01*
X112655478Y-102774803D01*
X112817881Y-102847109D01*
X112823912Y-102849794D01*
X112897403Y-102865415D01*
X113004256Y-102888128D01*
X113004261Y-102888128D01*
X113010713Y-102889500D01*
X113201687Y-102889500D01*
X113208139Y-102888128D01*
X113208144Y-102888128D01*
X113314997Y-102865415D01*
X113388488Y-102849794D01*
X113394519Y-102847109D01*
X113556922Y-102774803D01*
X113556924Y-102774802D01*
X113562952Y-102772118D01*
X113574192Y-102763952D01*
X113634529Y-102720114D01*
X113717453Y-102659866D01*
X113730099Y-102645821D01*
X113840821Y-102522852D01*
X113840822Y-102522851D01*
X113845240Y-102517944D01*
X113925566Y-102378816D01*
X113937423Y-102358279D01*
X113937424Y-102358278D01*
X113940727Y-102352556D01*
X113999742Y-102170928D01*
X114009232Y-102080641D01*
X114019014Y-101987565D01*
X114019704Y-101981000D01*
X114014364Y-101930190D01*
X114000432Y-101797635D01*
X114000432Y-101797633D01*
X113999742Y-101791072D01*
X113940727Y-101609444D01*
X113935275Y-101600000D01*
X113872213Y-101490774D01*
X113845240Y-101444056D01*
X113783816Y-101375837D01*
X113721875Y-101307045D01*
X113721874Y-101307044D01*
X113717453Y-101302134D01*
X113607253Y-101222069D01*
X113568294Y-101193763D01*
X113568293Y-101193762D01*
X113562952Y-101189882D01*
X113556924Y-101187198D01*
X113556922Y-101187197D01*
X113394519Y-101114891D01*
X113394518Y-101114891D01*
X113388488Y-101112206D01*
X113271320Y-101087301D01*
X113208144Y-101073872D01*
X113208139Y-101073872D01*
X113201687Y-101072500D01*
X113010713Y-101072500D01*
X113004261Y-101073872D01*
X113004256Y-101073872D01*
X112941080Y-101087301D01*
X112823912Y-101112206D01*
X112817882Y-101114891D01*
X112817881Y-101114891D01*
X112655478Y-101187197D01*
X112655476Y-101187198D01*
X112649448Y-101189882D01*
X112644107Y-101193762D01*
X112644106Y-101193763D01*
X112605147Y-101222069D01*
X112494947Y-101302134D01*
X112490526Y-101307044D01*
X112490525Y-101307045D01*
X112428585Y-101375837D01*
X112367160Y-101444056D01*
X112340187Y-101490774D01*
X112277126Y-101600000D01*
X112271673Y-101609444D01*
X112212658Y-101791072D01*
X112211968Y-101797633D01*
X112211968Y-101797635D01*
X112198036Y-101930190D01*
X112192696Y-101981000D01*
X82692750Y-101981000D01*
X82657675Y-101942045D01*
X82657674Y-101942044D01*
X82653253Y-101937134D01*
X82570698Y-101877154D01*
X82527344Y-101820932D01*
X82521269Y-101750195D01*
X82554401Y-101687404D01*
X82565209Y-101677505D01*
X82701139Y-101566841D01*
X82704851Y-101563819D01*
X82878007Y-101372519D01*
X83020235Y-101157228D01*
X83037132Y-101120577D01*
X83101834Y-100980226D01*
X85105036Y-100980226D01*
X85133987Y-101081192D01*
X85138502Y-101092596D01*
X85223229Y-101257458D01*
X85229870Y-101267763D01*
X85345003Y-101413023D01*
X85353526Y-101421849D01*
X85494680Y-101541981D01*
X85504752Y-101548981D01*
X85666551Y-101639407D01*
X85677791Y-101644318D01*
X85806203Y-101686041D01*
X85820302Y-101686444D01*
X85823435Y-101680072D01*
X85823435Y-100986366D01*
X85818960Y-100971127D01*
X85817570Y-100969922D01*
X85809887Y-100968251D01*
X85119717Y-100968251D01*
X85106186Y-100972224D01*
X85105036Y-100980226D01*
X83101834Y-100980226D01*
X83126255Y-100927252D01*
X83126256Y-100927249D01*
X83128261Y-100922900D01*
X83131755Y-100910755D01*
X83198279Y-100679522D01*
X83198280Y-100679517D01*
X83199600Y-100674929D01*
X83221706Y-100503557D01*
X83231999Y-100423757D01*
X83232610Y-100419020D01*
X83228303Y-100236243D01*
X83226644Y-100165842D01*
X83226644Y-100165837D01*
X83226531Y-100161063D01*
X83198508Y-100002943D01*
X83182338Y-99911702D01*
X83182337Y-99911696D01*
X83181503Y-99906993D01*
X83114709Y-99710226D01*
X85105036Y-99710226D01*
X85133987Y-99811192D01*
X85138502Y-99822596D01*
X85223229Y-99987458D01*
X85229870Y-99997762D01*
X85231895Y-100000317D01*
X85232534Y-100001896D01*
X85233209Y-100002943D01*
X85233010Y-100003071D01*
X85258533Y-100066126D01*
X85245363Y-100135891D01*
X85241342Y-100142654D01*
X85149433Y-100309836D01*
X85144601Y-100321109D01*
X85105941Y-100442982D01*
X85105637Y-100457082D01*
X85112198Y-100460251D01*
X85805320Y-100460251D01*
X85820559Y-100455776D01*
X85821764Y-100454386D01*
X85823435Y-100446703D01*
X85823435Y-99716366D01*
X85818960Y-99701127D01*
X85817570Y-99699922D01*
X85809887Y-99698251D01*
X85119717Y-99698251D01*
X85106186Y-99702224D01*
X85105036Y-99710226D01*
X83114709Y-99710226D01*
X83098562Y-99662658D01*
X83027453Y-99525767D01*
X82981826Y-99437931D01*
X82981824Y-99437928D01*
X82979617Y-99433679D01*
X82827406Y-99225327D01*
X82789361Y-99187082D01*
X82648806Y-99045789D01*
X82648801Y-99045785D01*
X82645430Y-99042396D01*
X82437878Y-98889096D01*
X82433648Y-98886870D01*
X82433644Y-98886868D01*
X82213762Y-98771183D01*
X82213760Y-98771182D01*
X82209525Y-98768954D01*
X81965627Y-98684735D01*
X81711797Y-98638377D01*
X81629233Y-98634050D01*
X81468387Y-98634050D01*
X81466008Y-98634231D01*
X81466007Y-98634231D01*
X81281481Y-98648267D01*
X81281476Y-98648268D01*
X81276714Y-98648630D01*
X81272061Y-98649709D01*
X81272058Y-98649709D01*
X81120948Y-98684735D01*
X81025349Y-98706894D01*
X80785689Y-98802508D01*
X80563250Y-98933274D01*
X80559539Y-98936295D01*
X80559535Y-98936298D01*
X80409658Y-99058317D01*
X80363149Y-99096181D01*
X80189993Y-99287481D01*
X80047765Y-99502772D01*
X80045764Y-99507112D01*
X80045762Y-99507116D01*
X79955817Y-99702224D01*
X79939739Y-99737100D01*
X79938415Y-99741701D01*
X79938415Y-99741702D01*
X79889508Y-99911702D01*
X79868400Y-99985071D01*
X79867789Y-99989806D01*
X79867788Y-99989812D01*
X79838339Y-100218116D01*
X79835390Y-100240980D01*
X79837380Y-100325415D01*
X79840483Y-100457082D01*
X79841469Y-100498937D01*
X79860754Y-100607752D01*
X79880253Y-100717774D01*
X79886497Y-100753007D01*
X79969438Y-100997342D01*
X79971642Y-101001584D01*
X79971642Y-101001585D01*
X79998761Y-101053791D01*
X80012413Y-101123463D01*
X79986230Y-101189455D01*
X79928526Y-101230816D01*
X79899681Y-101237229D01*
X79860014Y-101241258D01*
X79813465Y-101245986D01*
X79813463Y-101245986D01*
X79807117Y-101246631D01*
X79612522Y-101307614D01*
X79434163Y-101406479D01*
X79279327Y-101539190D01*
X79154339Y-101700324D01*
X79151526Y-101706041D01*
X79151519Y-101706052D01*
X79109573Y-101791298D01*
X79061551Y-101843589D01*
X78992881Y-101861615D01*
X78925366Y-101839655D01*
X78884895Y-101792782D01*
X78884863Y-101792694D01*
X78815034Y-101680072D01*
X78780764Y-101624800D01*
X78780763Y-101624799D01*
X78777402Y-101619378D01*
X78762954Y-101604099D01*
X78641671Y-101475846D01*
X78637286Y-101471209D01*
X78609719Y-101451906D01*
X78475472Y-101357906D01*
X78475471Y-101357905D01*
X78470239Y-101354242D01*
X78283084Y-101273253D01*
X78152567Y-101245986D01*
X78088216Y-101232542D01*
X78088214Y-101232542D01*
X78084958Y-101231862D01*
X78084957Y-101231861D01*
X78083467Y-101231550D01*
X78083533Y-101231234D01*
X78020809Y-101203622D01*
X77981610Y-101144428D01*
X77980636Y-101073438D01*
X77987582Y-101054524D01*
X78046255Y-100927252D01*
X78046256Y-100927249D01*
X78048261Y-100922900D01*
X78051755Y-100910755D01*
X78118279Y-100679522D01*
X78118280Y-100679517D01*
X78119600Y-100674929D01*
X78141706Y-100503557D01*
X78151999Y-100423757D01*
X78152610Y-100419020D01*
X78148303Y-100236243D01*
X78146644Y-100165842D01*
X78146644Y-100165837D01*
X78146531Y-100161063D01*
X78118508Y-100002943D01*
X78102338Y-99911702D01*
X78102337Y-99911696D01*
X78101503Y-99906993D01*
X78018562Y-99662658D01*
X77947453Y-99525767D01*
X77901826Y-99437931D01*
X77901824Y-99437928D01*
X77899617Y-99433679D01*
X77747406Y-99225327D01*
X77709361Y-99187082D01*
X77568806Y-99045789D01*
X77568801Y-99045785D01*
X77565430Y-99042396D01*
X77357878Y-98889096D01*
X77353648Y-98886870D01*
X77353644Y-98886868D01*
X77133762Y-98771183D01*
X77133760Y-98771182D01*
X77129525Y-98768954D01*
X76903630Y-98690951D01*
X76845770Y-98649812D01*
X76819336Y-98583920D01*
X76824924Y-98532916D01*
X76837503Y-98494203D01*
X76839542Y-98487928D01*
X76844556Y-98440226D01*
X85105036Y-98440226D01*
X85133987Y-98541192D01*
X85138502Y-98552596D01*
X85223229Y-98717458D01*
X85229870Y-98727762D01*
X85231895Y-98730317D01*
X85232534Y-98731896D01*
X85233209Y-98732943D01*
X85233010Y-98733071D01*
X85258533Y-98796126D01*
X85245363Y-98865891D01*
X85241342Y-98872654D01*
X85149433Y-99039836D01*
X85144601Y-99051109D01*
X85105941Y-99172982D01*
X85105637Y-99187082D01*
X85112198Y-99190251D01*
X85805320Y-99190251D01*
X85820559Y-99185776D01*
X85821764Y-99184386D01*
X85823435Y-99176703D01*
X85823435Y-98446366D01*
X85818960Y-98431127D01*
X85817570Y-98429922D01*
X85809887Y-98428251D01*
X85119717Y-98428251D01*
X85106186Y-98432224D01*
X85105036Y-98440226D01*
X76844556Y-98440226D01*
X76845784Y-98428544D01*
X76858814Y-98304565D01*
X76859504Y-98298000D01*
X76849840Y-98206050D01*
X76840232Y-98114635D01*
X76840232Y-98114633D01*
X76839542Y-98108072D01*
X76780527Y-97926444D01*
X76776952Y-97920251D01*
X76744302Y-97863701D01*
X76727564Y-97794706D01*
X76750784Y-97727614D01*
X76806591Y-97683727D01*
X76827218Y-97677456D01*
X76990288Y-97642794D01*
X76996319Y-97640109D01*
X77158722Y-97567803D01*
X77158724Y-97567802D01*
X77164752Y-97565118D01*
X77199835Y-97539629D01*
X77306824Y-97461896D01*
X77319253Y-97452866D01*
X77323675Y-97447955D01*
X77442621Y-97315852D01*
X77442622Y-97315851D01*
X77447040Y-97310944D01*
X77528284Y-97170226D01*
X85105036Y-97170226D01*
X85133987Y-97271192D01*
X85138502Y-97282596D01*
X85223229Y-97447458D01*
X85229870Y-97457762D01*
X85231895Y-97460317D01*
X85232534Y-97461896D01*
X85233209Y-97462943D01*
X85233010Y-97463071D01*
X85258533Y-97526126D01*
X85245363Y-97595891D01*
X85241342Y-97602654D01*
X85149433Y-97769836D01*
X85144601Y-97781109D01*
X85105941Y-97902982D01*
X85105637Y-97917082D01*
X85112198Y-97920251D01*
X85805320Y-97920251D01*
X85820559Y-97915776D01*
X85821764Y-97914386D01*
X85823435Y-97906703D01*
X85823435Y-97176366D01*
X85818960Y-97161127D01*
X85817570Y-97159922D01*
X85809887Y-97158251D01*
X85119717Y-97158251D01*
X85106186Y-97162224D01*
X85105036Y-97170226D01*
X77528284Y-97170226D01*
X77542527Y-97145556D01*
X77601542Y-96963928D01*
X77604841Y-96932546D01*
X77620814Y-96780565D01*
X77621504Y-96774000D01*
X77614151Y-96704036D01*
X77602232Y-96590635D01*
X77602232Y-96590633D01*
X77601542Y-96584072D01*
X77542527Y-96402444D01*
X77447040Y-96237056D01*
X77409052Y-96194866D01*
X77378336Y-96130860D01*
X77387101Y-96060407D01*
X77425864Y-96013094D01*
X77424750Y-96011726D01*
X77621139Y-95851841D01*
X77624851Y-95848819D01*
X77798007Y-95657519D01*
X77823650Y-95618704D01*
X77937597Y-95446221D01*
X77940235Y-95442228D01*
X77942453Y-95437418D01*
X78011192Y-95288310D01*
X78057876Y-95234821D01*
X78126068Y-95215062D01*
X78194117Y-95235307D01*
X78217166Y-95254488D01*
X78334714Y-95378791D01*
X78339944Y-95382453D01*
X78339945Y-95382454D01*
X78496528Y-95492094D01*
X78501761Y-95495758D01*
X78688916Y-95576747D01*
X78695164Y-95578052D01*
X78695163Y-95578052D01*
X78883788Y-95617459D01*
X78883792Y-95617459D01*
X78888533Y-95618450D01*
X78893370Y-95618703D01*
X78893374Y-95618704D01*
X78893440Y-95618707D01*
X78895212Y-95618800D01*
X79044967Y-95618800D01*
X79117613Y-95611421D01*
X79190534Y-95604014D01*
X79190535Y-95604014D01*
X79196883Y-95603369D01*
X79391478Y-95542386D01*
X79569837Y-95443521D01*
X79724673Y-95310810D01*
X79728587Y-95305765D01*
X79728591Y-95305760D01*
X79759485Y-95265932D01*
X79817041Y-95224365D01*
X79887933Y-95220515D01*
X79949653Y-95255602D01*
X79970857Y-95285073D01*
X80029034Y-95397070D01*
X80080299Y-95495758D01*
X80088383Y-95511321D01*
X80091209Y-95515189D01*
X80091210Y-95515191D01*
X80166831Y-95618704D01*
X80240594Y-95719673D01*
X80243965Y-95723062D01*
X80243967Y-95723064D01*
X80419194Y-95899211D01*
X80419199Y-95899215D01*
X80422570Y-95902604D01*
X80630122Y-96055904D01*
X80634352Y-96058130D01*
X80634356Y-96058132D01*
X80829508Y-96160806D01*
X80858475Y-96176046D01*
X80863003Y-96177609D01*
X80863004Y-96177610D01*
X80886670Y-96185782D01*
X81102373Y-96260265D01*
X81294155Y-96295291D01*
X81310177Y-96298217D01*
X81356203Y-96306623D01*
X81438767Y-96310950D01*
X81599613Y-96310950D01*
X81601992Y-96310769D01*
X81601993Y-96310769D01*
X81786519Y-96296733D01*
X81786524Y-96296732D01*
X81791286Y-96296370D01*
X81795939Y-96295291D01*
X81795942Y-96295291D01*
X81982856Y-96251966D01*
X82042651Y-96238106D01*
X82182318Y-96182385D01*
X85068935Y-96182385D01*
X85075690Y-96244567D01*
X85126820Y-96380956D01*
X85132201Y-96388136D01*
X85136514Y-96396014D01*
X85134439Y-96397150D01*
X85154797Y-96451638D01*
X85145824Y-96505033D01*
X85146464Y-96505236D01*
X85145030Y-96509756D01*
X85144932Y-96510340D01*
X85144597Y-96511121D01*
X85105941Y-96632982D01*
X85105637Y-96647082D01*
X85112198Y-96650251D01*
X86205435Y-96650251D01*
X86273556Y-96670253D01*
X86320049Y-96723909D01*
X86331435Y-96776251D01*
X86331435Y-101671815D01*
X86335408Y-101685346D01*
X86343623Y-101686527D01*
X86437772Y-101660240D01*
X86449222Y-101655799D01*
X86614661Y-101572230D01*
X86625023Y-101565654D01*
X86633509Y-101559024D01*
X86699503Y-101532846D01*
X86772552Y-101548325D01*
X86941729Y-101642875D01*
X87129827Y-101703991D01*
X87326212Y-101727409D01*
X87332347Y-101726937D01*
X87332349Y-101726937D01*
X87517265Y-101712708D01*
X87517269Y-101712707D01*
X87523407Y-101712235D01*
X87713898Y-101659049D01*
X87719402Y-101656269D01*
X87719404Y-101656268D01*
X87884930Y-101572655D01*
X87884932Y-101572654D01*
X87890431Y-101569876D01*
X88046282Y-101448112D01*
X88164882Y-101310712D01*
X88171484Y-101303064D01*
X88171485Y-101303062D01*
X88175513Y-101298396D01*
X88273204Y-101126430D01*
X88335632Y-100938764D01*
X88360420Y-100742546D01*
X88360815Y-100714251D01*
X88359121Y-100696971D01*
X89397525Y-100696971D01*
X89398215Y-100703536D01*
X89403415Y-100753007D01*
X89417487Y-100886899D01*
X89476502Y-101068527D01*
X89571989Y-101233915D01*
X89576407Y-101238822D01*
X89576408Y-101238823D01*
X89634251Y-101303064D01*
X89699776Y-101375837D01*
X89854277Y-101488089D01*
X89860305Y-101490773D01*
X89860307Y-101490774D01*
X89954803Y-101532846D01*
X90028741Y-101565765D01*
X90122142Y-101585618D01*
X90209085Y-101604099D01*
X90209090Y-101604099D01*
X90215542Y-101605471D01*
X90406516Y-101605471D01*
X90412968Y-101604099D01*
X90412973Y-101604099D01*
X90499916Y-101585618D01*
X90593317Y-101565765D01*
X90667255Y-101532846D01*
X90761751Y-101490774D01*
X90761753Y-101490773D01*
X90767781Y-101488089D01*
X90922282Y-101375837D01*
X90987807Y-101303064D01*
X91045650Y-101238823D01*
X91045651Y-101238822D01*
X91050069Y-101233915D01*
X91145556Y-101068527D01*
X91204571Y-100886899D01*
X91218644Y-100753007D01*
X91223843Y-100703536D01*
X91224533Y-100696971D01*
X91206306Y-100523552D01*
X91205261Y-100513606D01*
X91205261Y-100513604D01*
X91204571Y-100507043D01*
X91145556Y-100325415D01*
X91136562Y-100309836D01*
X91053370Y-100165745D01*
X91050069Y-100160027D01*
X91039235Y-100147994D01*
X90926704Y-100023016D01*
X90926703Y-100023015D01*
X90922282Y-100018105D01*
X90823186Y-99946107D01*
X90773123Y-99909734D01*
X90773122Y-99909733D01*
X90767781Y-99905853D01*
X90761753Y-99903169D01*
X90761751Y-99903168D01*
X90599348Y-99830862D01*
X90599347Y-99830862D01*
X90593317Y-99828177D01*
X90499916Y-99808324D01*
X90412973Y-99789843D01*
X90412968Y-99789843D01*
X90406516Y-99788471D01*
X90215542Y-99788471D01*
X90209090Y-99789843D01*
X90209085Y-99789843D01*
X90122142Y-99808324D01*
X90028741Y-99828177D01*
X90022711Y-99830862D01*
X90022710Y-99830862D01*
X89860307Y-99903168D01*
X89860305Y-99903169D01*
X89854277Y-99905853D01*
X89848936Y-99909733D01*
X89848935Y-99909734D01*
X89798872Y-99946107D01*
X89699776Y-100018105D01*
X89695355Y-100023015D01*
X89695354Y-100023016D01*
X89582824Y-100147994D01*
X89571989Y-100160027D01*
X89568688Y-100165745D01*
X89485497Y-100309836D01*
X89476502Y-100325415D01*
X89417487Y-100507043D01*
X89416797Y-100513604D01*
X89416797Y-100513606D01*
X89415752Y-100523552D01*
X89397525Y-100696971D01*
X88359121Y-100696971D01*
X88341515Y-100517418D01*
X88337356Y-100503641D01*
X88286132Y-100333982D01*
X88284351Y-100328082D01*
X88191501Y-100153455D01*
X88187602Y-100148675D01*
X88187150Y-100147994D01*
X88166111Y-100080186D01*
X88182540Y-100016026D01*
X88270158Y-99861793D01*
X88270160Y-99861788D01*
X88273204Y-99856430D01*
X88335632Y-99668764D01*
X88360420Y-99472546D01*
X88360815Y-99444251D01*
X88341515Y-99247418D01*
X88323299Y-99187082D01*
X88296926Y-99099732D01*
X88284351Y-99058082D01*
X88191501Y-98883455D01*
X88187602Y-98878675D01*
X88187150Y-98877994D01*
X88166111Y-98810186D01*
X88182540Y-98746026D01*
X88270158Y-98591793D01*
X88270160Y-98591788D01*
X88273204Y-98586430D01*
X88335632Y-98398764D01*
X88360420Y-98202546D01*
X88360815Y-98174251D01*
X88341515Y-97977418D01*
X88323299Y-97917082D01*
X88315605Y-97891600D01*
X111633896Y-97891600D01*
X111653858Y-98081528D01*
X111712873Y-98263156D01*
X111716176Y-98268878D01*
X111716177Y-98268879D01*
X111750086Y-98327610D01*
X111808360Y-98428544D01*
X111812778Y-98433451D01*
X111812779Y-98433452D01*
X111915289Y-98547301D01*
X111936147Y-98570466D01*
X111965501Y-98591793D01*
X112063882Y-98663271D01*
X112090648Y-98682718D01*
X112096676Y-98685402D01*
X112096678Y-98685403D01*
X112259081Y-98757709D01*
X112265112Y-98760394D01*
X112358513Y-98780247D01*
X112445456Y-98798728D01*
X112445461Y-98798728D01*
X112451913Y-98800100D01*
X112642887Y-98800100D01*
X112649339Y-98798728D01*
X112649344Y-98798728D01*
X112736287Y-98780247D01*
X112829688Y-98760394D01*
X112835719Y-98757709D01*
X112998122Y-98685403D01*
X112998124Y-98685402D01*
X113004152Y-98682718D01*
X113030919Y-98663271D01*
X113129299Y-98591793D01*
X113158653Y-98570466D01*
X113179511Y-98547301D01*
X113282021Y-98433452D01*
X113282022Y-98433451D01*
X113286440Y-98428544D01*
X113344714Y-98327610D01*
X113378623Y-98268879D01*
X113378624Y-98268878D01*
X113381927Y-98263156D01*
X113440942Y-98081528D01*
X113460904Y-97891600D01*
X113448106Y-97769836D01*
X113441632Y-97708235D01*
X113441632Y-97708233D01*
X113440942Y-97701672D01*
X113381927Y-97520044D01*
X113286440Y-97354656D01*
X113158653Y-97212734D01*
X113004152Y-97100482D01*
X112998124Y-97097798D01*
X112998122Y-97097797D01*
X112835719Y-97025491D01*
X112835718Y-97025491D01*
X112829688Y-97022806D01*
X112736288Y-97002953D01*
X112649344Y-96984472D01*
X112649339Y-96984472D01*
X112642887Y-96983100D01*
X112451913Y-96983100D01*
X112445461Y-96984472D01*
X112445456Y-96984472D01*
X112358513Y-97002953D01*
X112265112Y-97022806D01*
X112259082Y-97025491D01*
X112259081Y-97025491D01*
X112096678Y-97097797D01*
X112096676Y-97097798D01*
X112090648Y-97100482D01*
X111936147Y-97212734D01*
X111808360Y-97354656D01*
X111712873Y-97520044D01*
X111653858Y-97701672D01*
X111653168Y-97708233D01*
X111653168Y-97708235D01*
X111646694Y-97769836D01*
X111633896Y-97891600D01*
X88315605Y-97891600D01*
X88286132Y-97793982D01*
X88284351Y-97788082D01*
X88191501Y-97613455D01*
X88187602Y-97608675D01*
X88187150Y-97607994D01*
X88166111Y-97540186D01*
X88182540Y-97476026D01*
X88270158Y-97321793D01*
X88270160Y-97321788D01*
X88273204Y-97316430D01*
X88335632Y-97128764D01*
X88360420Y-96932546D01*
X88360815Y-96904251D01*
X88341515Y-96707418D01*
X88323299Y-96647082D01*
X88304514Y-96584866D01*
X88284351Y-96518082D01*
X88191501Y-96343455D01*
X88187602Y-96338675D01*
X88187150Y-96337994D01*
X88166111Y-96270186D01*
X88182540Y-96206026D01*
X88270158Y-96051793D01*
X88270160Y-96051788D01*
X88273204Y-96046430D01*
X88335632Y-95858764D01*
X88343620Y-95795535D01*
X141987408Y-95795535D01*
X141988098Y-95802100D01*
X141994054Y-95858764D01*
X142007370Y-95985463D01*
X142066385Y-96167091D01*
X142161872Y-96332479D01*
X142166290Y-96337386D01*
X142166291Y-96337387D01*
X142198614Y-96373285D01*
X142289659Y-96474401D01*
X142357901Y-96523982D01*
X142431967Y-96577794D01*
X142444160Y-96586653D01*
X142450188Y-96589337D01*
X142450190Y-96589338D01*
X142579886Y-96647082D01*
X142618624Y-96664329D01*
X142712025Y-96684182D01*
X142798968Y-96702663D01*
X142798973Y-96702663D01*
X142805425Y-96704035D01*
X142996399Y-96704035D01*
X143002851Y-96702663D01*
X143002856Y-96702663D01*
X143089800Y-96684182D01*
X143183200Y-96664329D01*
X143221938Y-96647082D01*
X143351634Y-96589338D01*
X143351636Y-96589337D01*
X143357664Y-96586653D01*
X143369858Y-96577794D01*
X143443923Y-96523982D01*
X143512165Y-96474401D01*
X143603210Y-96373285D01*
X143635533Y-96337387D01*
X143635534Y-96337386D01*
X143639952Y-96332479D01*
X143735439Y-96167091D01*
X143794454Y-95985463D01*
X143807771Y-95858764D01*
X143813726Y-95802100D01*
X143814416Y-95795535D01*
X143800807Y-95666050D01*
X143795144Y-95612170D01*
X143795144Y-95612168D01*
X143794454Y-95605607D01*
X143735439Y-95423979D01*
X143711465Y-95382454D01*
X143656114Y-95286585D01*
X143639952Y-95258591D01*
X143625593Y-95242643D01*
X143516587Y-95121580D01*
X143516586Y-95121579D01*
X143512165Y-95116669D01*
X143410133Y-95042538D01*
X143363006Y-95008298D01*
X143363005Y-95008297D01*
X143357664Y-95004417D01*
X143351636Y-95001733D01*
X143351634Y-95001732D01*
X143189231Y-94929426D01*
X143189230Y-94929426D01*
X143183200Y-94926741D01*
X143089799Y-94906888D01*
X143002856Y-94888407D01*
X143002851Y-94888407D01*
X142996399Y-94887035D01*
X142805425Y-94887035D01*
X142798973Y-94888407D01*
X142798968Y-94888407D01*
X142712025Y-94906888D01*
X142618624Y-94926741D01*
X142612594Y-94929426D01*
X142612593Y-94929426D01*
X142450190Y-95001732D01*
X142450188Y-95001733D01*
X142444160Y-95004417D01*
X142438819Y-95008297D01*
X142438818Y-95008298D01*
X142391691Y-95042538D01*
X142289659Y-95116669D01*
X142285238Y-95121579D01*
X142285237Y-95121580D01*
X142176232Y-95242643D01*
X142161872Y-95258591D01*
X142145710Y-95286585D01*
X142090360Y-95382454D01*
X142066385Y-95423979D01*
X142007370Y-95605607D01*
X142006680Y-95612168D01*
X142006680Y-95612170D01*
X142001017Y-95666050D01*
X141987408Y-95795535D01*
X88343620Y-95795535D01*
X88360420Y-95662546D01*
X88360815Y-95634251D01*
X88341515Y-95437418D01*
X88339356Y-95430265D01*
X88301765Y-95305760D01*
X88284351Y-95248082D01*
X88191501Y-95073455D01*
X88095045Y-94955188D01*
X88070395Y-94924964D01*
X88070392Y-94924961D01*
X88066500Y-94920189D01*
X88037205Y-94895954D01*
X87918860Y-94798050D01*
X87918856Y-94798048D01*
X87914110Y-94794121D01*
X87740136Y-94700053D01*
X87551203Y-94641569D01*
X87545078Y-94640925D01*
X87545077Y-94640925D01*
X87360639Y-94621540D01*
X87360637Y-94621540D01*
X87354510Y-94620896D01*
X87272011Y-94628404D01*
X87163686Y-94638262D01*
X87163683Y-94638263D01*
X87157547Y-94638821D01*
X87151641Y-94640559D01*
X87151637Y-94640560D01*
X87015986Y-94680484D01*
X86967816Y-94694661D01*
X86962232Y-94697580D01*
X86962162Y-94697594D01*
X86956644Y-94699824D01*
X86956220Y-94698775D01*
X86892599Y-94711416D01*
X86840281Y-94691347D01*
X86839195Y-94693330D01*
X86831327Y-94689022D01*
X86824140Y-94683636D01*
X86687751Y-94632506D01*
X86625569Y-94625751D01*
X85529301Y-94625751D01*
X85467119Y-94632506D01*
X85330730Y-94683636D01*
X85214174Y-94770990D01*
X85126820Y-94887546D01*
X85075690Y-95023935D01*
X85068935Y-95086117D01*
X85068935Y-96182385D01*
X82182318Y-96182385D01*
X82282311Y-96142492D01*
X82504750Y-96011726D01*
X82508461Y-96008705D01*
X82508465Y-96008702D01*
X82701139Y-95851841D01*
X82704851Y-95848819D01*
X82878007Y-95657519D01*
X82903650Y-95618704D01*
X83017597Y-95446221D01*
X83020235Y-95442228D01*
X83022453Y-95437418D01*
X83126255Y-95212252D01*
X83126256Y-95212249D01*
X83128261Y-95207900D01*
X83153094Y-95121581D01*
X83198279Y-94964522D01*
X83198280Y-94964517D01*
X83199600Y-94959929D01*
X83203535Y-94929427D01*
X83231999Y-94708757D01*
X83232610Y-94704020D01*
X83226531Y-94446063D01*
X83181503Y-94191993D01*
X83098562Y-93947658D01*
X83046558Y-93847546D01*
X82981826Y-93722931D01*
X82981824Y-93722928D01*
X82979617Y-93718679D01*
X82955527Y-93685703D01*
X82830228Y-93514190D01*
X82827406Y-93510327D01*
X82702467Y-93384732D01*
X82648806Y-93330789D01*
X82648801Y-93330785D01*
X82645430Y-93327396D01*
X82437878Y-93174096D01*
X82433648Y-93171870D01*
X82433644Y-93171868D01*
X82213762Y-93056183D01*
X82213760Y-93056182D01*
X82209525Y-93053954D01*
X81965627Y-92969735D01*
X81711797Y-92923377D01*
X81629233Y-92919050D01*
X81468387Y-92919050D01*
X81466008Y-92919231D01*
X81466007Y-92919231D01*
X81281481Y-92933267D01*
X81281476Y-92933268D01*
X81276714Y-92933630D01*
X81272061Y-92934709D01*
X81272058Y-92934709D01*
X81120948Y-92969735D01*
X81025349Y-92991894D01*
X80785689Y-93087508D01*
X80563250Y-93218274D01*
X80559539Y-93221295D01*
X80559535Y-93221298D01*
X80432707Y-93324552D01*
X80363149Y-93381181D01*
X80189993Y-93572481D01*
X80187352Y-93576479D01*
X80187351Y-93576480D01*
X80164201Y-93611523D01*
X80047765Y-93787772D01*
X80045764Y-93792112D01*
X80045762Y-93792116D01*
X79976808Y-93941690D01*
X79930124Y-93995179D01*
X79861932Y-94014938D01*
X79793883Y-93994693D01*
X79770833Y-93975512D01*
X79741909Y-93944925D01*
X79653286Y-93851209D01*
X79556425Y-93783386D01*
X79491472Y-93737906D01*
X79491471Y-93737905D01*
X79486239Y-93734242D01*
X79299084Y-93653253D01*
X79248627Y-93642712D01*
X79104212Y-93612541D01*
X79104208Y-93612541D01*
X79099467Y-93611550D01*
X79094630Y-93611297D01*
X79094626Y-93611296D01*
X79094560Y-93611293D01*
X79092788Y-93611200D01*
X78943033Y-93611200D01*
X78870387Y-93618579D01*
X78797466Y-93625986D01*
X78797465Y-93625986D01*
X78791117Y-93626631D01*
X78596522Y-93687614D01*
X78418163Y-93786479D01*
X78263327Y-93919190D01*
X78259413Y-93924235D01*
X78259409Y-93924240D01*
X78228515Y-93964068D01*
X78170959Y-94005635D01*
X78100067Y-94009485D01*
X78038347Y-93974398D01*
X78017142Y-93944925D01*
X77970870Y-93855846D01*
X77953879Y-93823137D01*
X77901826Y-93722931D01*
X77901824Y-93722928D01*
X77899617Y-93718679D01*
X77875527Y-93685703D01*
X77750228Y-93514190D01*
X77747406Y-93510327D01*
X77622467Y-93384732D01*
X77568806Y-93330789D01*
X77568801Y-93330785D01*
X77565430Y-93327396D01*
X77357878Y-93174096D01*
X77353648Y-93171870D01*
X77353644Y-93171868D01*
X77133762Y-93056183D01*
X77133760Y-93056182D01*
X77129525Y-93053954D01*
X76885627Y-92969735D01*
X76631797Y-92923377D01*
X76549233Y-92919050D01*
X76388387Y-92919050D01*
X76386008Y-92919231D01*
X76386007Y-92919231D01*
X76201481Y-92933267D01*
X76201476Y-92933268D01*
X76196714Y-92933630D01*
X76192061Y-92934709D01*
X76192058Y-92934709D01*
X76040948Y-92969735D01*
X75945349Y-92991894D01*
X75705689Y-93087508D01*
X75483250Y-93218274D01*
X75479539Y-93221295D01*
X75479535Y-93221298D01*
X75352707Y-93324552D01*
X75283149Y-93381181D01*
X75109993Y-93572481D01*
X75107352Y-93576479D01*
X75107351Y-93576480D01*
X75084201Y-93611523D01*
X74967765Y-93787772D01*
X74965764Y-93792112D01*
X74965762Y-93792116D01*
X74861745Y-94017748D01*
X74859739Y-94022100D01*
X74858415Y-94026701D01*
X74858415Y-94026702D01*
X74809508Y-94196702D01*
X74788400Y-94270071D01*
X74787789Y-94274806D01*
X74787788Y-94274812D01*
X74765082Y-94450842D01*
X74755390Y-94525980D01*
X74761469Y-94783937D01*
X74763274Y-94794121D01*
X74802692Y-95016536D01*
X74806497Y-95038007D01*
X74808035Y-95042537D01*
X74808035Y-95042538D01*
X74833199Y-95116669D01*
X74889438Y-95282342D01*
X74891642Y-95286584D01*
X74891642Y-95286585D01*
X75000299Y-95495758D01*
X75008383Y-95511321D01*
X75011209Y-95515189D01*
X75011210Y-95515191D01*
X75086831Y-95618704D01*
X75160594Y-95719673D01*
X75163965Y-95723062D01*
X75163967Y-95723064D01*
X75339194Y-95899211D01*
X75339199Y-95899215D01*
X75342570Y-95902604D01*
X75550122Y-96055904D01*
X75554352Y-96058130D01*
X75554356Y-96058132D01*
X75774247Y-96173822D01*
X75774252Y-96173824D01*
X75778475Y-96176046D01*
X75822315Y-96191184D01*
X75880177Y-96232325D01*
X75906611Y-96298217D01*
X75890308Y-96373285D01*
X75873473Y-96402444D01*
X75814458Y-96584072D01*
X75813768Y-96590633D01*
X75813768Y-96590635D01*
X75801849Y-96704036D01*
X75794496Y-96774000D01*
X75795186Y-96780565D01*
X75811160Y-96932546D01*
X75814458Y-96963928D01*
X75873473Y-97145556D01*
X75876776Y-97151278D01*
X75876777Y-97151279D01*
X75909698Y-97208299D01*
X75926436Y-97277294D01*
X75903216Y-97344386D01*
X75847409Y-97388273D01*
X75826782Y-97394544D01*
X75663712Y-97429206D01*
X75657682Y-97431891D01*
X75657681Y-97431891D01*
X75495278Y-97504197D01*
X75495276Y-97504198D01*
X75489248Y-97506882D01*
X75483907Y-97510762D01*
X75483906Y-97510763D01*
X75444794Y-97539180D01*
X75334747Y-97619134D01*
X75330326Y-97624044D01*
X75330325Y-97624045D01*
X75260430Y-97701672D01*
X75206960Y-97761056D01*
X75187950Y-97793982D01*
X75115049Y-97920251D01*
X75111473Y-97926444D01*
X75052458Y-98108072D01*
X75051768Y-98114633D01*
X75051768Y-98114635D01*
X75042160Y-98206050D01*
X75032496Y-98298000D01*
X75033186Y-98304565D01*
X75046217Y-98428544D01*
X75052458Y-98487928D01*
X75111473Y-98669556D01*
X75114776Y-98675278D01*
X75114777Y-98675279D01*
X75132406Y-98705813D01*
X75206960Y-98834944D01*
X75287017Y-98923856D01*
X75317734Y-98987864D01*
X75308969Y-99058317D01*
X75282739Y-99095810D01*
X75283149Y-99096181D01*
X75279939Y-99099727D01*
X75279934Y-99099732D01*
X75151599Y-99241515D01*
X75109993Y-99287481D01*
X74967765Y-99502772D01*
X74965764Y-99507112D01*
X74965762Y-99507116D01*
X74875817Y-99702224D01*
X74859739Y-99737100D01*
X74858415Y-99741701D01*
X74858415Y-99741702D01*
X74809508Y-99911702D01*
X74788400Y-99985071D01*
X74787789Y-99989806D01*
X74787788Y-99989812D01*
X74758339Y-100218116D01*
X74755390Y-100240980D01*
X52131983Y-100240980D01*
X52151863Y-99529283D01*
X52152010Y-99525767D01*
X52228962Y-98149381D01*
X52229208Y-98145872D01*
X52344555Y-96772243D01*
X52344898Y-96768741D01*
X52454060Y-95795536D01*
X59385584Y-95795536D01*
X59386274Y-95802100D01*
X59386274Y-95802101D01*
X59396481Y-95899211D01*
X59405546Y-95985464D01*
X59464561Y-96167092D01*
X59467864Y-96172814D01*
X59467865Y-96172815D01*
X59487040Y-96206026D01*
X59560048Y-96332480D01*
X59564466Y-96337387D01*
X59564467Y-96337388D01*
X59596789Y-96373285D01*
X59687835Y-96474402D01*
X59842336Y-96586654D01*
X59848364Y-96589338D01*
X59848366Y-96589339D01*
X60010767Y-96661644D01*
X60016800Y-96664330D01*
X60110200Y-96684183D01*
X60197144Y-96702664D01*
X60197149Y-96702664D01*
X60203601Y-96704036D01*
X60394575Y-96704036D01*
X60401027Y-96702664D01*
X60401032Y-96702664D01*
X60487976Y-96684183D01*
X60581376Y-96664330D01*
X60587409Y-96661644D01*
X60749810Y-96589339D01*
X60749812Y-96589338D01*
X60755840Y-96586654D01*
X60910341Y-96474402D01*
X61001387Y-96373285D01*
X61033709Y-96337388D01*
X61033710Y-96337387D01*
X61038128Y-96332480D01*
X61111136Y-96206026D01*
X61130311Y-96172815D01*
X61130312Y-96172814D01*
X61133615Y-96167092D01*
X61192630Y-95985464D01*
X61201696Y-95899211D01*
X61211902Y-95802101D01*
X61211902Y-95802100D01*
X61212592Y-95795536D01*
X61198983Y-95666050D01*
X61193320Y-95612171D01*
X61193320Y-95612169D01*
X61192630Y-95605608D01*
X61133615Y-95423980D01*
X61118079Y-95397070D01*
X61068276Y-95310810D01*
X61038128Y-95258592D01*
X61023768Y-95242643D01*
X60914763Y-95121581D01*
X60914762Y-95121580D01*
X60910341Y-95116670D01*
X60755840Y-95004418D01*
X60749812Y-95001734D01*
X60749810Y-95001733D01*
X60587407Y-94929427D01*
X60587404Y-94929426D01*
X60581376Y-94926742D01*
X60487975Y-94906889D01*
X60401032Y-94888408D01*
X60401027Y-94888408D01*
X60394575Y-94887036D01*
X60203601Y-94887036D01*
X60197149Y-94888408D01*
X60197144Y-94888408D01*
X60110201Y-94906889D01*
X60016800Y-94926742D01*
X60010772Y-94929426D01*
X60010769Y-94929427D01*
X59848366Y-95001733D01*
X59848364Y-95001734D01*
X59842336Y-95004418D01*
X59687835Y-95116670D01*
X59683414Y-95121580D01*
X59683413Y-95121581D01*
X59574409Y-95242643D01*
X59560048Y-95258592D01*
X59529900Y-95310810D01*
X59480098Y-95397070D01*
X59464561Y-95423980D01*
X59405546Y-95605608D01*
X59404856Y-95612169D01*
X59404856Y-95612171D01*
X59399193Y-95666050D01*
X59385584Y-95795536D01*
X52454060Y-95795536D01*
X52498559Y-95398819D01*
X52499000Y-95395328D01*
X52690854Y-94030218D01*
X52691385Y-94026788D01*
X52921297Y-92667466D01*
X52921904Y-92664164D01*
X53164295Y-91440000D01*
X63500896Y-91440000D01*
X63501586Y-91446565D01*
X63519465Y-91616670D01*
X63520858Y-91629928D01*
X63579873Y-91811556D01*
X63675360Y-91976944D01*
X63803147Y-92118866D01*
X63957648Y-92231118D01*
X63963676Y-92233802D01*
X63963678Y-92233803D01*
X64126081Y-92306109D01*
X64132112Y-92308794D01*
X64225512Y-92328647D01*
X64312456Y-92347128D01*
X64312461Y-92347128D01*
X64318913Y-92348500D01*
X64509887Y-92348500D01*
X64516339Y-92347128D01*
X64516344Y-92347128D01*
X64603288Y-92328647D01*
X64696688Y-92308794D01*
X64702719Y-92306109D01*
X64865122Y-92233803D01*
X64865124Y-92233802D01*
X64871152Y-92231118D01*
X65025653Y-92118866D01*
X65153440Y-91976944D01*
X65248927Y-91811556D01*
X65250538Y-91806598D01*
X111431238Y-91806598D01*
X111451200Y-91996526D01*
X111510215Y-92178154D01*
X111605702Y-92343542D01*
X111733489Y-92485464D01*
X111887990Y-92597716D01*
X111894018Y-92600400D01*
X111894020Y-92600401D01*
X112037116Y-92664111D01*
X112062454Y-92675392D01*
X112155854Y-92695245D01*
X112242798Y-92713726D01*
X112242803Y-92713726D01*
X112249255Y-92715098D01*
X112440229Y-92715098D01*
X112446681Y-92713726D01*
X112446686Y-92713726D01*
X112533629Y-92695245D01*
X112627030Y-92675392D01*
X112652368Y-92664111D01*
X112795464Y-92600401D01*
X112795466Y-92600400D01*
X112801494Y-92597716D01*
X112955995Y-92485464D01*
X113083782Y-92343542D01*
X113179269Y-92178154D01*
X113238284Y-91996526D01*
X113258246Y-91806598D01*
X113240337Y-91636206D01*
X113238974Y-91623233D01*
X113238974Y-91623231D01*
X113238284Y-91616670D01*
X113179269Y-91435042D01*
X113083782Y-91269654D01*
X112955995Y-91127732D01*
X112801494Y-91015480D01*
X112795466Y-91012796D01*
X112795464Y-91012795D01*
X112633061Y-90940489D01*
X112633060Y-90940489D01*
X112627030Y-90937804D01*
X112533629Y-90917951D01*
X112446686Y-90899470D01*
X112446681Y-90899470D01*
X112440229Y-90898098D01*
X112249255Y-90898098D01*
X112242803Y-90899470D01*
X112242798Y-90899470D01*
X112155854Y-90917951D01*
X112062454Y-90937804D01*
X112056424Y-90940489D01*
X112056423Y-90940489D01*
X111894020Y-91012795D01*
X111894018Y-91012796D01*
X111887990Y-91015480D01*
X111733489Y-91127732D01*
X111605702Y-91269654D01*
X111510215Y-91435042D01*
X111451200Y-91616670D01*
X111450510Y-91623231D01*
X111450510Y-91623233D01*
X111449147Y-91636206D01*
X111431238Y-91806598D01*
X65250538Y-91806598D01*
X65307942Y-91629928D01*
X65309336Y-91616670D01*
X65327214Y-91446565D01*
X65327904Y-91440000D01*
X65307942Y-91250072D01*
X65248927Y-91068444D01*
X65153440Y-90903056D01*
X65025653Y-90761134D01*
X64871152Y-90648882D01*
X64865124Y-90646198D01*
X64865122Y-90646197D01*
X64702719Y-90573891D01*
X64702718Y-90573891D01*
X64696688Y-90571206D01*
X64603287Y-90551353D01*
X64516344Y-90532872D01*
X64516339Y-90532872D01*
X64509887Y-90531500D01*
X64318913Y-90531500D01*
X64312461Y-90532872D01*
X64312456Y-90532872D01*
X64225513Y-90551353D01*
X64132112Y-90571206D01*
X64126082Y-90573891D01*
X64126081Y-90573891D01*
X63963678Y-90646197D01*
X63963676Y-90646198D01*
X63957648Y-90648882D01*
X63803147Y-90761134D01*
X63675360Y-90903056D01*
X63579873Y-91068444D01*
X63520858Y-91250072D01*
X63500896Y-91440000D01*
X53164295Y-91440000D01*
X53189666Y-91311865D01*
X53190393Y-91308444D01*
X53495807Y-89964159D01*
X53496635Y-89960739D01*
X53642591Y-89392279D01*
X53781715Y-88850428D01*
X60976226Y-88850428D01*
X60996188Y-89040356D01*
X61055203Y-89221984D01*
X61150690Y-89387372D01*
X61278477Y-89529294D01*
X61432978Y-89641546D01*
X61439006Y-89644230D01*
X61439008Y-89644231D01*
X61601409Y-89716536D01*
X61607442Y-89719222D01*
X61700842Y-89739075D01*
X61787786Y-89757556D01*
X61787791Y-89757556D01*
X61794243Y-89758928D01*
X61985217Y-89758928D01*
X61991669Y-89757556D01*
X61991674Y-89757556D01*
X62078618Y-89739075D01*
X62172018Y-89719222D01*
X62178051Y-89716536D01*
X62340452Y-89644231D01*
X62340454Y-89644230D01*
X62346482Y-89641546D01*
X62500983Y-89529294D01*
X62628770Y-89387372D01*
X62724257Y-89221984D01*
X62783272Y-89040356D01*
X62803234Y-88850428D01*
X62803234Y-88850427D01*
X140396766Y-88850427D01*
X140416728Y-89040355D01*
X140475743Y-89221983D01*
X140571230Y-89387371D01*
X140699017Y-89529293D01*
X140853518Y-89641545D01*
X140859546Y-89644229D01*
X140859548Y-89644230D01*
X141021951Y-89716536D01*
X141027982Y-89719221D01*
X141121382Y-89739074D01*
X141208326Y-89757555D01*
X141208331Y-89757555D01*
X141214783Y-89758927D01*
X141405757Y-89758927D01*
X141412209Y-89757555D01*
X141412214Y-89757555D01*
X141499158Y-89739074D01*
X141592558Y-89719221D01*
X141598589Y-89716536D01*
X141760992Y-89644230D01*
X141760994Y-89644229D01*
X141767022Y-89641545D01*
X141921523Y-89529293D01*
X142049310Y-89387371D01*
X142144797Y-89221983D01*
X142203812Y-89040355D01*
X142223774Y-88850427D01*
X142203812Y-88660499D01*
X142144797Y-88478871D01*
X142049310Y-88313483D01*
X141921523Y-88171561D01*
X141767022Y-88059309D01*
X141760994Y-88056625D01*
X141760992Y-88056624D01*
X141598589Y-87984318D01*
X141598588Y-87984318D01*
X141592558Y-87981633D01*
X141490708Y-87959984D01*
X141412214Y-87943299D01*
X141412209Y-87943299D01*
X141405757Y-87941927D01*
X141214783Y-87941927D01*
X141208331Y-87943299D01*
X141208326Y-87943299D01*
X141129832Y-87959984D01*
X141027982Y-87981633D01*
X141021952Y-87984318D01*
X141021951Y-87984318D01*
X140859548Y-88056624D01*
X140859546Y-88056625D01*
X140853518Y-88059309D01*
X140699017Y-88171561D01*
X140571230Y-88313483D01*
X140475743Y-88478871D01*
X140416728Y-88660499D01*
X140396766Y-88850427D01*
X62803234Y-88850427D01*
X62783272Y-88660500D01*
X62724257Y-88478872D01*
X62628770Y-88313484D01*
X62500983Y-88171562D01*
X62346482Y-88059310D01*
X62340454Y-88056626D01*
X62340452Y-88056625D01*
X62178049Y-87984319D01*
X62178046Y-87984318D01*
X62172018Y-87981634D01*
X62078617Y-87961781D01*
X61991674Y-87943300D01*
X61991669Y-87943300D01*
X61985217Y-87941928D01*
X61794243Y-87941928D01*
X61787791Y-87943300D01*
X61787786Y-87943300D01*
X61700843Y-87961781D01*
X61607442Y-87981634D01*
X61601414Y-87984318D01*
X61601411Y-87984319D01*
X61439008Y-88056625D01*
X61439006Y-88056626D01*
X61432978Y-88059310D01*
X61278477Y-88171562D01*
X61150690Y-88313484D01*
X61055203Y-88478872D01*
X60996188Y-88660500D01*
X60976226Y-88850428D01*
X53781715Y-88850428D01*
X53839448Y-88625571D01*
X53840367Y-88622186D01*
X54220343Y-87297054D01*
X54221352Y-87293711D01*
X54229350Y-87268500D01*
X54517543Y-86360000D01*
X97587696Y-86360000D01*
X97607658Y-86549928D01*
X97666673Y-86731556D01*
X97762160Y-86896944D01*
X97889947Y-87038866D01*
X98044448Y-87151118D01*
X98050476Y-87153802D01*
X98050478Y-87153803D01*
X98212881Y-87226109D01*
X98218912Y-87228794D01*
X98312313Y-87248647D01*
X98399256Y-87267128D01*
X98399261Y-87267128D01*
X98405713Y-87268500D01*
X98596687Y-87268500D01*
X98603139Y-87267128D01*
X98603144Y-87267128D01*
X98690087Y-87248647D01*
X98783488Y-87228794D01*
X98789519Y-87226109D01*
X98951922Y-87153803D01*
X98951924Y-87153802D01*
X98957952Y-87151118D01*
X99112453Y-87038866D01*
X99240240Y-86896944D01*
X99335727Y-86731556D01*
X99394742Y-86549928D01*
X99414704Y-86360000D01*
X110262296Y-86360000D01*
X110282258Y-86549928D01*
X110341273Y-86731556D01*
X110436760Y-86896944D01*
X110564547Y-87038866D01*
X110719048Y-87151118D01*
X110725076Y-87153802D01*
X110725078Y-87153803D01*
X110887481Y-87226109D01*
X110893512Y-87228794D01*
X110986913Y-87248647D01*
X111073856Y-87267128D01*
X111073861Y-87267128D01*
X111080313Y-87268500D01*
X111271287Y-87268500D01*
X111277739Y-87267128D01*
X111277744Y-87267128D01*
X111364687Y-87248647D01*
X111458088Y-87228794D01*
X111464119Y-87226109D01*
X111626522Y-87153803D01*
X111626524Y-87153802D01*
X111632552Y-87151118D01*
X111787053Y-87038866D01*
X111914840Y-86896944D01*
X112010327Y-86731556D01*
X112069342Y-86549928D01*
X112089304Y-86360000D01*
X112069342Y-86170072D01*
X112010327Y-85988444D01*
X112004330Y-85978056D01*
X111918141Y-85828774D01*
X111914840Y-85823056D01*
X111787053Y-85681134D01*
X111632552Y-85568882D01*
X111626524Y-85566198D01*
X111626522Y-85566197D01*
X111464119Y-85493891D01*
X111464118Y-85493891D01*
X111458088Y-85491206D01*
X111364687Y-85471353D01*
X111277744Y-85452872D01*
X111277739Y-85452872D01*
X111271287Y-85451500D01*
X111080313Y-85451500D01*
X111073861Y-85452872D01*
X111073856Y-85452872D01*
X110986913Y-85471353D01*
X110893512Y-85491206D01*
X110887482Y-85493891D01*
X110887481Y-85493891D01*
X110725078Y-85566197D01*
X110725076Y-85566198D01*
X110719048Y-85568882D01*
X110564547Y-85681134D01*
X110436760Y-85823056D01*
X110433459Y-85828774D01*
X110347271Y-85978056D01*
X110341273Y-85988444D01*
X110282258Y-86170072D01*
X110262296Y-86360000D01*
X99414704Y-86360000D01*
X99394742Y-86170072D01*
X99335727Y-85988444D01*
X99329730Y-85978056D01*
X99243541Y-85828774D01*
X99240240Y-85823056D01*
X99112453Y-85681134D01*
X98957952Y-85568882D01*
X98951924Y-85566198D01*
X98951922Y-85566197D01*
X98789519Y-85493891D01*
X98789518Y-85493891D01*
X98783488Y-85491206D01*
X98690087Y-85471353D01*
X98603144Y-85452872D01*
X98603139Y-85452872D01*
X98596687Y-85451500D01*
X98405713Y-85451500D01*
X98399261Y-85452872D01*
X98399256Y-85452872D01*
X98312313Y-85471353D01*
X98218912Y-85491206D01*
X98212882Y-85493891D01*
X98212881Y-85493891D01*
X98050478Y-85566197D01*
X98050476Y-85566198D01*
X98044448Y-85568882D01*
X97889947Y-85681134D01*
X97762160Y-85823056D01*
X97758859Y-85828774D01*
X97672671Y-85978056D01*
X97666673Y-85988444D01*
X97607658Y-86170072D01*
X97587696Y-86360000D01*
X54517543Y-86360000D01*
X54638178Y-85979711D01*
X54639288Y-85976376D01*
X55092631Y-84674551D01*
X55093805Y-84671325D01*
X55156682Y-84505800D01*
X67158496Y-84505800D01*
X67178458Y-84695728D01*
X67237473Y-84877356D01*
X67332960Y-85042744D01*
X67460747Y-85184666D01*
X67615248Y-85296918D01*
X67621276Y-85299602D01*
X67621278Y-85299603D01*
X67679606Y-85325572D01*
X67789712Y-85374594D01*
X67883112Y-85394447D01*
X67970056Y-85412928D01*
X67970061Y-85412928D01*
X67976513Y-85414300D01*
X68167487Y-85414300D01*
X68173939Y-85412928D01*
X68173944Y-85412928D01*
X68260888Y-85394447D01*
X68354288Y-85374594D01*
X68464394Y-85325572D01*
X68522722Y-85299603D01*
X68522724Y-85299602D01*
X68528752Y-85296918D01*
X68683253Y-85184666D01*
X68811040Y-85042744D01*
X68906527Y-84877356D01*
X68965542Y-84695728D01*
X68985504Y-84505800D01*
X68965542Y-84315872D01*
X68906527Y-84134244D01*
X68811040Y-83968856D01*
X68683253Y-83826934D01*
X68528752Y-83714682D01*
X68522724Y-83711998D01*
X68522722Y-83711997D01*
X68360319Y-83639691D01*
X68360318Y-83639691D01*
X68354288Y-83637006D01*
X68260887Y-83617153D01*
X68173944Y-83598672D01*
X68173939Y-83598672D01*
X68167487Y-83597300D01*
X67976513Y-83597300D01*
X67970061Y-83598672D01*
X67970056Y-83598672D01*
X67883113Y-83617153D01*
X67789712Y-83637006D01*
X67783682Y-83639691D01*
X67783681Y-83639691D01*
X67621278Y-83711997D01*
X67621276Y-83711998D01*
X67615248Y-83714682D01*
X67460747Y-83826934D01*
X67332960Y-83968856D01*
X67237473Y-84134244D01*
X67178458Y-84315872D01*
X67158496Y-84505800D01*
X55156682Y-84505800D01*
X55583337Y-83382623D01*
X55584632Y-83379352D01*
X56038821Y-82277405D01*
X63725780Y-82277405D01*
X63726470Y-82283970D01*
X63733496Y-82350814D01*
X63745742Y-82467333D01*
X63804757Y-82648961D01*
X63900244Y-82814349D01*
X64028031Y-82956271D01*
X64182532Y-83068523D01*
X64188560Y-83071207D01*
X64188562Y-83071208D01*
X64350965Y-83143514D01*
X64356996Y-83146199D01*
X64450397Y-83166052D01*
X64537340Y-83184533D01*
X64537345Y-83184533D01*
X64543797Y-83185905D01*
X64734771Y-83185905D01*
X64741223Y-83184533D01*
X64741228Y-83184533D01*
X64828171Y-83166052D01*
X64921572Y-83146199D01*
X64927603Y-83143514D01*
X65090006Y-83071208D01*
X65090008Y-83071207D01*
X65096036Y-83068523D01*
X65250537Y-82956271D01*
X65378324Y-82814349D01*
X65473811Y-82648961D01*
X65532826Y-82467333D01*
X65545073Y-82350814D01*
X65552098Y-82283970D01*
X65552788Y-82277405D01*
X137647211Y-82277405D01*
X137647901Y-82283970D01*
X137654927Y-82350814D01*
X137667173Y-82467333D01*
X137726188Y-82648961D01*
X137821675Y-82814349D01*
X137949462Y-82956271D01*
X138103963Y-83068523D01*
X138109991Y-83071207D01*
X138109993Y-83071208D01*
X138272396Y-83143514D01*
X138278427Y-83146199D01*
X138371828Y-83166052D01*
X138458771Y-83184533D01*
X138458776Y-83184533D01*
X138465228Y-83185905D01*
X138656202Y-83185905D01*
X138662654Y-83184533D01*
X138662659Y-83184533D01*
X138749602Y-83166052D01*
X138843003Y-83146199D01*
X138849034Y-83143514D01*
X139011437Y-83071208D01*
X139011439Y-83071207D01*
X139017467Y-83068523D01*
X139171968Y-82956271D01*
X139299755Y-82814349D01*
X139395242Y-82648961D01*
X139454257Y-82467333D01*
X139466504Y-82350814D01*
X139473529Y-82283970D01*
X139474219Y-82277405D01*
X139473529Y-82270840D01*
X139454947Y-82094040D01*
X139454947Y-82094038D01*
X139454257Y-82087477D01*
X139395242Y-81905849D01*
X139299755Y-81740461D01*
X139171968Y-81598539D01*
X139017467Y-81486287D01*
X139011439Y-81483603D01*
X139011437Y-81483602D01*
X138849034Y-81411296D01*
X138849033Y-81411296D01*
X138843003Y-81408611D01*
X138749602Y-81388758D01*
X138662659Y-81370277D01*
X138662654Y-81370277D01*
X138656202Y-81368905D01*
X138465228Y-81368905D01*
X138458776Y-81370277D01*
X138458771Y-81370277D01*
X138371828Y-81388758D01*
X138278427Y-81408611D01*
X138272397Y-81411296D01*
X138272396Y-81411296D01*
X138109993Y-81483602D01*
X138109991Y-81483603D01*
X138103963Y-81486287D01*
X137949462Y-81598539D01*
X137821675Y-81740461D01*
X137726188Y-81905849D01*
X137667173Y-82087477D01*
X137666483Y-82094038D01*
X137666483Y-82094040D01*
X137647901Y-82270840D01*
X137647211Y-82277405D01*
X65552788Y-82277405D01*
X65552098Y-82270840D01*
X65533516Y-82094040D01*
X65533516Y-82094038D01*
X65532826Y-82087477D01*
X65473811Y-81905849D01*
X65378324Y-81740461D01*
X65250537Y-81598539D01*
X65096036Y-81486287D01*
X65090008Y-81483603D01*
X65090006Y-81483602D01*
X64927603Y-81411296D01*
X64927602Y-81411296D01*
X64921572Y-81408611D01*
X64828171Y-81388758D01*
X64741228Y-81370277D01*
X64741223Y-81370277D01*
X64734771Y-81368905D01*
X64543797Y-81368905D01*
X64537345Y-81370277D01*
X64537340Y-81370277D01*
X64450397Y-81388758D01*
X64356996Y-81408611D01*
X64350966Y-81411296D01*
X64350965Y-81411296D01*
X64188562Y-81483602D01*
X64188560Y-81483603D01*
X64182532Y-81486287D01*
X64028031Y-81598539D01*
X63900244Y-81740461D01*
X63804757Y-81905849D01*
X63745742Y-82087477D01*
X63745052Y-82094038D01*
X63745052Y-82094040D01*
X63726470Y-82270840D01*
X63725780Y-82277405D01*
X56038821Y-82277405D01*
X56109941Y-82104854D01*
X56111327Y-82101620D01*
X56672018Y-80842289D01*
X56673494Y-80839095D01*
X57269132Y-79595901D01*
X57270697Y-79592750D01*
X57900780Y-78366742D01*
X57902431Y-78363635D01*
X58566548Y-77155611D01*
X58568286Y-77152552D01*
X58576552Y-77138464D01*
X58872772Y-76633568D01*
X59087075Y-76268298D01*
X67554004Y-76268298D01*
X67573966Y-76458226D01*
X67632981Y-76639854D01*
X67728468Y-76805242D01*
X67856255Y-76947164D01*
X68010756Y-77059416D01*
X68016784Y-77062100D01*
X68016786Y-77062101D01*
X68179187Y-77134406D01*
X68185220Y-77137092D01*
X68265123Y-77154076D01*
X68365564Y-77175426D01*
X68365569Y-77175426D01*
X68372021Y-77176798D01*
X68562995Y-77176798D01*
X68569447Y-77175426D01*
X68569452Y-77175426D01*
X68669893Y-77154076D01*
X68749796Y-77137092D01*
X68755829Y-77134406D01*
X68918230Y-77062101D01*
X68918232Y-77062100D01*
X68924260Y-77059416D01*
X69078761Y-76947164D01*
X69206548Y-76805242D01*
X69302035Y-76639854D01*
X69361050Y-76458226D01*
X69381012Y-76268298D01*
X69381012Y-76268297D01*
X133818987Y-76268297D01*
X133838949Y-76458225D01*
X133897964Y-76639853D01*
X133993451Y-76805241D01*
X134121238Y-76947163D01*
X134275739Y-77059415D01*
X134281767Y-77062099D01*
X134281769Y-77062100D01*
X134444172Y-77134406D01*
X134450203Y-77137091D01*
X134522941Y-77152552D01*
X134630547Y-77175425D01*
X134630552Y-77175425D01*
X134637004Y-77176797D01*
X134827978Y-77176797D01*
X134834430Y-77175425D01*
X134834435Y-77175425D01*
X134942041Y-77152552D01*
X135014779Y-77137091D01*
X135020810Y-77134406D01*
X135183213Y-77062100D01*
X135183215Y-77062099D01*
X135189243Y-77059415D01*
X135343744Y-76947163D01*
X135471531Y-76805241D01*
X135567018Y-76639853D01*
X135626033Y-76458225D01*
X135645995Y-76268297D01*
X135626033Y-76078369D01*
X135567018Y-75896741D01*
X135471531Y-75731353D01*
X135343744Y-75589431D01*
X135189243Y-75477179D01*
X135183215Y-75474495D01*
X135183213Y-75474494D01*
X135020810Y-75402188D01*
X135020809Y-75402188D01*
X135014779Y-75399503D01*
X134921378Y-75379650D01*
X134834435Y-75361169D01*
X134834430Y-75361169D01*
X134827978Y-75359797D01*
X134637004Y-75359797D01*
X134630552Y-75361169D01*
X134630547Y-75361169D01*
X134543604Y-75379650D01*
X134450203Y-75399503D01*
X134444173Y-75402188D01*
X134444172Y-75402188D01*
X134281769Y-75474494D01*
X134281767Y-75474495D01*
X134275739Y-75477179D01*
X134121238Y-75589431D01*
X133993451Y-75731353D01*
X133897964Y-75896741D01*
X133838949Y-76078369D01*
X133818987Y-76268297D01*
X69381012Y-76268297D01*
X69361050Y-76078370D01*
X69302035Y-75896742D01*
X69206548Y-75731354D01*
X69078761Y-75589432D01*
X68924260Y-75477180D01*
X68918232Y-75474496D01*
X68918230Y-75474495D01*
X68755827Y-75402189D01*
X68755824Y-75402188D01*
X68749796Y-75399504D01*
X68634496Y-75374996D01*
X68569452Y-75361170D01*
X68569447Y-75361170D01*
X68562995Y-75359798D01*
X68372021Y-75359798D01*
X68365569Y-75361170D01*
X68365564Y-75361170D01*
X68300520Y-75374996D01*
X68185220Y-75399504D01*
X68179192Y-75402188D01*
X68179189Y-75402189D01*
X68016786Y-75474495D01*
X68016784Y-75474496D01*
X68010756Y-75477180D01*
X67856255Y-75589432D01*
X67728468Y-75731354D01*
X67632981Y-75896742D01*
X67573966Y-76078370D01*
X67554004Y-76268298D01*
X59087075Y-76268298D01*
X59265851Y-75963582D01*
X59267674Y-75960572D01*
X59998171Y-74791531D01*
X60000077Y-74788574D01*
X60762926Y-73640395D01*
X60764914Y-73637492D01*
X61559513Y-72511075D01*
X61561581Y-72508228D01*
X62180259Y-71681224D01*
X62387348Y-71404403D01*
X62389489Y-71401623D01*
X62553509Y-71194682D01*
X62709020Y-70998476D01*
X72349173Y-70998476D01*
X72369135Y-71188404D01*
X72428150Y-71370032D01*
X72523637Y-71535420D01*
X72651424Y-71677342D01*
X72805925Y-71789594D01*
X72811953Y-71792278D01*
X72811955Y-71792279D01*
X72974356Y-71864584D01*
X72980389Y-71867270D01*
X73073790Y-71887123D01*
X73160733Y-71905604D01*
X73160738Y-71905604D01*
X73167190Y-71906976D01*
X73358164Y-71906976D01*
X73364616Y-71905604D01*
X73364621Y-71905604D01*
X73451564Y-71887123D01*
X73544965Y-71867270D01*
X73550998Y-71864584D01*
X73713399Y-71792279D01*
X73713401Y-71792278D01*
X73719429Y-71789594D01*
X73873930Y-71677342D01*
X74001717Y-71535420D01*
X74097204Y-71370032D01*
X74156219Y-71188404D01*
X74176181Y-70998476D01*
X74176181Y-70998475D01*
X129023818Y-70998475D01*
X129043780Y-71188403D01*
X129102795Y-71370031D01*
X129198282Y-71535419D01*
X129326069Y-71677341D01*
X129480570Y-71789593D01*
X129486598Y-71792277D01*
X129486600Y-71792278D01*
X129649003Y-71864584D01*
X129655034Y-71867269D01*
X129748434Y-71887122D01*
X129835378Y-71905603D01*
X129835383Y-71905603D01*
X129841835Y-71906975D01*
X130032809Y-71906975D01*
X130039261Y-71905603D01*
X130039266Y-71905603D01*
X130126210Y-71887122D01*
X130219610Y-71867269D01*
X130225641Y-71864584D01*
X130388044Y-71792278D01*
X130388046Y-71792277D01*
X130394074Y-71789593D01*
X130548575Y-71677341D01*
X130676362Y-71535419D01*
X130771849Y-71370031D01*
X130830864Y-71188403D01*
X130850826Y-70998475D01*
X130836111Y-70858465D01*
X130831554Y-70815110D01*
X130831554Y-70815108D01*
X130830864Y-70808547D01*
X130771849Y-70626919D01*
X130676362Y-70461531D01*
X130548575Y-70319609D01*
X130394074Y-70207357D01*
X130388046Y-70204673D01*
X130388044Y-70204672D01*
X130225641Y-70132366D01*
X130225640Y-70132366D01*
X130219610Y-70129681D01*
X130126210Y-70109828D01*
X130039266Y-70091347D01*
X130039261Y-70091347D01*
X130032809Y-70089975D01*
X129841835Y-70089975D01*
X129835383Y-70091347D01*
X129835378Y-70091347D01*
X129748434Y-70109828D01*
X129655034Y-70129681D01*
X129649004Y-70132366D01*
X129649003Y-70132366D01*
X129486600Y-70204672D01*
X129486598Y-70204673D01*
X129480570Y-70207357D01*
X129326069Y-70319609D01*
X129198282Y-70461531D01*
X129102795Y-70626919D01*
X129043780Y-70808547D01*
X129043090Y-70815108D01*
X129043090Y-70815110D01*
X129038533Y-70858465D01*
X129023818Y-70998475D01*
X74176181Y-70998475D01*
X74161614Y-70859880D01*
X74156909Y-70815111D01*
X74156909Y-70815109D01*
X74156219Y-70808548D01*
X74097204Y-70626920D01*
X74001717Y-70461532D01*
X73873930Y-70319610D01*
X73719429Y-70207358D01*
X73713401Y-70204674D01*
X73713399Y-70204673D01*
X73550996Y-70132367D01*
X73550993Y-70132366D01*
X73544965Y-70129682D01*
X73451565Y-70109829D01*
X73364621Y-70091348D01*
X73364616Y-70091348D01*
X73358164Y-70089976D01*
X73167190Y-70089976D01*
X73160738Y-70091348D01*
X73160733Y-70091348D01*
X73073789Y-70109829D01*
X72980389Y-70129682D01*
X72974361Y-70132366D01*
X72974358Y-70132367D01*
X72811955Y-70204673D01*
X72811953Y-70204674D01*
X72805925Y-70207358D01*
X72651424Y-70319610D01*
X72523637Y-70461532D01*
X72428150Y-70626920D01*
X72369135Y-70808548D01*
X72368445Y-70815109D01*
X72368445Y-70815111D01*
X72363740Y-70859880D01*
X72349173Y-70998476D01*
X62709020Y-70998476D01*
X63245740Y-70321304D01*
X63247961Y-70318580D01*
X63693609Y-69787477D01*
X64134057Y-69262571D01*
X64136320Y-69259949D01*
X65051583Y-68229064D01*
X65053955Y-68226467D01*
X65094519Y-68183271D01*
X65437531Y-67818000D01*
X98400496Y-67818000D01*
X98420458Y-68007928D01*
X98479473Y-68189556D01*
X98574960Y-68354944D01*
X98702747Y-68496866D01*
X98857248Y-68609118D01*
X98863276Y-68611802D01*
X98863278Y-68611803D01*
X99025681Y-68684109D01*
X99031712Y-68686794D01*
X99125112Y-68706647D01*
X99212056Y-68725128D01*
X99212061Y-68725128D01*
X99218513Y-68726500D01*
X99409487Y-68726500D01*
X99415939Y-68725128D01*
X99415944Y-68725128D01*
X99502888Y-68706647D01*
X99596288Y-68686794D01*
X99602319Y-68684109D01*
X99764722Y-68611803D01*
X99764724Y-68611802D01*
X99770752Y-68609118D01*
X99925253Y-68496866D01*
X100053040Y-68354944D01*
X100148527Y-68189556D01*
X100207542Y-68007928D01*
X100227504Y-67818000D01*
X100207542Y-67628072D01*
X100148527Y-67446444D01*
X100126893Y-67408972D01*
X100066566Y-67304484D01*
X100053040Y-67281056D01*
X99942852Y-67158679D01*
X99929675Y-67144045D01*
X99929674Y-67144044D01*
X99925253Y-67139134D01*
X99770752Y-67026882D01*
X99764724Y-67024198D01*
X99764722Y-67024197D01*
X99602319Y-66951891D01*
X99602318Y-66951891D01*
X99596288Y-66949206D01*
X99502888Y-66929353D01*
X99415944Y-66910872D01*
X99415939Y-66910872D01*
X99409487Y-66909500D01*
X99218513Y-66909500D01*
X99212061Y-66910872D01*
X99212056Y-66910872D01*
X99125112Y-66929353D01*
X99031712Y-66949206D01*
X99025682Y-66951891D01*
X99025681Y-66951891D01*
X98863278Y-67024197D01*
X98863276Y-67024198D01*
X98857248Y-67026882D01*
X98702747Y-67139134D01*
X98698326Y-67144044D01*
X98698325Y-67144045D01*
X98685149Y-67158679D01*
X98574960Y-67281056D01*
X98561434Y-67304484D01*
X98501108Y-67408972D01*
X98479473Y-67446444D01*
X98420458Y-67628072D01*
X98400496Y-67818000D01*
X65437531Y-67818000D01*
X65997598Y-67221588D01*
X66000031Y-67219069D01*
X66193548Y-67024197D01*
X66593210Y-66621735D01*
X77971344Y-66621735D01*
X77991306Y-66811663D01*
X78050321Y-66993291D01*
X78053624Y-66999013D01*
X78053625Y-66999014D01*
X78087534Y-67057745D01*
X78145808Y-67158679D01*
X78150226Y-67163586D01*
X78150227Y-67163587D01*
X78261145Y-67286774D01*
X78273595Y-67300601D01*
X78428096Y-67412853D01*
X78434124Y-67415537D01*
X78434126Y-67415538D01*
X78517659Y-67452729D01*
X78602560Y-67490529D01*
X78695960Y-67510382D01*
X78782904Y-67528863D01*
X78782909Y-67528863D01*
X78789361Y-67530235D01*
X78980335Y-67530235D01*
X78986787Y-67528863D01*
X78986792Y-67528863D01*
X79073736Y-67510382D01*
X79167136Y-67490529D01*
X79252037Y-67452729D01*
X79335570Y-67415538D01*
X79335572Y-67415537D01*
X79341600Y-67412853D01*
X79496101Y-67300601D01*
X79508551Y-67286774D01*
X79619469Y-67163587D01*
X79619470Y-67163586D01*
X79623888Y-67158679D01*
X79682162Y-67057745D01*
X79716071Y-66999014D01*
X79716072Y-66999013D01*
X79719375Y-66993291D01*
X79778390Y-66811663D01*
X79798352Y-66621735D01*
X79798352Y-66621734D01*
X123401647Y-66621734D01*
X123402337Y-66628299D01*
X123412803Y-66727873D01*
X123421609Y-66811662D01*
X123480624Y-66993290D01*
X123576111Y-67158678D01*
X123580529Y-67163585D01*
X123580530Y-67163586D01*
X123691449Y-67286774D01*
X123703898Y-67300600D01*
X123858399Y-67412852D01*
X123864427Y-67415536D01*
X123864429Y-67415537D01*
X124026832Y-67487843D01*
X124032863Y-67490528D01*
X124126264Y-67510381D01*
X124213207Y-67528862D01*
X124213212Y-67528862D01*
X124219664Y-67530234D01*
X124410638Y-67530234D01*
X124417090Y-67528862D01*
X124417095Y-67528862D01*
X124504038Y-67510381D01*
X124597439Y-67490528D01*
X124603470Y-67487843D01*
X124765873Y-67415537D01*
X124765875Y-67415536D01*
X124771903Y-67412852D01*
X124926404Y-67300600D01*
X124938853Y-67286774D01*
X125049772Y-67163586D01*
X125049773Y-67163585D01*
X125054191Y-67158678D01*
X125149678Y-66993290D01*
X125208693Y-66811662D01*
X125217500Y-66727873D01*
X125227965Y-66628299D01*
X125228655Y-66621734D01*
X125208693Y-66431806D01*
X125149678Y-66250178D01*
X125144337Y-66240926D01*
X125057492Y-66090508D01*
X125054191Y-66084790D01*
X125044343Y-66073852D01*
X124930826Y-65947779D01*
X124930825Y-65947778D01*
X124926404Y-65942868D01*
X124771903Y-65830616D01*
X124765875Y-65827932D01*
X124765873Y-65827931D01*
X124603470Y-65755625D01*
X124603469Y-65755625D01*
X124597439Y-65752940D01*
X124504038Y-65733087D01*
X124417095Y-65714606D01*
X124417090Y-65714606D01*
X124410638Y-65713234D01*
X124219664Y-65713234D01*
X124213212Y-65714606D01*
X124213207Y-65714606D01*
X124126264Y-65733087D01*
X124032863Y-65752940D01*
X124026833Y-65755625D01*
X124026832Y-65755625D01*
X123864429Y-65827931D01*
X123864427Y-65827932D01*
X123858399Y-65830616D01*
X123703898Y-65942868D01*
X123699477Y-65947778D01*
X123699476Y-65947779D01*
X123585960Y-66073852D01*
X123576111Y-66084790D01*
X123572810Y-66090508D01*
X123485966Y-66240926D01*
X123480624Y-66250178D01*
X123421609Y-66431806D01*
X123401647Y-66621734D01*
X79798352Y-66621734D01*
X79779304Y-66440500D01*
X79779080Y-66438370D01*
X79779080Y-66438368D01*
X79778390Y-66431807D01*
X79719375Y-66250179D01*
X79698920Y-66214749D01*
X79627189Y-66090509D01*
X79623888Y-66084791D01*
X79614039Y-66073852D01*
X79500523Y-65947780D01*
X79500522Y-65947779D01*
X79496101Y-65942869D01*
X79341600Y-65830617D01*
X79335572Y-65827933D01*
X79335570Y-65827932D01*
X79173167Y-65755626D01*
X79173164Y-65755625D01*
X79167136Y-65752941D01*
X79050768Y-65728206D01*
X78986792Y-65714607D01*
X78986787Y-65714607D01*
X78980335Y-65713235D01*
X78789361Y-65713235D01*
X78782909Y-65714607D01*
X78782904Y-65714607D01*
X78718928Y-65728206D01*
X78602560Y-65752941D01*
X78596532Y-65755625D01*
X78596529Y-65755626D01*
X78434126Y-65827932D01*
X78434124Y-65827933D01*
X78428096Y-65830617D01*
X78273595Y-65942869D01*
X78269174Y-65947779D01*
X78269173Y-65947780D01*
X78155658Y-66073852D01*
X78145808Y-66084791D01*
X78142507Y-66090509D01*
X78070777Y-66214749D01*
X78050321Y-66250179D01*
X77991306Y-66431807D01*
X77990616Y-66438368D01*
X77990616Y-66438370D01*
X77990392Y-66440500D01*
X77971344Y-66621735D01*
X66593210Y-66621735D01*
X66788052Y-66425528D01*
X66971370Y-66240926D01*
X66973884Y-66238464D01*
X67715744Y-65532000D01*
X105893496Y-65532000D01*
X105894186Y-65538565D01*
X105912689Y-65714607D01*
X105913458Y-65721928D01*
X105972473Y-65903556D01*
X105975776Y-65909278D01*
X105975777Y-65909279D01*
X105995170Y-65942868D01*
X106067960Y-66068944D01*
X106072378Y-66073851D01*
X106072379Y-66073852D01*
X106082228Y-66084790D01*
X106195747Y-66210866D01*
X106350248Y-66323118D01*
X106356276Y-66325802D01*
X106356278Y-66325803D01*
X106518681Y-66398109D01*
X106524712Y-66400794D01*
X106618112Y-66420647D01*
X106705056Y-66439128D01*
X106705061Y-66439128D01*
X106711513Y-66440500D01*
X106902487Y-66440500D01*
X106908939Y-66439128D01*
X106908944Y-66439128D01*
X106995888Y-66420647D01*
X107089288Y-66400794D01*
X107095319Y-66398109D01*
X107257722Y-66325803D01*
X107257724Y-66325802D01*
X107263752Y-66323118D01*
X107418253Y-66210866D01*
X107531772Y-66084790D01*
X107541621Y-66073852D01*
X107541622Y-66073851D01*
X107546040Y-66068944D01*
X107618830Y-65942868D01*
X107638223Y-65909279D01*
X107638224Y-65909278D01*
X107641527Y-65903556D01*
X107700542Y-65721928D01*
X107701312Y-65714607D01*
X107719814Y-65538565D01*
X107720504Y-65532000D01*
X107700542Y-65342072D01*
X107641527Y-65160444D01*
X107546040Y-64995056D01*
X107418253Y-64853134D01*
X107263752Y-64740882D01*
X107257724Y-64738198D01*
X107257722Y-64738197D01*
X107095319Y-64665891D01*
X107095318Y-64665891D01*
X107089288Y-64663206D01*
X106995887Y-64643353D01*
X106908944Y-64624872D01*
X106908939Y-64624872D01*
X106902487Y-64623500D01*
X106711513Y-64623500D01*
X106705061Y-64624872D01*
X106705056Y-64624872D01*
X106618113Y-64643353D01*
X106524712Y-64663206D01*
X106518682Y-64665891D01*
X106518681Y-64665891D01*
X106356278Y-64738197D01*
X106356276Y-64738198D01*
X106350248Y-64740882D01*
X106195747Y-64853134D01*
X106067960Y-64995056D01*
X105972473Y-65160444D01*
X105913458Y-65342072D01*
X105893496Y-65532000D01*
X67715744Y-65532000D01*
X67972175Y-65287804D01*
X67974757Y-65285414D01*
X68113550Y-65160444D01*
X68999162Y-64363036D01*
X69001796Y-64360730D01*
X69220843Y-64174307D01*
X69657419Y-63802751D01*
X70051586Y-63467289D01*
X70054297Y-63465046D01*
X70302100Y-63265807D01*
X84256439Y-63265807D01*
X84276401Y-63455735D01*
X84335416Y-63637363D01*
X84430903Y-63802751D01*
X84558690Y-63944673D01*
X84713191Y-64056925D01*
X84719219Y-64059609D01*
X84719221Y-64059610D01*
X84722743Y-64061178D01*
X84887655Y-64134601D01*
X84981056Y-64154454D01*
X85067999Y-64172935D01*
X85068004Y-64172935D01*
X85074456Y-64174307D01*
X85265430Y-64174307D01*
X85271882Y-64172935D01*
X85271887Y-64172935D01*
X85358830Y-64154454D01*
X85452231Y-64134601D01*
X85617143Y-64061178D01*
X85620665Y-64059610D01*
X85620667Y-64059609D01*
X85626695Y-64056925D01*
X85781196Y-63944673D01*
X85908983Y-63802751D01*
X86004470Y-63637363D01*
X86063485Y-63455735D01*
X86083447Y-63265807D01*
X86083447Y-63265806D01*
X117116552Y-63265806D01*
X117136514Y-63455734D01*
X117195529Y-63637362D01*
X117291016Y-63802750D01*
X117418803Y-63944672D01*
X117573304Y-64056924D01*
X117579332Y-64059608D01*
X117579334Y-64059609D01*
X117741737Y-64131915D01*
X117747768Y-64134600D01*
X117841169Y-64154453D01*
X117928112Y-64172934D01*
X117928117Y-64172934D01*
X117934569Y-64174306D01*
X118125543Y-64174306D01*
X118131995Y-64172934D01*
X118132000Y-64172934D01*
X118218943Y-64154453D01*
X118312344Y-64134600D01*
X118318375Y-64131915D01*
X118480778Y-64059609D01*
X118480780Y-64059608D01*
X118486808Y-64056924D01*
X118641309Y-63944672D01*
X118769096Y-63802750D01*
X118864583Y-63637362D01*
X118923598Y-63455734D01*
X118943560Y-63265806D01*
X118923598Y-63075878D01*
X118864583Y-62894250D01*
X118769096Y-62728862D01*
X118652253Y-62599094D01*
X118645731Y-62591851D01*
X118645730Y-62591850D01*
X118641309Y-62586940D01*
X118486808Y-62474688D01*
X118480780Y-62472004D01*
X118480778Y-62472003D01*
X118318375Y-62399697D01*
X118318374Y-62399697D01*
X118312344Y-62397012D01*
X118218943Y-62377159D01*
X118132000Y-62358678D01*
X118131995Y-62358678D01*
X118125543Y-62357306D01*
X117934569Y-62357306D01*
X117928117Y-62358678D01*
X117928112Y-62358678D01*
X117841169Y-62377159D01*
X117747768Y-62397012D01*
X117741738Y-62399697D01*
X117741737Y-62399697D01*
X117579334Y-62472003D01*
X117579332Y-62472004D01*
X117573304Y-62474688D01*
X117418803Y-62586940D01*
X117414382Y-62591850D01*
X117414381Y-62591851D01*
X117407860Y-62599094D01*
X117291016Y-62728862D01*
X117195529Y-62894250D01*
X117136514Y-63075878D01*
X117116552Y-63265806D01*
X86083447Y-63265806D01*
X86063485Y-63075879D01*
X86004470Y-62894251D01*
X85908983Y-62728863D01*
X85899967Y-62718849D01*
X85785618Y-62591852D01*
X85785617Y-62591851D01*
X85781196Y-62586941D01*
X85626695Y-62474689D01*
X85620667Y-62472005D01*
X85620665Y-62472004D01*
X85458262Y-62399698D01*
X85458259Y-62399697D01*
X85452231Y-62397013D01*
X85358831Y-62377160D01*
X85271887Y-62358679D01*
X85271882Y-62358679D01*
X85265430Y-62357307D01*
X85074456Y-62357307D01*
X85068004Y-62358679D01*
X85067999Y-62358679D01*
X84981055Y-62377160D01*
X84887655Y-62397013D01*
X84881627Y-62399697D01*
X84881624Y-62399698D01*
X84719221Y-62472004D01*
X84719219Y-62472005D01*
X84713191Y-62474689D01*
X84558690Y-62586941D01*
X84554269Y-62591851D01*
X84554268Y-62591852D01*
X84439920Y-62718849D01*
X84430903Y-62728863D01*
X84335416Y-62894251D01*
X84276401Y-63075879D01*
X84256439Y-63265807D01*
X70302100Y-63265807D01*
X71128630Y-62601260D01*
X71131402Y-62599094D01*
X71140943Y-62591852D01*
X72229415Y-61765657D01*
X72232220Y-61763589D01*
X73258798Y-61028631D01*
X91021032Y-61028631D01*
X91040994Y-61218559D01*
X91100009Y-61400187D01*
X91195496Y-61565575D01*
X91323283Y-61707497D01*
X91477784Y-61819749D01*
X91483812Y-61822433D01*
X91483814Y-61822434D01*
X91646217Y-61894740D01*
X91652248Y-61897425D01*
X91745648Y-61917278D01*
X91832592Y-61935759D01*
X91832597Y-61935759D01*
X91839049Y-61937131D01*
X92030023Y-61937131D01*
X92036475Y-61935759D01*
X92036480Y-61935759D01*
X92123424Y-61917278D01*
X92216824Y-61897425D01*
X92222855Y-61894740D01*
X92385258Y-61822434D01*
X92385260Y-61822433D01*
X92391288Y-61819749D01*
X92545789Y-61707497D01*
X92673576Y-61565575D01*
X92769063Y-61400187D01*
X92828078Y-61218559D01*
X92847244Y-61036200D01*
X99899096Y-61036200D01*
X99899786Y-61042764D01*
X99899786Y-61042765D01*
X99917573Y-61211996D01*
X99919058Y-61226128D01*
X99978073Y-61407756D01*
X100073560Y-61573144D01*
X100201347Y-61715066D01*
X100251208Y-61751292D01*
X100311152Y-61794844D01*
X100355848Y-61827318D01*
X100361876Y-61830002D01*
X100361878Y-61830003D01*
X100516393Y-61898797D01*
X100530312Y-61904994D01*
X100623712Y-61924847D01*
X100710656Y-61943328D01*
X100710661Y-61943328D01*
X100717113Y-61944700D01*
X100908087Y-61944700D01*
X100914539Y-61943328D01*
X100914544Y-61943328D01*
X101001488Y-61924847D01*
X101094888Y-61904994D01*
X101108807Y-61898797D01*
X101263322Y-61830003D01*
X101263324Y-61830002D01*
X101269352Y-61827318D01*
X101274694Y-61823437D01*
X101341154Y-61775151D01*
X101408022Y-61751292D01*
X101477174Y-61767373D01*
X101526654Y-61818287D01*
X101540525Y-61890256D01*
X101525196Y-62036100D01*
X101545158Y-62226028D01*
X101604173Y-62407656D01*
X101699660Y-62573044D01*
X101704078Y-62577951D01*
X101704079Y-62577952D01*
X101823025Y-62710055D01*
X101827447Y-62714966D01*
X101981948Y-62827218D01*
X101987976Y-62829902D01*
X101987978Y-62829903D01*
X102150381Y-62902209D01*
X102156412Y-62904894D01*
X102249812Y-62924747D01*
X102336756Y-62943228D01*
X102336761Y-62943228D01*
X102343213Y-62944600D01*
X102534187Y-62944600D01*
X102540639Y-62943228D01*
X102540644Y-62943228D01*
X102627588Y-62924747D01*
X102720988Y-62904894D01*
X102727019Y-62902209D01*
X102889422Y-62829903D01*
X102889424Y-62829902D01*
X102895452Y-62827218D01*
X103049953Y-62714966D01*
X103054375Y-62710055D01*
X103173321Y-62577952D01*
X103173322Y-62577951D01*
X103177740Y-62573044D01*
X103273227Y-62407656D01*
X103332242Y-62226028D01*
X103352204Y-62036100D01*
X103338569Y-61906366D01*
X103332932Y-61852735D01*
X103332932Y-61852733D01*
X103332242Y-61846172D01*
X103273227Y-61664544D01*
X103177740Y-61499156D01*
X103049953Y-61357234D01*
X102895452Y-61244982D01*
X102889424Y-61242298D01*
X102889422Y-61242297D01*
X102727019Y-61169991D01*
X102727018Y-61169991D01*
X102720988Y-61167306D01*
X102627588Y-61147453D01*
X102540644Y-61128972D01*
X102540639Y-61128972D01*
X102534187Y-61127600D01*
X102343213Y-61127600D01*
X102336761Y-61128972D01*
X102336756Y-61128972D01*
X102249812Y-61147453D01*
X102156412Y-61167306D01*
X102150382Y-61169991D01*
X102150381Y-61169991D01*
X101987978Y-61242297D01*
X101987976Y-61242298D01*
X101981948Y-61244982D01*
X101976607Y-61248862D01*
X101976606Y-61248863D01*
X101910146Y-61297149D01*
X101843278Y-61321008D01*
X101774126Y-61304927D01*
X101724646Y-61254013D01*
X101710775Y-61182044D01*
X101726104Y-61036200D01*
X101725308Y-61028631D01*
X110351959Y-61028631D01*
X110371921Y-61218559D01*
X110430936Y-61400187D01*
X110526423Y-61565575D01*
X110654210Y-61707497D01*
X110808711Y-61819749D01*
X110814739Y-61822433D01*
X110814741Y-61822434D01*
X110977144Y-61894740D01*
X110983175Y-61897425D01*
X111076575Y-61917278D01*
X111163519Y-61935759D01*
X111163524Y-61935759D01*
X111169976Y-61937131D01*
X111360950Y-61937131D01*
X111367402Y-61935759D01*
X111367407Y-61935759D01*
X111454351Y-61917278D01*
X111547751Y-61897425D01*
X111553782Y-61894740D01*
X111716185Y-61822434D01*
X111716187Y-61822433D01*
X111722215Y-61819749D01*
X111876716Y-61707497D01*
X112004503Y-61565575D01*
X112099990Y-61400187D01*
X112159005Y-61218559D01*
X112178967Y-61028631D01*
X112169864Y-60942023D01*
X112159695Y-60845266D01*
X112159695Y-60845264D01*
X112159005Y-60838703D01*
X112099990Y-60657075D01*
X112004503Y-60491687D01*
X111876716Y-60349765D01*
X111722215Y-60237513D01*
X111716187Y-60234829D01*
X111716185Y-60234828D01*
X111553782Y-60162522D01*
X111553781Y-60162522D01*
X111547751Y-60159837D01*
X111451636Y-60139407D01*
X111367407Y-60121503D01*
X111367402Y-60121503D01*
X111360950Y-60120131D01*
X111169976Y-60120131D01*
X111163524Y-60121503D01*
X111163519Y-60121503D01*
X111079290Y-60139407D01*
X110983175Y-60159837D01*
X110977145Y-60162522D01*
X110977144Y-60162522D01*
X110814741Y-60234828D01*
X110814739Y-60234829D01*
X110808711Y-60237513D01*
X110654210Y-60349765D01*
X110526423Y-60491687D01*
X110430936Y-60657075D01*
X110371921Y-60838703D01*
X110371231Y-60845264D01*
X110371231Y-60845266D01*
X110361062Y-60942023D01*
X110351959Y-61028631D01*
X101725308Y-61028631D01*
X101706142Y-60846272D01*
X101647127Y-60664644D01*
X101551640Y-60499256D01*
X101423853Y-60357334D01*
X101269352Y-60245082D01*
X101263324Y-60242398D01*
X101263322Y-60242397D01*
X101100919Y-60170091D01*
X101100918Y-60170091D01*
X101094888Y-60167406D01*
X100990959Y-60145315D01*
X100914544Y-60129072D01*
X100914539Y-60129072D01*
X100908087Y-60127700D01*
X100717113Y-60127700D01*
X100710661Y-60129072D01*
X100710656Y-60129072D01*
X100634241Y-60145315D01*
X100530312Y-60167406D01*
X100524282Y-60170091D01*
X100524281Y-60170091D01*
X100361878Y-60242397D01*
X100361876Y-60242398D01*
X100355848Y-60245082D01*
X100201347Y-60357334D01*
X100073560Y-60499256D01*
X99978073Y-60664644D01*
X99919058Y-60846272D01*
X99899096Y-61036200D01*
X92847244Y-61036200D01*
X92848040Y-61028631D01*
X92838937Y-60942023D01*
X92828768Y-60845266D01*
X92828768Y-60845264D01*
X92828078Y-60838703D01*
X92769063Y-60657075D01*
X92673576Y-60491687D01*
X92545789Y-60349765D01*
X92391288Y-60237513D01*
X92385260Y-60234829D01*
X92385258Y-60234828D01*
X92222855Y-60162522D01*
X92222854Y-60162522D01*
X92216824Y-60159837D01*
X92120709Y-60139407D01*
X92036480Y-60121503D01*
X92036475Y-60121503D01*
X92030023Y-60120131D01*
X91839049Y-60120131D01*
X91832597Y-60121503D01*
X91832592Y-60121503D01*
X91748363Y-60139407D01*
X91652248Y-60159837D01*
X91646218Y-60162522D01*
X91646217Y-60162522D01*
X91483814Y-60234828D01*
X91483812Y-60234829D01*
X91477784Y-60237513D01*
X91323283Y-60349765D01*
X91195496Y-60491687D01*
X91100009Y-60657075D01*
X91040994Y-60838703D01*
X91040304Y-60845264D01*
X91040304Y-60845266D01*
X91030135Y-60942023D01*
X91021032Y-61028631D01*
X73258798Y-61028631D01*
X73353113Y-60961108D01*
X73356003Y-60959100D01*
X73931856Y-60570682D01*
X74498846Y-60188243D01*
X74501756Y-60186339D01*
X75122761Y-59792237D01*
X96221500Y-59792237D01*
X96221800Y-59795293D01*
X96221800Y-59795300D01*
X96236034Y-59940466D01*
X96236635Y-59946592D01*
X96276474Y-60078546D01*
X96289263Y-60120906D01*
X96296632Y-60145315D01*
X96299527Y-60150760D01*
X96299528Y-60150762D01*
X96349680Y-60245082D01*
X96394087Y-60328599D01*
X96408183Y-60345882D01*
X96521390Y-60484689D01*
X96521393Y-60484692D01*
X96525285Y-60489464D01*
X96530033Y-60493392D01*
X96530034Y-60493393D01*
X96544033Y-60504974D01*
X96685230Y-60621783D01*
X96690647Y-60624712D01*
X96690650Y-60624714D01*
X96862410Y-60717584D01*
X96862415Y-60717586D01*
X96867830Y-60720514D01*
X97066129Y-60781898D01*
X97072254Y-60782542D01*
X97072255Y-60782542D01*
X97266446Y-60802952D01*
X97266448Y-60802952D01*
X97272575Y-60803596D01*
X97358485Y-60795777D01*
X97473164Y-60785341D01*
X97473167Y-60785340D01*
X97479303Y-60784782D01*
X97485209Y-60783044D01*
X97485213Y-60783043D01*
X97672531Y-60727912D01*
X97672530Y-60727912D01*
X97678440Y-60726173D01*
X97862400Y-60630001D01*
X98024177Y-60499929D01*
X98029662Y-60493393D01*
X98147087Y-60353451D01*
X98157609Y-60340911D01*
X98160573Y-60335519D01*
X98160576Y-60335515D01*
X98254646Y-60164402D01*
X98257613Y-60159005D01*
X98320379Y-59961139D01*
X98321350Y-59952489D01*
X98329659Y-59878402D01*
X98338500Y-59799587D01*
X98338500Y-59792237D01*
X104861500Y-59792237D01*
X104861800Y-59795293D01*
X104861800Y-59795300D01*
X104876034Y-59940466D01*
X104876635Y-59946592D01*
X104916474Y-60078546D01*
X104929263Y-60120906D01*
X104936632Y-60145315D01*
X104939527Y-60150760D01*
X104939528Y-60150762D01*
X104989680Y-60245082D01*
X105034087Y-60328599D01*
X105048183Y-60345882D01*
X105161390Y-60484689D01*
X105161393Y-60484692D01*
X105165285Y-60489464D01*
X105170033Y-60493392D01*
X105170034Y-60493393D01*
X105184033Y-60504974D01*
X105325230Y-60621783D01*
X105330647Y-60624712D01*
X105330650Y-60624714D01*
X105502410Y-60717584D01*
X105502415Y-60717586D01*
X105507830Y-60720514D01*
X105706129Y-60781898D01*
X105712254Y-60782542D01*
X105712255Y-60782542D01*
X105906446Y-60802952D01*
X105906448Y-60802952D01*
X105912575Y-60803596D01*
X105998485Y-60795777D01*
X106113164Y-60785341D01*
X106113167Y-60785340D01*
X106119303Y-60784782D01*
X106125209Y-60783044D01*
X106125213Y-60783043D01*
X106312531Y-60727912D01*
X106312530Y-60727912D01*
X106318440Y-60726173D01*
X106502400Y-60630001D01*
X106664177Y-60499929D01*
X106669662Y-60493393D01*
X106787087Y-60353451D01*
X106797609Y-60340911D01*
X106800573Y-60335519D01*
X106800576Y-60335515D01*
X106894646Y-60164402D01*
X106897613Y-60159005D01*
X106960379Y-59961139D01*
X106961350Y-59952489D01*
X106969659Y-59878402D01*
X106978500Y-59799587D01*
X106978500Y-58687763D01*
X106977780Y-58680413D01*
X106963966Y-58539534D01*
X106963965Y-58539531D01*
X106963365Y-58533408D01*
X106903368Y-58334685D01*
X106805913Y-58151401D01*
X106735343Y-58064873D01*
X106678610Y-57995311D01*
X106678607Y-57995308D01*
X106674715Y-57990536D01*
X106667770Y-57984790D01*
X106519518Y-57862145D01*
X106519519Y-57862145D01*
X106514770Y-57858217D01*
X106509353Y-57855288D01*
X106509350Y-57855286D01*
X106337590Y-57762416D01*
X106337585Y-57762414D01*
X106332170Y-57759486D01*
X106133871Y-57698102D01*
X106127746Y-57697458D01*
X106127745Y-57697458D01*
X105933554Y-57677048D01*
X105933552Y-57677048D01*
X105927425Y-57676404D01*
X105841515Y-57684223D01*
X105726836Y-57694659D01*
X105726833Y-57694660D01*
X105720697Y-57695218D01*
X105714791Y-57696956D01*
X105714787Y-57696957D01*
X105569689Y-57739662D01*
X105521560Y-57753827D01*
X105337600Y-57849999D01*
X105175823Y-57980071D01*
X105171865Y-57984788D01*
X105171863Y-57984790D01*
X105167042Y-57990536D01*
X105042391Y-58139089D01*
X105039427Y-58144481D01*
X105039424Y-58144485D01*
X105035622Y-58151401D01*
X104942387Y-58320995D01*
X104879621Y-58518861D01*
X104878935Y-58524978D01*
X104878934Y-58524982D01*
X104877989Y-58533408D01*
X104861500Y-58680413D01*
X104861500Y-59792237D01*
X98338500Y-59792237D01*
X98338500Y-58687763D01*
X98337780Y-58680413D01*
X98323966Y-58539534D01*
X98323965Y-58539531D01*
X98323365Y-58533408D01*
X98263368Y-58334685D01*
X98165913Y-58151401D01*
X98095343Y-58064873D01*
X98038610Y-57995311D01*
X98038607Y-57995308D01*
X98034715Y-57990536D01*
X98027770Y-57984790D01*
X97879518Y-57862145D01*
X97879519Y-57862145D01*
X97874770Y-57858217D01*
X97869353Y-57855288D01*
X97869350Y-57855286D01*
X97697590Y-57762416D01*
X97697585Y-57762414D01*
X97692170Y-57759486D01*
X97493871Y-57698102D01*
X97487746Y-57697458D01*
X97487745Y-57697458D01*
X97293554Y-57677048D01*
X97293552Y-57677048D01*
X97287425Y-57676404D01*
X97201515Y-57684223D01*
X97086836Y-57694659D01*
X97086833Y-57694660D01*
X97080697Y-57695218D01*
X97074791Y-57696956D01*
X97074787Y-57696957D01*
X96929689Y-57739662D01*
X96881560Y-57753827D01*
X96697600Y-57849999D01*
X96535823Y-57980071D01*
X96531865Y-57984788D01*
X96531863Y-57984790D01*
X96527042Y-57990536D01*
X96402391Y-58139089D01*
X96399427Y-58144481D01*
X96399424Y-58144485D01*
X96395622Y-58151401D01*
X96302387Y-58320995D01*
X96239621Y-58518861D01*
X96238935Y-58524978D01*
X96238934Y-58524982D01*
X96237989Y-58533408D01*
X96221500Y-58680413D01*
X96221500Y-59792237D01*
X75122761Y-59792237D01*
X75665660Y-59447703D01*
X75668657Y-59445859D01*
X76852744Y-58740002D01*
X76855791Y-58738243D01*
X78059093Y-58065740D01*
X78062188Y-58064066D01*
X79283839Y-57425402D01*
X79286979Y-57423816D01*
X79916916Y-57116575D01*
X80525983Y-56819513D01*
X80529155Y-56818021D01*
X81164851Y-56529657D01*
X81784513Y-56248566D01*
X81787734Y-56247158D01*
X83058534Y-55712963D01*
X83061796Y-55711645D01*
X84347023Y-55213138D01*
X84350321Y-55211912D01*
X85648928Y-54749499D01*
X85652259Y-54748365D01*
X86963272Y-54322391D01*
X86966633Y-54321350D01*
X88289075Y-53932135D01*
X88292464Y-53931189D01*
X89625229Y-53579057D01*
X89628643Y-53578206D01*
X90970730Y-53263422D01*
X90974166Y-53262667D01*
X91673966Y-53119019D01*
X92324470Y-52985490D01*
X92327925Y-52984830D01*
X92676266Y-52923408D01*
X93685553Y-52745444D01*
X93688981Y-52744889D01*
X95052675Y-52543516D01*
X95056146Y-52543052D01*
X96245175Y-52401269D01*
X96315184Y-52413065D01*
X96367703Y-52460838D01*
X96386056Y-52529422D01*
X96370508Y-52587084D01*
X96302387Y-52710995D01*
X96239621Y-52908861D01*
X96238935Y-52914978D01*
X96238934Y-52914982D01*
X96237989Y-52923408D01*
X96221500Y-53070413D01*
X96221500Y-54682237D01*
X96221800Y-54685293D01*
X96221800Y-54685300D01*
X96236034Y-54830466D01*
X96236635Y-54836592D01*
X96296632Y-55035315D01*
X96394087Y-55218599D01*
X96442917Y-55278471D01*
X96521390Y-55374689D01*
X96521393Y-55374692D01*
X96525285Y-55379464D01*
X96530033Y-55383392D01*
X96530034Y-55383393D01*
X96620902Y-55458566D01*
X96685230Y-55511783D01*
X96690647Y-55514712D01*
X96690650Y-55514714D01*
X96862410Y-55607584D01*
X96862415Y-55607586D01*
X96867830Y-55610514D01*
X97066129Y-55671898D01*
X97072254Y-55672542D01*
X97072255Y-55672542D01*
X97266446Y-55692952D01*
X97266448Y-55692952D01*
X97272575Y-55693596D01*
X97358485Y-55685777D01*
X97473164Y-55675341D01*
X97473167Y-55675340D01*
X97479303Y-55674782D01*
X97485209Y-55673044D01*
X97485213Y-55673043D01*
X97672531Y-55617912D01*
X97672530Y-55617912D01*
X97678440Y-55616173D01*
X97862400Y-55520001D01*
X98024177Y-55389929D01*
X98029662Y-55383393D01*
X98153650Y-55235629D01*
X98157609Y-55230911D01*
X98160573Y-55225519D01*
X98160576Y-55225515D01*
X98254646Y-55054402D01*
X98257613Y-55049005D01*
X98320379Y-54851139D01*
X98321350Y-54842489D01*
X98338107Y-54693087D01*
X98338500Y-54689587D01*
X98338500Y-53077763D01*
X98337780Y-53070413D01*
X98323966Y-52929534D01*
X98323965Y-52929531D01*
X98323365Y-52923408D01*
X98269637Y-52745448D01*
X98265152Y-52730593D01*
X98265151Y-52730590D01*
X98263368Y-52724685D01*
X98190717Y-52588050D01*
X98168809Y-52546847D01*
X98168808Y-52546845D01*
X98165913Y-52541401D01*
X98080482Y-52436652D01*
X98052928Y-52371220D01*
X98065124Y-52301279D01*
X98113196Y-52249033D01*
X98170213Y-52231265D01*
X99180593Y-52167697D01*
X99184108Y-52167525D01*
X100561758Y-52119416D01*
X100565275Y-52119342D01*
X101293370Y-52114259D01*
X101943781Y-52109718D01*
X101947275Y-52109743D01*
G37*
%TD.AperFunction*%
%TD*%
M02*
