%TF.GenerationSoftware,KiCad,Pcbnew,(6.0.7)*%
%TF.CreationDate,2022-10-20T10:19:37-04:00*%
%TF.ProjectId,SpiritBall,53706972-6974-4426-916c-6c2e6b696361,rev?*%
%TF.SameCoordinates,Original*%
%TF.FileFunction,Legend,Top*%
%TF.FilePolarity,Positive*%
%FSLAX46Y46*%
G04 Gerber Fmt 4.6, Leading zero omitted, Abs format (unit mm)*
G04 Created by KiCad (PCBNEW (6.0.7)) date 2022-10-20 10:19:37*
%MOMM*%
%LPD*%
G01*
G04 APERTURE LIST*
G04 Aperture macros list*
%AMRoundRect*
0 Rectangle with rounded corners*
0 $1 Rounding radius*
0 $2 $3 $4 $5 $6 $7 $8 $9 X,Y pos of 4 corners*
0 Add a 4 corners polygon primitive as box body*
4,1,4,$2,$3,$4,$5,$6,$7,$8,$9,$2,$3,0*
0 Add four circle primitives for the rounded corners*
1,1,$1+$1,$2,$3*
1,1,$1+$1,$4,$5*
1,1,$1+$1,$6,$7*
1,1,$1+$1,$8,$9*
0 Add four rect primitives between the rounded corners*
20,1,$1+$1,$2,$3,$4,$5,0*
20,1,$1+$1,$4,$5,$6,$7,0*
20,1,$1+$1,$6,$7,$8,$9,0*
20,1,$1+$1,$8,$9,$2,$3,0*%
%AMRotRect*
0 Rectangle, with rotation*
0 The origin of the aperture is its center*
0 $1 length*
0 $2 width*
0 $3 Rotation angle, in degrees counterclockwise*
0 Add horizontal line*
21,1,$1,$2,0,0,$3*%
G04 Aperture macros list end*
%ADD10C,0.150000*%
%ADD11C,0.080000*%
%ADD12C,0.120000*%
%ADD13C,0.127000*%
%ADD14C,0.200000*%
%ADD15R,0.900000X1.200000*%
%ADD16R,1.200000X0.900000*%
%ADD17R,0.600000X0.700000*%
%ADD18R,0.700000X0.600000*%
%ADD19RotRect,1.500000X1.000000X132.800000*%
%ADD20R,1.000000X0.750000*%
%ADD21RotRect,1.500000X1.000000X309.200000*%
%ADD22RoundRect,0.250001X-1.999999X-0.799999X1.999999X-0.799999X1.999999X0.799999X-1.999999X0.799999X0*%
%ADD23RotRect,1.500000X1.000000X211.200000*%
%ADD24RoundRect,0.135000X-0.185000X0.135000X-0.185000X-0.135000X0.185000X-0.135000X0.185000X0.135000X0*%
%ADD25RotRect,1.500000X1.000000X358.200000*%
%ADD26RotRect,1.500000X1.000000X289.600000*%
%ADD27RoundRect,0.140000X-0.170000X0.140000X-0.170000X-0.140000X0.170000X-0.140000X0.170000X0.140000X0*%
%ADD28R,1.000000X1.500000*%
%ADD29RotRect,1.500000X1.000000X76.600000*%
%ADD30RotRect,1.500000X1.000000X181.800000*%
%ADD31RoundRect,0.140000X-0.140000X-0.170000X0.140000X-0.170000X0.140000X0.170000X-0.140000X0.170000X0*%
%ADD32RotRect,1.500000X1.000000X338.600000*%
%ADD33RotRect,1.500000X1.000000X240.600000*%
%ADD34RoundRect,0.135000X0.135000X0.185000X-0.135000X0.185000X-0.135000X-0.185000X0.135000X-0.185000X0*%
%ADD35RotRect,1.500000X1.000000X57.000000*%
%ADD36RotRect,1.500000X1.000000X221.000000*%
%ADD37RotRect,1.500000X1.000000X47.200000*%
%ADD38RotRect,1.500000X1.000000X103.400000*%
%ADD39RotRect,1.500000X1.000000X348.400000*%
%ADD40RotRect,1.500000X1.000000X66.800000*%
%ADD41C,0.990600*%
%ADD42C,2.374900*%
%ADD43C,0.787400*%
%ADD44RoundRect,0.140000X0.170000X-0.140000X0.170000X0.140000X-0.170000X0.140000X-0.170000X-0.140000X0*%
%ADD45RotRect,1.500000X1.000000X123.000000*%
%ADD46RotRect,1.500000X1.000000X37.400000*%
%ADD47RoundRect,0.135000X0.185000X-0.135000X0.185000X0.135000X-0.185000X0.135000X-0.185000X-0.135000X0*%
%ADD48RotRect,1.500000X1.000000X17.800000*%
%ADD49RoundRect,0.135000X-0.135000X-0.185000X0.135000X-0.185000X0.135000X0.185000X-0.135000X0.185000X0*%
%ADD50RotRect,1.500000X1.000000X8.000000*%
%ADD51RotRect,1.500000X1.000000X27.600000*%
%ADD52RotRect,1.500000X1.000000X142.600000*%
%ADD53RotRect,1.500000X1.000000X279.800000*%
%ADD54RotRect,1.500000X1.000000X191.600000*%
%ADD55R,1.000000X1.000000*%
%ADD56O,1.000000X1.000000*%
%ADD57RotRect,1.500000X1.000000X152.400000*%
%ADD58RotRect,1.500000X1.000000X250.400000*%
%ADD59RotRect,1.500000X1.000000X328.800000*%
%ADD60R,1.500000X0.900000*%
%ADD61R,0.900000X1.500000*%
%ADD62R,0.900000X0.900000*%
%ADD63R,0.300000X0.700000*%
%ADD64R,1.000000X0.700000*%
%ADD65R,2.200000X1.200000*%
%ADD66R,6.400000X5.800000*%
%ADD67RotRect,1.500000X1.000000X319.000000*%
%ADD68RotRect,1.500000X1.000000X172.000000*%
%ADD69RotRect,1.500000X1.000000X113.200000*%
%ADD70RotRect,1.500000X1.000000X260.200000*%
%ADD71RotRect,1.500000X1.000000X201.400000*%
%ADD72RotRect,1.500000X1.000000X162.200000*%
%ADD73RotRect,1.500000X1.000000X230.800000*%
%ADD74RotRect,1.500000X1.000000X299.400000*%
G04 APERTURE END LIST*
D10*
X96934928Y-78666571D02*
X97077785Y-78714190D01*
X97125404Y-78761809D01*
X97173023Y-78857047D01*
X97173023Y-78999904D01*
X97125404Y-79095142D01*
X97077785Y-79142761D01*
X96982547Y-79190380D01*
X96601595Y-79190380D01*
X96601595Y-78190380D01*
X96934928Y-78190380D01*
X97030166Y-78238000D01*
X97077785Y-78285619D01*
X97125404Y-78380857D01*
X97125404Y-78476095D01*
X97077785Y-78571333D01*
X97030166Y-78618952D01*
X96934928Y-78666571D01*
X96601595Y-78666571D01*
X97601595Y-79190380D02*
X97601595Y-78523714D01*
X97601595Y-78714190D02*
X97649214Y-78618952D01*
X97696833Y-78571333D01*
X97792071Y-78523714D01*
X97887309Y-78523714D01*
X98601595Y-79142761D02*
X98506357Y-79190380D01*
X98315880Y-79190380D01*
X98220642Y-79142761D01*
X98173023Y-79047523D01*
X98173023Y-78666571D01*
X98220642Y-78571333D01*
X98315880Y-78523714D01*
X98506357Y-78523714D01*
X98601595Y-78571333D01*
X98649214Y-78666571D01*
X98649214Y-78761809D01*
X98173023Y-78857047D01*
X99077785Y-78523714D02*
X99077785Y-79190380D01*
X99077785Y-78618952D02*
X99125404Y-78571333D01*
X99220642Y-78523714D01*
X99363500Y-78523714D01*
X99458738Y-78571333D01*
X99506357Y-78666571D01*
X99506357Y-79190380D01*
X100411119Y-79190380D02*
X100411119Y-78190380D01*
X100411119Y-79142761D02*
X100315880Y-79190380D01*
X100125404Y-79190380D01*
X100030166Y-79142761D01*
X99982547Y-79095142D01*
X99934928Y-78999904D01*
X99934928Y-78714190D01*
X99982547Y-78618952D01*
X100030166Y-78571333D01*
X100125404Y-78523714D01*
X100315880Y-78523714D01*
X100411119Y-78571333D01*
X101030166Y-79190380D02*
X100934928Y-79142761D01*
X100887309Y-79095142D01*
X100839690Y-78999904D01*
X100839690Y-78714190D01*
X100887309Y-78618952D01*
X100934928Y-78571333D01*
X101030166Y-78523714D01*
X101173023Y-78523714D01*
X101268261Y-78571333D01*
X101315880Y-78618952D01*
X101363500Y-78714190D01*
X101363500Y-78999904D01*
X101315880Y-79095142D01*
X101268261Y-79142761D01*
X101173023Y-79190380D01*
X101030166Y-79190380D01*
X101792071Y-78523714D02*
X101792071Y-79190380D01*
X101792071Y-78618952D02*
X101839690Y-78571333D01*
X101934928Y-78523714D01*
X102077785Y-78523714D01*
X102173023Y-78571333D01*
X102220642Y-78666571D01*
X102220642Y-79190380D01*
X103458738Y-79190380D02*
X103458738Y-78190380D01*
X103792071Y-78904666D01*
X104125404Y-78190380D01*
X104125404Y-79190380D01*
X105030166Y-79142761D02*
X104934928Y-79190380D01*
X104744452Y-79190380D01*
X104649214Y-79142761D01*
X104601595Y-79095142D01*
X104553976Y-78999904D01*
X104553976Y-78714190D01*
X104601595Y-78618952D01*
X104649214Y-78571333D01*
X104744452Y-78523714D01*
X104934928Y-78523714D01*
X105030166Y-78571333D01*
X106030166Y-79095142D02*
X105982547Y-79142761D01*
X105839690Y-79190380D01*
X105744452Y-79190380D01*
X105601595Y-79142761D01*
X105506357Y-79047523D01*
X105458738Y-78952285D01*
X105411119Y-78761809D01*
X105411119Y-78618952D01*
X105458738Y-78428476D01*
X105506357Y-78333238D01*
X105601595Y-78238000D01*
X105744452Y-78190380D01*
X105839690Y-78190380D01*
X105982547Y-78238000D01*
X106030166Y-78285619D01*
X106601595Y-79190380D02*
X106506357Y-79142761D01*
X106458738Y-79095142D01*
X106411119Y-78999904D01*
X106411119Y-78714190D01*
X106458738Y-78618952D01*
X106506357Y-78571333D01*
X106601595Y-78523714D01*
X106744452Y-78523714D01*
X106839690Y-78571333D01*
X106887309Y-78618952D01*
X106934928Y-78714190D01*
X106934928Y-78999904D01*
X106887309Y-79095142D01*
X106839690Y-79142761D01*
X106744452Y-79190380D01*
X106601595Y-79190380D01*
X107506357Y-79190380D02*
X107411119Y-79142761D01*
X107363500Y-79095142D01*
X107315880Y-78999904D01*
X107315880Y-78714190D01*
X107363500Y-78618952D01*
X107411119Y-78571333D01*
X107506357Y-78523714D01*
X107649214Y-78523714D01*
X107744452Y-78571333D01*
X107792071Y-78618952D01*
X107839690Y-78714190D01*
X107839690Y-78999904D01*
X107792071Y-79095142D01*
X107744452Y-79142761D01*
X107649214Y-79190380D01*
X107506357Y-79190380D01*
X108411119Y-79190380D02*
X108315880Y-79142761D01*
X108268261Y-79047523D01*
X108268261Y-78190380D01*
X96553976Y-80752761D02*
X96696833Y-80800380D01*
X96934928Y-80800380D01*
X97030166Y-80752761D01*
X97077785Y-80705142D01*
X97125404Y-80609904D01*
X97125404Y-80514666D01*
X97077785Y-80419428D01*
X97030166Y-80371809D01*
X96934928Y-80324190D01*
X96744452Y-80276571D01*
X96649214Y-80228952D01*
X96601595Y-80181333D01*
X96553976Y-80086095D01*
X96553976Y-79990857D01*
X96601595Y-79895619D01*
X96649214Y-79848000D01*
X96744452Y-79800380D01*
X96982547Y-79800380D01*
X97125404Y-79848000D01*
X97553976Y-80133714D02*
X97553976Y-81133714D01*
X97553976Y-80181333D02*
X97649214Y-80133714D01*
X97839690Y-80133714D01*
X97934928Y-80181333D01*
X97982547Y-80228952D01*
X98030166Y-80324190D01*
X98030166Y-80609904D01*
X97982547Y-80705142D01*
X97934928Y-80752761D01*
X97839690Y-80800380D01*
X97649214Y-80800380D01*
X97553976Y-80752761D01*
X98458738Y-80800380D02*
X98458738Y-80133714D01*
X98458738Y-79800380D02*
X98411119Y-79848000D01*
X98458738Y-79895619D01*
X98506357Y-79848000D01*
X98458738Y-79800380D01*
X98458738Y-79895619D01*
X98934928Y-80800380D02*
X98934928Y-80133714D01*
X98934928Y-80324190D02*
X98982547Y-80228952D01*
X99030166Y-80181333D01*
X99125404Y-80133714D01*
X99220642Y-80133714D01*
X99553976Y-80800380D02*
X99553976Y-80133714D01*
X99553976Y-79800380D02*
X99506357Y-79848000D01*
X99553976Y-79895619D01*
X99601595Y-79848000D01*
X99553976Y-79800380D01*
X99553976Y-79895619D01*
X99887309Y-80133714D02*
X100268261Y-80133714D01*
X100030166Y-79800380D02*
X100030166Y-80657523D01*
X100077785Y-80752761D01*
X100173023Y-80800380D01*
X100268261Y-80800380D01*
X100934928Y-80276571D02*
X101077785Y-80324190D01*
X101125404Y-80371809D01*
X101173023Y-80467047D01*
X101173023Y-80609904D01*
X101125404Y-80705142D01*
X101077785Y-80752761D01*
X100982547Y-80800380D01*
X100601595Y-80800380D01*
X100601595Y-79800380D01*
X100934928Y-79800380D01*
X101030166Y-79848000D01*
X101077785Y-79895619D01*
X101125404Y-79990857D01*
X101125404Y-80086095D01*
X101077785Y-80181333D01*
X101030166Y-80228952D01*
X100934928Y-80276571D01*
X100601595Y-80276571D01*
X102030166Y-80800380D02*
X102030166Y-80276571D01*
X101982547Y-80181333D01*
X101887309Y-80133714D01*
X101696833Y-80133714D01*
X101601595Y-80181333D01*
X102030166Y-80752761D02*
X101934928Y-80800380D01*
X101696833Y-80800380D01*
X101601595Y-80752761D01*
X101553976Y-80657523D01*
X101553976Y-80562285D01*
X101601595Y-80467047D01*
X101696833Y-80419428D01*
X101934928Y-80419428D01*
X102030166Y-80371809D01*
X102649214Y-80800380D02*
X102553976Y-80752761D01*
X102506357Y-80657523D01*
X102506357Y-79800380D01*
X103173023Y-80800380D02*
X103077785Y-80752761D01*
X103030166Y-80657523D01*
X103030166Y-79800380D01*
X104173023Y-79800380D02*
X104506357Y-80800380D01*
X104839690Y-79800380D01*
X105363500Y-79800380D02*
X105458738Y-79800380D01*
X105553976Y-79848000D01*
X105601595Y-79895619D01*
X105649214Y-79990857D01*
X105696833Y-80181333D01*
X105696833Y-80419428D01*
X105649214Y-80609904D01*
X105601595Y-80705142D01*
X105553976Y-80752761D01*
X105458738Y-80800380D01*
X105363500Y-80800380D01*
X105268261Y-80752761D01*
X105220642Y-80705142D01*
X105173023Y-80609904D01*
X105125404Y-80419428D01*
X105125404Y-80181333D01*
X105173023Y-79990857D01*
X105220642Y-79895619D01*
X105268261Y-79848000D01*
X105363500Y-79800380D01*
X106125404Y-80705142D02*
X106173023Y-80752761D01*
X106125404Y-80800380D01*
X106077785Y-80752761D01*
X106125404Y-80705142D01*
X106125404Y-80800380D01*
X106506357Y-79800380D02*
X107125404Y-79800380D01*
X106792071Y-80181333D01*
X106934928Y-80181333D01*
X107030166Y-80228952D01*
X107077785Y-80276571D01*
X107125404Y-80371809D01*
X107125404Y-80609904D01*
X107077785Y-80705142D01*
X107030166Y-80752761D01*
X106934928Y-80800380D01*
X106649214Y-80800380D01*
X106553976Y-80752761D01*
X106506357Y-80705142D01*
X107553976Y-80705142D02*
X107601595Y-80752761D01*
X107553976Y-80800380D01*
X107506357Y-80752761D01*
X107553976Y-80705142D01*
X107553976Y-80800380D01*
X108220642Y-79800380D02*
X108315880Y-79800380D01*
X108411119Y-79848000D01*
X108458738Y-79895619D01*
X108506357Y-79990857D01*
X108553976Y-80181333D01*
X108553976Y-80419428D01*
X108506357Y-80609904D01*
X108458738Y-80705142D01*
X108411119Y-80752761D01*
X108315880Y-80800380D01*
X108220642Y-80800380D01*
X108125404Y-80752761D01*
X108077785Y-80705142D01*
X108030166Y-80609904D01*
X107982547Y-80419428D01*
X107982547Y-80181333D01*
X108030166Y-79990857D01*
X108077785Y-79895619D01*
X108125404Y-79848000D01*
X108220642Y-79800380D01*
X96553976Y-81505619D02*
X96601595Y-81458000D01*
X96696833Y-81410380D01*
X96934928Y-81410380D01*
X97030166Y-81458000D01*
X97077785Y-81505619D01*
X97125404Y-81600857D01*
X97125404Y-81696095D01*
X97077785Y-81838952D01*
X96506357Y-82410380D01*
X97125404Y-82410380D01*
X97744452Y-81410380D02*
X97839690Y-81410380D01*
X97934928Y-81458000D01*
X97982547Y-81505619D01*
X98030166Y-81600857D01*
X98077785Y-81791333D01*
X98077785Y-82029428D01*
X98030166Y-82219904D01*
X97982547Y-82315142D01*
X97934928Y-82362761D01*
X97839690Y-82410380D01*
X97744452Y-82410380D01*
X97649214Y-82362761D01*
X97601595Y-82315142D01*
X97553976Y-82219904D01*
X97506357Y-82029428D01*
X97506357Y-81791333D01*
X97553976Y-81600857D01*
X97601595Y-81505619D01*
X97649214Y-81458000D01*
X97744452Y-81410380D01*
X98458738Y-81505619D02*
X98506357Y-81458000D01*
X98601595Y-81410380D01*
X98839690Y-81410380D01*
X98934928Y-81458000D01*
X98982547Y-81505619D01*
X99030166Y-81600857D01*
X99030166Y-81696095D01*
X98982547Y-81838952D01*
X98411119Y-82410380D01*
X99030166Y-82410380D01*
X99411119Y-81505619D02*
X99458738Y-81458000D01*
X99553976Y-81410380D01*
X99792071Y-81410380D01*
X99887309Y-81458000D01*
X99934928Y-81505619D01*
X99982547Y-81600857D01*
X99982547Y-81696095D01*
X99934928Y-81838952D01*
X99363500Y-82410380D01*
X99982547Y-82410380D01*
X100411119Y-82029428D02*
X101173023Y-82029428D01*
X102173023Y-82410380D02*
X101601595Y-82410380D01*
X101887309Y-82410380D02*
X101887309Y-81410380D01*
X101792071Y-81553238D01*
X101696833Y-81648476D01*
X101601595Y-81696095D01*
X102792071Y-81410380D02*
X102887309Y-81410380D01*
X102982547Y-81458000D01*
X103030166Y-81505619D01*
X103077785Y-81600857D01*
X103125404Y-81791333D01*
X103125404Y-82029428D01*
X103077785Y-82219904D01*
X103030166Y-82315142D01*
X102982547Y-82362761D01*
X102887309Y-82410380D01*
X102792071Y-82410380D01*
X102696833Y-82362761D01*
X102649214Y-82315142D01*
X102601595Y-82219904D01*
X102553976Y-82029428D01*
X102553976Y-81791333D01*
X102601595Y-81600857D01*
X102649214Y-81505619D01*
X102696833Y-81458000D01*
X102792071Y-81410380D01*
X103553976Y-82029428D02*
X104315880Y-82029428D01*
X104744452Y-81505619D02*
X104792071Y-81458000D01*
X104887309Y-81410380D01*
X105125404Y-81410380D01*
X105220642Y-81458000D01*
X105268261Y-81505619D01*
X105315880Y-81600857D01*
X105315880Y-81696095D01*
X105268261Y-81838952D01*
X104696833Y-82410380D01*
X105315880Y-82410380D01*
X105934928Y-81410380D02*
X106030166Y-81410380D01*
X106125404Y-81458000D01*
X106173023Y-81505619D01*
X106220642Y-81600857D01*
X106268261Y-81791333D01*
X106268261Y-82029428D01*
X106220642Y-82219904D01*
X106173023Y-82315142D01*
X106125404Y-82362761D01*
X106030166Y-82410380D01*
X105934928Y-82410380D01*
X105839690Y-82362761D01*
X105792071Y-82315142D01*
X105744452Y-82219904D01*
X105696833Y-82029428D01*
X105696833Y-81791333D01*
X105744452Y-81600857D01*
X105792071Y-81505619D01*
X105839690Y-81458000D01*
X105934928Y-81410380D01*
X96887309Y-83020380D02*
X96887309Y-83734666D01*
X96839690Y-83877523D01*
X96744452Y-83972761D01*
X96601595Y-84020380D01*
X96506357Y-84020380D01*
X97839690Y-84020380D02*
X97363500Y-84020380D01*
X97363500Y-83020380D01*
X98744452Y-83925142D02*
X98696833Y-83972761D01*
X98553976Y-84020380D01*
X98458738Y-84020380D01*
X98315880Y-83972761D01*
X98220642Y-83877523D01*
X98173023Y-83782285D01*
X98125404Y-83591809D01*
X98125404Y-83448952D01*
X98173023Y-83258476D01*
X98220642Y-83163238D01*
X98315880Y-83068000D01*
X98458738Y-83020380D01*
X98553976Y-83020380D01*
X98696833Y-83068000D01*
X98744452Y-83115619D01*
X99458738Y-83020380D02*
X99458738Y-83734666D01*
X99411119Y-83877523D01*
X99315880Y-83972761D01*
X99173023Y-84020380D01*
X99077785Y-84020380D01*
X100411119Y-84020380D02*
X99934928Y-84020380D01*
X99934928Y-83020380D01*
X101315880Y-83925142D02*
X101268261Y-83972761D01*
X101125404Y-84020380D01*
X101030166Y-84020380D01*
X100887309Y-83972761D01*
X100792071Y-83877523D01*
X100744452Y-83782285D01*
X100696833Y-83591809D01*
X100696833Y-83448952D01*
X100744452Y-83258476D01*
X100792071Y-83163238D01*
X100887309Y-83068000D01*
X101030166Y-83020380D01*
X101125404Y-83020380D01*
X101268261Y-83068000D01*
X101315880Y-83115619D01*
X102030166Y-83020380D02*
X102030166Y-83734666D01*
X101982547Y-83877523D01*
X101887309Y-83972761D01*
X101744452Y-84020380D01*
X101649214Y-84020380D01*
X102982547Y-84020380D02*
X102506357Y-84020380D01*
X102506357Y-83020380D01*
X103887309Y-83925142D02*
X103839690Y-83972761D01*
X103696833Y-84020380D01*
X103601595Y-84020380D01*
X103458738Y-83972761D01*
X103363500Y-83877523D01*
X103315880Y-83782285D01*
X103268261Y-83591809D01*
X103268261Y-83448952D01*
X103315880Y-83258476D01*
X103363500Y-83163238D01*
X103458738Y-83068000D01*
X103601595Y-83020380D01*
X103696833Y-83020380D01*
X103839690Y-83068000D01*
X103887309Y-83115619D01*
X104601595Y-83020380D02*
X104601595Y-83734666D01*
X104553976Y-83877523D01*
X104458738Y-83972761D01*
X104315880Y-84020380D01*
X104220642Y-84020380D01*
X105553976Y-84020380D02*
X105077785Y-84020380D01*
X105077785Y-83020380D01*
X106458738Y-83925142D02*
X106411119Y-83972761D01*
X106268261Y-84020380D01*
X106173023Y-84020380D01*
X106030166Y-83972761D01*
X105934928Y-83877523D01*
X105887309Y-83782285D01*
X105839690Y-83591809D01*
X105839690Y-83448952D01*
X105887309Y-83258476D01*
X105934928Y-83163238D01*
X106030166Y-83068000D01*
X106173023Y-83020380D01*
X106268261Y-83020380D01*
X106411119Y-83068000D01*
X106458738Y-83115619D01*
%TO.C,D38*%
X78795714Y-104878380D02*
X78795714Y-103878380D01*
X79033809Y-103878380D01*
X79176666Y-103926000D01*
X79271904Y-104021238D01*
X79319523Y-104116476D01*
X79367142Y-104306952D01*
X79367142Y-104449809D01*
X79319523Y-104640285D01*
X79271904Y-104735523D01*
X79176666Y-104830761D01*
X79033809Y-104878380D01*
X78795714Y-104878380D01*
X79700476Y-103878380D02*
X80319523Y-103878380D01*
X79986190Y-104259333D01*
X80129047Y-104259333D01*
X80224285Y-104306952D01*
X80271904Y-104354571D01*
X80319523Y-104449809D01*
X80319523Y-104687904D01*
X80271904Y-104783142D01*
X80224285Y-104830761D01*
X80129047Y-104878380D01*
X79843333Y-104878380D01*
X79748095Y-104830761D01*
X79700476Y-104783142D01*
X80890952Y-104306952D02*
X80795714Y-104259333D01*
X80748095Y-104211714D01*
X80700476Y-104116476D01*
X80700476Y-104068857D01*
X80748095Y-103973619D01*
X80795714Y-103926000D01*
X80890952Y-103878380D01*
X81081428Y-103878380D01*
X81176666Y-103926000D01*
X81224285Y-103973619D01*
X81271904Y-104068857D01*
X81271904Y-104116476D01*
X81224285Y-104211714D01*
X81176666Y-104259333D01*
X81081428Y-104306952D01*
X80890952Y-104306952D01*
X80795714Y-104354571D01*
X80748095Y-104402190D01*
X80700476Y-104497428D01*
X80700476Y-104687904D01*
X80748095Y-104783142D01*
X80795714Y-104830761D01*
X80890952Y-104878380D01*
X81081428Y-104878380D01*
X81176666Y-104830761D01*
X81224285Y-104783142D01*
X81271904Y-104687904D01*
X81271904Y-104497428D01*
X81224285Y-104402190D01*
X81176666Y-104354571D01*
X81081428Y-104306952D01*
%TO.C,D37*%
X81081714Y-89892380D02*
X81081714Y-88892380D01*
X81319809Y-88892380D01*
X81462666Y-88940000D01*
X81557904Y-89035238D01*
X81605523Y-89130476D01*
X81653142Y-89320952D01*
X81653142Y-89463809D01*
X81605523Y-89654285D01*
X81557904Y-89749523D01*
X81462666Y-89844761D01*
X81319809Y-89892380D01*
X81081714Y-89892380D01*
X81986476Y-88892380D02*
X82605523Y-88892380D01*
X82272190Y-89273333D01*
X82415047Y-89273333D01*
X82510285Y-89320952D01*
X82557904Y-89368571D01*
X82605523Y-89463809D01*
X82605523Y-89701904D01*
X82557904Y-89797142D01*
X82510285Y-89844761D01*
X82415047Y-89892380D01*
X82129333Y-89892380D01*
X82034095Y-89844761D01*
X81986476Y-89797142D01*
X82938857Y-88892380D02*
X83605523Y-88892380D01*
X83176952Y-89892380D01*
%TO.C,D36*%
X97912180Y-66822485D02*
X96912180Y-66822485D01*
X96912180Y-66584390D01*
X96959800Y-66441533D01*
X97055038Y-66346295D01*
X97150276Y-66298676D01*
X97340752Y-66251057D01*
X97483609Y-66251057D01*
X97674085Y-66298676D01*
X97769323Y-66346295D01*
X97864561Y-66441533D01*
X97912180Y-66584390D01*
X97912180Y-66822485D01*
X96912180Y-65917723D02*
X96912180Y-65298676D01*
X97293133Y-65632009D01*
X97293133Y-65489152D01*
X97340752Y-65393914D01*
X97388371Y-65346295D01*
X97483609Y-65298676D01*
X97721704Y-65298676D01*
X97816942Y-65346295D01*
X97864561Y-65393914D01*
X97912180Y-65489152D01*
X97912180Y-65774866D01*
X97864561Y-65870104D01*
X97816942Y-65917723D01*
X96912180Y-64441533D02*
X96912180Y-64632009D01*
X96959800Y-64727247D01*
X97007419Y-64774866D01*
X97150276Y-64870104D01*
X97340752Y-64917723D01*
X97721704Y-64917723D01*
X97816942Y-64870104D01*
X97864561Y-64822485D01*
X97912180Y-64727247D01*
X97912180Y-64536771D01*
X97864561Y-64441533D01*
X97816942Y-64393914D01*
X97721704Y-64346295D01*
X97483609Y-64346295D01*
X97388371Y-64393914D01*
X97340752Y-64441533D01*
X97293133Y-64536771D01*
X97293133Y-64727247D01*
X97340752Y-64822485D01*
X97388371Y-64870104D01*
X97483609Y-64917723D01*
%TO.C,D41*%
X102925714Y-64709780D02*
X102925714Y-63709780D01*
X103163809Y-63709780D01*
X103306666Y-63757400D01*
X103401904Y-63852638D01*
X103449523Y-63947876D01*
X103497142Y-64138352D01*
X103497142Y-64281209D01*
X103449523Y-64471685D01*
X103401904Y-64566923D01*
X103306666Y-64662161D01*
X103163809Y-64709780D01*
X102925714Y-64709780D01*
X104354285Y-64043114D02*
X104354285Y-64709780D01*
X104116190Y-63662161D02*
X103878095Y-64376447D01*
X104497142Y-64376447D01*
X105401904Y-64709780D02*
X104830476Y-64709780D01*
X105116190Y-64709780D02*
X105116190Y-63709780D01*
X105020952Y-63852638D01*
X104925714Y-63947876D01*
X104830476Y-63995495D01*
%TO.C,D40*%
X102926114Y-69057780D02*
X102926114Y-68057780D01*
X103164209Y-68057780D01*
X103307066Y-68105400D01*
X103402304Y-68200638D01*
X103449923Y-68295876D01*
X103497542Y-68486352D01*
X103497542Y-68629209D01*
X103449923Y-68819685D01*
X103402304Y-68914923D01*
X103307066Y-69010161D01*
X103164209Y-69057780D01*
X102926114Y-69057780D01*
X104354685Y-68391114D02*
X104354685Y-69057780D01*
X104116590Y-68010161D02*
X103878495Y-68724447D01*
X104497542Y-68724447D01*
X105068971Y-68057780D02*
X105164209Y-68057780D01*
X105259447Y-68105400D01*
X105307066Y-68153019D01*
X105354685Y-68248257D01*
X105402304Y-68438733D01*
X105402304Y-68676828D01*
X105354685Y-68867304D01*
X105307066Y-68962542D01*
X105259447Y-69010161D01*
X105164209Y-69057780D01*
X105068971Y-69057780D01*
X104973733Y-69010161D01*
X104926114Y-68962542D01*
X104878495Y-68867304D01*
X104830876Y-68676828D01*
X104830876Y-68438733D01*
X104878495Y-68248257D01*
X104926114Y-68153019D01*
X104973733Y-68105400D01*
X105068971Y-68057780D01*
%TO.C,D39*%
X96210380Y-63495085D02*
X95210380Y-63495085D01*
X95210380Y-63256990D01*
X95258000Y-63114133D01*
X95353238Y-63018895D01*
X95448476Y-62971276D01*
X95638952Y-62923657D01*
X95781809Y-62923657D01*
X95972285Y-62971276D01*
X96067523Y-63018895D01*
X96162761Y-63114133D01*
X96210380Y-63256990D01*
X96210380Y-63495085D01*
X95210380Y-62590323D02*
X95210380Y-61971276D01*
X95591333Y-62304609D01*
X95591333Y-62161752D01*
X95638952Y-62066514D01*
X95686571Y-62018895D01*
X95781809Y-61971276D01*
X96019904Y-61971276D01*
X96115142Y-62018895D01*
X96162761Y-62066514D01*
X96210380Y-62161752D01*
X96210380Y-62447466D01*
X96162761Y-62542704D01*
X96115142Y-62590323D01*
X96210380Y-61495085D02*
X96210380Y-61304609D01*
X96162761Y-61209371D01*
X96115142Y-61161752D01*
X95972285Y-61066514D01*
X95781809Y-61018895D01*
X95400857Y-61018895D01*
X95305619Y-61066514D01*
X95258000Y-61114133D01*
X95210380Y-61209371D01*
X95210380Y-61399847D01*
X95258000Y-61495085D01*
X95305619Y-61542704D01*
X95400857Y-61590323D01*
X95638952Y-61590323D01*
X95734190Y-61542704D01*
X95781809Y-61495085D01*
X95829428Y-61399847D01*
X95829428Y-61209371D01*
X95781809Y-61114133D01*
X95734190Y-61066514D01*
X95638952Y-61018895D01*
%TO.C,D32*%
X69410215Y-71323673D02*
X68676485Y-72003114D01*
X68514713Y-71828417D01*
X68452590Y-71691244D01*
X68457760Y-71556656D01*
X68495285Y-71457008D01*
X68602688Y-71292651D01*
X68707507Y-71195588D01*
X68879619Y-71101110D01*
X68981853Y-71071341D01*
X69116440Y-71076511D01*
X69248443Y-71148975D01*
X69410215Y-71323673D01*
X68061752Y-71339263D02*
X67641146Y-70885050D01*
X68147142Y-70870791D01*
X68050079Y-70765973D01*
X68020310Y-70663740D01*
X68022895Y-70596446D01*
X68060420Y-70496797D01*
X68235118Y-70335026D01*
X68337351Y-70305257D01*
X68404645Y-70307842D01*
X68504293Y-70345366D01*
X68698419Y-70555004D01*
X68728188Y-70657237D01*
X68725603Y-70724531D01*
X67452190Y-70540825D02*
X67384896Y-70538240D01*
X67285248Y-70500715D01*
X67123476Y-70326017D01*
X67093707Y-70223784D01*
X67096292Y-70156490D01*
X67133817Y-70056842D01*
X67203696Y-69992133D01*
X67340869Y-69930010D01*
X68148395Y-69961032D01*
X67727789Y-69506818D01*
X72604822Y-71977118D02*
X72993074Y-72396392D01*
X72798948Y-72186755D02*
X72065218Y-72866196D01*
X72234745Y-72839012D01*
X72369333Y-72844183D01*
X72468981Y-72881708D01*
%TO.C,SW2*%
X117018466Y-87803361D02*
X117161323Y-87850980D01*
X117399419Y-87850980D01*
X117494657Y-87803361D01*
X117542276Y-87755742D01*
X117589895Y-87660504D01*
X117589895Y-87565266D01*
X117542276Y-87470028D01*
X117494657Y-87422409D01*
X117399419Y-87374790D01*
X117208942Y-87327171D01*
X117113704Y-87279552D01*
X117066085Y-87231933D01*
X117018466Y-87136695D01*
X117018466Y-87041457D01*
X117066085Y-86946219D01*
X117113704Y-86898600D01*
X117208942Y-86850980D01*
X117447038Y-86850980D01*
X117589895Y-86898600D01*
X117923228Y-86850980D02*
X118161323Y-87850980D01*
X118351800Y-87136695D01*
X118542276Y-87850980D01*
X118780371Y-86850980D01*
X119113704Y-86946219D02*
X119161323Y-86898600D01*
X119256561Y-86850980D01*
X119494657Y-86850980D01*
X119589895Y-86898600D01*
X119637514Y-86946219D01*
X119685133Y-87041457D01*
X119685133Y-87136695D01*
X119637514Y-87279552D01*
X119066085Y-87850980D01*
X119685133Y-87850980D01*
%TO.C,D14*%
X134061267Y-135147968D02*
X133286322Y-135779997D01*
X133135839Y-135595486D01*
X133082451Y-135454683D01*
X133096062Y-135320686D01*
X133139770Y-135223590D01*
X133257282Y-135066302D01*
X133367988Y-134976012D01*
X133545693Y-134892527D01*
X133649594Y-134869236D01*
X133783592Y-134882847D01*
X133910784Y-134963457D01*
X134061267Y-135147968D01*
X133098175Y-133967100D02*
X133459334Y-134409925D01*
X133278754Y-134188512D02*
X132503810Y-134820542D01*
X132674709Y-134804056D01*
X132808707Y-134817667D01*
X132905802Y-134861375D01*
X132039805Y-133724214D02*
X132556435Y-133302862D01*
X131895072Y-134149498D02*
X132599087Y-133882559D01*
X132207830Y-133402832D01*
X129017907Y-131970387D02*
X129379066Y-132413212D01*
X129198487Y-132191799D02*
X128423542Y-132823829D01*
X128594442Y-132807343D01*
X128728439Y-132820954D01*
X128825535Y-132864662D01*
%TO.C,C6*%
X75474533Y-79662942D02*
X75426914Y-79710561D01*
X75284057Y-79758180D01*
X75188819Y-79758180D01*
X75045961Y-79710561D01*
X74950723Y-79615323D01*
X74903104Y-79520085D01*
X74855485Y-79329609D01*
X74855485Y-79186752D01*
X74903104Y-78996276D01*
X74950723Y-78901038D01*
X75045961Y-78805800D01*
X75188819Y-78758180D01*
X75284057Y-78758180D01*
X75426914Y-78805800D01*
X75474533Y-78853419D01*
X76331676Y-78758180D02*
X76141200Y-78758180D01*
X76045961Y-78805800D01*
X75998342Y-78853419D01*
X75903104Y-78996276D01*
X75855485Y-79186752D01*
X75855485Y-79567704D01*
X75903104Y-79662942D01*
X75950723Y-79710561D01*
X76045961Y-79758180D01*
X76236438Y-79758180D01*
X76331676Y-79710561D01*
X76379295Y-79662942D01*
X76426914Y-79567704D01*
X76426914Y-79329609D01*
X76379295Y-79234371D01*
X76331676Y-79186752D01*
X76236438Y-79139133D01*
X76045961Y-79139133D01*
X75950723Y-79186752D01*
X75903104Y-79234371D01*
X75855485Y-79329609D01*
%TO.C,D24*%
X63860782Y-129076381D02*
X63342755Y-128221017D01*
X63546414Y-128097677D01*
X63693276Y-128064405D01*
X63824076Y-128096532D01*
X63914143Y-128153327D01*
X64053547Y-128291586D01*
X64127550Y-128413781D01*
X64185491Y-128601375D01*
X64194095Y-128707506D01*
X64161968Y-128838306D01*
X64064441Y-128953041D01*
X63860782Y-129076381D01*
X64206724Y-127809121D02*
X64222788Y-127743721D01*
X64279583Y-127653654D01*
X64483241Y-127530314D01*
X64589372Y-127521710D01*
X64654772Y-127537773D01*
X64744839Y-127594569D01*
X64794175Y-127676032D01*
X64827448Y-127822895D01*
X64634683Y-128607690D01*
X65164195Y-128287006D01*
X65552013Y-127272740D02*
X65897364Y-127842983D01*
X65151011Y-127070227D02*
X65317372Y-127804541D01*
X65846883Y-127483858D01*
X67709339Y-124524336D02*
X67220559Y-124820352D01*
X67464949Y-124672344D02*
X66946922Y-123816980D01*
X66939463Y-123988511D01*
X66907335Y-124119310D01*
X66850540Y-124209377D01*
%TO.C,R5*%
X114169780Y-96280266D02*
X113693590Y-96613600D01*
X114169780Y-96851695D02*
X113169780Y-96851695D01*
X113169780Y-96470742D01*
X113217400Y-96375504D01*
X113265019Y-96327885D01*
X113360257Y-96280266D01*
X113503114Y-96280266D01*
X113598352Y-96327885D01*
X113645971Y-96375504D01*
X113693590Y-96470742D01*
X113693590Y-96851695D01*
X113169780Y-95375504D02*
X113169780Y-95851695D01*
X113645971Y-95899314D01*
X113598352Y-95851695D01*
X113550733Y-95756457D01*
X113550733Y-95518361D01*
X113598352Y-95423123D01*
X113645971Y-95375504D01*
X113741209Y-95327885D01*
X113979304Y-95327885D01*
X114074542Y-95375504D01*
X114122161Y-95423123D01*
X114169780Y-95518361D01*
X114169780Y-95756457D01*
X114122161Y-95851695D01*
X114074542Y-95899314D01*
%TO.C,D9*%
X147739525Y-99095660D02*
X147708114Y-100095166D01*
X147470137Y-100087688D01*
X147328846Y-100035605D01*
X147236646Y-99937422D01*
X147192042Y-99840735D01*
X147150430Y-99648858D01*
X147154917Y-99506071D01*
X147208495Y-99317184D01*
X147259082Y-99223489D01*
X147357265Y-99131289D01*
X147501547Y-99088181D01*
X147739525Y-99095660D01*
X146692423Y-99062753D02*
X146502041Y-99056770D01*
X146405354Y-99101374D01*
X146356263Y-99147474D01*
X146256584Y-99287269D01*
X146203006Y-99476156D01*
X146191040Y-99856920D01*
X146235644Y-99953607D01*
X146281744Y-100002698D01*
X146375439Y-100053285D01*
X146565821Y-100059268D01*
X146662508Y-100014664D01*
X146711599Y-99968565D01*
X146762186Y-99874869D01*
X146769665Y-99636891D01*
X146725061Y-99540205D01*
X146678961Y-99491113D01*
X146585266Y-99440526D01*
X146394884Y-99434543D01*
X146298197Y-99479147D01*
X146249106Y-99525247D01*
X146198519Y-99618942D01*
X142508588Y-100832209D02*
X143079734Y-100850158D01*
X142794161Y-100841184D02*
X142762750Y-101840690D01*
X142862429Y-101700895D01*
X142960611Y-101608696D01*
X143057298Y-101564092D01*
%TO.C,D16*%
X120926659Y-144093297D02*
X119984602Y-144428748D01*
X119904733Y-144204449D01*
X119901671Y-144053895D01*
X119959443Y-143932228D01*
X120033189Y-143855420D01*
X120196654Y-143746665D01*
X120331234Y-143698743D01*
X120526647Y-143679707D01*
X120632341Y-143692619D01*
X120754008Y-143750391D01*
X120846790Y-143868997D01*
X120926659Y-144093297D01*
X120415495Y-142657780D02*
X120607182Y-143196099D01*
X120511338Y-142926940D02*
X119569281Y-143262391D01*
X119735808Y-143304189D01*
X119857476Y-143361961D01*
X119934284Y-143435707D01*
X119185908Y-142185754D02*
X119249803Y-142365194D01*
X119326611Y-142438940D01*
X119387445Y-142467826D01*
X119553972Y-142509624D01*
X119749385Y-142490588D01*
X120108265Y-142362797D01*
X120182010Y-142285989D01*
X120210896Y-142225155D01*
X120223808Y-142119462D01*
X120159913Y-141940022D01*
X120083105Y-141866276D01*
X120022272Y-141837390D01*
X119916578Y-141824478D01*
X119692279Y-141904348D01*
X119618533Y-141981155D01*
X119589647Y-142041989D01*
X119576735Y-142147683D01*
X119640630Y-142327122D01*
X119717438Y-142400868D01*
X119778271Y-142429754D01*
X119883965Y-142442666D01*
X117241449Y-139408029D02*
X117433136Y-139946348D01*
X117337292Y-139677189D02*
X116395235Y-140012640D01*
X116561762Y-140054438D01*
X116683430Y-140112210D01*
X116760237Y-140185956D01*
%TO.C,C4*%
X126993142Y-111672666D02*
X127040761Y-111720285D01*
X127088380Y-111863142D01*
X127088380Y-111958380D01*
X127040761Y-112101238D01*
X126945523Y-112196476D01*
X126850285Y-112244095D01*
X126659809Y-112291714D01*
X126516952Y-112291714D01*
X126326476Y-112244095D01*
X126231238Y-112196476D01*
X126136000Y-112101238D01*
X126088380Y-111958380D01*
X126088380Y-111863142D01*
X126136000Y-111720285D01*
X126183619Y-111672666D01*
X126421714Y-110815523D02*
X127088380Y-110815523D01*
X126040761Y-111053619D02*
X126755047Y-111291714D01*
X126755047Y-110672666D01*
%TO.C,D18*%
X105552380Y-148114285D02*
X104552380Y-148114285D01*
X104552380Y-147876190D01*
X104600000Y-147733333D01*
X104695238Y-147638095D01*
X104790476Y-147590476D01*
X104980952Y-147542857D01*
X105123809Y-147542857D01*
X105314285Y-147590476D01*
X105409523Y-147638095D01*
X105504761Y-147733333D01*
X105552380Y-147876190D01*
X105552380Y-148114285D01*
X105552380Y-146590476D02*
X105552380Y-147161904D01*
X105552380Y-146876190D02*
X104552380Y-146876190D01*
X104695238Y-146971428D01*
X104790476Y-147066666D01*
X104838095Y-147161904D01*
X104980952Y-146019047D02*
X104933333Y-146114285D01*
X104885714Y-146161904D01*
X104790476Y-146209523D01*
X104742857Y-146209523D01*
X104647619Y-146161904D01*
X104600000Y-146114285D01*
X104552380Y-146019047D01*
X104552380Y-145828571D01*
X104600000Y-145733333D01*
X104647619Y-145685714D01*
X104742857Y-145638095D01*
X104790476Y-145638095D01*
X104885714Y-145685714D01*
X104933333Y-145733333D01*
X104980952Y-145828571D01*
X104980952Y-146019047D01*
X105028571Y-146114285D01*
X105076190Y-146161904D01*
X105171428Y-146209523D01*
X105361904Y-146209523D01*
X105457142Y-146161904D01*
X105504761Y-146114285D01*
X105552380Y-146019047D01*
X105552380Y-145828571D01*
X105504761Y-145733333D01*
X105457142Y-145685714D01*
X105361904Y-145638095D01*
X105171428Y-145638095D01*
X105076190Y-145685714D01*
X105028571Y-145733333D01*
X104980952Y-145828571D01*
X103652380Y-142464285D02*
X103652380Y-143035714D01*
X103652380Y-142750000D02*
X102652380Y-142750000D01*
X102795238Y-142845238D01*
X102890476Y-142940476D01*
X102938095Y-143035714D01*
%TO.C,D1*%
X108962477Y-57544974D02*
X107989701Y-57313226D01*
X108044879Y-57081613D01*
X108124308Y-56953681D01*
X108239025Y-56883106D01*
X108342706Y-56858855D01*
X108539032Y-56856675D01*
X108678000Y-56889782D01*
X108852255Y-56980247D01*
X108933865Y-57048641D01*
X109004439Y-57163357D01*
X109017655Y-57313361D01*
X108962477Y-57544974D01*
X109315616Y-56062649D02*
X109183189Y-56618521D01*
X109249403Y-56340585D02*
X108276627Y-56108837D01*
X108393524Y-56234589D01*
X108464098Y-56349306D01*
X108488349Y-56452987D01*
X110086263Y-61026378D02*
X109953836Y-61582250D01*
X110020050Y-61304314D02*
X109047274Y-61072566D01*
X109164171Y-61198318D01*
X109234745Y-61313035D01*
X109258996Y-61416716D01*
%TO.C,D27*%
X55232814Y-107011479D02*
X55201403Y-106011972D01*
X55439381Y-106004494D01*
X55583663Y-106047602D01*
X55681846Y-106139801D01*
X55732433Y-106233497D01*
X55786011Y-106422383D01*
X55790498Y-106565170D01*
X55748886Y-106757048D01*
X55704282Y-106853735D01*
X55612082Y-106951917D01*
X55470791Y-107004000D01*
X55232814Y-107011479D01*
X56156305Y-106077248D02*
X56202405Y-106028157D01*
X56296100Y-105977570D01*
X56534078Y-105970091D01*
X56630765Y-106014695D01*
X56679856Y-106060795D01*
X56730443Y-106154490D01*
X56733435Y-106249682D01*
X56690327Y-106393964D01*
X56137129Y-106983060D01*
X56755871Y-106963615D01*
X57057629Y-105953638D02*
X57723967Y-105932698D01*
X57327018Y-106945666D01*
X60820344Y-104934946D02*
X60249198Y-104952895D01*
X60534771Y-104943920D02*
X60503360Y-103944414D01*
X60412657Y-104090192D01*
X60320457Y-104188374D01*
X60226762Y-104238961D01*
%TO.C,C5*%
X115454133Y-106986342D02*
X115406514Y-107033961D01*
X115263657Y-107081580D01*
X115168419Y-107081580D01*
X115025561Y-107033961D01*
X114930323Y-106938723D01*
X114882704Y-106843485D01*
X114835085Y-106653009D01*
X114835085Y-106510152D01*
X114882704Y-106319676D01*
X114930323Y-106224438D01*
X115025561Y-106129200D01*
X115168419Y-106081580D01*
X115263657Y-106081580D01*
X115406514Y-106129200D01*
X115454133Y-106176819D01*
X116358895Y-106081580D02*
X115882704Y-106081580D01*
X115835085Y-106557771D01*
X115882704Y-106510152D01*
X115977942Y-106462533D01*
X116216038Y-106462533D01*
X116311276Y-106510152D01*
X116358895Y-106557771D01*
X116406514Y-106653009D01*
X116406514Y-106891104D01*
X116358895Y-106986342D01*
X116311276Y-107033961D01*
X116216038Y-107081580D01*
X115977942Y-107081580D01*
X115882704Y-107033961D01*
X115835085Y-106986342D01*
%TO.C,D11*%
X146349528Y-114892095D02*
X145984651Y-115823151D01*
X145762971Y-115736276D01*
X145647338Y-115639814D01*
X145593416Y-115516392D01*
X145583830Y-115410345D01*
X145608995Y-115215626D01*
X145661120Y-115082618D01*
X145774956Y-114922649D01*
X145854042Y-114851352D01*
X145977465Y-114797431D01*
X146127848Y-114805220D01*
X146349528Y-114892095D01*
X144930776Y-114336093D02*
X145462808Y-114544594D01*
X145196792Y-114440343D02*
X144831915Y-115371399D01*
X144972712Y-115273141D01*
X145096134Y-115219219D01*
X145202181Y-115209633D01*
X144044056Y-113988591D02*
X144576088Y-114197092D01*
X144310072Y-114092841D02*
X143945195Y-115023897D01*
X144085992Y-114925639D01*
X144209415Y-114871718D01*
X144315462Y-114862132D01*
X140395796Y-114599547D02*
X140927828Y-114808048D01*
X140661812Y-114703798D02*
X140296935Y-115634853D01*
X140437732Y-115536596D01*
X140561154Y-115482674D01*
X140667201Y-115473088D01*
%TO.C,D21*%
X82209331Y-144064125D02*
X81338117Y-143573222D01*
X81454999Y-143365790D01*
X81566614Y-143264707D01*
X81696340Y-143228487D01*
X81802689Y-143233753D01*
X81992011Y-143285773D01*
X82116470Y-143355902D01*
X82259039Y-143490894D01*
X82318635Y-143579133D01*
X82354855Y-143708858D01*
X82326212Y-143856694D01*
X82209331Y-144064125D01*
X81888617Y-142790247D02*
X81870507Y-142725384D01*
X81875773Y-142619035D01*
X81992655Y-142411603D01*
X82080894Y-142352007D01*
X82145757Y-142333897D01*
X82252106Y-142339163D01*
X82335079Y-142385916D01*
X82436162Y-142497532D01*
X82653482Y-143275884D01*
X82957374Y-142736562D01*
X83424902Y-141906834D02*
X83144385Y-142404671D01*
X83284644Y-142155752D02*
X82413430Y-141664849D01*
X82491136Y-141817950D01*
X82527356Y-141947676D01*
X82522090Y-142054025D01*
X83327631Y-138209051D02*
X83047115Y-138706887D01*
X83187373Y-138457969D02*
X82316159Y-137967065D01*
X82393866Y-138120167D01*
X82430086Y-138249893D01*
X82424819Y-138356242D01*
%TO.C,R2*%
X112863333Y-107032380D02*
X112530000Y-106556190D01*
X112291904Y-107032380D02*
X112291904Y-106032380D01*
X112672857Y-106032380D01*
X112768095Y-106080000D01*
X112815714Y-106127619D01*
X112863333Y-106222857D01*
X112863333Y-106365714D01*
X112815714Y-106460952D01*
X112768095Y-106508571D01*
X112672857Y-106556190D01*
X112291904Y-106556190D01*
X113244285Y-106127619D02*
X113291904Y-106080000D01*
X113387142Y-106032380D01*
X113625238Y-106032380D01*
X113720476Y-106080000D01*
X113768095Y-106127619D01*
X113815714Y-106222857D01*
X113815714Y-106318095D01*
X113768095Y-106460952D01*
X113196666Y-107032380D01*
X113815714Y-107032380D01*
%TO.C,D3*%
X123314204Y-62567390D02*
X122475533Y-62022751D01*
X122605209Y-61823067D01*
X122722951Y-61729192D01*
X122854695Y-61701189D01*
X122960504Y-61713123D01*
X123146186Y-61776927D01*
X123265996Y-61854733D01*
X123399807Y-61998410D01*
X123453745Y-62090217D01*
X123481748Y-62221961D01*
X123443880Y-62367706D01*
X123314204Y-62567390D01*
X122968302Y-61263953D02*
X123305459Y-60744776D01*
X123443406Y-61231815D01*
X123521212Y-61112005D01*
X123613019Y-61058066D01*
X123678891Y-61044065D01*
X123784700Y-61055999D01*
X123984383Y-61185675D01*
X124038321Y-61277482D01*
X124052323Y-61343354D01*
X124040389Y-61449162D01*
X123884778Y-61688782D01*
X123792971Y-61742721D01*
X123727099Y-61756722D01*
X123205032Y-66224048D02*
X122893810Y-66703288D01*
X123049421Y-66463668D02*
X122210751Y-65919029D01*
X122278690Y-66076708D01*
X122306693Y-66208452D01*
X122294760Y-66314260D01*
%TO.C,D23*%
X69088218Y-135099017D02*
X68432159Y-134344307D01*
X68611852Y-134188103D01*
X68750908Y-134130319D01*
X68885267Y-134139714D01*
X68983688Y-134180350D01*
X69144590Y-134292863D01*
X69238313Y-134400679D01*
X69327338Y-134575674D01*
X69353881Y-134678792D01*
X69344486Y-134813151D01*
X69267911Y-134942812D01*
X69088218Y-135099017D01*
X69213412Y-133791366D02*
X69218110Y-133724187D01*
X69258746Y-133625766D01*
X69438438Y-133469562D01*
X69541556Y-133443019D01*
X69608736Y-133447716D01*
X69707156Y-133488352D01*
X69769638Y-133560230D01*
X69827422Y-133699286D01*
X69771051Y-134505440D01*
X70238252Y-134099308D01*
X69833763Y-133125912D02*
X70300964Y-132719780D01*
X70299321Y-133225975D01*
X70407137Y-133132252D01*
X70510255Y-133105709D01*
X70577434Y-133110407D01*
X70675855Y-133151043D01*
X70832059Y-133330736D01*
X70858602Y-133433854D01*
X70853905Y-133501033D01*
X70813269Y-133599453D01*
X70597637Y-133786899D01*
X70494519Y-133813442D01*
X70427340Y-133808744D01*
X72105814Y-129958334D02*
X71674552Y-130333225D01*
X71890183Y-130145780D02*
X71234124Y-129391070D01*
X71255970Y-129561368D01*
X71246574Y-129695727D01*
X71205938Y-129794147D01*
%TO.C,D4*%
X129641069Y-66832920D02*
X128907339Y-66153479D01*
X129069110Y-65978781D01*
X129201113Y-65906317D01*
X129335701Y-65901147D01*
X129437934Y-65930916D01*
X129610046Y-66025394D01*
X129714865Y-66122457D01*
X129822269Y-66286814D01*
X129859793Y-66386462D01*
X129864964Y-66521050D01*
X129802840Y-66658223D01*
X129641069Y-66832920D01*
X130122546Y-65331774D02*
X130611699Y-65784735D01*
X129681258Y-65247637D02*
X130043579Y-65907650D01*
X130464185Y-65453436D01*
X128911093Y-70417639D02*
X128522841Y-70836913D01*
X128716967Y-70627276D02*
X127983237Y-69947835D01*
X128023347Y-70114777D01*
X128028517Y-70249364D01*
X127998748Y-70351598D01*
%TO.C,D35*%
X88418577Y-59420760D02*
X87445801Y-59652508D01*
X87390623Y-59420895D01*
X87403839Y-59270891D01*
X87474413Y-59156174D01*
X87556023Y-59087781D01*
X87730278Y-58997315D01*
X87869246Y-58964209D01*
X88065572Y-58966389D01*
X88169253Y-58990640D01*
X88283969Y-59061214D01*
X88363399Y-59189147D01*
X88418577Y-59420760D01*
X87236124Y-58772377D02*
X87092661Y-58170183D01*
X87540492Y-58406156D01*
X87507385Y-58267188D01*
X87531637Y-58163508D01*
X87566924Y-58106149D01*
X87648533Y-58037755D01*
X87880147Y-57982577D01*
X87983828Y-58006829D01*
X88041186Y-58042116D01*
X88109580Y-58123726D01*
X88175793Y-58401661D01*
X88151542Y-58505342D01*
X88116255Y-58562701D01*
X86882985Y-57290052D02*
X86993341Y-57753279D01*
X87467603Y-57689245D01*
X87410245Y-57653958D01*
X87341851Y-57572349D01*
X87286673Y-57340735D01*
X87310924Y-57237054D01*
X87346211Y-57179696D01*
X87427821Y-57111302D01*
X87659434Y-57056124D01*
X87763115Y-57080376D01*
X87820474Y-57115663D01*
X87888867Y-57197272D01*
X87944046Y-57428886D01*
X87919794Y-57532567D01*
X87884507Y-57589925D01*
X90880983Y-61558295D02*
X91013410Y-62114167D01*
X90947197Y-61836231D02*
X89974421Y-62067979D01*
X90135460Y-62127518D01*
X90250177Y-62198092D01*
X90318571Y-62279701D01*
%TO.C,D10*%
X147958980Y-107081341D02*
X147757902Y-108060917D01*
X147524669Y-108013041D01*
X147394305Y-107937669D01*
X147320163Y-107825226D01*
X147292666Y-107722358D01*
X147284321Y-107526197D01*
X147313046Y-107386258D01*
X147397993Y-107209247D01*
X147463790Y-107125529D01*
X147576233Y-107051387D01*
X147725747Y-107033466D01*
X147958980Y-107081341D01*
X146466293Y-106774937D02*
X147026051Y-106889839D01*
X146746172Y-106832388D02*
X146545094Y-107811963D01*
X146667112Y-107691174D01*
X146779556Y-107617031D01*
X146882424Y-107589535D01*
X145658812Y-107630035D02*
X145565519Y-107610885D01*
X145481801Y-107545088D01*
X145444730Y-107488867D01*
X145417234Y-107385999D01*
X145408888Y-107189838D01*
X145456764Y-106956606D01*
X145541711Y-106779595D01*
X145607507Y-106695877D01*
X145663729Y-106658806D01*
X145766597Y-106631310D01*
X145859890Y-106650460D01*
X145943607Y-106716257D01*
X145980679Y-106772478D01*
X146008175Y-106875346D01*
X146016521Y-107071507D01*
X145968645Y-107304740D01*
X145883698Y-107481750D01*
X145817901Y-107565468D01*
X145761680Y-107602539D01*
X145658812Y-107630035D01*
X142042331Y-107806443D02*
X142602088Y-107921345D01*
X142322209Y-107863894D02*
X142121131Y-108843470D01*
X142243150Y-108722681D01*
X142355593Y-108648538D01*
X142458461Y-108621042D01*
%TO.C,D2*%
X116353626Y-59440993D02*
X115434491Y-59047051D01*
X115528287Y-58828209D01*
X115628332Y-58715663D01*
X115753387Y-58665645D01*
X115859683Y-58659395D01*
X116053516Y-58690663D01*
X116184821Y-58746940D01*
X116341135Y-58865745D01*
X116409913Y-58947032D01*
X116459931Y-59072087D01*
X116447422Y-59222151D01*
X116353626Y-59440993D01*
X115897210Y-58209202D02*
X115872201Y-58146675D01*
X115865951Y-58040379D01*
X115959747Y-57821537D01*
X116041033Y-57752759D01*
X116103561Y-57727750D01*
X116209857Y-57721500D01*
X116297393Y-57759018D01*
X116409939Y-57859064D01*
X116710050Y-58609394D01*
X116953919Y-58040406D01*
X116868447Y-63062875D02*
X116643337Y-63588095D01*
X116755892Y-63325485D02*
X115836756Y-62931543D01*
X115930543Y-63075358D01*
X115980562Y-63200412D01*
X115986812Y-63306708D01*
%TO.C,J5*%
X72688663Y-112528229D02*
X73402949Y-112528229D01*
X73545806Y-112575848D01*
X73641044Y-112671086D01*
X73688663Y-112813943D01*
X73688663Y-112909181D01*
X72688663Y-111575848D02*
X72688663Y-112052038D01*
X73164854Y-112099657D01*
X73117235Y-112052038D01*
X73069616Y-111956800D01*
X73069616Y-111718705D01*
X73117235Y-111623467D01*
X73164854Y-111575848D01*
X73260092Y-111528229D01*
X73498187Y-111528229D01*
X73593425Y-111575848D01*
X73641044Y-111623467D01*
X73688663Y-111718705D01*
X73688663Y-111956800D01*
X73641044Y-112052038D01*
X73593425Y-112099657D01*
%TO.C,C3*%
X119635542Y-104052666D02*
X119683161Y-104100285D01*
X119730780Y-104243142D01*
X119730780Y-104338380D01*
X119683161Y-104481238D01*
X119587923Y-104576476D01*
X119492685Y-104624095D01*
X119302209Y-104671714D01*
X119159352Y-104671714D01*
X118968876Y-104624095D01*
X118873638Y-104576476D01*
X118778400Y-104481238D01*
X118730780Y-104338380D01*
X118730780Y-104243142D01*
X118778400Y-104100285D01*
X118826019Y-104052666D01*
X118730780Y-103719333D02*
X118730780Y-103100285D01*
X119111733Y-103433619D01*
X119111733Y-103290761D01*
X119159352Y-103195523D01*
X119206971Y-103147904D01*
X119302209Y-103100285D01*
X119540304Y-103100285D01*
X119635542Y-103147904D01*
X119683161Y-103195523D01*
X119730780Y-103290761D01*
X119730780Y-103576476D01*
X119683161Y-103671714D01*
X119635542Y-103719333D01*
%TO.C,D33*%
X75033250Y-66286461D02*
X74194580Y-66831100D01*
X74064904Y-66631416D01*
X74027035Y-66485671D01*
X74055038Y-66353927D01*
X74108976Y-66262120D01*
X74242788Y-66118443D01*
X74362598Y-66040637D01*
X74548280Y-65976833D01*
X74654088Y-65964900D01*
X74785832Y-65992903D01*
X74903575Y-66086777D01*
X75033250Y-66286461D01*
X73701811Y-66072303D02*
X73364654Y-65553126D01*
X73865694Y-65625201D01*
X73787888Y-65505391D01*
X73775954Y-65399582D01*
X73789956Y-65333710D01*
X73843894Y-65241903D01*
X74043578Y-65112227D01*
X74149386Y-65100294D01*
X74215258Y-65114295D01*
X74307065Y-65168233D01*
X74462676Y-65407854D01*
X74474610Y-65513662D01*
X74460608Y-65579534D01*
X73183107Y-65273569D02*
X72845950Y-64754392D01*
X73346990Y-64826467D01*
X73269184Y-64706657D01*
X73257251Y-64600848D01*
X73271252Y-64534977D01*
X73325190Y-64443170D01*
X73524874Y-64313494D01*
X73630682Y-64301560D01*
X73696554Y-64315561D01*
X73788361Y-64369500D01*
X73943972Y-64609120D01*
X73955906Y-64714928D01*
X73941905Y-64780800D01*
X78070018Y-67474123D02*
X78381240Y-67953363D01*
X78225629Y-67713743D02*
X77386959Y-68258382D01*
X77558639Y-68260450D01*
X77690383Y-68288453D01*
X77782190Y-68342391D01*
%TO.C,D5*%
X135149578Y-72113103D02*
X134542202Y-71318688D01*
X134731349Y-71174075D01*
X134873759Y-71125136D01*
X135007263Y-71142949D01*
X135102938Y-71189685D01*
X135256457Y-71312080D01*
X135343225Y-71425567D01*
X135421087Y-71605807D01*
X135441103Y-71710388D01*
X135423290Y-71843892D01*
X135338724Y-71968489D01*
X135149578Y-72113103D01*
X135714910Y-70422086D02*
X135336617Y-70711312D01*
X135588014Y-71118528D01*
X135596921Y-71051776D01*
X135643657Y-70956101D01*
X135832803Y-70811488D01*
X135937384Y-70791472D01*
X136004136Y-70800378D01*
X136099811Y-70847114D01*
X136244424Y-71036261D01*
X136264440Y-71140842D01*
X136255533Y-71207594D01*
X136208798Y-71303268D01*
X136019651Y-71447882D01*
X135915070Y-71467898D01*
X135848318Y-71458991D01*
X133820100Y-75521263D02*
X133366149Y-75868334D01*
X133593125Y-75694799D02*
X132985749Y-74900384D01*
X132996858Y-75071717D01*
X132979045Y-75205221D01*
X132932309Y-75300895D01*
D11*
%TO.C,R4*%
X102410266Y-63924161D02*
X102303600Y-63771780D01*
X102227409Y-63924161D02*
X102227409Y-63604161D01*
X102349314Y-63604161D01*
X102379790Y-63619400D01*
X102395028Y-63634638D01*
X102410266Y-63665114D01*
X102410266Y-63710828D01*
X102395028Y-63741304D01*
X102379790Y-63756542D01*
X102349314Y-63771780D01*
X102227409Y-63771780D01*
X102684552Y-63710828D02*
X102684552Y-63924161D01*
X102608361Y-63588923D02*
X102532171Y-63817495D01*
X102730266Y-63817495D01*
D10*
%TO.C,D7*%
X143097055Y-85075907D02*
X142791360Y-84123778D01*
X143018057Y-84050993D01*
X143168633Y-84052662D01*
X143288425Y-84114227D01*
X143362879Y-84190349D01*
X143466446Y-84357150D01*
X143510117Y-84493168D01*
X143523005Y-84689083D01*
X143506779Y-84794319D01*
X143445214Y-84914112D01*
X143323753Y-85003122D01*
X143097055Y-85075907D01*
X143652810Y-83847196D02*
X144287563Y-83643399D01*
X144185203Y-84726541D01*
X140701339Y-87840614D02*
X140157265Y-88015297D01*
X140429302Y-87927956D02*
X140123607Y-86975826D01*
X140076599Y-87140959D01*
X140015034Y-87260751D01*
X139938911Y-87335205D01*
%TO.C,R1*%
X112863333Y-102661980D02*
X112530000Y-102185790D01*
X112291904Y-102661980D02*
X112291904Y-101661980D01*
X112672857Y-101661980D01*
X112768095Y-101709600D01*
X112815714Y-101757219D01*
X112863333Y-101852457D01*
X112863333Y-101995314D01*
X112815714Y-102090552D01*
X112768095Y-102138171D01*
X112672857Y-102185790D01*
X112291904Y-102185790D01*
X113815714Y-102661980D02*
X113244285Y-102661980D01*
X113530000Y-102661980D02*
X113530000Y-101661980D01*
X113434761Y-101804838D01*
X113339523Y-101900076D01*
X113244285Y-101947695D01*
%TO.C,C1*%
X112837933Y-101322142D02*
X112790314Y-101369761D01*
X112647457Y-101417380D01*
X112552219Y-101417380D01*
X112409361Y-101369761D01*
X112314123Y-101274523D01*
X112266504Y-101179285D01*
X112218885Y-100988809D01*
X112218885Y-100845952D01*
X112266504Y-100655476D01*
X112314123Y-100560238D01*
X112409361Y-100465000D01*
X112552219Y-100417380D01*
X112647457Y-100417380D01*
X112790314Y-100465000D01*
X112837933Y-100512619D01*
X113790314Y-101417380D02*
X113218885Y-101417380D01*
X113504600Y-101417380D02*
X113504600Y-100417380D01*
X113409361Y-100560238D01*
X113314123Y-100655476D01*
X113218885Y-100703095D01*
%TO.C,D8*%
X145304084Y-92380222D02*
X145164911Y-91389954D01*
X145400689Y-91356817D01*
X145548783Y-91384091D01*
X145656349Y-91465148D01*
X145716759Y-91552832D01*
X145790424Y-91734827D01*
X145810305Y-91876294D01*
X145789659Y-92071544D01*
X145755758Y-92172482D01*
X145674701Y-92280048D01*
X145539862Y-92347085D01*
X145304084Y-92380222D01*
X146356291Y-91655299D02*
X146255353Y-91621398D01*
X146201570Y-91580870D01*
X146141159Y-91493186D01*
X146134532Y-91446031D01*
X146168433Y-91345092D01*
X146208961Y-91291309D01*
X146296645Y-91230899D01*
X146485268Y-91204390D01*
X146586206Y-91238291D01*
X146639989Y-91278819D01*
X146700400Y-91366503D01*
X146707027Y-91413659D01*
X146673126Y-91514597D01*
X146632598Y-91568380D01*
X146544914Y-91628790D01*
X146356291Y-91655299D01*
X146268607Y-91715710D01*
X146228079Y-91769493D01*
X146194178Y-91870431D01*
X146220687Y-92059054D01*
X146281097Y-92146738D01*
X146334880Y-92187266D01*
X146435819Y-92221167D01*
X146624441Y-92194658D01*
X146712125Y-92134248D01*
X146752653Y-92080465D01*
X146786554Y-91979526D01*
X146760045Y-91790904D01*
X146699635Y-91703220D01*
X146645852Y-91662691D01*
X146544914Y-91628790D01*
X142472746Y-94696812D02*
X141906879Y-94776340D01*
X142189813Y-94736576D02*
X142050640Y-93746308D01*
X141976210Y-93901029D01*
X141895154Y-94008595D01*
X141807470Y-94069005D01*
%TO.C,C2*%
X118340142Y-104052666D02*
X118387761Y-104100285D01*
X118435380Y-104243142D01*
X118435380Y-104338380D01*
X118387761Y-104481238D01*
X118292523Y-104576476D01*
X118197285Y-104624095D01*
X118006809Y-104671714D01*
X117863952Y-104671714D01*
X117673476Y-104624095D01*
X117578238Y-104576476D01*
X117483000Y-104481238D01*
X117435380Y-104338380D01*
X117435380Y-104243142D01*
X117483000Y-104100285D01*
X117530619Y-104052666D01*
X117530619Y-103671714D02*
X117483000Y-103624095D01*
X117435380Y-103528857D01*
X117435380Y-103290761D01*
X117483000Y-103195523D01*
X117530619Y-103147904D01*
X117625857Y-103100285D01*
X117721095Y-103100285D01*
X117863952Y-103147904D01*
X118435380Y-103719333D01*
X118435380Y-103100285D01*
%TO.C,D6*%
X139678969Y-78253835D02*
X139215673Y-77367631D01*
X139426674Y-77257323D01*
X139575336Y-77233338D01*
X139703860Y-77273614D01*
X139790184Y-77335953D01*
X139920631Y-77482692D01*
X139986816Y-77609293D01*
X140032862Y-77800155D01*
X140034786Y-77906617D01*
X139994509Y-78035141D01*
X139889970Y-78143526D01*
X139678969Y-78253835D01*
X140481678Y-76705780D02*
X140312878Y-76794027D01*
X140250539Y-76880350D01*
X140230400Y-76944612D01*
X140212185Y-77115336D01*
X140258232Y-77306198D01*
X140434726Y-77643800D01*
X140521049Y-77706138D01*
X140585311Y-77726277D01*
X140691773Y-77724354D01*
X140860574Y-77636107D01*
X140922913Y-77549783D01*
X140943051Y-77485521D01*
X140941128Y-77379059D01*
X140830819Y-77168058D01*
X140744496Y-77105720D01*
X140680234Y-77085581D01*
X140573772Y-77087504D01*
X140404971Y-77175751D01*
X140342632Y-77262075D01*
X140322494Y-77326337D01*
X140324417Y-77432799D01*
X137788790Y-81385974D02*
X137282388Y-81650714D01*
X137535589Y-81518344D02*
X137072293Y-80632141D01*
X137054078Y-80802864D01*
X137013801Y-80931388D01*
X136951462Y-81017712D01*
%TO.C,D31*%
X64726614Y-77244475D02*
X64119238Y-78038890D01*
X63930092Y-77894277D01*
X63845527Y-77769679D01*
X63827714Y-77636175D01*
X63847730Y-77531594D01*
X63925591Y-77351355D01*
X64012359Y-77237867D01*
X64165879Y-77115472D01*
X64261553Y-77068736D01*
X64395057Y-77050923D01*
X64537468Y-77099862D01*
X64726614Y-77244475D01*
X63400482Y-77489359D02*
X62908702Y-77113365D01*
X63404888Y-77013189D01*
X63291400Y-76926421D01*
X63244664Y-76830747D01*
X63235758Y-76763995D01*
X63255774Y-76659414D01*
X63400387Y-76470267D01*
X63496061Y-76423531D01*
X63562813Y-76414625D01*
X63667395Y-76434641D01*
X63894370Y-76608177D01*
X63941106Y-76703851D01*
X63950013Y-76770603D01*
X62759492Y-75740497D02*
X63213443Y-76087569D01*
X62986468Y-75914033D02*
X62379092Y-76708448D01*
X62541518Y-76652805D01*
X62675022Y-76634992D01*
X62779603Y-76655008D01*
X67985826Y-77344634D02*
X68439777Y-77691705D01*
X68212802Y-77518169D02*
X67605426Y-78312584D01*
X67767852Y-78256942D01*
X67901356Y-78239128D01*
X68005937Y-78259144D01*
%TO.C,D17*%
X113411880Y-146762812D02*
X112426472Y-146933021D01*
X112385946Y-146698400D01*
X112408555Y-146549522D01*
X112486193Y-146439464D01*
X112571936Y-146376329D01*
X112751527Y-146296984D01*
X112892300Y-146272668D01*
X113088102Y-146287172D01*
X113190056Y-146317885D01*
X113300114Y-146395523D01*
X113371354Y-146528191D01*
X113411880Y-146762812D01*
X113152513Y-145261238D02*
X113249776Y-145824328D01*
X113201145Y-145542783D02*
X112215737Y-145712992D01*
X112372720Y-145782525D01*
X112482779Y-145860163D01*
X112545913Y-145945906D01*
X112110369Y-145102978D02*
X111996896Y-144446039D01*
X113055251Y-144698148D01*
X110577921Y-141518655D02*
X110675184Y-142081745D01*
X110626552Y-141800200D02*
X109641144Y-141970409D01*
X109798127Y-142039942D01*
X109908186Y-142117580D01*
X109971321Y-142203323D01*
%TO.C,J2*%
X73446380Y-98758333D02*
X74160666Y-98758333D01*
X74303523Y-98805952D01*
X74398761Y-98901190D01*
X74446380Y-99044047D01*
X74446380Y-99139285D01*
X73541619Y-98329761D02*
X73494000Y-98282142D01*
X73446380Y-98186904D01*
X73446380Y-97948809D01*
X73494000Y-97853571D01*
X73541619Y-97805952D01*
X73636857Y-97758333D01*
X73732095Y-97758333D01*
X73874952Y-97805952D01*
X74446380Y-98377380D01*
X74446380Y-97758333D01*
%TO.C,D26*%
X56830493Y-114824650D02*
X56629415Y-113845074D01*
X56862647Y-113797199D01*
X57012162Y-113815120D01*
X57124605Y-113889262D01*
X57190402Y-113972980D01*
X57275349Y-114149991D01*
X57304074Y-114289930D01*
X57295728Y-114486091D01*
X57268232Y-114588959D01*
X57194089Y-114701402D01*
X57063725Y-114776774D01*
X56830493Y-114824650D01*
X57581494Y-113746865D02*
X57618566Y-113690643D01*
X57702283Y-113624846D01*
X57935516Y-113576971D01*
X58038384Y-113604467D01*
X58094605Y-113641538D01*
X58160402Y-113725256D01*
X58179552Y-113818549D01*
X58161631Y-113968063D01*
X57716775Y-114642722D01*
X58323179Y-114518245D01*
X58961737Y-113366318D02*
X58775151Y-113404618D01*
X58691434Y-113470415D01*
X58654362Y-113526636D01*
X58589795Y-113685726D01*
X58581449Y-113881887D01*
X58658050Y-114255058D01*
X58723847Y-114338776D01*
X58780068Y-114375847D01*
X58882936Y-114403344D01*
X59069522Y-114365043D01*
X59153240Y-114299246D01*
X59190311Y-114243025D01*
X59217807Y-114140157D01*
X59169932Y-113906925D01*
X59104135Y-113823207D01*
X59047913Y-113786135D01*
X58945045Y-113758639D01*
X58758460Y-113796940D01*
X58674742Y-113862737D01*
X58637671Y-113918958D01*
X58610174Y-114021826D01*
X61983045Y-111827367D02*
X61423288Y-111942269D01*
X61703166Y-111884818D02*
X61502088Y-110905242D01*
X61437521Y-111064332D01*
X61363378Y-111176775D01*
X61279661Y-111242572D01*
D11*
%TO.C,R3*%
X107815361Y-60251333D02*
X107662980Y-60358000D01*
X107815361Y-60434190D02*
X107495361Y-60434190D01*
X107495361Y-60312285D01*
X107510600Y-60281809D01*
X107525838Y-60266571D01*
X107556314Y-60251333D01*
X107602028Y-60251333D01*
X107632504Y-60266571D01*
X107647742Y-60281809D01*
X107662980Y-60312285D01*
X107662980Y-60434190D01*
X107495361Y-60144666D02*
X107495361Y-59946571D01*
X107617266Y-60053238D01*
X107617266Y-60007523D01*
X107632504Y-59977047D01*
X107647742Y-59961809D01*
X107678219Y-59946571D01*
X107754409Y-59946571D01*
X107784885Y-59961809D01*
X107800123Y-59977047D01*
X107815361Y-60007523D01*
X107815361Y-60098952D01*
X107800123Y-60129428D01*
X107784885Y-60144666D01*
D10*
%TO.C,J3*%
X84883666Y-108501380D02*
X84883666Y-109215666D01*
X84836047Y-109358523D01*
X84740809Y-109453761D01*
X84597952Y-109501380D01*
X84502714Y-109501380D01*
X85264619Y-108501380D02*
X85883666Y-108501380D01*
X85550333Y-108882333D01*
X85693190Y-108882333D01*
X85788428Y-108929952D01*
X85836047Y-108977571D01*
X85883666Y-109072809D01*
X85883666Y-109310904D01*
X85836047Y-109406142D01*
X85788428Y-109453761D01*
X85693190Y-109501380D01*
X85407476Y-109501380D01*
X85312238Y-109453761D01*
X85264619Y-109406142D01*
%TO.C,D30*%
X61119132Y-83876075D02*
X60655836Y-84762278D01*
X60444835Y-84651970D01*
X60340296Y-84543584D01*
X60300020Y-84415061D01*
X60301943Y-84308598D01*
X60347990Y-84117736D01*
X60414175Y-83991136D01*
X60544622Y-83844397D01*
X60630945Y-83782058D01*
X60759469Y-83741781D01*
X60908131Y-83765766D01*
X61119132Y-83876075D01*
X59854033Y-84343106D02*
X59305431Y-84056303D01*
X59777326Y-83873134D01*
X59650725Y-83806949D01*
X59588386Y-83720625D01*
X59568248Y-83656363D01*
X59570171Y-83549901D01*
X59680480Y-83338900D01*
X59766803Y-83276562D01*
X59831065Y-83256423D01*
X59937527Y-83258347D01*
X60190728Y-83390717D01*
X60253067Y-83477040D01*
X60273205Y-83541302D01*
X58756828Y-83769501D02*
X58672428Y-83725378D01*
X58610089Y-83639054D01*
X58589951Y-83574792D01*
X58591874Y-83468330D01*
X58637921Y-83277468D01*
X58748230Y-83066467D01*
X58878677Y-82919728D01*
X58965000Y-82857389D01*
X59029262Y-82837251D01*
X59135724Y-82839174D01*
X59220124Y-82883297D01*
X59282463Y-82969621D01*
X59302602Y-83033883D01*
X59300678Y-83140345D01*
X59254632Y-83331207D01*
X59144323Y-83542208D01*
X59013876Y-83688947D01*
X58927552Y-83751286D01*
X58863290Y-83771424D01*
X58756828Y-83769501D01*
X64347834Y-83420022D02*
X64854236Y-83684762D01*
X64601035Y-83552392D02*
X64137739Y-84438595D01*
X64288324Y-84356118D01*
X64416848Y-84315841D01*
X64523310Y-84317765D01*
%TO.C,D20*%
X89720079Y-146744960D02*
X88778022Y-146409509D01*
X88857891Y-146185209D01*
X88950673Y-146066604D01*
X89072340Y-146008832D01*
X89178034Y-145995919D01*
X89373447Y-146014955D01*
X89508027Y-146062877D01*
X89671493Y-146171632D01*
X89745239Y-146248440D01*
X89803010Y-146370107D01*
X89799949Y-146520661D01*
X89720079Y-146744960D01*
X89187219Y-145544259D02*
X89158333Y-145483425D01*
X89145421Y-145377732D01*
X89225291Y-145153432D01*
X89302098Y-145079686D01*
X89362932Y-145050800D01*
X89468626Y-145037888D01*
X89558345Y-145069836D01*
X89676951Y-145162617D01*
X90023583Y-145892623D01*
X90231244Y-145309444D01*
X89496847Y-144390814D02*
X89528794Y-144301094D01*
X89605602Y-144227349D01*
X89666436Y-144198463D01*
X89772129Y-144185550D01*
X89967543Y-144204586D01*
X90191842Y-144284456D01*
X90355308Y-144393211D01*
X90429054Y-144470019D01*
X90457940Y-144530852D01*
X90470852Y-144636546D01*
X90438904Y-144726266D01*
X90362096Y-144800012D01*
X90301263Y-144828898D01*
X90195569Y-144841810D01*
X90000156Y-144822774D01*
X89775856Y-144742905D01*
X89612391Y-144634149D01*
X89538645Y-144557342D01*
X89509759Y-144496508D01*
X89496847Y-144390814D01*
X89825472Y-140784978D02*
X89633785Y-141323297D01*
X89729628Y-141054137D02*
X88787571Y-140718686D01*
X88890203Y-140856327D01*
X88947975Y-140977995D01*
X88960887Y-141083688D01*
%TO.C,D12*%
X143434098Y-122314930D02*
X142916071Y-123170294D01*
X142712412Y-123046954D01*
X142614886Y-122932219D01*
X142582758Y-122801420D01*
X142591362Y-122695288D01*
X142649303Y-122507694D01*
X142723307Y-122385499D01*
X142862710Y-122247240D01*
X142952777Y-122190445D01*
X143083577Y-122158318D01*
X143230439Y-122191590D01*
X143434098Y-122314930D01*
X142130685Y-121525555D02*
X142619465Y-121821571D01*
X142375075Y-121673563D02*
X141857048Y-122528927D01*
X142012515Y-122456068D01*
X142143315Y-122423941D01*
X142249446Y-122432545D01*
X141336141Y-122102113D02*
X141270742Y-122118176D01*
X141164610Y-122109572D01*
X140960952Y-121986232D01*
X140904157Y-121896165D01*
X140888093Y-121830765D01*
X140896698Y-121724634D01*
X140946034Y-121643171D01*
X141060769Y-121545644D01*
X141845564Y-121352880D01*
X141316053Y-121032196D01*
X137617038Y-121013269D02*
X138105818Y-121309285D01*
X137861428Y-121161277D02*
X137343401Y-122016641D01*
X137498868Y-121943782D01*
X137629667Y-121911655D01*
X137735799Y-121920259D01*
%TO.C,U1*%
X100899595Y-115289351D02*
X100899595Y-116098875D01*
X100947214Y-116194113D01*
X100994833Y-116241732D01*
X101090071Y-116289351D01*
X101280547Y-116289351D01*
X101375785Y-116241732D01*
X101423404Y-116194113D01*
X101471023Y-116098875D01*
X101471023Y-115289351D01*
X102471023Y-116289351D02*
X101899595Y-116289351D01*
X102185309Y-116289351D02*
X102185309Y-115289351D01*
X102090071Y-115432209D01*
X101994833Y-115527447D01*
X101899595Y-115575066D01*
X96899595Y-111703637D02*
X97375785Y-111703637D01*
X96804357Y-111989351D02*
X97137690Y-110989351D01*
X97471023Y-111989351D01*
X97804357Y-111322685D02*
X97804357Y-111989351D01*
X97804357Y-111417923D02*
X97851976Y-111370304D01*
X97947214Y-111322685D01*
X98090071Y-111322685D01*
X98185309Y-111370304D01*
X98232928Y-111465542D01*
X98232928Y-111989351D01*
X98566261Y-111322685D02*
X98947214Y-111322685D01*
X98709119Y-110989351D02*
X98709119Y-111846494D01*
X98756738Y-111941732D01*
X98851976Y-111989351D01*
X98947214Y-111989351D01*
X99661500Y-111941732D02*
X99566261Y-111989351D01*
X99375785Y-111989351D01*
X99280547Y-111941732D01*
X99232928Y-111846494D01*
X99232928Y-111465542D01*
X99280547Y-111370304D01*
X99375785Y-111322685D01*
X99566261Y-111322685D01*
X99661500Y-111370304D01*
X99709119Y-111465542D01*
X99709119Y-111560780D01*
X99232928Y-111656018D01*
X100137690Y-111322685D02*
X100137690Y-111989351D01*
X100137690Y-111417923D02*
X100185309Y-111370304D01*
X100280547Y-111322685D01*
X100423404Y-111322685D01*
X100518642Y-111370304D01*
X100566261Y-111465542D01*
X100566261Y-111989351D01*
X101042452Y-111322685D02*
X101042452Y-111989351D01*
X101042452Y-111417923D02*
X101090071Y-111370304D01*
X101185309Y-111322685D01*
X101328166Y-111322685D01*
X101423404Y-111370304D01*
X101471023Y-111465542D01*
X101471023Y-111989351D01*
X102375785Y-111989351D02*
X102375785Y-111465542D01*
X102328166Y-111370304D01*
X102232928Y-111322685D01*
X102042452Y-111322685D01*
X101947214Y-111370304D01*
X102375785Y-111941732D02*
X102280547Y-111989351D01*
X102042452Y-111989351D01*
X101947214Y-111941732D01*
X101899595Y-111846494D01*
X101899595Y-111751256D01*
X101947214Y-111656018D01*
X102042452Y-111608399D01*
X102280547Y-111608399D01*
X102375785Y-111560780D01*
X103566261Y-111703637D02*
X104042452Y-111703637D01*
X103471023Y-111989351D02*
X103804357Y-110989351D01*
X104137690Y-111989351D01*
X104471023Y-111989351D02*
X104471023Y-111322685D01*
X104471023Y-111513161D02*
X104518642Y-111417923D01*
X104566261Y-111370304D01*
X104661500Y-111322685D01*
X104756738Y-111322685D01*
X105471023Y-111941732D02*
X105375785Y-111989351D01*
X105185309Y-111989351D01*
X105090071Y-111941732D01*
X105042452Y-111846494D01*
X105042452Y-111465542D01*
X105090071Y-111370304D01*
X105185309Y-111322685D01*
X105375785Y-111322685D01*
X105471023Y-111370304D01*
X105518642Y-111465542D01*
X105518642Y-111560780D01*
X105042452Y-111656018D01*
X106375785Y-111989351D02*
X106375785Y-111465542D01*
X106328166Y-111370304D01*
X106232928Y-111322685D01*
X106042452Y-111322685D01*
X105947214Y-111370304D01*
X106375785Y-111941732D02*
X106280547Y-111989351D01*
X106042452Y-111989351D01*
X105947214Y-111941732D01*
X105899595Y-111846494D01*
X105899595Y-111751256D01*
X105947214Y-111656018D01*
X106042452Y-111608399D01*
X106280547Y-111608399D01*
X106375785Y-111560780D01*
%TO.C,J1*%
X103348267Y-60435810D02*
X103348267Y-61152666D01*
X103300476Y-61296037D01*
X103204896Y-61391618D01*
X103061525Y-61439408D01*
X102965944Y-61439408D01*
X104351865Y-61439408D02*
X103778380Y-61439408D01*
X104065123Y-61439408D02*
X104065123Y-60435810D01*
X103969542Y-60579181D01*
X103873961Y-60674762D01*
X103778380Y-60722552D01*
%TO.C,U2*%
X118364095Y-115458380D02*
X118364095Y-116267904D01*
X118411714Y-116363142D01*
X118459333Y-116410761D01*
X118554571Y-116458380D01*
X118745047Y-116458380D01*
X118840285Y-116410761D01*
X118887904Y-116363142D01*
X118935523Y-116267904D01*
X118935523Y-115458380D01*
X119364095Y-115553619D02*
X119411714Y-115506000D01*
X119506952Y-115458380D01*
X119745047Y-115458380D01*
X119840285Y-115506000D01*
X119887904Y-115553619D01*
X119935523Y-115648857D01*
X119935523Y-115744095D01*
X119887904Y-115886952D01*
X119316476Y-116458380D01*
X119935523Y-116458380D01*
%TO.C,J4*%
X86306066Y-93457780D02*
X86306066Y-94172066D01*
X86258447Y-94314923D01*
X86163209Y-94410161D01*
X86020352Y-94457780D01*
X85925114Y-94457780D01*
X87210828Y-93791114D02*
X87210828Y-94457780D01*
X86972733Y-93410161D02*
X86734638Y-94124447D01*
X87353685Y-94124447D01*
%TO.C,SW1*%
X117018466Y-95448761D02*
X117161323Y-95496380D01*
X117399419Y-95496380D01*
X117494657Y-95448761D01*
X117542276Y-95401142D01*
X117589895Y-95305904D01*
X117589895Y-95210666D01*
X117542276Y-95115428D01*
X117494657Y-95067809D01*
X117399419Y-95020190D01*
X117208942Y-94972571D01*
X117113704Y-94924952D01*
X117066085Y-94877333D01*
X117018466Y-94782095D01*
X117018466Y-94686857D01*
X117066085Y-94591619D01*
X117113704Y-94544000D01*
X117208942Y-94496380D01*
X117447038Y-94496380D01*
X117589895Y-94544000D01*
X117923228Y-94496380D02*
X118161323Y-95496380D01*
X118351800Y-94782095D01*
X118542276Y-95496380D01*
X118780371Y-94496380D01*
X119685133Y-95496380D02*
X119113704Y-95496380D01*
X119399419Y-95496380D02*
X119399419Y-94496380D01*
X119304180Y-94639238D01*
X119208942Y-94734476D01*
X119113704Y-94782095D01*
%TO.C,D13*%
X139297772Y-129133216D02*
X138641713Y-129887926D01*
X138462020Y-129731721D01*
X138385446Y-129602060D01*
X138376050Y-129467701D01*
X138402594Y-129364583D01*
X138491619Y-129189588D01*
X138585341Y-129081772D01*
X138746244Y-128969259D01*
X138844664Y-128928623D01*
X138979023Y-128919228D01*
X139118079Y-128977012D01*
X139297772Y-129133216D01*
X138147739Y-128133507D02*
X138579001Y-128508398D01*
X138363370Y-128320953D02*
X137707311Y-129075662D01*
X137872911Y-129030329D01*
X138007270Y-129020933D01*
X138110388Y-129047477D01*
X137240110Y-128669531D02*
X136772908Y-128263399D01*
X137274406Y-128194577D01*
X137166590Y-128100854D01*
X137125954Y-128002434D01*
X137121256Y-127935254D01*
X137147799Y-127832136D01*
X137304004Y-127652443D01*
X137402424Y-127611807D01*
X137469604Y-127607110D01*
X137572722Y-127633653D01*
X137788353Y-127821098D01*
X137828989Y-127919519D01*
X137833687Y-127986698D01*
X133787151Y-126860432D02*
X134218413Y-127235323D01*
X134002782Y-127047877D02*
X133346723Y-127802587D01*
X133512323Y-127757253D01*
X133646682Y-127747858D01*
X133749800Y-127774401D01*
%TO.C,D28*%
X57519178Y-98482414D02*
X57380005Y-99472682D01*
X57144227Y-99439546D01*
X57009387Y-99372508D01*
X56928331Y-99264942D01*
X56894430Y-99164004D01*
X56873783Y-98968754D01*
X56893665Y-98827287D01*
X56967330Y-98645292D01*
X57027740Y-98557608D01*
X57135306Y-98476551D01*
X57283400Y-98449278D01*
X57519178Y-98482414D01*
X56450147Y-99245825D02*
X56396364Y-99286353D01*
X56295426Y-99320254D01*
X56059648Y-99287118D01*
X55971964Y-99226708D01*
X55931435Y-99172925D01*
X55897534Y-99071986D01*
X55910789Y-98977675D01*
X55977826Y-98842835D01*
X56623221Y-98356495D01*
X56010198Y-98270341D01*
X55364803Y-98756681D02*
X55452487Y-98817091D01*
X55493016Y-98870874D01*
X55526917Y-98971812D01*
X55520289Y-99018968D01*
X55459879Y-99106652D01*
X55406096Y-99147180D01*
X55305158Y-99181081D01*
X55116535Y-99154572D01*
X55028851Y-99094162D01*
X54988323Y-99040379D01*
X54954422Y-98939440D01*
X54961049Y-98892285D01*
X55021459Y-98804601D01*
X55075242Y-98764073D01*
X55176181Y-98730172D01*
X55364803Y-98756681D01*
X55465742Y-98722780D01*
X55519525Y-98682251D01*
X55579935Y-98594567D01*
X55606444Y-98405945D01*
X55572543Y-98305006D01*
X55532015Y-98251223D01*
X55444331Y-98190813D01*
X55255708Y-98164304D01*
X55154770Y-98198205D01*
X55100987Y-98238733D01*
X55040577Y-98326417D01*
X55014067Y-98515040D01*
X55047968Y-98615978D01*
X55088497Y-98669761D01*
X55176181Y-98730172D01*
X60407818Y-96969713D02*
X60973685Y-97049241D01*
X60690752Y-97009477D02*
X60551579Y-97999745D01*
X60665772Y-97871533D01*
X60773338Y-97790476D01*
X60874276Y-97756575D01*
%TO.C,D34*%
X81431615Y-62279847D02*
X80512480Y-62673789D01*
X80418684Y-62454947D01*
X80406175Y-62304883D01*
X80456193Y-62179828D01*
X80524971Y-62098541D01*
X80681285Y-61979736D01*
X80812590Y-61923459D01*
X81006423Y-61892190D01*
X81112718Y-61898441D01*
X81237773Y-61948459D01*
X81337819Y-62061005D01*
X81431615Y-62279847D01*
X80156056Y-61842190D02*
X79912187Y-61273201D01*
X80393648Y-61429507D01*
X80337370Y-61298202D01*
X80343621Y-61191906D01*
X80368630Y-61129378D01*
X80437407Y-61048092D01*
X80656249Y-60954296D01*
X80762545Y-60960546D01*
X80825072Y-60985555D01*
X80906359Y-61054333D01*
X81018914Y-61316943D01*
X81012664Y-61423239D01*
X80987655Y-61485766D01*
X79880901Y-60354057D02*
X80493658Y-60091429D01*
X79624550Y-60722972D02*
X80374871Y-60660427D01*
X80131002Y-60091438D01*
X84221918Y-63967066D02*
X84447028Y-64492286D01*
X84334473Y-64229676D02*
X83415337Y-64623618D01*
X83584161Y-64654877D01*
X83709216Y-64704895D01*
X83790502Y-64773673D01*
%TO.C,D19*%
X97577534Y-148108277D02*
X96592126Y-147938067D01*
X96632652Y-147703446D01*
X96703892Y-147570779D01*
X96813951Y-147493141D01*
X96915905Y-147462427D01*
X97111707Y-147447924D01*
X97252479Y-147472240D01*
X97432071Y-147551585D01*
X97517814Y-147614719D01*
X97595452Y-147724778D01*
X97618060Y-147873656D01*
X97577534Y-148108277D01*
X97836901Y-146606703D02*
X97739639Y-147169793D01*
X97788270Y-146888248D02*
X96802862Y-146718038D01*
X96927424Y-146836202D01*
X97005062Y-146946261D01*
X97035776Y-147048215D01*
X97917953Y-146137461D02*
X97950374Y-145949764D01*
X97919660Y-145847811D01*
X97880841Y-145792781D01*
X97756279Y-145674617D01*
X97576688Y-145595272D01*
X97201294Y-145530430D01*
X97099341Y-145561144D01*
X97044311Y-145599963D01*
X96981177Y-145685706D01*
X96948756Y-145873403D01*
X96979470Y-145975357D01*
X97018289Y-146030386D01*
X97104032Y-146093521D01*
X97338653Y-146134047D01*
X97440606Y-146103333D01*
X97495636Y-146064514D01*
X97558770Y-145978771D01*
X97591191Y-145791074D01*
X97560477Y-145689121D01*
X97521658Y-145634091D01*
X97435915Y-145570957D01*
X96666943Y-142217324D02*
X96569680Y-142780414D01*
X96618311Y-142498869D02*
X95632903Y-142328660D01*
X95757465Y-142446824D01*
X95835103Y-142556882D01*
X95865817Y-142658836D01*
%TO.C,D25*%
X59734736Y-122251869D02*
X59369859Y-121320813D01*
X59591539Y-121233938D01*
X59741922Y-121226149D01*
X59865344Y-121280070D01*
X59944431Y-121351367D01*
X60058267Y-121511336D01*
X60110392Y-121644344D01*
X60135557Y-121839063D01*
X60125971Y-121945110D01*
X60072049Y-122068532D01*
X59956416Y-122164994D01*
X59734736Y-122251869D01*
X60291329Y-121061984D02*
X60318290Y-121000272D01*
X60389587Y-120921186D01*
X60611267Y-120834311D01*
X60717314Y-120843897D01*
X60779025Y-120870858D01*
X60858111Y-120942155D01*
X60892861Y-121030826D01*
X60900651Y-121181210D01*
X60577120Y-121921742D01*
X61153488Y-121695866D01*
X61630995Y-120434684D02*
X61187635Y-120608435D01*
X61317050Y-121069170D01*
X61344011Y-121007459D01*
X61415308Y-120928373D01*
X61636988Y-120841497D01*
X61743035Y-120851083D01*
X61804746Y-120878044D01*
X61883832Y-120949341D01*
X61970707Y-121171021D01*
X61961121Y-121277068D01*
X61934161Y-121338779D01*
X61862864Y-121417865D01*
X61641184Y-121504740D01*
X61535137Y-121495155D01*
X61473426Y-121468194D01*
X64301935Y-118421310D02*
X63769903Y-118629811D01*
X64035919Y-118525560D02*
X63671042Y-117594505D01*
X63634495Y-117762263D01*
X63580573Y-117885685D01*
X63509277Y-117964771D01*
%TO.C,D29*%
X58693052Y-91024932D02*
X58387357Y-91977061D01*
X58160660Y-91904277D01*
X58039198Y-91815266D01*
X57977633Y-91695473D01*
X57961407Y-91590238D01*
X57974295Y-91394323D01*
X58017966Y-91258304D01*
X58121533Y-91091503D01*
X58195987Y-91015381D01*
X58315779Y-90953816D01*
X58466355Y-90952147D01*
X58693052Y-91024932D01*
X57509681Y-91595244D02*
X57449785Y-91626026D01*
X57344549Y-91642252D01*
X57117851Y-91569467D01*
X57041729Y-91495014D01*
X57010947Y-91435118D01*
X56994721Y-91329882D01*
X57023835Y-91239203D01*
X57112845Y-91117741D01*
X57831602Y-90748350D01*
X57242189Y-90559110D01*
X56788794Y-90413541D02*
X56607436Y-90355313D01*
X56502200Y-90371539D01*
X56442303Y-90402322D01*
X56307954Y-90509226D01*
X56204386Y-90676027D01*
X56087931Y-91038743D01*
X56104157Y-91143979D01*
X56134939Y-91203876D01*
X56211061Y-91278329D01*
X56392419Y-91336557D01*
X56497655Y-91320331D01*
X56557552Y-91289548D01*
X56632005Y-91213426D01*
X56704790Y-90986729D01*
X56688564Y-90881493D01*
X56657781Y-90821597D01*
X56581659Y-90747143D01*
X56400301Y-90688916D01*
X56295065Y-90705141D01*
X56235169Y-90735924D01*
X56160716Y-90812046D01*
X61797016Y-90025979D02*
X62341090Y-90200662D01*
X62069053Y-90113320D02*
X61763358Y-91065450D01*
X61897708Y-90958545D01*
X62017501Y-90896980D01*
X62122736Y-90880754D01*
%TO.C,D22*%
X75264484Y-140144010D02*
X74489540Y-139511980D01*
X74640023Y-139327470D01*
X74767215Y-139246860D01*
X74901213Y-139233249D01*
X75005114Y-139256540D01*
X75182819Y-139340025D01*
X75293525Y-139430314D01*
X75411037Y-139587603D01*
X75454744Y-139684698D01*
X75468355Y-139818696D01*
X75414968Y-139959499D01*
X75264484Y-140144010D01*
X75165277Y-138834131D02*
X75158471Y-138767132D01*
X75181763Y-138663232D01*
X75332246Y-138478721D01*
X75429341Y-138435013D01*
X75496340Y-138428208D01*
X75600241Y-138451499D01*
X75674045Y-138511692D01*
X75754655Y-138638884D01*
X75836321Y-139442869D01*
X76227577Y-138963142D01*
X75767210Y-138096089D02*
X75760404Y-138029090D01*
X75783695Y-137925189D01*
X75934178Y-137740679D01*
X76031274Y-137696971D01*
X76098273Y-137690165D01*
X76202173Y-137713457D01*
X76275978Y-137773650D01*
X76356587Y-137900842D01*
X76438253Y-138704827D01*
X76829509Y-138225099D01*
X77363055Y-134564717D02*
X77001896Y-135007542D01*
X77182476Y-134786130D02*
X76407531Y-134154100D01*
X76458044Y-134318194D01*
X76471655Y-134452192D01*
X76448364Y-134556093D01*
%TO.C,D15*%
X127877405Y-140183648D02*
X127006192Y-140674552D01*
X126889310Y-140467120D01*
X126860667Y-140319285D01*
X126896887Y-140189559D01*
X126956483Y-140101320D01*
X127099053Y-139966328D01*
X127223512Y-139896199D01*
X127412834Y-139844180D01*
X127519183Y-139838914D01*
X127648908Y-139875134D01*
X127760524Y-139976217D01*
X127877405Y-140183648D01*
X127129362Y-138856085D02*
X127409878Y-139353921D01*
X127269620Y-139105003D02*
X126398406Y-139595907D01*
X126569618Y-139608750D01*
X126699343Y-139644970D01*
X126787582Y-139704567D01*
X125813997Y-138558747D02*
X126047760Y-138973611D01*
X126486001Y-138781334D01*
X126421138Y-138763224D01*
X126332899Y-138703627D01*
X126216017Y-138496195D01*
X126210751Y-138389846D01*
X126228861Y-138324984D01*
X126288457Y-138236744D01*
X126495889Y-138119863D01*
X126602238Y-138114596D01*
X126667101Y-138132706D01*
X126755340Y-138192303D01*
X126872222Y-138399734D01*
X126877488Y-138506084D01*
X126859378Y-138570946D01*
X123448494Y-136194008D02*
X123729010Y-136691844D01*
X123588752Y-136442926D02*
X122717538Y-136933830D01*
X122888750Y-136946673D01*
X123018476Y-136982893D01*
X123106715Y-137042490D01*
D12*
%TO.C,D38*%
X77760000Y-105426000D02*
X81660000Y-105426000D01*
X77760000Y-105426000D02*
X77760000Y-107426000D01*
X77760000Y-107426000D02*
X81660000Y-107426000D01*
%TO.C,D37*%
X80046000Y-90440000D02*
X83946000Y-90440000D01*
X80046000Y-90440000D02*
X80046000Y-92440000D01*
X80046000Y-92440000D02*
X83946000Y-92440000D01*
%TO.C,D36*%
X98314000Y-66004000D02*
X98314000Y-62104000D01*
X98314000Y-66004000D02*
X100314000Y-66004000D01*
X100314000Y-66004000D02*
X100314000Y-62104000D01*
%TO.C,D41*%
X104840000Y-66157400D02*
X102990000Y-66157400D01*
X104840000Y-64957400D02*
X102990000Y-64957400D01*
X102990000Y-64957400D02*
X102990000Y-66157400D01*
%TO.C,D40*%
X104840400Y-67757600D02*
X102990400Y-67757600D01*
X104840400Y-66557600D02*
X102990400Y-66557600D01*
X102990400Y-66557600D02*
X102990400Y-67757600D01*
%TO.C,D39*%
X96555000Y-63057000D02*
X96555000Y-61207000D01*
X97755000Y-63057000D02*
X97755000Y-61207000D01*
X97755000Y-61207000D02*
X96555000Y-61207000D01*
%TO.C,D32*%
X75319027Y-69171687D02*
X70359105Y-63815459D01*
X70359105Y-63815459D02*
X69515316Y-64596817D01*
X71283513Y-72908615D02*
X66323591Y-67552387D01*
D13*
%TO.C,SW2*%
X121426800Y-93583600D02*
X116926800Y-93583600D01*
X121426800Y-88483600D02*
X116926800Y-88483600D01*
X116626800Y-89853600D02*
X116626800Y-92213600D01*
X121726800Y-92213600D02*
X121726800Y-89853600D01*
D14*
X115026800Y-89158600D02*
G75*
G03*
X115026800Y-89158600I-100000J0D01*
G01*
D12*
%TO.C,D14*%
X125792923Y-135614518D02*
X130406737Y-141271613D01*
X130406737Y-141271613D02*
X131297923Y-140544779D01*
X130055117Y-132138357D02*
X134668931Y-137795452D01*
%TO.C,C6*%
X72445637Y-80245800D02*
X79901200Y-80245800D01*
X79901200Y-80245800D02*
X79901200Y-83195800D01*
X71381200Y-81310237D02*
X72445637Y-80245800D01*
X79901200Y-88765800D02*
X79901200Y-85815800D01*
X71381200Y-87701363D02*
X71381200Y-85815800D01*
X72445637Y-88765800D02*
X79901200Y-88765800D01*
X71381200Y-87701363D02*
X72445637Y-88765800D01*
X71381200Y-81310237D02*
X71381200Y-83195800D01*
%TO.C,D24*%
X64549504Y-120823573D02*
X58305345Y-124605170D01*
X67398653Y-125528076D02*
X61154494Y-129309673D01*
X58305345Y-124605170D02*
X58901076Y-125588839D01*
%TO.C,R5*%
X112167400Y-95959959D02*
X112167400Y-96267241D01*
X112927400Y-95959959D02*
X112927400Y-96267241D01*
%TO.C,D9*%
X143315828Y-100159615D02*
X150612226Y-100388913D01*
X150439466Y-105886199D02*
X150475589Y-104736767D01*
X143143068Y-105656901D02*
X150439466Y-105886199D01*
%TO.C,D16*%
X112980900Y-141759184D02*
X115429696Y-148636204D01*
X115429696Y-148636204D02*
X116513062Y-148250434D01*
X118162216Y-139914200D02*
X120611012Y-146791220D01*
%TO.C,C4*%
X125836000Y-111398164D02*
X125836000Y-111613836D01*
X125116000Y-111398164D02*
X125116000Y-111613836D01*
%TO.C,D18*%
X98850000Y-143250000D02*
X98850000Y-150550000D01*
X104350000Y-143250000D02*
X104350000Y-150550000D01*
X98850000Y-150550000D02*
X100000000Y-150550000D01*
%TO.C,D1*%
X115619194Y-54619928D02*
X114500501Y-54353418D01*
X108577166Y-60446578D02*
X110268926Y-53345314D01*
X113927434Y-61721192D02*
X115619194Y-54619928D01*
%TO.C,D27*%
X52587774Y-100388913D02*
X52623897Y-101538346D01*
X59884172Y-100159615D02*
X52587774Y-100388913D01*
X60056932Y-105656901D02*
X52760534Y-105886199D01*
%TO.C,C5*%
X114954164Y-105050000D02*
X115169836Y-105050000D01*
X114954164Y-105770000D02*
X115169836Y-105770000D01*
%TO.C,D11*%
X146171771Y-122021122D02*
X146591379Y-120950408D01*
X141381885Y-114236714D02*
X148178593Y-116900315D01*
X139375063Y-119357521D02*
X146171771Y-122021122D01*
%TO.C,D21*%
X78758021Y-136536069D02*
X75174423Y-142895930D01*
X75174423Y-142895930D02*
X76176319Y-143460469D01*
X83549697Y-139236040D02*
X79966099Y-145595901D01*
%TO.C,R2*%
X113183641Y-105790000D02*
X112876359Y-105790000D01*
X113183641Y-105030000D02*
X112876359Y-105030000D01*
%TO.C,D3*%
X121977871Y-65171614D02*
X125953736Y-59049319D01*
X126590560Y-68167129D02*
X130566425Y-62044834D01*
X130566425Y-62044834D02*
X129601953Y-61418499D01*
%TO.C,D23*%
X68362184Y-126849407D02*
X62852804Y-131638638D01*
X62852804Y-131638638D02*
X63607272Y-132506554D01*
X71970508Y-131000310D02*
X66461128Y-135789541D01*
%TO.C,D4*%
X131916487Y-72908615D02*
X136876409Y-67552387D01*
X136876409Y-67552387D02*
X136032620Y-66771029D01*
X127880973Y-69171687D02*
X132840895Y-63815459D01*
%TO.C,D35*%
X92931074Y-53345314D02*
X91812382Y-53611824D01*
X89272566Y-61721192D02*
X87580806Y-54619928D01*
X94622834Y-60446578D02*
X92931074Y-53345314D01*
%TO.C,D10*%
X148997244Y-114136596D02*
X149228484Y-113010085D01*
X142952274Y-107281064D02*
X150103173Y-108748932D01*
X141846345Y-112668728D02*
X148997244Y-114136596D01*
%TO.C,D2*%
X115480058Y-62234673D02*
X118355834Y-55524985D01*
X123411078Y-57691665D02*
X122354073Y-57238632D01*
X120535302Y-64401353D02*
X123411078Y-57691665D01*
%TO.C,J5*%
X76966283Y-110924896D02*
X76966283Y-110289896D01*
X76966283Y-110289896D02*
X77601283Y-110289896D01*
%TO.C,C3*%
X115930000Y-103993836D02*
X115930000Y-103778164D01*
X115210000Y-103993836D02*
X115210000Y-103778164D01*
%TO.C,D33*%
X81222129Y-65171613D02*
X77246264Y-59049318D01*
X77246264Y-59049318D02*
X76281792Y-59675653D01*
X76609440Y-68167128D02*
X72633575Y-62044833D01*
%TO.C,D5*%
X142156879Y-74053593D02*
X141458397Y-73140017D01*
X136357652Y-78487437D02*
X142156879Y-74053593D01*
X133017085Y-74118157D02*
X138816312Y-69684313D01*
%TO.C,R4*%
X101194600Y-63933041D02*
X101194600Y-63625759D01*
X101954600Y-63933041D02*
X101954600Y-63625759D01*
%TO.C,D7*%
X142096851Y-91486147D02*
X149047395Y-89254571D01*
X149047395Y-89254571D02*
X148695846Y-88159622D01*
X140415527Y-86249435D02*
X147366071Y-84017859D01*
%TO.C,R1*%
X112874359Y-104014000D02*
X113181641Y-104014000D01*
X112874359Y-104774000D02*
X113181641Y-104774000D01*
%TO.C,C1*%
X112920164Y-103018000D02*
X113135836Y-103018000D01*
X112920164Y-103738000D02*
X113135836Y-103738000D01*
%TO.C,D8*%
X142461939Y-93080204D02*
X149690895Y-92064240D01*
X150456347Y-97510714D02*
X150296298Y-96371906D01*
X143227391Y-98526678D02*
X150456347Y-97510714D01*
%TO.C,C2*%
X114914000Y-103993836D02*
X114914000Y-103778164D01*
X114194000Y-103993836D02*
X114194000Y-103778164D01*
%TO.C,D6*%
X137236315Y-79866661D02*
X143705601Y-76484600D01*
X139784443Y-84740780D02*
X146253729Y-81358719D01*
X146253729Y-81358719D02*
X145720939Y-80339585D01*
%TO.C,D31*%
X66842348Y-78487437D02*
X61043121Y-74053593D01*
X64383688Y-69684313D02*
X63685206Y-70597890D01*
X70182915Y-74118157D02*
X64383688Y-69684313D01*
%TO.C,D17*%
X107221883Y-150303793D02*
X108355102Y-150108052D01*
X111399097Y-142174163D02*
X112641626Y-149367641D01*
X105979354Y-143110315D02*
X107221883Y-150303793D01*
%TO.C,J2*%
X77724000Y-95250000D02*
X78359000Y-95250000D01*
X77724000Y-95885000D02*
X77724000Y-95250000D01*
%TO.C,D26*%
X61353655Y-112668728D02*
X54202756Y-114136596D01*
X60247726Y-107281064D02*
X53096827Y-108748932D01*
X53096827Y-108748932D02*
X53328067Y-109875444D01*
%TO.C,R3*%
X107316000Y-58520359D02*
X107316000Y-58827641D01*
X108076000Y-58520359D02*
X108076000Y-58827641D01*
%TO.C,J3*%
X85342000Y-110049000D02*
X85544470Y-110049000D01*
X85342000Y-111450529D02*
X85342000Y-111307471D01*
X86982000Y-110049000D02*
X86982000Y-113979000D01*
X85145471Y-111504000D02*
X85288529Y-111504000D01*
X86159530Y-113979000D02*
X86982000Y-113979000D01*
X85342000Y-110180529D02*
X85342000Y-110049000D01*
X83452000Y-110744000D02*
X83452000Y-109984000D01*
X83452000Y-109984000D02*
X84582000Y-109984000D01*
X83452000Y-113979000D02*
X84274470Y-113979000D01*
X84889530Y-113979000D02*
X85544470Y-113979000D01*
X83452000Y-111504000D02*
X83452000Y-113979000D01*
X86159530Y-110049000D02*
X86982000Y-110049000D01*
X83452000Y-111504000D02*
X84018529Y-111504000D01*
%TO.C,D30*%
X63415557Y-84740780D02*
X56946271Y-81358719D01*
X65963685Y-79866661D02*
X59494399Y-76484600D01*
X59494399Y-76484600D02*
X58961609Y-77503734D01*
%TO.C,D20*%
X90219100Y-141759184D02*
X87770304Y-148636204D01*
X82588988Y-146791220D02*
X83672354Y-147176989D01*
X85037784Y-139914200D02*
X82588988Y-146791220D01*
%TO.C,D12*%
X135801347Y-125528076D02*
X142045506Y-129309673D01*
X142045506Y-129309673D02*
X142641237Y-128326004D01*
X138650496Y-120823573D02*
X144894655Y-124605170D01*
%TO.C,U1*%
X110661500Y-89786971D02*
X110661500Y-89036971D01*
X92661500Y-114536971D02*
X92661500Y-107786971D01*
X92661500Y-89786971D02*
X92661500Y-89036971D01*
X92661500Y-108596971D02*
X110661500Y-108596971D01*
X110661500Y-89036971D02*
X109661500Y-89036971D01*
X110661500Y-114536971D02*
X110661500Y-107786971D01*
X92661500Y-89036971D02*
X93661500Y-89036971D01*
X110661500Y-114536971D02*
X92661500Y-114536971D01*
D13*
%TO.C,J1*%
X106070000Y-55580000D02*
X106070000Y-57780000D01*
X97130000Y-55580000D02*
X97130000Y-57780000D01*
X106070000Y-52110000D02*
X97130000Y-52110000D01*
D14*
X104748000Y-60960000D02*
G75*
G03*
X104748000Y-60960000I-100000J0D01*
G01*
D12*
%TO.C,U2*%
X120096000Y-114956000D02*
X121596000Y-114956000D01*
X121596000Y-114956000D02*
X121596000Y-114686000D01*
X121596000Y-108326000D02*
X122696000Y-108326000D01*
X121596000Y-108056000D02*
X121596000Y-108326000D01*
X121596000Y-114686000D02*
X124426000Y-114686000D01*
X120096000Y-108056000D02*
X121596000Y-108056000D01*
%TO.C,J4*%
X86837435Y-94939251D02*
X87039905Y-94939251D01*
X84947435Y-96394251D02*
X84947435Y-101409251D01*
X84947435Y-96394251D02*
X85513964Y-96394251D01*
X84947435Y-101409251D02*
X85769905Y-101409251D01*
X87654965Y-94939251D02*
X88477435Y-94939251D01*
X87654965Y-101409251D02*
X88477435Y-101409251D01*
X86837435Y-96340780D02*
X86837435Y-96197722D01*
X84947435Y-95634251D02*
X84947435Y-94874251D01*
X88477435Y-94939251D02*
X88477435Y-101409251D01*
X86640906Y-96394251D02*
X86783964Y-96394251D01*
X86384965Y-101409251D02*
X87039905Y-101409251D01*
X84947435Y-94874251D02*
X86077435Y-94874251D01*
X86837435Y-95070780D02*
X86837435Y-94939251D01*
D13*
%TO.C,SW1*%
X116626800Y-97499000D02*
X116626800Y-99859000D01*
X121426800Y-101229000D02*
X116926800Y-101229000D01*
X121726800Y-99859000D02*
X121726800Y-97499000D01*
X121426800Y-96129000D02*
X116926800Y-96129000D01*
D14*
X115026800Y-96804000D02*
G75*
G03*
X115026800Y-96804000I-100000J0D01*
G01*
D12*
%TO.C,D13*%
X131229492Y-131000310D02*
X136738872Y-135789541D01*
X136738872Y-135789541D02*
X137493340Y-134921625D01*
X134837816Y-126849407D02*
X140347196Y-131638638D01*
%TO.C,D28*%
X59972609Y-98526678D02*
X52743653Y-97510714D01*
X53509105Y-92064240D02*
X53349056Y-93203048D01*
X60738061Y-93080204D02*
X53509105Y-92064240D01*
%TO.C,D34*%
X82664698Y-64401353D02*
X79788922Y-57691665D01*
X87719942Y-62234673D02*
X84844166Y-55524985D01*
X84844166Y-55524985D02*
X83787161Y-55978018D01*
%TO.C,D19*%
X91800903Y-142174163D02*
X90558374Y-149367641D01*
X97220646Y-143110315D02*
X95978117Y-150303793D01*
X90558374Y-149367641D02*
X91691593Y-149563382D01*
%TO.C,D25*%
X61818115Y-114236714D02*
X55021407Y-116900315D01*
X63824937Y-119357521D02*
X57028229Y-122021122D01*
X55021407Y-116900315D02*
X55441015Y-117971029D01*
%TO.C,D29*%
X61103149Y-91486147D02*
X54152605Y-89254571D01*
X62784473Y-86249435D02*
X55833929Y-84017859D01*
X55833929Y-84017859D02*
X55482379Y-85112808D01*
%TO.C,D22*%
X73144883Y-132138357D02*
X68531069Y-137795452D01*
X68531069Y-137795452D02*
X69422255Y-138522285D01*
X77407077Y-135614518D02*
X72793263Y-141271613D01*
%TO.C,D15*%
X119650303Y-139236040D02*
X123233901Y-145595901D01*
X123233901Y-145595901D02*
X124235797Y-145031361D01*
X124441979Y-136536069D02*
X128025577Y-142895930D01*
%TD*%
%LPC*%
D15*
%TO.C,D38*%
X78360000Y-106426000D03*
X81660000Y-106426000D03*
%TD*%
%TO.C,D37*%
X80646000Y-91440000D03*
X83946000Y-91440000D03*
%TD*%
D16*
%TO.C,D36*%
X99314000Y-65404000D03*
X99314000Y-62104000D03*
%TD*%
D17*
%TO.C,D41*%
X103440000Y-65557400D03*
X104840000Y-65557400D03*
%TD*%
%TO.C,D40*%
X103440400Y-67157600D03*
X104840400Y-67157600D03*
%TD*%
D18*
%TO.C,D39*%
X97155000Y-61657000D03*
X97155000Y-63057000D03*
%TD*%
D19*
%TO.C,D32*%
X71311972Y-71246781D03*
X73659908Y-69072569D03*
X70330646Y-65477293D03*
X67982710Y-67651505D03*
%TD*%
D20*
%TO.C,SW2*%
X116176800Y-89158600D03*
X122176800Y-89158600D03*
X116176800Y-92908600D03*
X122176800Y-92908600D03*
%TD*%
D21*
%TO.C,D14*%
X129922366Y-133795124D03*
X127442544Y-135817618D03*
X130539488Y-139614846D03*
X133019310Y-137592352D03*
%TD*%
D22*
%TO.C,C6*%
X72041200Y-84505800D03*
X79241200Y-84505800D03*
%TD*%
D23*
%TO.C,D24*%
X65776485Y-125166040D03*
X64118798Y-122428874D03*
X59927513Y-124967206D03*
X61585200Y-127704372D03*
%TD*%
D24*
%TO.C,R5*%
X112547400Y-95603600D03*
X112547400Y-96623600D03*
%TD*%
D25*
%TO.C,D9*%
X144479113Y-101346740D03*
X144378599Y-104545161D03*
X149276181Y-104699074D03*
X149376695Y-101500653D03*
%TD*%
D26*
%TO.C,D16*%
X117481392Y-141430439D03*
X114466808Y-142503884D03*
X116110520Y-147119965D03*
X119125104Y-146046520D03*
%TD*%
D27*
%TO.C,C4*%
X125476000Y-111026000D03*
X125476000Y-111986000D03*
%TD*%
D28*
%TO.C,D18*%
X103200000Y-144450000D03*
X100000000Y-144450000D03*
X100000000Y-149350000D03*
X103200000Y-149350000D03*
%TD*%
D29*
%TO.C,D1*%
X109973956Y-59545757D03*
X113086839Y-60287351D03*
X114222404Y-55520749D03*
X111109521Y-54779155D03*
%TD*%
D30*
%TO.C,D27*%
X58821401Y-104545161D03*
X58720887Y-101346740D03*
X53823305Y-101500653D03*
X53923819Y-104699074D03*
%TD*%
D31*
%TO.C,C5*%
X114582000Y-105410000D03*
X115542000Y-105410000D03*
%TD*%
D32*
%TO.C,D11*%
X142079544Y-115745281D03*
X140911938Y-118724659D03*
X145474112Y-120512555D03*
X146641718Y-117533177D03*
%TD*%
D33*
%TO.C,D21*%
X81958716Y-139716957D03*
X79170832Y-138146065D03*
X76765404Y-142415013D03*
X79553288Y-143985905D03*
%TD*%
D34*
%TO.C,R2*%
X113540000Y-105410000D03*
X112520000Y-105410000D03*
%TD*%
D35*
%TO.C,D3*%
X123595909Y-64791544D03*
X126279655Y-66534389D03*
X128948387Y-62424904D03*
X126264641Y-60682059D03*
%TD*%
D36*
%TO.C,D23*%
X70310389Y-130919665D03*
X68211000Y-128504594D03*
X64512923Y-131719283D03*
X66612312Y-134134354D03*
%TD*%
D37*
%TO.C,D4*%
X129540092Y-69072569D03*
X131888028Y-71246781D03*
X135217290Y-67651505D03*
X132869354Y-65477293D03*
%TD*%
D38*
%TO.C,D35*%
X90113161Y-60287351D03*
X93226044Y-59545757D03*
X92090479Y-54779155D03*
X88977596Y-55520749D03*
%TD*%
D39*
%TO.C,D10*%
X143896524Y-108648869D03*
X143253075Y-111783509D03*
X148052994Y-112768791D03*
X148696443Y-109634151D03*
%TD*%
D40*
%TO.C,D2*%
X117009794Y-61584744D03*
X119951027Y-62845358D03*
X121881342Y-58341594D03*
X118940109Y-57080980D03*
%TD*%
D41*
%TO.C,J5*%
X79252283Y-114734896D03*
D42*
X75696283Y-112829896D03*
D41*
X77220283Y-114734896D03*
D42*
X80776283Y-109654896D03*
D41*
X78236283Y-109654896D03*
D42*
X75696283Y-109654896D03*
X80776283Y-112829896D03*
D43*
X77601283Y-110924896D03*
X78871283Y-110924896D03*
X77601283Y-112194896D03*
X78871283Y-112194896D03*
X77601283Y-113464896D03*
X78871283Y-113464896D03*
%TD*%
D44*
%TO.C,C3*%
X115570000Y-104366000D03*
X115570000Y-103406000D03*
%TD*%
D45*
%TO.C,D33*%
X76920345Y-66534388D03*
X79604091Y-64791543D03*
X76935359Y-60682058D03*
X74251613Y-62424903D03*
%TD*%
D46*
%TO.C,D5*%
X134668865Y-74302882D03*
X136612468Y-76845009D03*
X140505099Y-73868868D03*
X138561496Y-71326741D03*
%TD*%
D47*
%TO.C,R4*%
X101574600Y-64289400D03*
X101574600Y-63269400D03*
%TD*%
D48*
%TO.C,D7*%
X141909631Y-86977549D03*
X142887856Y-90024364D03*
X147553291Y-88526457D03*
X146575066Y-85479642D03*
%TD*%
D49*
%TO.C,R1*%
X112518000Y-104394000D03*
X113538000Y-104394000D03*
%TD*%
D31*
%TO.C,C1*%
X112548000Y-103378000D03*
X113508000Y-103378000D03*
%TD*%
D50*
%TO.C,D8*%
X143810309Y-94052004D03*
X144255663Y-97220862D03*
X149107977Y-96538914D03*
X148662623Y-93370056D03*
%TD*%
D44*
%TO.C,C2*%
X114554000Y-104366000D03*
X114554000Y-103406000D03*
%TD*%
D51*
%TO.C,D6*%
X138832550Y-80329840D03*
X140315097Y-83165691D03*
X144657494Y-80895540D03*
X143174947Y-78059689D03*
%TD*%
D52*
%TO.C,D31*%
X66587532Y-76845009D03*
X68531135Y-74302882D03*
X64638504Y-71326741D03*
X62694901Y-73868868D03*
%TD*%
D53*
%TO.C,D17*%
X110470129Y-143552393D03*
X107316824Y-144097064D03*
X108150851Y-148925563D03*
X111304156Y-148380892D03*
%TD*%
D42*
%TO.C,J2*%
X76454000Y-100330000D03*
X81534000Y-100330000D03*
D41*
X80010000Y-102235000D03*
X77978000Y-102235000D03*
D42*
X81534000Y-94615000D03*
D41*
X78994000Y-94615000D03*
D42*
X76454000Y-94615000D03*
D43*
X78359000Y-95885000D03*
X78359000Y-97155000D03*
X78359000Y-98425000D03*
X78359000Y-99695000D03*
X78359000Y-100965000D03*
X79629000Y-100965000D03*
X79629000Y-99695000D03*
X79629000Y-98425000D03*
X79629000Y-97155000D03*
X79629000Y-95885000D03*
%TD*%
D54*
%TO.C,D26*%
X59946925Y-111783509D03*
X59303476Y-108648869D03*
X54503557Y-109634151D03*
X55147006Y-112768791D03*
%TD*%
D24*
%TO.C,R3*%
X107696000Y-58164000D03*
X107696000Y-59184000D03*
%TD*%
D55*
%TO.C,J3*%
X84582000Y-110744000D03*
D56*
X85852000Y-110744000D03*
X84582000Y-112014000D03*
X85852000Y-112014000D03*
X84582000Y-113284000D03*
X85852000Y-113284000D03*
%TD*%
D57*
%TO.C,D30*%
X62884903Y-83165691D03*
X64367450Y-80329840D03*
X60025053Y-78059689D03*
X58542506Y-80895540D03*
%TD*%
D58*
%TO.C,D20*%
X88733192Y-142503884D03*
X85718608Y-141430439D03*
X84074896Y-146046520D03*
X87089480Y-147119965D03*
%TD*%
D59*
%TO.C,D12*%
X139081202Y-122428874D03*
X137423515Y-125166040D03*
X141614800Y-127704372D03*
X143272487Y-124967206D03*
%TD*%
D60*
%TO.C,U1*%
X110411500Y-107046971D03*
X110411500Y-105776971D03*
X110411500Y-104506971D03*
X110411500Y-103236971D03*
X110411500Y-101966971D03*
X110411500Y-100696971D03*
X110411500Y-99426971D03*
X110411500Y-98156971D03*
X110411500Y-96886971D03*
X110411500Y-95616971D03*
X110411500Y-94346971D03*
X110411500Y-93076971D03*
X110411500Y-91806971D03*
X110411500Y-90536971D03*
D61*
X108646500Y-89286971D03*
X107376500Y-89286971D03*
X106106500Y-89286971D03*
X104836500Y-89286971D03*
X103566500Y-89286971D03*
X102296500Y-89286971D03*
X101026500Y-89286971D03*
X99756500Y-89286971D03*
X98486500Y-89286971D03*
X97216500Y-89286971D03*
X95946500Y-89286971D03*
X94676500Y-89286971D03*
D60*
X92911500Y-90536971D03*
X92911500Y-91806971D03*
X92911500Y-93076971D03*
X92911500Y-94346971D03*
X92911500Y-95616971D03*
X92911500Y-96886971D03*
X92911500Y-98156971D03*
X92911500Y-99426971D03*
X92911500Y-100696971D03*
X92911500Y-101966971D03*
X92911500Y-103236971D03*
X92911500Y-104506971D03*
X92911500Y-105776971D03*
X92911500Y-107046971D03*
D62*
X101761500Y-100726971D03*
X103161500Y-97926971D03*
X103161500Y-100726971D03*
X104561500Y-99326971D03*
X104561500Y-100726971D03*
X101761500Y-97926971D03*
X104561500Y-97926971D03*
X103161500Y-99326971D03*
X101761500Y-99326971D03*
%TD*%
D63*
%TO.C,J1*%
X104600000Y-59650000D03*
X104100000Y-59650000D03*
X103600000Y-59650000D03*
X103100000Y-59650000D03*
X102600000Y-59650000D03*
X102100000Y-59650000D03*
X101100000Y-59650000D03*
X100600000Y-59650000D03*
X100100000Y-59650000D03*
X99600000Y-59650000D03*
X99100000Y-59650000D03*
X98600000Y-59650000D03*
D64*
X98500000Y-58350000D03*
D63*
X99350000Y-58350000D03*
X99850000Y-58350000D03*
X100350000Y-58350000D03*
X100850000Y-58350000D03*
X101350000Y-58350000D03*
X101850000Y-58350000D03*
X102350000Y-58350000D03*
X102850000Y-58350000D03*
X103350000Y-58350000D03*
X103850000Y-58350000D03*
D64*
X104700000Y-58350000D03*
%TD*%
D65*
%TO.C,U2*%
X123326000Y-113786000D03*
D66*
X117026000Y-111506000D03*
D65*
X123326000Y-109226000D03*
%TD*%
D55*
%TO.C,J4*%
X86077435Y-95634251D03*
D56*
X87347435Y-95634251D03*
X86077435Y-96904251D03*
X87347435Y-96904251D03*
X86077435Y-98174251D03*
X87347435Y-98174251D03*
X86077435Y-99444251D03*
X87347435Y-99444251D03*
X86077435Y-100714251D03*
X87347435Y-100714251D03*
%TD*%
D20*
%TO.C,SW1*%
X116176800Y-96804000D03*
X122176800Y-96804000D03*
X116176800Y-100554000D03*
X122176800Y-100554000D03*
%TD*%
D67*
%TO.C,D13*%
X134989000Y-128504594D03*
X132889611Y-130919665D03*
X136587688Y-134134354D03*
X138687077Y-131719283D03*
%TD*%
D68*
%TO.C,D28*%
X58944337Y-97220862D03*
X59389691Y-94052004D03*
X54537377Y-93370056D03*
X54092023Y-96538914D03*
%TD*%
D69*
%TO.C,D34*%
X83248973Y-62845358D03*
X86190206Y-61584744D03*
X84259891Y-57080980D03*
X81318658Y-58341594D03*
%TD*%
D70*
%TO.C,D19*%
X95883176Y-144097064D03*
X92729871Y-143552393D03*
X91895844Y-148380892D03*
X95049149Y-148925563D03*
%TD*%
D71*
%TO.C,D25*%
X62288062Y-118724659D03*
X61120456Y-115745281D03*
X56558282Y-117533177D03*
X57725888Y-120512555D03*
%TD*%
D72*
%TO.C,D29*%
X60312144Y-90024364D03*
X61290369Y-86977549D03*
X56624934Y-85479642D03*
X55646709Y-88526457D03*
%TD*%
D73*
%TO.C,D22*%
X75757456Y-135817618D03*
X73277634Y-133795124D03*
X70180690Y-137592352D03*
X72660512Y-139614846D03*
%TD*%
D74*
%TO.C,D15*%
X124029168Y-138146065D03*
X121241284Y-139716957D03*
X123646712Y-143985905D03*
X126434596Y-142415013D03*
%TD*%
M02*
