%TF.GenerationSoftware,KiCad,Pcbnew,(6.0.7)*%
%TF.CreationDate,2022-10-20T10:19:37-04:00*%
%TF.ProjectId,SpiritBall,53706972-6974-4426-916c-6c2e6b696361,rev?*%
%TF.SameCoordinates,Original*%
%TF.FileFunction,Copper,L1,Top*%
%TF.FilePolarity,Positive*%
%FSLAX46Y46*%
G04 Gerber Fmt 4.6, Leading zero omitted, Abs format (unit mm)*
G04 Created by KiCad (PCBNEW (6.0.7)) date 2022-10-20 10:19:37*
%MOMM*%
%LPD*%
G01*
G04 APERTURE LIST*
G04 Aperture macros list*
%AMRoundRect*
0 Rectangle with rounded corners*
0 $1 Rounding radius*
0 $2 $3 $4 $5 $6 $7 $8 $9 X,Y pos of 4 corners*
0 Add a 4 corners polygon primitive as box body*
4,1,4,$2,$3,$4,$5,$6,$7,$8,$9,$2,$3,0*
0 Add four circle primitives for the rounded corners*
1,1,$1+$1,$2,$3*
1,1,$1+$1,$4,$5*
1,1,$1+$1,$6,$7*
1,1,$1+$1,$8,$9*
0 Add four rect primitives between the rounded corners*
20,1,$1+$1,$2,$3,$4,$5,0*
20,1,$1+$1,$4,$5,$6,$7,0*
20,1,$1+$1,$6,$7,$8,$9,0*
20,1,$1+$1,$8,$9,$2,$3,0*%
%AMRotRect*
0 Rectangle, with rotation*
0 The origin of the aperture is its center*
0 $1 length*
0 $2 width*
0 $3 Rotation angle, in degrees counterclockwise*
0 Add horizontal line*
21,1,$1,$2,0,0,$3*%
G04 Aperture macros list end*
%TA.AperFunction,SMDPad,CuDef*%
%ADD10R,0.900000X1.200000*%
%TD*%
%TA.AperFunction,SMDPad,CuDef*%
%ADD11R,1.200000X0.900000*%
%TD*%
%TA.AperFunction,SMDPad,CuDef*%
%ADD12R,0.600000X0.700000*%
%TD*%
%TA.AperFunction,SMDPad,CuDef*%
%ADD13R,0.700000X0.600000*%
%TD*%
%TA.AperFunction,SMDPad,CuDef*%
%ADD14RotRect,1.500000X1.000000X132.800000*%
%TD*%
%TA.AperFunction,SMDPad,CuDef*%
%ADD15R,1.000000X0.750000*%
%TD*%
%TA.AperFunction,SMDPad,CuDef*%
%ADD16RotRect,1.500000X1.000000X309.200000*%
%TD*%
%TA.AperFunction,SMDPad,CuDef*%
%ADD17RoundRect,0.250001X-1.999999X-0.799999X1.999999X-0.799999X1.999999X0.799999X-1.999999X0.799999X0*%
%TD*%
%TA.AperFunction,SMDPad,CuDef*%
%ADD18RotRect,1.500000X1.000000X211.200000*%
%TD*%
%TA.AperFunction,SMDPad,CuDef*%
%ADD19RoundRect,0.135000X-0.185000X0.135000X-0.185000X-0.135000X0.185000X-0.135000X0.185000X0.135000X0*%
%TD*%
%TA.AperFunction,SMDPad,CuDef*%
%ADD20RotRect,1.500000X1.000000X358.200000*%
%TD*%
%TA.AperFunction,SMDPad,CuDef*%
%ADD21RotRect,1.500000X1.000000X289.600000*%
%TD*%
%TA.AperFunction,SMDPad,CuDef*%
%ADD22RoundRect,0.140000X-0.170000X0.140000X-0.170000X-0.140000X0.170000X-0.140000X0.170000X0.140000X0*%
%TD*%
%TA.AperFunction,SMDPad,CuDef*%
%ADD23R,1.000000X1.500000*%
%TD*%
%TA.AperFunction,SMDPad,CuDef*%
%ADD24RotRect,1.500000X1.000000X76.600000*%
%TD*%
%TA.AperFunction,SMDPad,CuDef*%
%ADD25RotRect,1.500000X1.000000X181.800000*%
%TD*%
%TA.AperFunction,SMDPad,CuDef*%
%ADD26RoundRect,0.140000X-0.140000X-0.170000X0.140000X-0.170000X0.140000X0.170000X-0.140000X0.170000X0*%
%TD*%
%TA.AperFunction,SMDPad,CuDef*%
%ADD27RotRect,1.500000X1.000000X338.600000*%
%TD*%
%TA.AperFunction,SMDPad,CuDef*%
%ADD28RotRect,1.500000X1.000000X240.600000*%
%TD*%
%TA.AperFunction,SMDPad,CuDef*%
%ADD29RoundRect,0.135000X0.135000X0.185000X-0.135000X0.185000X-0.135000X-0.185000X0.135000X-0.185000X0*%
%TD*%
%TA.AperFunction,SMDPad,CuDef*%
%ADD30RotRect,1.500000X1.000000X57.000000*%
%TD*%
%TA.AperFunction,SMDPad,CuDef*%
%ADD31RotRect,1.500000X1.000000X221.000000*%
%TD*%
%TA.AperFunction,SMDPad,CuDef*%
%ADD32RotRect,1.500000X1.000000X47.200000*%
%TD*%
%TA.AperFunction,SMDPad,CuDef*%
%ADD33RotRect,1.500000X1.000000X103.400000*%
%TD*%
%TA.AperFunction,SMDPad,CuDef*%
%ADD34RotRect,1.500000X1.000000X348.400000*%
%TD*%
%TA.AperFunction,SMDPad,CuDef*%
%ADD35RotRect,1.500000X1.000000X66.800000*%
%TD*%
%TA.AperFunction,ConnectorPad*%
%ADD36C,0.787400*%
%TD*%
%TA.AperFunction,SMDPad,CuDef*%
%ADD37RoundRect,0.140000X0.170000X-0.140000X0.170000X0.140000X-0.170000X0.140000X-0.170000X-0.140000X0*%
%TD*%
%TA.AperFunction,SMDPad,CuDef*%
%ADD38RotRect,1.500000X1.000000X123.000000*%
%TD*%
%TA.AperFunction,SMDPad,CuDef*%
%ADD39RotRect,1.500000X1.000000X37.400000*%
%TD*%
%TA.AperFunction,SMDPad,CuDef*%
%ADD40RoundRect,0.135000X0.185000X-0.135000X0.185000X0.135000X-0.185000X0.135000X-0.185000X-0.135000X0*%
%TD*%
%TA.AperFunction,SMDPad,CuDef*%
%ADD41RotRect,1.500000X1.000000X17.800000*%
%TD*%
%TA.AperFunction,SMDPad,CuDef*%
%ADD42RoundRect,0.135000X-0.135000X-0.185000X0.135000X-0.185000X0.135000X0.185000X-0.135000X0.185000X0*%
%TD*%
%TA.AperFunction,SMDPad,CuDef*%
%ADD43RotRect,1.500000X1.000000X8.000000*%
%TD*%
%TA.AperFunction,SMDPad,CuDef*%
%ADD44RotRect,1.500000X1.000000X27.600000*%
%TD*%
%TA.AperFunction,SMDPad,CuDef*%
%ADD45RotRect,1.500000X1.000000X142.600000*%
%TD*%
%TA.AperFunction,SMDPad,CuDef*%
%ADD46RotRect,1.500000X1.000000X279.800000*%
%TD*%
%TA.AperFunction,SMDPad,CuDef*%
%ADD47RotRect,1.500000X1.000000X191.600000*%
%TD*%
%TA.AperFunction,ComponentPad*%
%ADD48R,1.000000X1.000000*%
%TD*%
%TA.AperFunction,ComponentPad*%
%ADD49O,1.000000X1.000000*%
%TD*%
%TA.AperFunction,SMDPad,CuDef*%
%ADD50RotRect,1.500000X1.000000X152.400000*%
%TD*%
%TA.AperFunction,SMDPad,CuDef*%
%ADD51RotRect,1.500000X1.000000X250.400000*%
%TD*%
%TA.AperFunction,SMDPad,CuDef*%
%ADD52RotRect,1.500000X1.000000X328.800000*%
%TD*%
%TA.AperFunction,SMDPad,CuDef*%
%ADD53R,1.500000X0.900000*%
%TD*%
%TA.AperFunction,SMDPad,CuDef*%
%ADD54R,0.900000X1.500000*%
%TD*%
%TA.AperFunction,SMDPad,CuDef*%
%ADD55R,0.900000X0.900000*%
%TD*%
%TA.AperFunction,SMDPad,CuDef*%
%ADD56R,0.300000X0.700000*%
%TD*%
%TA.AperFunction,SMDPad,CuDef*%
%ADD57R,1.000000X0.700000*%
%TD*%
%TA.AperFunction,ComponentPad*%
%ADD58O,1.100000X2.100000*%
%TD*%
%TA.AperFunction,ComponentPad*%
%ADD59O,1.100000X2.600000*%
%TD*%
%TA.AperFunction,SMDPad,CuDef*%
%ADD60R,2.200000X1.200000*%
%TD*%
%TA.AperFunction,SMDPad,CuDef*%
%ADD61R,6.400000X5.800000*%
%TD*%
%TA.AperFunction,SMDPad,CuDef*%
%ADD62RotRect,1.500000X1.000000X319.000000*%
%TD*%
%TA.AperFunction,SMDPad,CuDef*%
%ADD63RotRect,1.500000X1.000000X172.000000*%
%TD*%
%TA.AperFunction,SMDPad,CuDef*%
%ADD64RotRect,1.500000X1.000000X113.200000*%
%TD*%
%TA.AperFunction,SMDPad,CuDef*%
%ADD65RotRect,1.500000X1.000000X260.200000*%
%TD*%
%TA.AperFunction,SMDPad,CuDef*%
%ADD66RotRect,1.500000X1.000000X201.400000*%
%TD*%
%TA.AperFunction,SMDPad,CuDef*%
%ADD67RotRect,1.500000X1.000000X162.200000*%
%TD*%
%TA.AperFunction,SMDPad,CuDef*%
%ADD68RotRect,1.500000X1.000000X230.800000*%
%TD*%
%TA.AperFunction,SMDPad,CuDef*%
%ADD69RotRect,1.500000X1.000000X299.400000*%
%TD*%
%TA.AperFunction,ViaPad*%
%ADD70C,0.800000*%
%TD*%
%TA.AperFunction,Conductor*%
%ADD71C,0.250000*%
%TD*%
%TA.AperFunction,Conductor*%
%ADD72C,0.500000*%
%TD*%
%TA.AperFunction,Conductor*%
%ADD73C,1.000000*%
%TD*%
%TA.AperFunction,Conductor*%
%ADD74C,0.100000*%
%TD*%
%TA.AperFunction,Conductor*%
%ADD75C,0.730000*%
%TD*%
%TA.AperFunction,Conductor*%
%ADD76C,0.200000*%
%TD*%
G04 APERTURE END LIST*
D10*
%TO.P,D38,1*%
%TO.N,+5V*%
X78360000Y-106426000D03*
%TO.P,D38,2*%
%TO.N,Net-(D38-Pad2)*%
X81660000Y-106426000D03*
%TD*%
%TO.P,D37,1*%
%TO.N,+5V*%
X80646000Y-91440000D03*
%TO.P,D37,2*%
%TO.N,Net-(D37-Pad2)*%
X83946000Y-91440000D03*
%TD*%
D11*
%TO.P,D36,1*%
%TO.N,+5V*%
X99314000Y-65404000D03*
%TO.P,D36,2*%
%TO.N,Net-(D36-Pad2)*%
X99314000Y-62104000D03*
%TD*%
D12*
%TO.P,D41,1*%
%TO.N,GND*%
X103440000Y-65557400D03*
%TO.P,D41,2*%
%TO.N,USB_D-*%
X104840000Y-65557400D03*
%TD*%
%TO.P,D40,1*%
%TO.N,GND*%
X103440400Y-67157600D03*
%TO.P,D40,2*%
%TO.N,USB_D+*%
X104840400Y-67157600D03*
%TD*%
D13*
%TO.P,D39,1*%
%TO.N,GND*%
X97155000Y-61657000D03*
%TO.P,D39,2*%
%TO.N,Net-(D36-Pad2)*%
X97155000Y-63057000D03*
%TD*%
D14*
%TO.P,D32,1,VDD*%
%TO.N,+5V*%
X71311972Y-71246781D03*
%TO.P,D32,2,DOUT*%
%TO.N,Net-(D32-Pad2)*%
X73659908Y-69072569D03*
%TO.P,D32,3,VSS*%
%TO.N,GND*%
X70330646Y-65477293D03*
%TO.P,D32,4,DIN*%
%TO.N,Net-(D31-Pad2)*%
X67982710Y-67651505D03*
%TD*%
D15*
%TO.P,SW2,A,A*%
%TO.N,Net-(R5-Pad1)*%
X116176800Y-89158600D03*
%TO.P,SW2,B,B*%
X122176800Y-89158600D03*
%TO.P,SW2,C,C*%
%TO.N,GND*%
X116176800Y-92908600D03*
%TO.P,SW2,D,D*%
X122176800Y-92908600D03*
%TD*%
D16*
%TO.P,D14,1,VDD*%
%TO.N,+5V*%
X129922366Y-133795124D03*
%TO.P,D14,2,DOUT*%
%TO.N,Net-(D14-Pad2)*%
X127442544Y-135817618D03*
%TO.P,D14,3,VSS*%
%TO.N,GND*%
X130539488Y-139614846D03*
%TO.P,D14,4,DIN*%
%TO.N,Net-(D13-Pad2)*%
X133019310Y-137592352D03*
%TD*%
D17*
%TO.P,C6,1*%
%TO.N,+5V*%
X72041200Y-84505800D03*
%TO.P,C6,2*%
%TO.N,GND*%
X79241200Y-84505800D03*
%TD*%
D18*
%TO.P,D24,1,VDD*%
%TO.N,+5V*%
X65776485Y-125166040D03*
%TO.P,D24,2,DOUT*%
%TO.N,Net-(D24-Pad2)*%
X64118798Y-122428874D03*
%TO.P,D24,3,VSS*%
%TO.N,GND*%
X59927513Y-124967206D03*
%TO.P,D24,4,DIN*%
%TO.N,Net-(D23-Pad2)*%
X61585200Y-127704372D03*
%TD*%
D19*
%TO.P,R5,1*%
%TO.N,Net-(R5-Pad1)*%
X112547400Y-95603600D03*
%TO.P,R5,2*%
%TO.N,+3.3V*%
X112547400Y-96623600D03*
%TD*%
D20*
%TO.P,D9,1,VDD*%
%TO.N,+5V*%
X144479113Y-101346740D03*
%TO.P,D9,2,DOUT*%
%TO.N,Net-(D10-Pad4)*%
X144378599Y-104545161D03*
%TO.P,D9,3,VSS*%
%TO.N,GND*%
X149276181Y-104699074D03*
%TO.P,D9,4,DIN*%
%TO.N,Net-(D8-Pad2)*%
X149376695Y-101500653D03*
%TD*%
D21*
%TO.P,D16,1,VDD*%
%TO.N,+5V*%
X117481392Y-141430439D03*
%TO.P,D16,2,DOUT*%
%TO.N,Net-(D16-Pad2)*%
X114466808Y-142503884D03*
%TO.P,D16,3,VSS*%
%TO.N,GND*%
X116110520Y-147119965D03*
%TO.P,D16,4,DIN*%
%TO.N,Net-(D15-Pad2)*%
X119125104Y-146046520D03*
%TD*%
D22*
%TO.P,C4,1*%
%TO.N,+5V*%
X125476000Y-111026000D03*
%TO.P,C4,2*%
%TO.N,GND*%
X125476000Y-111986000D03*
%TD*%
D23*
%TO.P,D18,1,VDD*%
%TO.N,+5V*%
X103200000Y-144450000D03*
%TO.P,D18,2,DOUT*%
%TO.N,Net-(D18-Pad2)*%
X100000000Y-144450000D03*
%TO.P,D18,3,VSS*%
%TO.N,GND*%
X100000000Y-149350000D03*
%TO.P,D18,4,DIN*%
%TO.N,Net-(D17-Pad2)*%
X103200000Y-149350000D03*
%TD*%
D24*
%TO.P,D1,1,VDD*%
%TO.N,+5V*%
X109973956Y-59545757D03*
%TO.P,D1,2,DOUT*%
%TO.N,Net-(D1-Pad2)*%
X113086839Y-60287351D03*
%TO.P,D1,3,VSS*%
%TO.N,GND*%
X114222404Y-55520749D03*
%TO.P,D1,4,DIN*%
%TO.N,/ESP32-S3/LED Data*%
X111109521Y-54779155D03*
%TD*%
D25*
%TO.P,D27,1,VDD*%
%TO.N,+5V*%
X58821401Y-104545161D03*
%TO.P,D27,2,DOUT*%
%TO.N,Net-(D27-Pad2)*%
X58720887Y-101346740D03*
%TO.P,D27,3,VSS*%
%TO.N,GND*%
X53823305Y-101500653D03*
%TO.P,D27,4,DIN*%
%TO.N,Net-(D26-Pad2)*%
X53923819Y-104699074D03*
%TD*%
D26*
%TO.P,C5,1*%
%TO.N,+3.3V*%
X114582000Y-105410000D03*
%TO.P,C5,2*%
%TO.N,GND*%
X115542000Y-105410000D03*
%TD*%
D27*
%TO.P,D11,1,VDD*%
%TO.N,+5V*%
X142079544Y-115745281D03*
%TO.P,D11,2,DOUT*%
%TO.N,Net-(D11-Pad2)*%
X140911938Y-118724659D03*
%TO.P,D11,3,VSS*%
%TO.N,GND*%
X145474112Y-120512555D03*
%TO.P,D11,4,DIN*%
%TO.N,Net-(D10-Pad2)*%
X146641718Y-117533177D03*
%TD*%
D28*
%TO.P,D21,1,VDD*%
%TO.N,+5V*%
X81958716Y-139716957D03*
%TO.P,D21,2,DOUT*%
%TO.N,Net-(D21-Pad2)*%
X79170832Y-138146065D03*
%TO.P,D21,3,VSS*%
%TO.N,GND*%
X76765404Y-142415013D03*
%TO.P,D21,4,DIN*%
%TO.N,Net-(D20-Pad2)*%
X79553288Y-143985905D03*
%TD*%
D29*
%TO.P,R2,1*%
%TO.N,+3.3V*%
X113540000Y-105410000D03*
%TO.P,R2,2*%
%TO.N,Net-(R2-Pad2)*%
X112520000Y-105410000D03*
%TD*%
D30*
%TO.P,D3,1,VDD*%
%TO.N,+5V*%
X123595909Y-64791544D03*
%TO.P,D3,2,DOUT*%
%TO.N,Net-(D3-Pad2)*%
X126279655Y-66534389D03*
%TO.P,D3,3,VSS*%
%TO.N,GND*%
X128948387Y-62424904D03*
%TO.P,D3,4,DIN*%
%TO.N,Net-(D2-Pad2)*%
X126264641Y-60682059D03*
%TD*%
D31*
%TO.P,D23,1,VDD*%
%TO.N,+5V*%
X70310389Y-130919665D03*
%TO.P,D23,2,DOUT*%
%TO.N,Net-(D23-Pad2)*%
X68211000Y-128504594D03*
%TO.P,D23,3,VSS*%
%TO.N,GND*%
X64512923Y-131719283D03*
%TO.P,D23,4,DIN*%
%TO.N,Net-(D22-Pad2)*%
X66612312Y-134134354D03*
%TD*%
D32*
%TO.P,D4,1,VDD*%
%TO.N,+5V*%
X129540092Y-69072569D03*
%TO.P,D4,2,DOUT*%
%TO.N,Net-(D4-Pad2)*%
X131888028Y-71246781D03*
%TO.P,D4,3,VSS*%
%TO.N,GND*%
X135217290Y-67651505D03*
%TO.P,D4,4,DIN*%
%TO.N,Net-(D3-Pad2)*%
X132869354Y-65477293D03*
%TD*%
D33*
%TO.P,D35,1,VDD*%
%TO.N,+5V*%
X90113161Y-60287351D03*
%TO.P,D35,2,DOUT*%
%TO.N,/LEDs/LED Data Out*%
X93226044Y-59545757D03*
%TO.P,D35,3,VSS*%
%TO.N,GND*%
X92090479Y-54779155D03*
%TO.P,D35,4,DIN*%
%TO.N,Net-(D34-Pad2)*%
X88977596Y-55520749D03*
%TD*%
D34*
%TO.P,D10,1,VDD*%
%TO.N,+5V*%
X143896524Y-108648869D03*
%TO.P,D10,2,DOUT*%
%TO.N,Net-(D10-Pad2)*%
X143253075Y-111783509D03*
%TO.P,D10,3,VSS*%
%TO.N,GND*%
X148052994Y-112768791D03*
%TO.P,D10,4,DIN*%
%TO.N,Net-(D10-Pad4)*%
X148696443Y-109634151D03*
%TD*%
D35*
%TO.P,D2,1,VDD*%
%TO.N,+5V*%
X117009794Y-61584744D03*
%TO.P,D2,2,DOUT*%
%TO.N,Net-(D2-Pad2)*%
X119951027Y-62845358D03*
%TO.P,D2,3,VSS*%
%TO.N,GND*%
X121881342Y-58341594D03*
%TO.P,D2,4,DIN*%
%TO.N,Net-(D1-Pad2)*%
X118940109Y-57080980D03*
%TD*%
D36*
%TO.P,J5,1,ESP_EN*%
%TO.N,EN{slash}CHIP_PU*%
X77601283Y-110924896D03*
%TO.P,J5,2,VCC*%
%TO.N,Net-(D38-Pad2)*%
X78871283Y-110924896D03*
%TO.P,J5,3,ESP_TXD*%
%TO.N,UART_0_TXD*%
X77601283Y-112194896D03*
%TO.P,J5,4,GND*%
%TO.N,GND*%
X78871283Y-112194896D03*
%TO.P,J5,5,ESP_RXD*%
%TO.N,UART_0_RXD*%
X77601283Y-113464896D03*
%TO.P,J5,6,ESP_IO0*%
%TO.N,GPIO0{slash}BOOT*%
X78871283Y-113464896D03*
%TD*%
D37*
%TO.P,C3,1*%
%TO.N,+3.3V*%
X115570000Y-104366000D03*
%TO.P,C3,2*%
%TO.N,GND*%
X115570000Y-103406000D03*
%TD*%
D38*
%TO.P,D33,1,VDD*%
%TO.N,+5V*%
X76920345Y-66534388D03*
%TO.P,D33,2,DOUT*%
%TO.N,Net-(D33-Pad2)*%
X79604091Y-64791543D03*
%TO.P,D33,3,VSS*%
%TO.N,GND*%
X76935359Y-60682058D03*
%TO.P,D33,4,DIN*%
%TO.N,Net-(D32-Pad2)*%
X74251613Y-62424903D03*
%TD*%
D39*
%TO.P,D5,1,VDD*%
%TO.N,+5V*%
X134668865Y-74302882D03*
%TO.P,D5,2,DOUT*%
%TO.N,Net-(D5-Pad2)*%
X136612468Y-76845009D03*
%TO.P,D5,3,VSS*%
%TO.N,GND*%
X140505099Y-73868868D03*
%TO.P,D5,4,DIN*%
%TO.N,Net-(D4-Pad2)*%
X138561496Y-71326741D03*
%TD*%
D40*
%TO.P,R4,1*%
%TO.N,GND*%
X101574600Y-64289400D03*
%TO.P,R4,2*%
%TO.N,Net-(J1-PadB5)*%
X101574600Y-63269400D03*
%TD*%
D41*
%TO.P,D7,1,VDD*%
%TO.N,+5V*%
X141909631Y-86977549D03*
%TO.P,D7,2,DOUT*%
%TO.N,Net-(D7-Pad2)*%
X142887856Y-90024364D03*
%TO.P,D7,3,VSS*%
%TO.N,GND*%
X147553291Y-88526457D03*
%TO.P,D7,4,DIN*%
%TO.N,Net-(D6-Pad2)*%
X146575066Y-85479642D03*
%TD*%
D42*
%TO.P,R1,1*%
%TO.N,EN{slash}CHIP_PU*%
X112518000Y-104394000D03*
%TO.P,R1,2*%
%TO.N,+3.3V*%
X113538000Y-104394000D03*
%TD*%
D26*
%TO.P,C1,1*%
%TO.N,EN{slash}CHIP_PU*%
X112548000Y-103378000D03*
%TO.P,C1,2*%
%TO.N,GND*%
X113508000Y-103378000D03*
%TD*%
D43*
%TO.P,D8,1,VDD*%
%TO.N,+5V*%
X143810309Y-94052004D03*
%TO.P,D8,2,DOUT*%
%TO.N,Net-(D8-Pad2)*%
X144255663Y-97220862D03*
%TO.P,D8,3,VSS*%
%TO.N,GND*%
X149107977Y-96538914D03*
%TO.P,D8,4,DIN*%
%TO.N,Net-(D7-Pad2)*%
X148662623Y-93370056D03*
%TD*%
D37*
%TO.P,C2,1*%
%TO.N,+3.3V*%
X114554000Y-104366000D03*
%TO.P,C2,2*%
%TO.N,GND*%
X114554000Y-103406000D03*
%TD*%
D44*
%TO.P,D6,1,VDD*%
%TO.N,+5V*%
X138832550Y-80329840D03*
%TO.P,D6,2,DOUT*%
%TO.N,Net-(D6-Pad2)*%
X140315097Y-83165691D03*
%TO.P,D6,3,VSS*%
%TO.N,GND*%
X144657494Y-80895540D03*
%TO.P,D6,4,DIN*%
%TO.N,Net-(D5-Pad2)*%
X143174947Y-78059689D03*
%TD*%
D45*
%TO.P,D31,1,VDD*%
%TO.N,+5V*%
X66587532Y-76845009D03*
%TO.P,D31,2,DOUT*%
%TO.N,Net-(D31-Pad2)*%
X68531135Y-74302882D03*
%TO.P,D31,3,VSS*%
%TO.N,GND*%
X64638504Y-71326741D03*
%TO.P,D31,4,DIN*%
%TO.N,Net-(D30-Pad2)*%
X62694901Y-73868868D03*
%TD*%
D46*
%TO.P,D17,1,VDD*%
%TO.N,+5V*%
X110470129Y-143552393D03*
%TO.P,D17,2,DOUT*%
%TO.N,Net-(D17-Pad2)*%
X107316824Y-144097064D03*
%TO.P,D17,3,VSS*%
%TO.N,GND*%
X108150851Y-148925563D03*
%TO.P,D17,4,DIN*%
%TO.N,Net-(D16-Pad2)*%
X111304156Y-148380892D03*
%TD*%
D36*
%TO.P,J2,1,VCC*%
%TO.N,Net-(D37-Pad2)*%
X78359000Y-95885000D03*
%TO.P,J2,2,ESP_TMS*%
%TO.N,/ESP32-S3/Debug/ESP_TMS*%
X78359000Y-97155000D03*
%TO.P,J2,3,GND*%
%TO.N,GND*%
X78359000Y-98425000D03*
%TO.P,J2,4,ESP_TCK*%
%TO.N,/ESP32-S3/Debug/ESP_TCK*%
X78359000Y-99695000D03*
%TO.P,J2,5,GND*%
%TO.N,GND*%
X78359000Y-100965000D03*
%TO.P,J2,6,ESP_TDO*%
%TO.N,/ESP32-S3/Debug/ESP_TDO*%
X79629000Y-100965000D03*
%TO.P,J2,7,GND*%
%TO.N,GND*%
X79629000Y-99695000D03*
%TO.P,J2,8,ESP_TDI*%
%TO.N,/ESP32-S3/Debug/ESP_TDI*%
X79629000Y-98425000D03*
%TO.P,J2,9,GND*%
%TO.N,GND*%
X79629000Y-97155000D03*
%TO.P,J2,10,NC*%
%TO.N,unconnected-(J2-Pad10)*%
X79629000Y-95885000D03*
%TD*%
D47*
%TO.P,D26,1,VDD*%
%TO.N,+5V*%
X59946925Y-111783509D03*
%TO.P,D26,2,DOUT*%
%TO.N,Net-(D26-Pad2)*%
X59303476Y-108648869D03*
%TO.P,D26,3,VSS*%
%TO.N,GND*%
X54503557Y-109634151D03*
%TO.P,D26,4,DIN*%
%TO.N,Net-(D25-Pad2)*%
X55147006Y-112768791D03*
%TD*%
D19*
%TO.P,R3,1*%
%TO.N,GND*%
X107696000Y-58164000D03*
%TO.P,R3,2*%
%TO.N,Net-(J1-PadA5)*%
X107696000Y-59184000D03*
%TD*%
D48*
%TO.P,J3,1,ESP_EN*%
%TO.N,EN{slash}CHIP_PU*%
X84582000Y-110744000D03*
D49*
%TO.P,J3,2,VCC*%
%TO.N,Net-(D38-Pad2)*%
X85852000Y-110744000D03*
%TO.P,J3,3,ESP_TXD*%
%TO.N,UART_0_TXD*%
X84582000Y-112014000D03*
%TO.P,J3,4,GND*%
%TO.N,GND*%
X85852000Y-112014000D03*
%TO.P,J3,5,ESP_RXD*%
%TO.N,UART_0_RXD*%
X84582000Y-113284000D03*
%TO.P,J3,6,ESP_IO0*%
%TO.N,GPIO0{slash}BOOT*%
X85852000Y-113284000D03*
%TD*%
D50*
%TO.P,D30,1,VDD*%
%TO.N,+5V*%
X62884903Y-83165691D03*
%TO.P,D30,2,DOUT*%
%TO.N,Net-(D30-Pad2)*%
X64367450Y-80329840D03*
%TO.P,D30,3,VSS*%
%TO.N,GND*%
X60025053Y-78059689D03*
%TO.P,D30,4,DIN*%
%TO.N,Net-(D29-Pad2)*%
X58542506Y-80895540D03*
%TD*%
D51*
%TO.P,D20,1,VDD*%
%TO.N,+5V*%
X88733192Y-142503884D03*
%TO.P,D20,2,DOUT*%
%TO.N,Net-(D20-Pad2)*%
X85718608Y-141430439D03*
%TO.P,D20,3,VSS*%
%TO.N,GND*%
X84074896Y-146046520D03*
%TO.P,D20,4,DIN*%
%TO.N,Net-(D19-Pad2)*%
X87089480Y-147119965D03*
%TD*%
D52*
%TO.P,D12,1,VDD*%
%TO.N,+5V*%
X139081202Y-122428874D03*
%TO.P,D12,2,DOUT*%
%TO.N,Net-(D12-Pad2)*%
X137423515Y-125166040D03*
%TO.P,D12,3,VSS*%
%TO.N,GND*%
X141614800Y-127704372D03*
%TO.P,D12,4,DIN*%
%TO.N,Net-(D11-Pad2)*%
X143272487Y-124967206D03*
%TD*%
D53*
%TO.P,U1,1,GND*%
%TO.N,GND*%
X110411500Y-107046971D03*
%TO.P,U1,2,3V3*%
%TO.N,Net-(R2-Pad2)*%
X110411500Y-105776971D03*
%TO.P,U1,3,EN*%
%TO.N,EN{slash}CHIP_PU*%
X110411500Y-104506971D03*
%TO.P,U1,4,GPIO4/TOUCH4/ADC1_CH3*%
%TO.N,unconnected-(U1-Pad4)*%
X110411500Y-103236971D03*
%TO.P,U1,5,GPIO5/TOUCH5/ADC1_CH4*%
%TO.N,unconnected-(U1-Pad5)*%
X110411500Y-101966971D03*
%TO.P,U1,6,GPIO6/TOUCH6/ADC1_CH5*%
%TO.N,unconnected-(U1-Pad6)*%
X110411500Y-100696971D03*
%TO.P,U1,7,GPIO7/TOUCH7/ADC1_CH6*%
%TO.N,unconnected-(U1-Pad7)*%
X110411500Y-99426971D03*
%TO.P,U1,8,GPIO15/U0RTS/ADC2_CH4/XTAL_32K_P*%
%TO.N,unconnected-(U1-Pad8)*%
X110411500Y-98156971D03*
%TO.P,U1,9,GPIO16/U0CTS/ADC2_CH5/XTAL_32K_NH5*%
%TO.N,unconnected-(U1-Pad9)*%
X110411500Y-96886971D03*
%TO.P,U1,10,GPIO17/U1TXD/ADC2_CH6*%
%TO.N,Net-(R5-Pad1)*%
X110411500Y-95616971D03*
%TO.P,U1,11,GPIO18/U1RXD/ADC2_CH7/CLK_OUT3*%
%TO.N,unconnected-(U1-Pad11)*%
X110411500Y-94346971D03*
%TO.P,U1,12,GPIO8/TOUCH8/ADC1_CH7/SUBSPICS1*%
%TO.N,unconnected-(U1-Pad12)*%
X110411500Y-93076971D03*
%TO.P,U1,13,GPIO19/U1RTS/ADC2_CH8/CLK_OUT2/USB_D-*%
%TO.N,USB_D-*%
X110411500Y-91806971D03*
%TO.P,U1,14,GPIO20/U1CTS/ADC2_CH9/CLK_OUT1/USB_D+*%
%TO.N,USB_D+*%
X110411500Y-90536971D03*
D54*
%TO.P,U1,15,GPIO3/TOUCH3/ADC1_CH2*%
%TO.N,unconnected-(U1-Pad15)*%
X108646500Y-89286971D03*
%TO.P,U1,16,GPIO46*%
%TO.N,unconnected-(U1-Pad16)*%
X107376500Y-89286971D03*
%TO.P,U1,17,GPIO9/TOUCH9/ADC1_CH8/FSPIHD/SUBSPIHD*%
%TO.N,unconnected-(U1-Pad17)*%
X106106500Y-89286971D03*
%TO.P,U1,18,GPIO10/TOUCH10/ADC1_CH9/FSPICS0/FSPIIO4/SUBSPICS0*%
%TO.N,unconnected-(U1-Pad18)*%
X104836500Y-89286971D03*
%TO.P,U1,19,GPIO11/TOUCH11/ADC2_CH0/FSPID/FSPIIO5/SUBSPID*%
%TO.N,unconnected-(U1-Pad19)*%
X103566500Y-89286971D03*
%TO.P,U1,20,GPIO12/TOUCH12/ADC2_CH1/FSPICLK/FSPIIO6/SUBSPICLK*%
%TO.N,unconnected-(U1-Pad20)*%
X102296500Y-89286971D03*
%TO.P,U1,21,GPIO13/TOUCH13/ADC2_CH2/FSPIQ/FSPIIO7/SUBSPIQ*%
%TO.N,unconnected-(U1-Pad21)*%
X101026500Y-89286971D03*
%TO.P,U1,22,GPIO14/TOUCH14/ADC2_CH3/FSPIWP/FSPIDQS/SUBSPIWP*%
%TO.N,unconnected-(U1-Pad22)*%
X99756500Y-89286971D03*
%TO.P,U1,23,GPIO21*%
%TO.N,/ESP32-S3/LED Data*%
X98486500Y-89286971D03*
%TO.P,U1,24,GPIO47/SPICLK_P/SUBSPICLK_P_DIFF*%
%TO.N,unconnected-(U1-Pad24)*%
X97216500Y-89286971D03*
%TO.P,U1,25,GPIO48/SPICLK_N/SUBSPICLK_N_DIFF*%
%TO.N,unconnected-(U1-Pad25)*%
X95946500Y-89286971D03*
%TO.P,U1,26,GPIO45*%
%TO.N,unconnected-(U1-Pad26)*%
X94676500Y-89286971D03*
D53*
%TO.P,U1,27,GPIO0/BOOT*%
%TO.N,GPIO0{slash}BOOT*%
X92911500Y-90536971D03*
%TO.P,U1,28,SPIIO6/GPIO35/FSPID/SUBSPID*%
%TO.N,unconnected-(U1-Pad28)*%
X92911500Y-91806971D03*
%TO.P,U1,29,SPIIO7/GPIO36/FSPICLK/SUBSPICLK*%
%TO.N,unconnected-(U1-Pad29)*%
X92911500Y-93076971D03*
%TO.P,U1,30,SPIDQS/GPIO37/FSPIQ/SUBSPIQ*%
%TO.N,unconnected-(U1-Pad30)*%
X92911500Y-94346971D03*
%TO.P,U1,31,GPIO38/FSPIWP/SUBSPIWP*%
%TO.N,unconnected-(U1-Pad31)*%
X92911500Y-95616971D03*
%TO.P,U1,32,MTCK/GPIO39/CLK_OUT3/SUBSPICS1*%
%TO.N,/ESP32-S3/Debug/ESP_TCK*%
X92911500Y-96886971D03*
%TO.P,U1,33,MTDO/GPIO40/CLK_OUT2*%
%TO.N,/ESP32-S3/Debug/ESP_TDO*%
X92911500Y-98156971D03*
%TO.P,U1,34,MTDI/GPIO41/CLK_OUT1*%
%TO.N,/ESP32-S3/Debug/ESP_TDI*%
X92911500Y-99426971D03*
%TO.P,U1,35,MTMS/GPIO42*%
%TO.N,/ESP32-S3/Debug/ESP_TMS*%
X92911500Y-100696971D03*
%TO.P,U1,36,U0RXD/GPIO44/CLK_OUT2*%
%TO.N,UART_0_RXD*%
X92911500Y-101966971D03*
%TO.P,U1,37,U0TXD/GPIO43/CLK_OUT1*%
%TO.N,UART_0_TXD*%
X92911500Y-103236971D03*
%TO.P,U1,38,GPIO2/TOUCH2/ADC1_CH1*%
%TO.N,unconnected-(U1-Pad38)*%
X92911500Y-104506971D03*
%TO.P,U1,39,GPIO1/TOUCH1/ADC1_CH0*%
%TO.N,unconnected-(U1-Pad39)*%
X92911500Y-105776971D03*
%TO.P,U1,40,GND*%
%TO.N,GND*%
X92911500Y-107046971D03*
D55*
%TO.P,U1,41,GND*%
X101761500Y-100726971D03*
X103161500Y-97926971D03*
X103161500Y-100726971D03*
X104561500Y-99326971D03*
X104561500Y-100726971D03*
X101761500Y-97926971D03*
X104561500Y-97926971D03*
X103161500Y-99326971D03*
X101761500Y-99326971D03*
%TD*%
D56*
%TO.P,J1,A1,GND_A*%
%TO.N,GND*%
X104600000Y-59650000D03*
%TO.P,J1,A2,TX1+*%
%TO.N,unconnected-(J1-PadA2)*%
X104100000Y-59650000D03*
%TO.P,J1,A3,TX1-*%
%TO.N,unconnected-(J1-PadA3)*%
X103600000Y-59650000D03*
%TO.P,J1,A4,VBUS_A*%
%TO.N,Net-(D36-Pad2)*%
X103100000Y-59650000D03*
%TO.P,J1,A5,CC1*%
%TO.N,Net-(J1-PadA5)*%
X102600000Y-59650000D03*
%TO.P,J1,A6,D1+*%
%TO.N,USB_D+*%
X102100000Y-59650000D03*
%TO.P,J1,A7,D1-*%
%TO.N,USB_D-*%
X101100000Y-59650000D03*
%TO.P,J1,A8,SBU1*%
%TO.N,unconnected-(J1-PadA8)*%
X100600000Y-59650000D03*
%TO.P,J1,A9,VBUS_A*%
%TO.N,Net-(D36-Pad2)*%
X100100000Y-59650000D03*
%TO.P,J1,A10,RX2-*%
%TO.N,unconnected-(J1-PadA10)*%
X99600000Y-59650000D03*
%TO.P,J1,A11,RX2+*%
%TO.N,unconnected-(J1-PadA11)*%
X99100000Y-59650000D03*
%TO.P,J1,A12,GND_A*%
%TO.N,GND*%
X98600000Y-59650000D03*
D57*
%TO.P,J1,B1,GND_B*%
X98500000Y-58350000D03*
D56*
%TO.P,J1,B2,TX2+*%
%TO.N,unconnected-(J1-PadB2)*%
X99350000Y-58350000D03*
%TO.P,J1,B3,TX2-*%
%TO.N,unconnected-(J1-PadB3)*%
X99850000Y-58350000D03*
%TO.P,J1,B4,VBUS_B*%
%TO.N,Net-(D36-Pad2)*%
X100350000Y-58350000D03*
%TO.P,J1,B5,CC2*%
%TO.N,Net-(J1-PadB5)*%
X100850000Y-58350000D03*
%TO.P,J1,B6,D2+*%
%TO.N,USB_D+*%
X101350000Y-58350000D03*
%TO.P,J1,B7,D2-*%
%TO.N,USB_D-*%
X101850000Y-58350000D03*
%TO.P,J1,B8,SBU2*%
%TO.N,unconnected-(J1-PadB8)*%
X102350000Y-58350000D03*
%TO.P,J1,B9,VBUS_B*%
%TO.N,Net-(D36-Pad2)*%
X102850000Y-58350000D03*
%TO.P,J1,B10,RX1-*%
%TO.N,unconnected-(J1-PadB10)*%
X103350000Y-58350000D03*
%TO.P,J1,B11,RX1+*%
%TO.N,unconnected-(J1-PadB11)*%
X103850000Y-58350000D03*
D57*
%TO.P,J1,B12,GND_B*%
%TO.N,GND*%
X104700000Y-58350000D03*
D58*
%TO.P,J1,S1,SHIELD*%
%TO.N,unconnected-(J1-PadS1)*%
X105920000Y-59240000D03*
%TO.P,J1,S2,SHIELD*%
X97280000Y-59240000D03*
D59*
%TO.P,J1,S3,SHIELD*%
X105920000Y-53880000D03*
%TO.P,J1,S4,SHIELD*%
X97280000Y-53880000D03*
%TD*%
D60*
%TO.P,U2,1,ADJ*%
%TO.N,GND*%
X123326000Y-113786000D03*
D61*
%TO.P,U2,2,VO*%
%TO.N,+3.3V*%
X117026000Y-111506000D03*
D60*
%TO.P,U2,3,VI*%
%TO.N,+5V*%
X123326000Y-109226000D03*
%TD*%
D48*
%TO.P,J4,1,VCC*%
%TO.N,Net-(D37-Pad2)*%
X86077435Y-95634251D03*
D49*
%TO.P,J4,2,ESP_TMS*%
%TO.N,/ESP32-S3/Debug/ESP_TMS*%
X87347435Y-95634251D03*
%TO.P,J4,3,GND*%
%TO.N,GND*%
X86077435Y-96904251D03*
%TO.P,J4,4,ESP_TCK*%
%TO.N,/ESP32-S3/Debug/ESP_TCK*%
X87347435Y-96904251D03*
%TO.P,J4,5,GND*%
%TO.N,GND*%
X86077435Y-98174251D03*
%TO.P,J4,6,ESP_TDO*%
%TO.N,/ESP32-S3/Debug/ESP_TDO*%
X87347435Y-98174251D03*
%TO.P,J4,7,GND*%
%TO.N,GND*%
X86077435Y-99444251D03*
%TO.P,J4,8,ESP_TDI*%
%TO.N,/ESP32-S3/Debug/ESP_TDI*%
X87347435Y-99444251D03*
%TO.P,J4,9,GND*%
%TO.N,GND*%
X86077435Y-100714251D03*
%TO.P,J4,10,NC*%
%TO.N,unconnected-(J4-Pad10)*%
X87347435Y-100714251D03*
%TD*%
D15*
%TO.P,SW1,A,A*%
%TO.N,EN{slash}CHIP_PU*%
X116176800Y-96804000D03*
%TO.P,SW1,B,B*%
X122176800Y-96804000D03*
%TO.P,SW1,C,C*%
%TO.N,GND*%
X116176800Y-100554000D03*
%TO.P,SW1,D,D*%
X122176800Y-100554000D03*
%TD*%
D62*
%TO.P,D13,1,VDD*%
%TO.N,+5V*%
X134989000Y-128504594D03*
%TO.P,D13,2,DOUT*%
%TO.N,Net-(D13-Pad2)*%
X132889611Y-130919665D03*
%TO.P,D13,3,VSS*%
%TO.N,GND*%
X136587688Y-134134354D03*
%TO.P,D13,4,DIN*%
%TO.N,Net-(D12-Pad2)*%
X138687077Y-131719283D03*
%TD*%
D63*
%TO.P,D28,1,VDD*%
%TO.N,+5V*%
X58944337Y-97220862D03*
%TO.P,D28,2,DOUT*%
%TO.N,Net-(D28-Pad2)*%
X59389691Y-94052004D03*
%TO.P,D28,3,VSS*%
%TO.N,GND*%
X54537377Y-93370056D03*
%TO.P,D28,4,DIN*%
%TO.N,Net-(D27-Pad2)*%
X54092023Y-96538914D03*
%TD*%
D64*
%TO.P,D34,1,VDD*%
%TO.N,+5V*%
X83248973Y-62845358D03*
%TO.P,D34,2,DOUT*%
%TO.N,Net-(D34-Pad2)*%
X86190206Y-61584744D03*
%TO.P,D34,3,VSS*%
%TO.N,GND*%
X84259891Y-57080980D03*
%TO.P,D34,4,DIN*%
%TO.N,Net-(D33-Pad2)*%
X81318658Y-58341594D03*
%TD*%
D65*
%TO.P,D19,1,VDD*%
%TO.N,+5V*%
X95883176Y-144097064D03*
%TO.P,D19,2,DOUT*%
%TO.N,Net-(D19-Pad2)*%
X92729871Y-143552393D03*
%TO.P,D19,3,VSS*%
%TO.N,GND*%
X91895844Y-148380892D03*
%TO.P,D19,4,DIN*%
%TO.N,Net-(D18-Pad2)*%
X95049149Y-148925563D03*
%TD*%
D66*
%TO.P,D25,1,VDD*%
%TO.N,+5V*%
X62288062Y-118724659D03*
%TO.P,D25,2,DOUT*%
%TO.N,Net-(D25-Pad2)*%
X61120456Y-115745281D03*
%TO.P,D25,3,VSS*%
%TO.N,GND*%
X56558282Y-117533177D03*
%TO.P,D25,4,DIN*%
%TO.N,Net-(D24-Pad2)*%
X57725888Y-120512555D03*
%TD*%
D67*
%TO.P,D29,1,VDD*%
%TO.N,+5V*%
X60312144Y-90024364D03*
%TO.P,D29,2,DOUT*%
%TO.N,Net-(D29-Pad2)*%
X61290369Y-86977549D03*
%TO.P,D29,3,VSS*%
%TO.N,GND*%
X56624934Y-85479642D03*
%TO.P,D29,4,DIN*%
%TO.N,Net-(D28-Pad2)*%
X55646709Y-88526457D03*
%TD*%
D68*
%TO.P,D22,1,VDD*%
%TO.N,+5V*%
X75757456Y-135817618D03*
%TO.P,D22,2,DOUT*%
%TO.N,Net-(D22-Pad2)*%
X73277634Y-133795124D03*
%TO.P,D22,3,VSS*%
%TO.N,GND*%
X70180690Y-137592352D03*
%TO.P,D22,4,DIN*%
%TO.N,Net-(D21-Pad2)*%
X72660512Y-139614846D03*
%TD*%
D69*
%TO.P,D15,1,VDD*%
%TO.N,+5V*%
X124029168Y-138146065D03*
%TO.P,D15,2,DOUT*%
%TO.N,Net-(D15-Pad2)*%
X121241284Y-139716957D03*
%TO.P,D15,3,VSS*%
%TO.N,GND*%
X123646712Y-143985905D03*
%TO.P,D15,4,DIN*%
%TO.N,Net-(D14-Pad2)*%
X126434596Y-142415013D03*
%TD*%
D70*
%TO.N,GND*%
X59733511Y-126955246D03*
X85181054Y-147709756D03*
X68344202Y-65687004D03*
X83413600Y-84505800D03*
X53653905Y-111441919D03*
X74942207Y-60550597D03*
X93268959Y-149831578D03*
X101600000Y-150545801D03*
X134855799Y-65687005D03*
X123926600Y-100558600D03*
X148202735Y-86637499D03*
X64660135Y-133711334D03*
X107696000Y-57150000D03*
X125627677Y-144242258D03*
X124041011Y-92908066D03*
X90256914Y-53986706D03*
X138539864Y-133711335D03*
X143466488Y-126955247D03*
X56028728Y-119459186D03*
X150069463Y-94788062D03*
X82318198Y-56612185D03*
X90906600Y-107035600D03*
X58224057Y-78923604D03*
X118018945Y-147709756D03*
X120881802Y-56612185D03*
X132535180Y-139530279D03*
X70664820Y-139530278D03*
X54997265Y-86637498D03*
X149546095Y-111441920D03*
X109931040Y-149831578D03*
X112215944Y-107054555D03*
X140483260Y-71871504D03*
X53130537Y-94788061D03*
X62716741Y-71871503D03*
X52678351Y-103137424D03*
X116916200Y-103860600D03*
X147171272Y-119459187D03*
X77572322Y-144242257D03*
X128257794Y-60550598D03*
X125476000Y-113792000D03*
X98552000Y-60706000D03*
X82300283Y-111217347D03*
X150521649Y-103137425D03*
X144975944Y-78923605D03*
X101574600Y-65557400D03*
X112943087Y-53986706D03*
%TO.N,EN{slash}CHIP_PU*%
X77622400Y-108204000D03*
X113106200Y-101981000D03*
%TO.N,/ESP32-S3/LED Data*%
X98501200Y-86360000D03*
X111175800Y-86360000D03*
%TO.N,UART_0_TXD*%
X84302600Y-108407200D03*
X89382600Y-103236971D03*
%TO.N,+5V*%
X142454949Y-109986316D03*
X73262677Y-70998476D03*
X140431359Y-116817843D03*
X64639284Y-82277405D03*
X115590612Y-140890202D03*
X141310270Y-88850427D03*
X138560715Y-82277405D03*
X127959920Y-133920454D03*
X129937322Y-70998475D03*
X111265463Y-61028631D03*
X124315151Y-66621734D03*
X118030056Y-63265806D03*
X68467508Y-76268298D03*
X122074025Y-137935540D03*
X87609389Y-140890202D03*
X99314000Y-67818000D03*
X137274506Y-123205248D03*
X108698894Y-142698210D03*
X60299088Y-95795536D03*
X91934536Y-61028631D03*
X62768642Y-116817843D03*
X81125976Y-137935540D03*
X138684000Y-109220000D03*
X61889730Y-88850428D03*
X101600000Y-143306800D03*
X68072000Y-84505800D03*
X60745051Y-109986317D03*
X78884848Y-66621735D03*
X85169943Y-63265807D03*
X142900912Y-95795535D03*
X143286220Y-102910042D03*
X94501107Y-142698210D03*
X59913780Y-102910043D03*
X65925494Y-123205249D03*
X75240081Y-133920455D03*
X134732491Y-76268297D03*
X62966600Y-106426000D03*
X64414400Y-91440000D03*
X133076522Y-128962122D03*
X70123479Y-128962123D03*
%TO.N,+3.3V*%
X114109888Y-106362112D03*
X112547400Y-97891600D03*
%TO.N,GPIO0{slash}BOOT*%
X88646000Y-113284000D03*
X81284283Y-114988896D03*
%TO.N,USB_D-*%
X106807000Y-65532000D03*
X112344742Y-91806598D03*
X100812600Y-61036200D03*
X102438700Y-62036100D03*
%TO.N,/ESP32-S3/Debug/ESP_TMS*%
X90311029Y-100696971D03*
X76708000Y-96774000D03*
%TO.N,/ESP32-S3/Debug/ESP_TCK*%
X75946000Y-98298000D03*
%TO.N,/ESP32-S3/Debug/ESP_TDO*%
X82042000Y-102616000D03*
%TD*%
D71*
%TO.N,GND*%
X52856382Y-101531040D02*
X53823304Y-101500653D01*
X98552000Y-60706000D02*
X98602800Y-60655200D01*
X69673354Y-64767482D02*
X70330645Y-65477292D01*
X146374816Y-120865538D02*
X145474113Y-120512556D01*
X104561500Y-97926971D02*
X104561500Y-99326971D01*
X148605607Y-87975388D02*
X148474381Y-88230727D01*
X109901687Y-149810872D02*
X108550102Y-150044332D01*
X150452380Y-104532938D02*
X150243104Y-104729462D01*
X108315511Y-149878846D02*
X108150851Y-148925563D01*
X102235000Y-67157600D02*
X103480400Y-67157600D01*
X107109800Y-58164000D02*
X106400600Y-57454800D01*
X150065963Y-96404278D02*
X149107978Y-96538914D01*
X59031555Y-125747144D02*
X59100034Y-125468346D01*
X97815400Y-60706000D02*
X98552000Y-60706000D01*
X82351550Y-56625525D02*
X83612235Y-56085194D01*
D72*
X123326000Y-112894000D02*
X123326000Y-113786000D01*
X124234000Y-111986000D02*
X123326000Y-112894000D01*
D71*
X101761500Y-99326971D02*
X101761500Y-97926971D01*
X149516106Y-111461694D02*
X149240308Y-112805279D01*
X122155828Y-57185869D02*
X122262443Y-57452423D01*
X104561500Y-99326971D02*
X103161500Y-99326971D01*
X114296168Y-54335167D02*
X114446597Y-54579685D01*
X101761500Y-97926971D02*
X103161500Y-97926971D01*
X103161500Y-99326971D02*
X101761500Y-99326971D01*
X59167739Y-77611496D02*
X60025052Y-78059689D01*
X53673679Y-111411931D02*
X53397880Y-110068346D01*
X98602800Y-59647200D02*
X98600000Y-59650000D01*
X63782817Y-132353955D02*
X64512923Y-131719284D01*
X98602800Y-58452800D02*
X98602800Y-59647200D01*
X103480000Y-65557400D02*
X101574600Y-65557400D01*
X52659859Y-101740316D02*
X52856382Y-101531040D01*
X103161500Y-99326971D02*
X103161500Y-97926971D01*
X150243104Y-104729461D02*
X149276182Y-104699074D01*
X53579391Y-93235419D02*
X54537376Y-93370055D01*
X149240307Y-112805279D02*
X149000635Y-112963314D01*
X101761500Y-99326971D02*
X101761500Y-100726971D01*
X83873521Y-147217201D02*
X83750380Y-146957867D01*
X58893791Y-77697346D02*
X59167739Y-77611495D01*
D73*
X79241200Y-84505800D02*
X83413600Y-84505800D01*
D71*
X113536000Y-103406000D02*
X113508000Y-103378000D01*
X116435036Y-148031312D02*
X116110520Y-147119966D01*
X141273616Y-73281292D02*
X140505099Y-73868867D01*
X100203000Y-150520400D02*
X100000000Y-150317400D01*
X122181400Y-100558600D02*
X122176800Y-100554000D01*
X112961909Y-54017301D02*
X114296168Y-54335166D01*
X122262442Y-57452423D02*
X121881343Y-58341594D01*
X145600658Y-80173399D02*
X145514808Y-80447347D01*
X132499443Y-139526648D02*
X131436530Y-140393539D01*
X114554000Y-103406000D02*
X113536000Y-103406000D01*
X93248254Y-149802226D02*
X91896669Y-149568767D01*
X59742080Y-126920362D02*
X59031554Y-125747145D01*
X69598276Y-138627649D02*
X69569264Y-138342033D01*
X101574600Y-150520400D02*
X100203000Y-150520400D01*
X110419084Y-107054555D02*
X110411500Y-107046971D01*
X97155000Y-61366400D02*
X97815400Y-60706000D01*
X143431604Y-126963815D02*
X142721079Y-128137032D01*
X101574600Y-66497200D02*
X102235000Y-67157600D01*
X63869987Y-70739165D02*
X64638503Y-71326740D01*
X125470000Y-113786000D02*
X125476000Y-113792000D01*
X82239186Y-97155000D02*
X82484322Y-96909864D01*
X125593079Y-144232598D02*
X124398123Y-144905922D01*
X55657578Y-117886159D02*
X56558281Y-117533177D01*
X138504031Y-133713840D02*
X137604181Y-134749000D01*
X76408475Y-59870728D02*
X76935358Y-60682058D01*
D73*
X123326000Y-113786000D02*
X125470000Y-113786000D01*
D71*
X76127663Y-59811040D02*
X76408475Y-59870728D01*
X97155000Y-61697000D02*
X97155000Y-61366400D01*
X69569264Y-138342034D02*
X70180689Y-137592353D01*
X103161500Y-97926971D02*
X104561500Y-97926971D01*
X58258334Y-78912863D02*
X58893790Y-77697346D01*
X56043109Y-119426269D02*
X55542644Y-118149233D01*
X98602800Y-59652800D02*
X98600000Y-59650000D01*
X112215944Y-107054555D02*
X110419084Y-107054555D01*
X82484322Y-96909864D02*
X86071822Y-96909864D01*
X62752346Y-71866752D02*
X63585422Y-70777133D01*
X149000635Y-112963314D02*
X148052994Y-112768791D01*
X148474381Y-88230727D02*
X147553291Y-88526456D01*
X124398122Y-144905920D02*
X124121612Y-144828718D01*
X100000000Y-150317400D02*
X100000000Y-149350000D01*
X108550102Y-150044331D02*
X108315512Y-149878846D01*
X137604180Y-134748999D02*
X137317794Y-134769025D01*
X147138355Y-119473567D02*
X146637890Y-120750603D01*
X104700000Y-58350000D02*
X104700000Y-59550000D01*
X101761500Y-100726971D02*
X103161500Y-100726971D01*
X79848832Y-111217347D02*
X82300283Y-111217347D01*
X76367706Y-143534335D02*
X76290503Y-143257825D01*
X63585423Y-70777134D02*
X63869986Y-70739165D01*
X122176800Y-92908600D02*
X116176800Y-92908600D01*
X77562663Y-144207659D02*
X76367706Y-143534336D01*
X85165646Y-147677307D02*
X83873520Y-147217202D01*
X52702941Y-103111239D02*
X52659858Y-101740316D01*
X150047845Y-94816749D02*
X150238735Y-96175000D01*
X78359000Y-100965000D02*
X79629000Y-99695000D01*
X145514808Y-80447348D02*
X144657495Y-80895540D01*
X141311585Y-72996728D02*
X141273617Y-73281291D01*
X69386480Y-64756462D02*
X69673354Y-64767482D01*
X134857178Y-65722899D02*
X135863562Y-66654820D01*
X98602800Y-60655200D02*
X98602800Y-59652800D01*
D72*
X125476000Y-111986000D02*
X124234000Y-111986000D01*
D71*
X122176800Y-100554000D02*
X116176800Y-100554000D01*
X128265262Y-60585734D02*
X129415582Y-61332760D01*
X70661190Y-139494541D02*
X69598276Y-138627650D01*
X76290503Y-143257826D02*
X76765403Y-142415014D01*
X116694371Y-148154453D02*
X116435037Y-148031312D01*
X116916200Y-103860600D02*
X116459000Y-103403400D01*
X68380096Y-65688383D02*
X69386479Y-64756461D01*
X116916200Y-104622600D02*
X116128800Y-105410000D01*
X91896668Y-149568766D02*
X91731182Y-149334176D01*
X135874582Y-66941695D02*
X135217291Y-67651505D01*
X74977343Y-60558066D02*
X76127663Y-59811039D01*
X115570000Y-103406000D02*
X114554000Y-103406000D01*
X129415582Y-61332761D02*
X129475271Y-61613573D01*
X105595200Y-57454800D02*
X104700000Y-58350000D01*
X108139171Y-107046971D02*
X104561500Y-103469300D01*
X83750379Y-146957867D02*
X84074895Y-146046521D01*
X53555916Y-109828673D02*
X54503557Y-109634150D01*
X55029214Y-86621079D02*
X55448505Y-85315139D01*
X59100034Y-125468346D02*
X59927513Y-124967207D01*
X55448506Y-85315139D02*
X55703844Y-85183913D01*
X83878791Y-56191809D02*
X84259890Y-57080980D01*
X104700000Y-59550000D02*
X104600000Y-59650000D01*
X116128800Y-105410000D02*
X115542000Y-105410000D01*
X55542644Y-118149233D02*
X55657578Y-117886159D01*
X114446597Y-54579685D02*
X114222404Y-55520748D01*
X140478509Y-71907109D02*
X141311586Y-72996728D01*
X135863561Y-66654821D02*
X135874582Y-66941695D01*
X115572600Y-103403400D02*
X115570000Y-103406000D01*
X122177334Y-92908066D02*
X122176800Y-92908600D01*
X131150913Y-140364528D02*
X130539488Y-139614847D01*
X148186316Y-86669448D02*
X148605608Y-87975388D01*
X104561500Y-103469300D02*
X104561500Y-100726971D01*
X116459000Y-103403400D02*
X115572600Y-103403400D01*
X137317794Y-134769026D02*
X136587688Y-134134355D01*
X146637890Y-120750603D02*
X146374816Y-120865538D01*
X53350115Y-93408192D02*
X53579391Y-93235419D01*
X53397881Y-110068346D02*
X53555916Y-109828673D01*
X106400600Y-57454800D02*
X105595200Y-57454800D01*
X120895142Y-56645537D02*
X122155828Y-57185867D01*
X91621768Y-53687663D02*
X91866286Y-53838091D01*
X123926600Y-100558600D02*
X122181400Y-100558600D01*
X142442280Y-128205512D02*
X141614801Y-127704373D01*
X107696000Y-58164000D02*
X107696000Y-57150000D01*
X117986497Y-147694348D02*
X116694372Y-148154454D01*
X104561500Y-100726971D02*
X103161500Y-100726971D01*
X79629000Y-97155000D02*
X78359000Y-98425000D01*
X90917971Y-107046971D02*
X90906600Y-107035600D01*
X101574600Y-64289400D02*
X101574600Y-65557400D01*
X90287509Y-54005528D02*
X91621768Y-53687662D01*
X101574600Y-65557400D02*
X101574600Y-66497200D01*
X107696000Y-58164000D02*
X107109800Y-58164000D01*
X83612236Y-56085195D02*
X83878791Y-56191809D01*
X91866286Y-53838092D02*
X92090479Y-54779155D01*
X150495463Y-103162015D02*
X150452380Y-104532938D01*
X144965202Y-78957882D02*
X145600659Y-80173398D01*
X110411500Y-107046971D02*
X108139171Y-107046971D01*
X55703844Y-85183912D02*
X56624934Y-85479642D01*
X116916200Y-103860600D02*
X116916200Y-104622600D01*
X64662641Y-133675501D02*
X63762791Y-132640342D01*
X142721078Y-128137032D02*
X142442280Y-128205512D01*
X150238735Y-96175001D02*
X150065963Y-96404278D01*
X91731183Y-149334176D02*
X91895844Y-148380893D01*
X104561500Y-100726971D02*
X104561500Y-99326971D01*
X79629000Y-97155000D02*
X82239186Y-97155000D01*
X103161500Y-99326971D02*
X103161500Y-100726971D01*
X53159225Y-94766443D02*
X53350114Y-93408192D01*
X124041011Y-92908066D02*
X122177334Y-92908066D01*
X124121612Y-144828718D02*
X123646712Y-143985906D01*
X129475271Y-61613573D02*
X128948387Y-62424903D01*
X92911500Y-107046971D02*
X90917971Y-107046971D01*
X78871283Y-112194896D02*
X79848832Y-111217347D01*
X63762791Y-132640341D02*
X63782817Y-132353955D01*
X78359000Y-98425000D02*
X79629000Y-99695000D01*
X131436529Y-140393539D02*
X131150913Y-140364528D01*
X86071822Y-96909864D02*
X86077435Y-96904251D01*
%TO.N,EN{slash}CHIP_PU*%
X112518000Y-104394000D02*
X111779740Y-104394000D01*
X111779740Y-104394000D02*
X111663580Y-104510160D01*
D74*
X77207584Y-110531197D02*
X77207584Y-108618816D01*
D71*
X114528600Y-100558600D02*
X114528600Y-98452200D01*
X113106200Y-101981000D02*
X112548000Y-102539200D01*
X112548000Y-104364000D02*
X112518000Y-104394000D01*
X114528600Y-98452200D02*
X116176800Y-96804000D01*
X112548000Y-102539200D02*
X112548000Y-103378000D01*
X113106200Y-101981000D02*
X114528600Y-100558600D01*
X116176800Y-96804000D02*
X122176800Y-96804000D01*
D74*
X77207584Y-108618816D02*
X77622400Y-108204000D01*
D71*
X112548000Y-103378000D02*
X112548000Y-104364000D01*
X111660391Y-104506971D02*
X110411500Y-104506971D01*
D74*
X77601283Y-110924896D02*
X77207584Y-110531197D01*
D71*
X111663580Y-104510160D02*
X111660391Y-104506971D01*
%TO.N,/ESP32-S3/LED Data*%
X108508800Y-61849000D02*
X108508800Y-63779400D01*
X108508800Y-63779400D02*
X110845600Y-66116200D01*
X111109521Y-54779155D02*
X110025966Y-53695600D01*
X109880400Y-53695600D02*
X109397800Y-53695600D01*
X111175800Y-66446400D02*
X111175800Y-86360000D01*
X110025966Y-53695600D02*
X109880400Y-53695600D01*
X109245400Y-53848000D02*
X108508800Y-54584600D01*
X110845600Y-66116200D02*
X111175800Y-66446400D01*
X108508800Y-54584600D02*
X108508800Y-61849000D01*
X98486500Y-86374700D02*
X98486500Y-89286971D01*
X109397800Y-53695600D02*
X109245400Y-53848000D01*
%TO.N,Net-(R5-Pad1)*%
X112547400Y-95603600D02*
X113057400Y-95603600D01*
X112547400Y-95603600D02*
X110424871Y-95603600D01*
X110424871Y-95603600D02*
X110411500Y-95616971D01*
X113057400Y-95603600D02*
X113588800Y-95072200D01*
X114879600Y-89158600D02*
X116176800Y-89158600D01*
X116176800Y-89158600D02*
X122176800Y-89158600D01*
X113588800Y-90449400D02*
X114879600Y-89158600D01*
X113588800Y-95072200D02*
X113588800Y-90449400D01*
D74*
%TO.N,UART_0_TXD*%
X83642200Y-112953800D02*
X84582000Y-112014000D01*
D71*
X92911500Y-103236971D02*
X89382600Y-103236971D01*
X83820000Y-112014000D02*
X84582000Y-112014000D01*
D74*
X78327583Y-112921196D02*
X78327583Y-115051354D01*
X77601283Y-112194896D02*
X78327583Y-112921196D01*
X79265274Y-115989045D02*
X81594113Y-115989045D01*
X83642200Y-113940958D02*
X83642200Y-112953800D01*
D71*
X83439000Y-111633000D02*
X83820000Y-112014000D01*
D74*
X81594113Y-115989045D02*
X83642200Y-113940958D01*
D71*
X84302600Y-108407200D02*
X83439000Y-109270800D01*
D74*
X78327583Y-115051354D02*
X79265274Y-115989045D01*
D71*
X83439000Y-109270800D02*
X83439000Y-111633000D01*
%TO.N,+5V*%
X144479113Y-101346740D02*
X143590152Y-101318803D01*
X109973956Y-59545757D02*
X109767839Y-60410944D01*
X123111508Y-65537458D02*
X123186133Y-65888542D01*
X89031542Y-141666018D02*
X88877585Y-141341786D01*
X62884903Y-83165691D02*
X63673092Y-83577747D01*
X141062808Y-87249435D02*
X140898743Y-87568671D01*
X95883176Y-144097064D02*
X96034561Y-143220642D01*
X137937027Y-81084398D02*
X138560716Y-82277405D01*
X82298803Y-138596395D02*
X81125975Y-137935540D01*
X76920344Y-66534389D02*
X77404746Y-67280303D01*
X103200000Y-144450000D02*
X103200000Y-143560600D01*
X116659423Y-62402223D02*
X116792717Y-62735482D01*
X60312143Y-90024363D02*
X61158967Y-90296249D01*
X142079545Y-115745281D02*
X141251464Y-115420759D01*
X143025290Y-108470030D02*
X142725640Y-108667613D01*
X123246852Y-137274686D02*
X122074024Y-137935541D01*
X61158967Y-90296248D02*
X61478203Y-90132183D01*
X110025449Y-142469074D02*
X108698893Y-142698210D01*
X59946925Y-111783510D02*
X60818160Y-111604672D01*
X140898743Y-87568671D02*
X141310270Y-88850428D01*
X129540092Y-69072569D02*
X128935796Y-69725148D01*
X67294085Y-77385209D02*
X67649859Y-77337738D01*
X138832550Y-80329839D02*
X138044360Y-80741894D01*
X123595909Y-64791544D02*
X123111507Y-65537458D01*
X142713558Y-94462437D02*
X142900913Y-95795536D01*
X110470130Y-143552393D02*
X110318746Y-142675971D01*
X138044360Y-80741895D02*
X137937026Y-81084398D01*
X133914843Y-75198857D02*
X134732492Y-76268298D01*
X116858809Y-140438617D02*
X115590611Y-140890202D01*
X109955913Y-60716652D02*
X111265464Y-61028631D01*
X58821401Y-104545162D02*
X59710362Y-104517226D01*
X138678000Y-109226000D02*
X138684000Y-109220000D01*
X88733192Y-142503884D02*
X89031543Y-141666018D01*
X129922367Y-133795124D02*
X129360240Y-133105888D01*
X128949576Y-70083812D02*
X129937323Y-70998476D01*
X71006665Y-129978112D02*
X70123478Y-128962122D01*
D72*
X125476000Y-111026000D02*
X124234000Y-111026000D01*
D71*
X88877586Y-141341787D02*
X87609388Y-140890202D01*
X143810310Y-94052003D02*
X142929565Y-94175783D01*
X70310389Y-130919665D02*
X70981628Y-130336166D01*
X75757456Y-135817618D02*
X76319583Y-135128382D01*
X66622862Y-124356740D02*
X65925494Y-123205249D01*
X123592558Y-137371208D02*
X123246853Y-137274685D01*
X59956065Y-104255578D02*
X59913780Y-102910042D01*
X67649859Y-77337738D02*
X68467508Y-76268297D01*
X82395326Y-138942100D02*
X82298803Y-138596395D01*
X133962313Y-74843082D02*
X133914843Y-75198856D01*
X116792717Y-62735482D02*
X118030057Y-63265807D01*
X64015596Y-83470412D02*
X64639285Y-82277405D01*
X72274931Y-71913139D02*
X73262678Y-70998475D01*
X71311972Y-71246782D02*
X71916267Y-71899362D01*
X62288061Y-118724660D02*
X63116142Y-118400139D01*
X63259838Y-118071230D02*
X62768641Y-116817843D01*
X141251463Y-115420760D02*
X140922555Y-115564456D01*
X134317761Y-127921095D02*
X133959708Y-127946133D01*
X70981627Y-130336165D02*
X71006664Y-129978112D01*
X143590152Y-101318804D02*
X143328505Y-101564507D01*
D72*
X123326000Y-110118000D02*
X123326000Y-109226000D01*
D71*
X83599345Y-63662837D02*
X83932604Y-63796131D01*
X99314000Y-65434000D02*
X99314000Y-67818000D01*
X77755831Y-67354927D02*
X78884849Y-66621734D01*
X96034560Y-143220642D02*
X95827663Y-142927346D01*
X142725640Y-108667613D02*
X142454949Y-109986317D01*
X83932604Y-63796131D02*
X85169944Y-63265806D01*
X138320441Y-121968142D02*
X137971874Y-122053758D01*
X103200000Y-143560600D02*
X102946200Y-143306800D01*
X61478203Y-90132183D02*
X61889730Y-88850426D01*
X71916268Y-71899361D02*
X72274931Y-71913139D01*
X143328505Y-101564507D02*
X143286220Y-102910043D01*
X143896524Y-108648868D02*
X143025290Y-108470029D01*
D73*
X72041200Y-84505800D02*
X68072000Y-84505800D01*
D71*
X134989000Y-128504594D02*
X134317761Y-127921095D01*
X58944336Y-97220862D02*
X59825081Y-97344643D01*
X117009794Y-61584744D02*
X116659422Y-62402223D01*
X63673093Y-83577746D02*
X64015596Y-83470412D01*
X61015742Y-111305020D02*
X60745051Y-109986316D01*
X90113161Y-60287350D02*
X90319277Y-61152537D01*
X66537246Y-124705307D02*
X66622862Y-124356740D01*
X102946200Y-143306800D02*
X101600000Y-143306800D01*
X117183041Y-140592573D02*
X116858809Y-140438617D01*
X133959708Y-127946133D02*
X133076521Y-128962123D01*
X109767840Y-60410944D02*
X109955913Y-60716652D01*
D75*
X80616000Y-91440000D02*
X64414400Y-91440000D01*
D71*
X60818159Y-111604670D02*
X61015741Y-111305020D01*
X90624986Y-61340610D02*
X91934537Y-61028631D01*
X124029168Y-138146066D02*
X123592558Y-137371208D01*
X76319582Y-135128382D02*
X76283310Y-134771292D01*
X83248972Y-62845358D02*
X83599344Y-63662837D01*
X117481392Y-141430439D02*
X117183042Y-140592573D01*
X142929565Y-94175785D02*
X142713557Y-94462437D01*
X65776485Y-125166040D02*
X66537246Y-124705307D01*
X134668865Y-74302882D02*
X133962312Y-74843082D01*
X81958717Y-139716958D02*
X82395327Y-138942100D01*
X90319278Y-61152537D02*
X90624986Y-61340610D01*
D75*
X77900000Y-106426000D02*
X62966600Y-106426000D01*
D71*
X129003150Y-133069617D02*
X127959920Y-133920455D01*
X63116142Y-118400138D02*
X63259838Y-118071230D01*
X140922556Y-115564456D02*
X140431359Y-116817843D01*
X129360240Y-133105889D02*
X129003150Y-133069617D01*
X66587532Y-76845009D02*
X67294084Y-77385210D01*
X123186133Y-65888541D02*
X124315151Y-66621734D01*
X60111733Y-97128634D02*
X60299088Y-95795535D01*
X59710362Y-104517224D02*
X59956065Y-104255577D01*
X137971874Y-122053758D02*
X137274506Y-123205249D01*
X128935797Y-69725149D02*
X128949576Y-70083812D01*
X95827662Y-142927346D02*
X94501106Y-142698210D01*
D73*
X123326000Y-109226000D02*
X138678000Y-109226000D01*
D71*
X141909632Y-86977549D02*
X141062808Y-87249434D01*
X77404747Y-67280302D02*
X77755831Y-67354927D01*
D72*
X124234000Y-111026000D02*
X123326000Y-110118000D01*
D71*
X110318745Y-142675971D02*
X110025449Y-142469074D01*
X76283310Y-134771292D02*
X75240080Y-133920454D01*
X139081202Y-122428874D02*
X138320441Y-121968140D01*
X59825081Y-97344642D02*
X60111733Y-97128634D01*
%TO.N,+3.3V*%
X114046000Y-106298225D02*
X114046000Y-105410000D01*
X114046000Y-105410000D02*
X113540000Y-105410000D01*
X113566000Y-104366000D02*
X113538000Y-104394000D01*
X113540000Y-105410000D02*
X113540000Y-104396000D01*
X115570000Y-104366000D02*
X114554000Y-104366000D01*
X113540000Y-104396000D02*
X113538000Y-104394000D01*
X114554000Y-104366000D02*
X113566000Y-104366000D01*
D72*
X117026000Y-109278225D02*
X114109888Y-106362112D01*
D71*
X112547400Y-96623600D02*
X112547400Y-97891600D01*
X117026000Y-111506000D02*
X117026000Y-109278225D01*
D72*
X114109888Y-106362112D02*
X114046000Y-106298225D01*
D71*
X114582000Y-105410000D02*
X114046000Y-105410000D01*
D74*
%TO.N,UART_0_RXD*%
X78015584Y-113879197D02*
X78015584Y-115022197D01*
X78015584Y-115022197D02*
X79182432Y-116189045D01*
D71*
X88787029Y-101966971D02*
X87477600Y-103276400D01*
D74*
X81676955Y-116189045D02*
X84582000Y-113284000D01*
X77601283Y-113464896D02*
X78015584Y-113879197D01*
D71*
X87477600Y-103276400D02*
X87477600Y-114376200D01*
X84582000Y-114325400D02*
X84582000Y-113284000D01*
X92911500Y-101966971D02*
X88787029Y-101966971D01*
D74*
X79182432Y-116189045D02*
X81676955Y-116189045D01*
D71*
X87477600Y-114376200D02*
X86664800Y-115189000D01*
X85445600Y-115189000D02*
X84582000Y-114325400D01*
X86664800Y-115189000D02*
X85445600Y-115189000D01*
%TO.N,GPIO0{slash}BOOT*%
X91287600Y-108331000D02*
X88646000Y-110972600D01*
D74*
X80776283Y-114988896D02*
X81030283Y-114988896D01*
D71*
X94042171Y-90536971D02*
X94183200Y-90678000D01*
D74*
X79506283Y-113889595D02*
X79676982Y-113889595D01*
D71*
X94538800Y-91033600D02*
X94538800Y-106248200D01*
D74*
X81030283Y-114988896D02*
X81284283Y-114988896D01*
D71*
X94538800Y-106248200D02*
X94538800Y-107746800D01*
D74*
X79676982Y-113889595D02*
X80522283Y-114734896D01*
X79295982Y-113889595D02*
X79506283Y-113889595D01*
D71*
X94056200Y-108229400D02*
X93954600Y-108331000D01*
D74*
X78871283Y-113464896D02*
X79295982Y-113889595D01*
X80522283Y-114734896D02*
X80776283Y-114988896D01*
D71*
X92911500Y-90536971D02*
X94042171Y-90536971D01*
X94183200Y-90678000D02*
X94538800Y-91033600D01*
X93954600Y-108331000D02*
X91287600Y-108331000D01*
X94538800Y-107746800D02*
X94056200Y-108229400D01*
X88646000Y-110972600D02*
X88646000Y-113284000D01*
%TO.N,Net-(R2-Pad2)*%
X111706291Y-105777247D02*
X111706015Y-105776971D01*
X111706015Y-105776971D02*
X110411500Y-105776971D01*
X112073538Y-105410000D02*
X111706291Y-105777247D01*
X112520000Y-105410000D02*
X112073538Y-105410000D01*
D74*
%TO.N,USB_D-*%
X101800000Y-61397400D02*
X101800000Y-59200000D01*
D76*
X104800000Y-65557400D02*
X106807000Y-65557400D01*
D74*
X101800000Y-59200000D02*
X101850000Y-59150000D01*
X101850000Y-59150000D02*
X101850000Y-58350000D01*
D76*
X112344742Y-91806598D02*
X110411873Y-91806598D01*
X100812600Y-61036200D02*
X100812600Y-60528200D01*
D74*
X102438700Y-62036100D02*
X101800000Y-61397400D01*
D76*
X101100000Y-60240800D02*
X101100000Y-59650000D01*
X110411873Y-91806598D02*
X110411500Y-91806971D01*
X100812600Y-60528200D02*
X101100000Y-60240800D01*
D74*
%TO.N,USB_D+*%
X102988700Y-61053300D02*
X102971600Y-61036200D01*
D71*
X108635800Y-65405000D02*
X110411500Y-67180700D01*
X102100000Y-59650000D02*
X102099999Y-60697999D01*
D74*
X102666518Y-62586100D02*
X102988700Y-62263918D01*
D71*
X102971600Y-61036200D02*
X104267000Y-61036200D01*
D76*
X104800400Y-67157600D02*
X106883200Y-67157600D01*
D74*
X102988700Y-62263918D02*
X102988700Y-61053300D01*
X101600000Y-59117157D02*
X101600000Y-61975218D01*
X101350000Y-58867157D02*
X101600000Y-59117157D01*
D71*
X102438200Y-61036200D02*
X102971600Y-61036200D01*
D74*
X102210882Y-62586100D02*
X102666518Y-62586100D01*
X101600000Y-61975218D02*
X102210882Y-62586100D01*
D71*
X102099999Y-60697999D02*
X102438200Y-61036200D01*
D76*
X106883200Y-67157600D02*
X108635800Y-65405000D01*
D74*
X101350000Y-58350000D02*
X101350000Y-58867157D01*
D71*
X104267000Y-61036200D02*
X108635800Y-65405000D01*
X110411500Y-67180700D02*
X110411500Y-90536971D01*
%TO.N,Net-(D17-Pad2)*%
X105105200Y-143103600D02*
X105638600Y-142570200D01*
X103200000Y-149350000D02*
X103200000Y-150494800D01*
X104724200Y-150723600D02*
X105105200Y-150342600D01*
X103428800Y-150723600D02*
X104724200Y-150723600D01*
X106984800Y-142570200D02*
X107316824Y-142902224D01*
X105638600Y-142570200D02*
X106984800Y-142570200D01*
X105105200Y-150342600D02*
X105105200Y-143103600D01*
X107316824Y-142902224D02*
X107316824Y-144097064D01*
X103200000Y-150494800D02*
X103428800Y-150723600D01*
%TO.N,Net-(D37-Pad2)*%
X78114675Y-95640675D02*
X78114675Y-93473735D01*
X83976000Y-91440000D02*
X83976000Y-92612000D01*
X78114675Y-93473735D02*
X78878410Y-92710000D01*
X83976000Y-92612000D02*
X84074000Y-92710000D01*
X84074000Y-92710000D02*
X85344000Y-92710000D01*
X78359000Y-95885000D02*
X78114675Y-95640675D01*
X85344000Y-92710000D02*
X86077435Y-93443435D01*
X86077435Y-93443435D02*
X86077435Y-95634251D01*
X78878410Y-92710000D02*
X84074000Y-92710000D01*
%TO.N,Net-(D38-Pad2)*%
X81690000Y-107463800D02*
X81690000Y-106426000D01*
X79117180Y-110009242D02*
X79117180Y-108773999D01*
X84455000Y-106426000D02*
X81690000Y-106426000D01*
X81270175Y-107883625D02*
X81690000Y-107463800D01*
X79117180Y-108773999D02*
X80007554Y-107883625D01*
X85852000Y-110744000D02*
X85852000Y-107823000D01*
X85852000Y-107823000D02*
X84455000Y-106426000D01*
X80007554Y-107883625D02*
X81270175Y-107883625D01*
X78871283Y-110924896D02*
X78871283Y-110255139D01*
X78871283Y-110255139D02*
X79117180Y-110009242D01*
%TO.N,Net-(J1-PadA5)*%
X106365000Y-60515000D02*
X107696000Y-59184000D01*
X103015000Y-60515000D02*
X106365000Y-60515000D01*
X102600000Y-60100000D02*
X103015000Y-60515000D01*
X102600000Y-59650000D02*
X102600000Y-60100000D01*
D74*
%TO.N,Net-(J1-PadB5)*%
X100850000Y-58350000D02*
X100850000Y-58660600D01*
X100850000Y-58660600D02*
X101400000Y-59210600D01*
X101400000Y-62084242D02*
X101574600Y-62258842D01*
X101400000Y-59210600D02*
X101400000Y-62084242D01*
X101574600Y-62258842D02*
X101574600Y-63269400D01*
D71*
%TO.N,/ESP32-S3/Debug/ESP_TMS*%
X77089000Y-97155000D02*
X76708000Y-96774000D01*
X92911500Y-100696971D02*
X90311029Y-100696971D01*
X78359000Y-97155000D02*
X77089000Y-97155000D01*
%TO.N,/ESP32-S3/Debug/ESP_TCK*%
X87364715Y-96886971D02*
X87347435Y-96904251D01*
X78359000Y-99695000D02*
X76962000Y-98298000D01*
X76962000Y-98298000D02*
X75946000Y-98298000D01*
X92911500Y-96886971D02*
X87364715Y-96886971D01*
%TO.N,/ESP32-S3/Debug/ESP_TDO*%
X78994000Y-102362000D02*
X78994000Y-102530020D01*
X92911500Y-98156971D02*
X87364715Y-98156971D01*
X79629000Y-100965000D02*
X78994000Y-101600000D01*
X81280000Y-103378000D02*
X82042000Y-102616000D01*
X78994000Y-101600000D02*
X78994000Y-102362000D01*
X80518000Y-103378000D02*
X81280000Y-103378000D01*
X79841980Y-103378000D02*
X80518000Y-103378000D01*
X78994000Y-102530020D02*
X79841980Y-103378000D01*
X87364715Y-98156971D02*
X87347435Y-98174251D01*
%TO.N,/ESP32-S3/Debug/ESP_TDI*%
X85344000Y-101854000D02*
X88138000Y-101854000D01*
X79629000Y-98425000D02*
X81915000Y-98425000D01*
X88758971Y-99426971D02*
X87364715Y-99426971D01*
X81915000Y-98425000D02*
X85344000Y-101854000D01*
X88138000Y-101854000D02*
X88758971Y-101233029D01*
X88758971Y-101233029D02*
X88758971Y-99426971D01*
X87364715Y-99426971D02*
X87347435Y-99444251D01*
X92911500Y-99426971D02*
X88758971Y-99426971D01*
%TO.N,Net-(D18-Pad2)*%
X96757598Y-150227961D02*
X97989745Y-143094593D01*
X98606151Y-142659767D02*
X99932707Y-142888903D01*
X94854293Y-150053657D02*
X95040810Y-150318062D01*
X95049149Y-148925562D02*
X94854293Y-150053657D01*
X97989745Y-143094594D02*
X98606151Y-142659767D01*
X95040811Y-150318063D02*
X96317308Y-150538552D01*
X99932707Y-142888903D02*
X100203372Y-143272596D01*
X100203373Y-143272596D02*
X100000000Y-144450001D01*
X96317308Y-150538552D02*
X96757598Y-150227961D01*
%TO.N,Net-(D36-Pad2)*%
X99314000Y-62074000D02*
X98377800Y-62074000D01*
D74*
X100350000Y-58350000D02*
X100350000Y-58017400D01*
D71*
X97358600Y-63855600D02*
X97155000Y-63652000D01*
D74*
X100350000Y-58017400D02*
X100517400Y-57850000D01*
D71*
X100100000Y-61288000D02*
X99314000Y-62074000D01*
D74*
X102850000Y-57968200D02*
X102850000Y-58350000D01*
X102731800Y-57850000D02*
X102850000Y-57968200D01*
D71*
X100350000Y-58950000D02*
X100100000Y-59200000D01*
X102850000Y-58350000D02*
X102850000Y-58950000D01*
X102850000Y-58950000D02*
X103100000Y-59200000D01*
X100100000Y-59200000D02*
X100100000Y-59650000D01*
X100100000Y-59650000D02*
X100100000Y-61288000D01*
X98018600Y-62433200D02*
X98018600Y-63627000D01*
X97155000Y-63017000D02*
X97155000Y-63652000D01*
X100350000Y-58350000D02*
X100350000Y-58950000D01*
X97790000Y-63855600D02*
X97358600Y-63855600D01*
X103100000Y-59200000D02*
X103100000Y-59650000D01*
X98018600Y-63627000D02*
X97790000Y-63855600D01*
X98377800Y-62074000D02*
X98018600Y-62433200D01*
D74*
X100517400Y-57850000D02*
X102731800Y-57850000D01*
D71*
%TO.N,Net-(D1-Pad2)*%
X119391094Y-56028754D02*
X119270930Y-55728322D01*
X114027859Y-62351868D02*
X112790519Y-61821543D01*
X119270930Y-55728322D02*
X118080282Y-55218010D01*
X118940110Y-57080980D02*
X119391095Y-56028754D01*
X112616142Y-61385570D02*
X113086840Y-60287350D01*
X112790519Y-61821543D02*
X112616142Y-61385570D01*
X117580000Y-55418109D02*
X114728255Y-62071730D01*
X118080282Y-55218010D02*
X117580000Y-55418109D01*
X114728254Y-62071729D02*
X114027859Y-62351867D01*
%TO.N,Net-(D2-Pad2)*%
X126820869Y-59405447D02*
X125734455Y-58699922D01*
X119300271Y-63847435D02*
X119951028Y-62845358D01*
X119397897Y-64306727D02*
X119300271Y-63847435D01*
X125734456Y-58699921D02*
X125207415Y-58811947D01*
X126888144Y-59721948D02*
X126820870Y-59405447D01*
X120526915Y-65039920D02*
X119397897Y-64306727D01*
X121264773Y-64883083D02*
X120526916Y-65039919D01*
X125207415Y-58811947D02*
X121264773Y-64883083D01*
X126264641Y-60682058D02*
X126888144Y-59721948D01*
%TO.N,Net-(D3-Pad2)*%
X126473605Y-68794949D02*
X125485858Y-67880285D01*
X125467832Y-67411078D02*
X126279656Y-66534388D01*
X127227390Y-68765992D02*
X126473604Y-68794950D01*
X132145866Y-63454521D02*
X127227390Y-68765991D01*
X132869354Y-65477293D02*
X133647178Y-64637319D01*
X125485858Y-67880285D02*
X125467833Y-67411078D01*
X133647179Y-64637319D02*
X133634758Y-64313985D01*
X133634758Y-64313985D02*
X132684284Y-63433837D01*
X132684284Y-63433837D02*
X132145866Y-63454521D01*
%TO.N,Net-(D4-Pad2)*%
X139470943Y-70631416D02*
X139513737Y-70310686D01*
X130876728Y-72437927D02*
X130938829Y-71972499D01*
X131694378Y-73507367D02*
X130876729Y-72437926D01*
X138192860Y-69210340D02*
X132442093Y-73607134D01*
X130938830Y-71972498D02*
X131888028Y-71246781D01*
X132442093Y-73607134D02*
X131694378Y-73507368D01*
X139513737Y-70310687D02*
X138726942Y-69281602D01*
X138561497Y-71326740D02*
X139470943Y-70631416D01*
X138726942Y-69281602D02*
X138192860Y-69210340D01*
%TO.N,Net-(D5-Pad2)*%
X143171921Y-75911426D02*
X136756693Y-79265226D01*
X143174947Y-78059689D02*
X144189473Y-77529308D01*
X136036871Y-79039647D02*
X135413182Y-77846640D01*
X135413181Y-77846640D02*
X135553596Y-77398574D01*
X135553597Y-77398573D02*
X136612468Y-76845008D01*
X144189473Y-77529307D02*
X144286234Y-77220541D01*
X143686081Y-76072554D02*
X143171922Y-75911426D01*
X136756694Y-79265226D02*
X136036871Y-79039647D01*
X144286234Y-77220542D02*
X143686080Y-76072554D01*
%TO.N,Net-(D6-Pad2)*%
X147665064Y-85129682D02*
X147812968Y-84841892D01*
X146937739Y-83362212D02*
X140045274Y-85575140D01*
X138962824Y-83948576D02*
X139177456Y-83530948D01*
X147416970Y-83608503D02*
X146937739Y-83362212D01*
X146575066Y-85479642D02*
X147665064Y-85129682D01*
X140045274Y-85575140D02*
X139374350Y-85230332D01*
X139177455Y-83530948D02*
X140315097Y-83165691D01*
X147812968Y-84841892D02*
X147416970Y-83608504D01*
X139374351Y-85230332D02*
X138962824Y-83948575D01*
%TO.N,Net-(D7-Pad2)*%
X148662623Y-93370056D02*
X149796282Y-93210731D01*
X149796282Y-93210730D02*
X149991013Y-92952314D01*
X141609416Y-91898754D02*
X141422061Y-90565655D01*
X142211860Y-92352728D02*
X141609416Y-91898754D01*
X149991013Y-92952314D02*
X149810728Y-91669521D01*
X149380411Y-91345254D02*
X142211860Y-92352728D01*
X141422062Y-90565655D02*
X141704646Y-90190653D01*
X141704645Y-90190653D02*
X142887857Y-90024363D01*
X149810728Y-91669521D02*
X149380411Y-91345254D01*
%TO.N,Net-(D8-Pad2)*%
X143061414Y-97183331D02*
X144255664Y-97220862D01*
X150520931Y-101536612D02*
X150756805Y-101315112D01*
X150756804Y-101315112D02*
X150797493Y-100020351D01*
X142676839Y-98850298D02*
X142719124Y-97504762D01*
X149376695Y-101500653D02*
X150520930Y-101536612D01*
X143193221Y-99400189D02*
X142676839Y-98850298D01*
X150428649Y-99627572D02*
X143193221Y-99400190D01*
X142719124Y-97504762D02*
X143061413Y-97183331D01*
X150797494Y-100020351D02*
X150428649Y-99627572D01*
%TO.N,Net-(D10-Pad4)*%
X142960718Y-106511850D02*
X142545468Y-105882090D01*
X150087994Y-109686224D02*
X150348470Y-108417282D01*
X148696443Y-109634150D02*
X149817861Y-109864344D01*
X150348470Y-108417282D02*
X150051863Y-107967453D01*
X149817861Y-109864344D02*
X150087994Y-109686224D01*
X142816158Y-104563386D02*
X143208163Y-104304906D01*
X143208163Y-104304906D02*
X144378599Y-104545162D01*
X142545467Y-105882090D02*
X142816158Y-104563386D01*
X150051863Y-107967454D02*
X142960718Y-106511851D01*
%TO.N,Net-(D10-Pad2)*%
X142140612Y-111347540D02*
X143253075Y-111783509D01*
X147707591Y-117950888D02*
X148004100Y-117821346D01*
X148261047Y-116121506D02*
X141521134Y-113480163D01*
X141219134Y-112788913D02*
X141710331Y-111535526D01*
X146641718Y-117533177D02*
X147707591Y-117950888D01*
X141521134Y-113480163D02*
X141219134Y-112788913D01*
X148476762Y-116615257D02*
X148261048Y-116121507D01*
X148004100Y-117821346D02*
X148476761Y-116615256D01*
X141710331Y-111535525D02*
X142140612Y-111347540D01*
%TO.N,Net-(D11-Pad2)*%
X143272487Y-124967207D02*
X144251708Y-125560244D01*
X144251708Y-125560244D02*
X144565940Y-125483061D01*
X144565940Y-125483061D02*
X145236992Y-124375022D01*
X139433917Y-118217705D02*
X139889916Y-118105701D01*
X145236992Y-124375023D02*
X145108467Y-123851761D01*
X138736549Y-119369196D02*
X139433917Y-118217705D01*
X138916484Y-120101763D02*
X138736548Y-119369196D01*
X139889916Y-118105701D02*
X140911939Y-118724660D01*
X145108466Y-123851761D02*
X138916484Y-120101763D01*
%TO.N,Net-(D12-Pad2)*%
X138687077Y-131719283D02*
X139551069Y-132470339D01*
X140686125Y-130932615D02*
X135222782Y-126183404D01*
X139873852Y-132447768D02*
X140723711Y-131470117D01*
X140723711Y-131470118D02*
X140686125Y-130932615D01*
X135170162Y-125430900D02*
X136053349Y-124414910D01*
X136053349Y-124414909D02*
X136521758Y-124382155D01*
X135222783Y-126183403D02*
X135170163Y-125430899D01*
X136521758Y-124382155D02*
X137423515Y-125166041D01*
X139551068Y-132470340D02*
X139873852Y-132447769D01*
%TO.N,Net-(D13-Pad2)*%
X135123087Y-137157420D02*
X130547827Y-131547597D01*
X134064773Y-138512208D02*
X135068636Y-137693477D01*
X133019310Y-137592352D02*
X133742857Y-138479508D01*
X133742858Y-138479509D02*
X134064774Y-138512208D01*
X131667288Y-129946279D02*
X132134437Y-129993730D01*
X135068636Y-137693477D02*
X135123087Y-137157420D01*
X130624058Y-130797117D02*
X131667288Y-129946279D01*
X132134437Y-129993731D02*
X132889611Y-130919666D01*
X130547827Y-131547597D02*
X130624058Y-130797117D01*
%TO.N,Net-(D14-Pad2)*%
X126855993Y-134776658D02*
X127442544Y-135817619D01*
X125230909Y-135311240D02*
X126403737Y-134650385D01*
X126403737Y-134650386D02*
X126855993Y-134776658D01*
X127308235Y-143499394D02*
X128436805Y-142863477D01*
X128581704Y-142344510D02*
X125028052Y-136037793D01*
X125028052Y-136037794D02*
X125230909Y-135311240D01*
X126434596Y-142415013D02*
X126996583Y-143412379D01*
X126996583Y-143412379D02*
X127308235Y-143499394D01*
X128436806Y-142863477D02*
X128581704Y-142344510D01*
%TO.N,Net-(D15-Pad2)*%
X120840473Y-138591350D02*
X121241284Y-139716958D01*
X121252881Y-146342505D02*
X118824547Y-139522951D01*
X119509129Y-147124988D02*
X119801423Y-147263779D01*
X119801423Y-147263780D02*
X121021764Y-146829236D01*
X119148111Y-138841528D02*
X120416309Y-138389943D01*
X120416309Y-138389943D02*
X120840473Y-138591351D01*
X118824548Y-139522951D02*
X119148112Y-138841528D01*
X121021765Y-146829236D02*
X121252882Y-146342505D01*
X119125104Y-146046521D02*
X119509129Y-147124988D01*
%TO.N,Net-(D16-Pad2)*%
X113879742Y-141055815D02*
X114263435Y-141326480D01*
X111304156Y-148380892D02*
X111499012Y-149508987D01*
X111499012Y-149508987D02*
X111763417Y-149695504D01*
X113350505Y-149034725D02*
X112118358Y-141901357D01*
X111763417Y-149695504D02*
X113039914Y-149475015D01*
X113039915Y-149475015D02*
X113350506Y-149034725D01*
X112553186Y-141284951D02*
X113879742Y-141055815D01*
X114263434Y-141326480D02*
X114466807Y-142503885D01*
X112118359Y-141901357D02*
X112553186Y-141284951D01*
%TO.N,Net-(D19-Pad2)*%
X91661075Y-141551037D02*
X92929273Y-142002622D01*
X88064587Y-148925271D02*
X88551318Y-148694154D01*
X90979652Y-141874601D02*
X91661075Y-141551037D01*
X92929273Y-142002622D02*
X93130681Y-142426786D01*
X93130681Y-142426786D02*
X92729870Y-143552394D01*
X88551318Y-148694154D02*
X90979652Y-141874600D01*
X87089479Y-147119966D02*
X86705454Y-148198433D01*
X86705455Y-148198433D02*
X86844246Y-148490727D01*
X86844246Y-148490727D02*
X88064587Y-148925271D01*
%TO.N,Net-(D20-Pad2)*%
X79553288Y-143985905D02*
X78991301Y-144983271D01*
X78991301Y-144983271D02*
X79078316Y-145294923D01*
X80725853Y-145785942D02*
X84279505Y-139479225D01*
X86178887Y-139937223D02*
X86305159Y-140389479D01*
X85006059Y-139276368D02*
X86178887Y-139937223D01*
X86305159Y-140389478D02*
X85718608Y-141430439D01*
X79078316Y-145294924D02*
X80206886Y-145930841D01*
X80206887Y-145930840D02*
X80725854Y-145785942D01*
X84279506Y-139479225D02*
X85006060Y-139276368D01*
%TO.N,Net-(D21-Pad2)*%
X78835324Y-135902144D02*
X79878554Y-136752982D01*
X79926005Y-137220131D02*
X79170831Y-138146066D01*
X71936965Y-140502003D02*
X71969664Y-140823919D01*
X72973527Y-141642649D02*
X73509584Y-141588198D01*
X79878554Y-136752982D02*
X79926005Y-137220131D01*
X73509584Y-141588198D02*
X78084844Y-135978375D01*
X78084844Y-135978375D02*
X78835324Y-135902144D01*
X71969664Y-140823918D02*
X72973527Y-141642649D01*
X72660512Y-139614846D02*
X71936965Y-140502002D01*
%TO.N,Net-(D22-Pad2)*%
X72576454Y-131474220D02*
X73328958Y-131526840D01*
X73328958Y-131526840D02*
X74212145Y-132542830D01*
X74179390Y-133011239D02*
X73277633Y-133795125D01*
X66575608Y-136185845D02*
X67113111Y-136223431D01*
X74212144Y-132542830D02*
X74179390Y-133011239D01*
X65748320Y-134885410D02*
X65725749Y-135208194D01*
X66612312Y-134134354D02*
X65748320Y-134885410D01*
X67113111Y-136223431D02*
X72576454Y-131474220D01*
X65725749Y-135208194D02*
X66575608Y-136185845D01*
%TO.N,Net-(D23-Pad2)*%
X60528796Y-128611642D02*
X61199848Y-129719681D01*
X61585200Y-127704373D02*
X60605979Y-128297410D01*
X60605979Y-128297410D02*
X60528796Y-128611642D01*
X67915092Y-126098209D02*
X68647659Y-126278145D01*
X68647659Y-126278144D02*
X69345027Y-127429635D01*
X69233023Y-127885635D02*
X68211000Y-128504594D01*
X69345027Y-127429636D02*
X69233023Y-127885635D01*
X61199848Y-129719681D02*
X61723110Y-129848206D01*
X61723110Y-129848206D02*
X67915092Y-126098208D01*
%TO.N,Net-(D24-Pad2)*%
X64236798Y-120007237D02*
X64928048Y-120309237D01*
X56660015Y-120930267D02*
X56530473Y-121226776D01*
X64928048Y-120309237D02*
X65419245Y-121562624D01*
X57496885Y-122648580D02*
X64236798Y-120007237D01*
X57725888Y-120512556D02*
X56660015Y-120930267D01*
X56530473Y-121226776D02*
X57003134Y-122432866D01*
X57003135Y-122432866D02*
X57496885Y-122648580D01*
X65231260Y-121992905D02*
X64118797Y-122428874D01*
X65419246Y-121562624D02*
X65231261Y-121992905D01*
%TO.N,Net-(D25-Pad2)*%
X62290891Y-115505025D02*
X61120455Y-115745281D01*
X61648919Y-113379065D02*
X62278679Y-113794315D01*
X55147007Y-112768791D02*
X54025589Y-112998985D01*
X62549370Y-115113019D02*
X62290890Y-115505024D01*
X54025589Y-112998985D02*
X53847469Y-113269118D01*
X62278679Y-113794315D02*
X62549370Y-115113019D01*
X53847469Y-113269119D02*
X54107945Y-114538061D01*
X54107945Y-114538060D02*
X54557774Y-114834667D01*
X54557774Y-114834668D02*
X61648919Y-113379065D01*
%TO.N,Net-(D26-Pad2)*%
X52779584Y-104735033D02*
X52558084Y-104970907D01*
X52558084Y-104970907D02*
X52598773Y-106265668D01*
X60819157Y-108269048D02*
X60497726Y-108611337D01*
X60226981Y-106407130D02*
X60776872Y-106923512D01*
X52991553Y-106634512D02*
X60226981Y-106407130D01*
X52598773Y-106265668D02*
X52991552Y-106634513D01*
X53923819Y-104699074D02*
X52779584Y-104735033D01*
X60497726Y-108611337D02*
X59303476Y-108648868D01*
X60776872Y-106923512D02*
X60819157Y-108269048D01*
%TO.N,Net-(D27-Pad2)*%
X60279100Y-101230446D02*
X59904098Y-101513030D01*
X52519663Y-97857112D02*
X52843930Y-98287429D01*
X52699948Y-96574319D02*
X52519663Y-97857112D01*
X60012481Y-99294903D02*
X60466455Y-99897347D01*
X52958364Y-96379588D02*
X52699948Y-96574319D01*
X60466455Y-99897347D02*
X60279100Y-101230446D01*
X52843930Y-98287429D02*
X60012481Y-99294903D01*
X59904098Y-101513030D02*
X58720886Y-101346740D01*
X54092023Y-96538913D02*
X52958364Y-96379588D01*
%TO.N,Net-(D28-Pad2)*%
X54119215Y-90037020D02*
X61011680Y-92249948D01*
X54268921Y-88324400D02*
X53872923Y-89557788D01*
X53872923Y-89557789D02*
X54119214Y-90037020D01*
X54556711Y-88176496D02*
X54268921Y-88324400D01*
X60527332Y-94417260D02*
X59389690Y-94052003D01*
X61356487Y-92920872D02*
X60944960Y-94202629D01*
X61011679Y-92249948D02*
X61356487Y-92920872D01*
X60944960Y-94202629D02*
X60527332Y-94417261D01*
X55646709Y-88526456D02*
X54556711Y-88176496D01*
%TO.N,Net-(D29-Pad2)*%
X56780188Y-82124067D02*
X63195416Y-85477867D01*
X58542505Y-80895540D02*
X57527979Y-80365159D01*
X62797306Y-87390698D02*
X62349240Y-87531113D01*
X63195416Y-85477867D02*
X63420995Y-86197690D01*
X57219214Y-80461920D02*
X56619060Y-81609908D01*
X62349239Y-87531113D02*
X61290368Y-86977548D01*
X56619060Y-81609908D02*
X56780188Y-82124067D01*
X57527980Y-80365159D02*
X57219214Y-80461920D01*
X63420995Y-86197691D02*
X62797306Y-87390698D01*
%TO.N,Net-(D30-Pad2)*%
X61785455Y-73173543D02*
X61464725Y-73216337D01*
X66599726Y-79924013D02*
X65782077Y-80993454D01*
X65316649Y-81055556D02*
X64367451Y-80329839D01*
X62694901Y-73868867D02*
X61785455Y-73173543D01*
X60677930Y-74245422D02*
X60749192Y-74779504D01*
X60749192Y-74779505D02*
X66499959Y-79176299D01*
X66499960Y-79176298D02*
X66599726Y-79924013D01*
X65782077Y-80993454D02*
X65316649Y-81055555D01*
X61464725Y-73216338D02*
X60677930Y-74245423D01*
%TO.N,Net-(D31-Pad2)*%
X65910394Y-68217676D02*
X70828870Y-73529146D01*
X67982710Y-67651505D02*
X67204886Y-66811531D01*
X65931078Y-67679258D02*
X65910394Y-68217676D01*
X69342959Y-75179571D02*
X68531135Y-74302881D01*
X66881552Y-66799110D02*
X65931078Y-67679258D01*
X70799912Y-74282932D02*
X69812165Y-75197596D01*
X70828870Y-73529147D02*
X70799912Y-74282933D01*
X69812165Y-75197596D02*
X69342958Y-75179571D01*
X67204886Y-66811531D02*
X66881552Y-66799110D01*
%TO.N,Net-(D32-Pad2)*%
X76055811Y-68701221D02*
X75898975Y-69439078D01*
X73628110Y-61464793D02*
X73311609Y-61397519D01*
X74310665Y-70074646D02*
X73659908Y-69072569D01*
X74769957Y-70172271D02*
X74310665Y-70074645D01*
X75898975Y-69439078D02*
X74769957Y-70172271D01*
X74251613Y-62424903D02*
X73628110Y-61464793D01*
X73311609Y-61397518D02*
X72225195Y-62103043D01*
X72225195Y-62103044D02*
X72113169Y-62630085D01*
X72113169Y-62630085D02*
X76055811Y-68701221D01*
%TO.N,Net-(D33-Pad2)*%
X81748101Y-65533815D02*
X80510761Y-66064140D01*
X79376593Y-57679517D02*
X79176494Y-58179799D01*
X80567241Y-57169204D02*
X79376593Y-57679516D01*
X82028239Y-64833420D02*
X81748101Y-65533815D01*
X80867673Y-57289368D02*
X80567241Y-57169204D01*
X80074788Y-65889763D02*
X79604090Y-64791543D01*
X80510761Y-66064140D02*
X80074788Y-65889763D01*
X81318657Y-58341595D02*
X80867672Y-57289369D01*
X79176494Y-58179799D02*
X82028239Y-64833420D01*
%TO.N,Net-(D34-Pad2)*%
X86867038Y-62993094D02*
X86467107Y-62747055D01*
X87176562Y-54537774D02*
X86894230Y-54996698D01*
X88436696Y-54237567D02*
X87176562Y-54537773D01*
X88712291Y-54407115D02*
X88436696Y-54237568D01*
X86894231Y-54996697D02*
X88571854Y-62038622D01*
X88571854Y-62038622D02*
X88176590Y-62681115D01*
X88176589Y-62681115D02*
X86867038Y-62993094D01*
X88977596Y-55520748D02*
X88712291Y-54407114D01*
X86467108Y-62747055D02*
X86190206Y-61584743D01*
%TD*%
M02*
