M48
; DRILL file {KiCad (6.0.7)} date Thu Oct 20 10:19:37 2022
; FORMAT={-:-/ absolute / inch / decimal}
; #@! TF.CreationDate,2022-10-20T10:19:37-04:00
; #@! TF.GenerationSoftware,Kicad,Pcbnew,(6.0.7)
; #@! TF.FileFunction,Plated,1,4,PTH
FMAT,2
INCH
; #@! TA.AperFunction,Plated,PTH,ViaDrill
T1C0.0157
; #@! TA.AperFunction,Plated,PTH,ComponentDrill
T2C0.0236
; #@! TA.AperFunction,Plated,PTH,ComponentDrill
T3C0.0256
%
G90
G05
T1
X2.074Y-4.0605
X2.0918Y-3.7318
X2.1124Y-4.3875
X2.1652Y-3.4109
X2.2059Y-4.7031
X2.2923Y-3.1072
X2.3517Y-4.9982
X2.3588Y-4.0516
X2.374Y-3.7715
X2.3915Y-4.3302
X2.4366Y-3.498
X2.4692Y-2.8296
X2.4712Y-4.5991
X2.479Y-4.19
X2.536Y-3.6
X2.5449Y-3.2393
X2.5457Y-5.2642
X2.5955Y-4.8506
X2.68Y-3.327
X2.6907Y-2.5861
X2.6956Y-3.0027
X2.7608Y-5.0772
X2.7821Y-5.4933
X2.8844Y-2.7952
X2.9505Y-2.3839
X2.9622Y-5.2725
X2.99Y-3.87
X3.02Y-3.81
X3.054Y-5.6788
X3.056Y-4.26
X3.1057Y-2.6229
X3.1939Y-5.4305
X3.2002Y-4.5271
X3.23Y-4.04
X3.2402Y-4.3786
X3.2409Y-2.2288
X3.284Y-3.327
X3.319Y-4.268
X3.3531Y-2.4908
X3.3536Y-5.8153
X3.4492Y-5.5469
X3.49Y-4.46
X3.519Y-4.0644
X3.5534Y-2.1255
X3.5556Y-3.9644
X3.579Y-4.214
X3.6195Y-2.4027
X3.672Y-5.8989
X3.7205Y-5.618
X3.878Y-3.4
X3.88Y-2.39
X3.91Y-2.67
X3.969Y-2.403
X3.999Y-2.581
X4.0Y-5.642
X4.0Y-5.927
X4.033Y-2.4424
X4.205Y-2.58
X4.24Y-2.25
X4.2795Y-5.618
X4.328Y-5.8989
X4.377Y-3.4
X4.3805Y-2.4027
X4.418Y-4.2147
X4.423Y-3.6144
X4.431Y-3.854
X4.4466Y-2.1255
X4.453Y-4.015
X4.4925Y-4.1875
X4.5508Y-5.5469
X4.603Y-4.089
X4.6464Y-5.8153
X4.6469Y-2.4908
X4.7591Y-2.2288
X4.8061Y-5.4305
X4.879Y-3.959
X4.8835Y-3.6578
X4.8943Y-2.6229
X4.94Y-4.48
X4.946Y-5.6788
X5.0378Y-5.2725
X5.0495Y-2.3839
X5.1156Y-2.7952
X5.2179Y-5.4933
X5.2392Y-5.0772
X5.3044Y-3.0027
X5.3093Y-2.5861
X5.4045Y-4.8506
X5.4543Y-5.2642
X5.4551Y-3.2393
X5.46Y-4.3
X5.5288Y-4.5991
X5.5308Y-2.8296
X5.5634Y-3.498
X5.6085Y-4.3302
X5.626Y-3.7715
X5.6412Y-4.0516
X5.6483Y-4.9982
X5.7077Y-3.1072
X5.7941Y-4.7031
X5.8348Y-3.4109
X5.8876Y-4.3875
X5.9082Y-3.7318
X5.926Y-4.0605
T3
X3.33Y-4.36
X3.33Y-4.41
X3.33Y-4.46
X3.38Y-4.36
X3.38Y-4.41
X3.38Y-4.46
X3.3889Y-3.7651
X3.3889Y-3.8151
X3.3889Y-3.8651
X3.3889Y-3.9151
X3.3889Y-3.9651
X3.4389Y-3.7651
X3.4389Y-3.8151
X3.4389Y-3.8651
X3.4389Y-3.9151
X3.4389Y-3.9651
T2
G00X3.8299Y-2.1508
M15
G01X3.8299Y-2.0917
M16
G05
G00X3.8299Y-2.352
M15
G01X3.8299Y-2.3126
M16
G05
G00X4.1701Y-2.1508
M15
G01X4.1701Y-2.0917
M16
G05
G00X4.1701Y-2.352
M15
G01X4.1701Y-2.3126
M16
G05
T0
M30
