%TF.GenerationSoftware,KiCad,Pcbnew,(6.0.7)*%
%TF.CreationDate,2022-10-20T10:19:37-04:00*%
%TF.ProjectId,SpiritBall,53706972-6974-4426-916c-6c2e6b696361,rev?*%
%TF.SameCoordinates,Original*%
%TF.FileFunction,Legend,Bot*%
%TF.FilePolarity,Positive*%
%FSLAX46Y46*%
G04 Gerber Fmt 4.6, Leading zero omitted, Abs format (unit mm)*
G04 Created by KiCad (PCBNEW (6.0.7)) date 2022-10-20 10:19:37*
%MOMM*%
%LPD*%
G01*
G04 APERTURE LIST*
%ADD10C,0.990600*%
%ADD11C,2.374900*%
%ADD12R,1.000000X1.000000*%
%ADD13O,1.000000X1.000000*%
G04 APERTURE END LIST*
%TO.C,G\u002A\u002A\u002A*%
G36*
X92447342Y-104025129D02*
G01*
X92610442Y-104079391D01*
X92757018Y-104198389D01*
X92785602Y-104227708D01*
X92884718Y-104360148D01*
X92930911Y-104515650D01*
X92942605Y-104748864D01*
X92943344Y-105114485D01*
X96092605Y-108264270D01*
X99241867Y-111414054D01*
X99241867Y-114097127D01*
X99242212Y-114595954D01*
X99244056Y-115195872D01*
X99247807Y-115680847D01*
X99253821Y-116061651D01*
X99262452Y-116349059D01*
X99274055Y-116553844D01*
X99288985Y-116686780D01*
X99307597Y-116758641D01*
X99330246Y-116780200D01*
X99339493Y-116780995D01*
X99448205Y-116836374D01*
X99580246Y-116952238D01*
X99714891Y-117177903D01*
X99754772Y-117449987D01*
X99700718Y-117723170D01*
X99560494Y-117959391D01*
X99341867Y-118120588D01*
X99255112Y-118148230D01*
X98994964Y-118156896D01*
X98727869Y-118086729D01*
X98515028Y-117950331D01*
X98415357Y-117829532D01*
X98356987Y-117671548D01*
X98341867Y-117439883D01*
X98342360Y-117377420D01*
X98361170Y-117182486D01*
X98425133Y-117046182D01*
X98558533Y-116909005D01*
X98775200Y-116715413D01*
X98775200Y-111546323D01*
X95709001Y-108480667D01*
X92642801Y-105415011D01*
X92277189Y-105414272D01*
X92220303Y-105413786D01*
X92007503Y-105396511D01*
X91861193Y-105340953D01*
X91726722Y-105228685D01*
X91618216Y-105099465D01*
X91557304Y-104941597D01*
X91541867Y-104713534D01*
X91553461Y-104508071D01*
X91607721Y-104344962D01*
X91726715Y-104198382D01*
X91855927Y-104089887D01*
X92013800Y-104028972D01*
X92241867Y-104013534D01*
X92447342Y-104025129D01*
G37*
G36*
X97113996Y-82691794D02*
G01*
X97277105Y-82746054D01*
X97423685Y-82865049D01*
X97565932Y-83088194D01*
X97620512Y-83364689D01*
X97581199Y-83642540D01*
X97446913Y-83874829D01*
X97430961Y-83891375D01*
X97298846Y-84001722D01*
X97196913Y-84046867D01*
X97184900Y-84048220D01*
X97127436Y-84127218D01*
X97108533Y-84330538D01*
X97108533Y-84614209D01*
X102041867Y-89546191D01*
X102041867Y-92063196D01*
X102041994Y-92356361D01*
X102043460Y-92968212D01*
X102046880Y-93462475D01*
X102052643Y-93850247D01*
X102061139Y-94142626D01*
X102072757Y-94350713D01*
X102087888Y-94485605D01*
X102106921Y-94558401D01*
X102130246Y-94580200D01*
X102139493Y-94580995D01*
X102248205Y-94636374D01*
X102380246Y-94752238D01*
X102514891Y-94977903D01*
X102554772Y-95249987D01*
X102500718Y-95523170D01*
X102360494Y-95759391D01*
X102141867Y-95920588D01*
X102055112Y-95948230D01*
X101794964Y-95956896D01*
X101527869Y-95886729D01*
X101315028Y-95750331D01*
X101215357Y-95629532D01*
X101156987Y-95471548D01*
X101141867Y-95239883D01*
X101142360Y-95177420D01*
X101161170Y-94982486D01*
X101225133Y-94846182D01*
X101358533Y-94709005D01*
X101575200Y-94515413D01*
X101575200Y-89679524D01*
X99108533Y-87213534D01*
X96641867Y-84747543D01*
X96641867Y-84429598D01*
X96641841Y-84415996D01*
X96626109Y-84206403D01*
X96562906Y-84061698D01*
X96425200Y-83918062D01*
X96385359Y-83881696D01*
X96270933Y-83750175D01*
X96220086Y-83605171D01*
X96208533Y-83387184D01*
X96221334Y-83167894D01*
X96275904Y-83008806D01*
X96393382Y-82865049D01*
X96522594Y-82756553D01*
X96680466Y-82695638D01*
X96908534Y-82680200D01*
X97113996Y-82691794D01*
G37*
G36*
X89447114Y-108025097D02*
G01*
X89610305Y-108079302D01*
X89756830Y-108198193D01*
X89864035Y-108326044D01*
X89927342Y-108486937D01*
X89946365Y-108719132D01*
X89951240Y-109055410D01*
X91946137Y-111051138D01*
X93941033Y-113046867D01*
X95977080Y-113046867D01*
X96170671Y-112830200D01*
X96207038Y-112790359D01*
X96338559Y-112675933D01*
X96483562Y-112625086D01*
X96701550Y-112613534D01*
X96920840Y-112626334D01*
X97079928Y-112680904D01*
X97223685Y-112798382D01*
X97328167Y-112921535D01*
X97392201Y-113080414D01*
X97408533Y-113308049D01*
X97375323Y-113574875D01*
X97243293Y-113822426D01*
X97008533Y-113987255D01*
X96937707Y-114010907D01*
X96713786Y-114025008D01*
X96475274Y-113976422D01*
X96259138Y-113879887D01*
X96102346Y-113750138D01*
X96041867Y-113601913D01*
X96035986Y-113584559D01*
X95980903Y-113555775D01*
X95855024Y-113535487D01*
X95642727Y-113522487D01*
X95328391Y-113515571D01*
X94896393Y-113513534D01*
X93750920Y-113513534D01*
X91694710Y-111464277D01*
X89638501Y-109415020D01*
X89275039Y-109414277D01*
X89223418Y-109413863D01*
X89009086Y-109396849D01*
X88861854Y-109341328D01*
X88726722Y-109228685D01*
X88618216Y-109099465D01*
X88557304Y-108941597D01*
X88541867Y-108713534D01*
X88553461Y-108508071D01*
X88607721Y-108344962D01*
X88726715Y-108198382D01*
X88855927Y-108089887D01*
X89013800Y-108028972D01*
X89241867Y-108013534D01*
X89447114Y-108025097D01*
G37*
G36*
X110713996Y-75291794D02*
G01*
X110877105Y-75346054D01*
X111023685Y-75465049D01*
X111165932Y-75688194D01*
X111220512Y-75964689D01*
X111181199Y-76242540D01*
X111046913Y-76474829D01*
X111030961Y-76491375D01*
X110898846Y-76601722D01*
X110796913Y-76646867D01*
X110762908Y-76670975D01*
X110736786Y-76761280D01*
X110720053Y-76934642D01*
X110711154Y-77207793D01*
X110708533Y-77597462D01*
X110708533Y-78548057D01*
X109308533Y-79946867D01*
X107908533Y-81345676D01*
X107908533Y-84029605D01*
X107908880Y-84529481D01*
X107910726Y-85129341D01*
X107914479Y-85614270D01*
X107920493Y-85995040D01*
X107929125Y-86282423D01*
X107940728Y-86487192D01*
X107955657Y-86620119D01*
X107974267Y-86691975D01*
X107996913Y-86713534D01*
X108006159Y-86714329D01*
X108114872Y-86769707D01*
X108246913Y-86885571D01*
X108381557Y-87111236D01*
X108421438Y-87383321D01*
X108367384Y-87656503D01*
X108227161Y-87892724D01*
X108008533Y-88053921D01*
X107921778Y-88081563D01*
X107661631Y-88090229D01*
X107394536Y-88020062D01*
X107181695Y-87883664D01*
X107082024Y-87762866D01*
X107023654Y-87604882D01*
X107008533Y-87373216D01*
X107009027Y-87310754D01*
X107027837Y-87115820D01*
X107091800Y-86979515D01*
X107225200Y-86842338D01*
X107441867Y-86648746D01*
X107441867Y-81212343D01*
X108841867Y-79813534D01*
X110241867Y-78414724D01*
X110241867Y-76711654D01*
X110025200Y-76518062D01*
X109985359Y-76481696D01*
X109870933Y-76350175D01*
X109820086Y-76205171D01*
X109808533Y-75987184D01*
X109821334Y-75767894D01*
X109875904Y-75608806D01*
X109993382Y-75465049D01*
X110122594Y-75356553D01*
X110280466Y-75295638D01*
X110508533Y-75280200D01*
X110713996Y-75291794D01*
G37*
G36*
X119313996Y-100025127D02*
G01*
X119477105Y-100079388D01*
X119623685Y-100198382D01*
X119765932Y-100421527D01*
X119820512Y-100698023D01*
X119781199Y-100975873D01*
X119646913Y-101208163D01*
X119630961Y-101224708D01*
X119498846Y-101335055D01*
X119396913Y-101380200D01*
X119384589Y-101381861D01*
X119340059Y-101439347D01*
X119315846Y-101592432D01*
X119308533Y-101859641D01*
X119308533Y-102339081D01*
X118041867Y-103611820D01*
X116775200Y-104884559D01*
X116775200Y-107079515D01*
X114392214Y-109463191D01*
X113857741Y-109996856D01*
X113390388Y-110460973D01*
X113001289Y-110843860D01*
X112682786Y-111152626D01*
X112427223Y-111394381D01*
X112226945Y-111576237D01*
X112074294Y-111705303D01*
X111961615Y-111788690D01*
X111881251Y-111833508D01*
X111825547Y-111846867D01*
X111700496Y-111868238D01*
X111641867Y-111935246D01*
X111625608Y-111989568D01*
X111530916Y-112117704D01*
X111388687Y-112247702D01*
X111241867Y-112336483D01*
X111144123Y-112361197D01*
X110898623Y-112353380D01*
X110645992Y-112278232D01*
X110448361Y-112150331D01*
X110353476Y-112036956D01*
X110291402Y-111877963D01*
X110275200Y-111646867D01*
X110286794Y-111441405D01*
X110341054Y-111278296D01*
X110460049Y-111131715D01*
X110596571Y-111018550D01*
X110753423Y-110961269D01*
X110982184Y-110946867D01*
X111044647Y-110947360D01*
X111239581Y-110966170D01*
X111375885Y-111030133D01*
X111513062Y-111163534D01*
X111564457Y-111218027D01*
X111697631Y-111333994D01*
X111790559Y-111380200D01*
X111848173Y-111338745D01*
X111991288Y-111211547D01*
X112209546Y-111007750D01*
X112493334Y-110736616D01*
X112833037Y-110407404D01*
X113219042Y-110029375D01*
X113641734Y-109611789D01*
X114091499Y-109163907D01*
X116308533Y-106947613D01*
X116308533Y-104687986D01*
X118841867Y-102142508D01*
X118841867Y-101793748D01*
X118840908Y-101704792D01*
X118820591Y-101517280D01*
X118756313Y-101385234D01*
X118625200Y-101251396D01*
X118585359Y-101215029D01*
X118470933Y-101083508D01*
X118420086Y-100938505D01*
X118408533Y-100720517D01*
X118421334Y-100501227D01*
X118475904Y-100342139D01*
X118593382Y-100198382D01*
X118722594Y-100089887D01*
X118880466Y-100028972D01*
X119108533Y-100013534D01*
X119313996Y-100025127D01*
G37*
G36*
X82511313Y-123747360D02*
G01*
X82706247Y-123766170D01*
X82842552Y-123830133D01*
X82979729Y-123963534D01*
X83173321Y-124180200D01*
X85789610Y-124180200D01*
X86788758Y-125146867D01*
X87787905Y-126113534D01*
X94269302Y-126113534D01*
X96085882Y-124313534D01*
X99604341Y-124313534D01*
X99957991Y-124662790D01*
X100056951Y-124759634D01*
X100215294Y-124900779D01*
X100343118Y-124976355D01*
X100482429Y-125006859D01*
X100675232Y-125012790D01*
X100727172Y-125013208D01*
X100941411Y-125030239D01*
X101088587Y-125085762D01*
X101223678Y-125198382D01*
X101332184Y-125327602D01*
X101393097Y-125485470D01*
X101408533Y-125713534D01*
X101396940Y-125918996D01*
X101342679Y-126082105D01*
X101223685Y-126228685D01*
X101094473Y-126337180D01*
X100936601Y-126398095D01*
X100708533Y-126413534D01*
X100503059Y-126401938D01*
X100339958Y-126347676D01*
X100193382Y-126228678D01*
X100168183Y-126202916D01*
X100067015Y-126069412D01*
X100019779Y-125913858D01*
X100007789Y-125681128D01*
X100004562Y-125533131D01*
X99976288Y-125360712D01*
X99897812Y-125219319D01*
X99744259Y-125049316D01*
X99481474Y-124780200D01*
X96281098Y-124780200D01*
X94464518Y-126580200D01*
X87618538Y-126580200D01*
X86644098Y-125613534D01*
X85669658Y-124646867D01*
X84389096Y-124646867D01*
X83995277Y-124648087D01*
X83636196Y-124653308D01*
X83382926Y-124663603D01*
X83220522Y-124680004D01*
X83134040Y-124703541D01*
X83108533Y-124735246D01*
X83107738Y-124744493D01*
X83052360Y-124853205D01*
X82936496Y-124985246D01*
X82711230Y-125117178D01*
X82433989Y-125159021D01*
X82156845Y-125106941D01*
X81926715Y-124962018D01*
X81818220Y-124832807D01*
X81757305Y-124674934D01*
X81741867Y-124446867D01*
X81753461Y-124241405D01*
X81807721Y-124078296D01*
X81926715Y-123931715D01*
X82063238Y-123818550D01*
X82220090Y-123761269D01*
X82448851Y-123746867D01*
X82511313Y-123747360D01*
G37*
G36*
X125387507Y-108093001D02*
G01*
X125546594Y-108147570D01*
X125690352Y-108265049D01*
X125798847Y-108394260D01*
X125859762Y-108552133D01*
X125875200Y-108780200D01*
X125863606Y-108985662D01*
X125809346Y-109148771D01*
X125690352Y-109295352D01*
X125467207Y-109437599D01*
X125190711Y-109492179D01*
X124912861Y-109452865D01*
X124680571Y-109318579D01*
X124664026Y-109302627D01*
X124553679Y-109170513D01*
X124508533Y-109068579D01*
X124494214Y-109040604D01*
X124417414Y-109011594D01*
X124258875Y-108993004D01*
X124001431Y-108983114D01*
X123627922Y-108980200D01*
X122747310Y-108980200D01*
X118705798Y-113013534D01*
X114664287Y-117046867D01*
X114119743Y-117046867D01*
X113961682Y-117048279D01*
X113734426Y-117060790D01*
X113611870Y-117088761D01*
X113575200Y-117135246D01*
X113558941Y-117189568D01*
X113464250Y-117317704D01*
X113322021Y-117447702D01*
X113175200Y-117536483D01*
X113077456Y-117561197D01*
X112831956Y-117553380D01*
X112579325Y-117478232D01*
X112381695Y-117350331D01*
X112286809Y-117236956D01*
X112224736Y-117077963D01*
X112208533Y-116846867D01*
X112220127Y-116641405D01*
X112274388Y-116478296D01*
X112393382Y-116331715D01*
X112529905Y-116218550D01*
X112686756Y-116161269D01*
X112915517Y-116146867D01*
X112977980Y-116147360D01*
X113172914Y-116166170D01*
X113309219Y-116230133D01*
X113446396Y-116363534D01*
X113555289Y-116475334D01*
X113667931Y-116544887D01*
X113818599Y-116574195D01*
X114054872Y-116580200D01*
X114469757Y-116580200D01*
X118511269Y-112546867D01*
X122552780Y-108513534D01*
X124443746Y-108513534D01*
X124637338Y-108296867D01*
X124673705Y-108257025D01*
X124805226Y-108142600D01*
X124950229Y-108091753D01*
X125168216Y-108080200D01*
X125387507Y-108093001D01*
G37*
G36*
X86914008Y-118225129D02*
G01*
X87077109Y-118279391D01*
X87223685Y-118398389D01*
X87251891Y-118427310D01*
X87351236Y-118559868D01*
X87397546Y-118715375D01*
X87409273Y-118948533D01*
X87410012Y-119313822D01*
X88808678Y-120713678D01*
X90207343Y-122113534D01*
X100977080Y-122113534D01*
X101170671Y-121896867D01*
X101207038Y-121857025D01*
X101338559Y-121742600D01*
X101483562Y-121691753D01*
X101701550Y-121680200D01*
X101920840Y-121693001D01*
X102079928Y-121747570D01*
X102223685Y-121865049D01*
X102328167Y-121988202D01*
X102392201Y-122147081D01*
X102408533Y-122374716D01*
X102375323Y-122641542D01*
X102243293Y-122889093D01*
X102008533Y-123053921D01*
X101937707Y-123077574D01*
X101713786Y-123091675D01*
X101475274Y-123043089D01*
X101259138Y-122946553D01*
X101102346Y-122816805D01*
X101041867Y-122668579D01*
X101034694Y-122658397D01*
X100988783Y-122643418D01*
X100893784Y-122630389D01*
X100742039Y-122619186D01*
X100525888Y-122609687D01*
X100237674Y-122601768D01*
X99869738Y-122595305D01*
X99414421Y-122590175D01*
X98864065Y-122586255D01*
X98211011Y-122583421D01*
X97447601Y-122581549D01*
X96566176Y-122580517D01*
X95559077Y-122580200D01*
X90076288Y-122580200D01*
X88592594Y-121097606D01*
X87108901Y-119615012D01*
X86743572Y-119614273D01*
X86687376Y-119613797D01*
X86474377Y-119596556D01*
X86327946Y-119541002D01*
X86193389Y-119428685D01*
X86084883Y-119299465D01*
X86023970Y-119141597D01*
X86008533Y-118913534D01*
X86020127Y-118708071D01*
X86074388Y-118544962D01*
X86193382Y-118398382D01*
X86322594Y-118289887D01*
X86480466Y-118228972D01*
X86708533Y-118213534D01*
X86914008Y-118225129D01*
G37*
G36*
X103114008Y-79491795D02*
G01*
X103277109Y-79546058D01*
X103423685Y-79665055D01*
X103457386Y-79699800D01*
X103553396Y-79830666D01*
X103598013Y-79986144D01*
X103609262Y-80220152D01*
X103617878Y-80427750D01*
X103653847Y-80577726D01*
X103725929Y-80655277D01*
X103727722Y-80656384D01*
X103738538Y-80668799D01*
X103748651Y-80693761D01*
X103758084Y-80735585D01*
X103766860Y-80798584D01*
X103775003Y-80887072D01*
X103782537Y-81005363D01*
X103789486Y-81157770D01*
X103795872Y-81348608D01*
X103801719Y-81582190D01*
X103807052Y-81862829D01*
X103811893Y-82194841D01*
X103816266Y-82582537D01*
X103820195Y-83030233D01*
X103823703Y-83542242D01*
X103826814Y-84122878D01*
X103829552Y-84776454D01*
X103831939Y-85507284D01*
X103834000Y-86319683D01*
X103835758Y-87217963D01*
X103837237Y-88206439D01*
X103838460Y-89289424D01*
X103839451Y-90471233D01*
X103840234Y-91756178D01*
X103840831Y-93148574D01*
X103841267Y-94652735D01*
X103841565Y-96272974D01*
X103841748Y-98013604D01*
X103841841Y-99878941D01*
X103841867Y-101873297D01*
X103841867Y-123026435D01*
X105701971Y-124923635D01*
X107562074Y-126820836D01*
X107933659Y-126817185D01*
X108018019Y-126817143D01*
X108219873Y-126833388D01*
X108359460Y-126888001D01*
X108490222Y-126998382D01*
X108594912Y-127121714D01*
X108658889Y-127280497D01*
X108675200Y-127508049D01*
X108641989Y-127774875D01*
X108509960Y-128022426D01*
X108275200Y-128187255D01*
X108188527Y-128214884D01*
X107928336Y-128223586D01*
X107661219Y-128153378D01*
X107448361Y-128016868D01*
X107411270Y-127978175D01*
X107325445Y-127854203D01*
X107286551Y-127699618D01*
X107279012Y-127463529D01*
X107282824Y-127083479D01*
X105362449Y-125141929D01*
X103442075Y-123200378D01*
X103408533Y-80880200D01*
X102993451Y-80880200D01*
X102827930Y-80877559D01*
X102644160Y-80855991D01*
X102515292Y-80800172D01*
X102393451Y-80695352D01*
X102284848Y-80566050D01*
X102223961Y-80408226D01*
X102208533Y-80180200D01*
X102220127Y-79974738D01*
X102274388Y-79811629D01*
X102393382Y-79665049D01*
X102522594Y-79556553D01*
X102680466Y-79495638D01*
X102908534Y-79480200D01*
X103114008Y-79491795D01*
G37*
G36*
X113447329Y-81891794D02*
G01*
X113610438Y-81946054D01*
X113757018Y-82065049D01*
X113899265Y-82288194D01*
X113953845Y-82564689D01*
X113914532Y-82842540D01*
X113780246Y-83074829D01*
X113764294Y-83091375D01*
X113632179Y-83201722D01*
X113530246Y-83246867D01*
X113490101Y-83274938D01*
X113461625Y-83380290D01*
X113446387Y-83581645D01*
X113441867Y-83897543D01*
X113441867Y-84548218D01*
X112208533Y-85780200D01*
X110975200Y-87012182D01*
X110975200Y-89679158D01*
X109425732Y-91229679D01*
X109062731Y-91592699D01*
X108710499Y-91943326D01*
X108431709Y-92217102D01*
X108215121Y-92423532D01*
X108049495Y-92572123D01*
X107923592Y-92672380D01*
X107826170Y-92733811D01*
X107745991Y-92765920D01*
X107671814Y-92778214D01*
X107592399Y-92780200D01*
X107553520Y-92780628D01*
X107369163Y-92805256D01*
X107308533Y-92868579D01*
X107292275Y-92922901D01*
X107197583Y-93051037D01*
X107055354Y-93181035D01*
X106908533Y-93269817D01*
X106810789Y-93294530D01*
X106565290Y-93286713D01*
X106312659Y-93211566D01*
X106115028Y-93083664D01*
X106020143Y-92970289D01*
X105958069Y-92811296D01*
X105941867Y-92580200D01*
X105953461Y-92374738D01*
X106007721Y-92211629D01*
X106126715Y-92065049D01*
X106263238Y-91951883D01*
X106420090Y-91894602D01*
X106648851Y-91880200D01*
X106711313Y-91880694D01*
X106906247Y-91899504D01*
X107042552Y-91963467D01*
X107179729Y-92096867D01*
X107260499Y-92184170D01*
X107355267Y-92266714D01*
X107451091Y-92310015D01*
X107559555Y-92307125D01*
X107692246Y-92251099D01*
X107860750Y-92134990D01*
X108076654Y-91951852D01*
X108351542Y-91694738D01*
X108697002Y-91356701D01*
X109124619Y-90930795D01*
X110508533Y-89548057D01*
X110508533Y-86878849D01*
X111741867Y-85646867D01*
X112975200Y-84414885D01*
X112975200Y-83863270D01*
X112973683Y-83626903D01*
X112961908Y-83437220D01*
X112929220Y-83313591D01*
X112864977Y-83219408D01*
X112758533Y-83118062D01*
X112718692Y-83081696D01*
X112604266Y-82950175D01*
X112553419Y-82805171D01*
X112541867Y-82587184D01*
X112554668Y-82367894D01*
X112609237Y-82208806D01*
X112726715Y-82065049D01*
X112855927Y-81956553D01*
X113013800Y-81895638D01*
X113241867Y-81880200D01*
X113447329Y-81891794D01*
G37*
G36*
X125247329Y-113958461D02*
G01*
X125410438Y-114012721D01*
X125557018Y-114131715D01*
X125665514Y-114260927D01*
X125726429Y-114418800D01*
X125741867Y-114646867D01*
X125730199Y-114852900D01*
X125675847Y-115015626D01*
X125556724Y-115162018D01*
X125489717Y-115224960D01*
X125368444Y-115302648D01*
X125215416Y-115335714D01*
X124980187Y-115339706D01*
X124588794Y-115332544D01*
X122332365Y-117589706D01*
X120075936Y-119846867D01*
X108210536Y-119846867D01*
X106649156Y-118289555D01*
X106313505Y-118284689D01*
X106108609Y-118270490D01*
X105941174Y-118214506D01*
X105793193Y-118095163D01*
X105684913Y-117966198D01*
X105623982Y-117808311D01*
X105608533Y-117580200D01*
X105620127Y-117374738D01*
X105674388Y-117211629D01*
X105793382Y-117065049D01*
X105922594Y-116956553D01*
X106080466Y-116895638D01*
X106308533Y-116880200D01*
X106514008Y-116891795D01*
X106677109Y-116946058D01*
X106823685Y-117065055D01*
X106851208Y-117093257D01*
X106950968Y-117226029D01*
X106997487Y-117381545D01*
X107009274Y-117614603D01*
X107010015Y-117979296D01*
X108406151Y-119380200D01*
X119942624Y-119380200D01*
X122137559Y-117184510D01*
X124332493Y-114988819D01*
X124337368Y-114652503D01*
X124351702Y-114446247D01*
X124407712Y-114279223D01*
X124526904Y-114131527D01*
X124655869Y-114023246D01*
X124813756Y-113962316D01*
X125041867Y-113946867D01*
X125247329Y-113958461D01*
G37*
G36*
X116787507Y-90226334D02*
G01*
X116946594Y-90280904D01*
X117090352Y-90398382D01*
X117198847Y-90527594D01*
X117259762Y-90685466D01*
X117275200Y-90913534D01*
X117263606Y-91118996D01*
X117209346Y-91282105D01*
X117090352Y-91428685D01*
X116867207Y-91570932D01*
X116590711Y-91625512D01*
X116312861Y-91586199D01*
X116080571Y-91451913D01*
X116064026Y-91435961D01*
X115953679Y-91303846D01*
X115908533Y-91201913D01*
X115904018Y-91184565D01*
X115846778Y-91150482D01*
X115709671Y-91128619D01*
X115474924Y-91116971D01*
X115124762Y-91113534D01*
X114340990Y-91113534D01*
X110575200Y-94881062D01*
X110575200Y-99752456D01*
X109553685Y-100766328D01*
X108532169Y-101780200D01*
X107853685Y-101780200D01*
X107843830Y-101780203D01*
X107523707Y-101784676D01*
X107317827Y-101799299D01*
X107207790Y-101826468D01*
X107175200Y-101868579D01*
X107158941Y-101922901D01*
X107064250Y-102051037D01*
X106922021Y-102181035D01*
X106775200Y-102269817D01*
X106677456Y-102294530D01*
X106431956Y-102286713D01*
X106179325Y-102211566D01*
X105981695Y-102083664D01*
X105886809Y-101970289D01*
X105824736Y-101811296D01*
X105808533Y-101580200D01*
X105820127Y-101374738D01*
X105874388Y-101211629D01*
X105993382Y-101065049D01*
X106129905Y-100951883D01*
X106286756Y-100894602D01*
X106515517Y-100880200D01*
X106577980Y-100880694D01*
X106772914Y-100899504D01*
X106909219Y-100963467D01*
X107046396Y-101096867D01*
X107131973Y-101188423D01*
X107224939Y-101259197D01*
X107341140Y-101296512D01*
X107517272Y-101311060D01*
X107790033Y-101313534D01*
X108340079Y-101313534D01*
X109224306Y-100431126D01*
X110108533Y-99548719D01*
X110108533Y-94747661D01*
X114207727Y-90646867D01*
X115843746Y-90646867D01*
X116037338Y-90430200D01*
X116073705Y-90390359D01*
X116205226Y-90275933D01*
X116350229Y-90225086D01*
X116568216Y-90213534D01*
X116787507Y-90226334D01*
G37*
G36*
X87914008Y-113158462D02*
G01*
X88077109Y-113212725D01*
X88223685Y-113331722D01*
X88252184Y-113360952D01*
X88351352Y-113493419D01*
X88397571Y-113648922D01*
X88409272Y-113882123D01*
X88410011Y-114247669D01*
X90875601Y-116713935D01*
X93341191Y-119180200D01*
X100243746Y-119180200D01*
X100437338Y-118963534D01*
X100473705Y-118923692D01*
X100605226Y-118809266D01*
X100750229Y-118758419D01*
X100968216Y-118746867D01*
X101187507Y-118759668D01*
X101346594Y-118814237D01*
X101490352Y-118931715D01*
X101594833Y-119054868D01*
X101658867Y-119213748D01*
X101675200Y-119441383D01*
X101641989Y-119708208D01*
X101509960Y-119955760D01*
X101275200Y-120120588D01*
X101204374Y-120144241D01*
X100980453Y-120158341D01*
X100741941Y-120109756D01*
X100525804Y-120013220D01*
X100369013Y-119883471D01*
X100308533Y-119735246D01*
X100308416Y-119733572D01*
X100284367Y-119713924D01*
X100211960Y-119697343D01*
X100081753Y-119683593D01*
X99884306Y-119672439D01*
X99610177Y-119663646D01*
X99249924Y-119656979D01*
X98794107Y-119652202D01*
X98233284Y-119649081D01*
X97558013Y-119647381D01*
X96758854Y-119646867D01*
X93209175Y-119646867D01*
X90659268Y-117097606D01*
X88109362Y-114548344D01*
X87743803Y-114547606D01*
X87687045Y-114547122D01*
X87474208Y-114529853D01*
X87327876Y-114474295D01*
X87193389Y-114362018D01*
X87084883Y-114232798D01*
X87023970Y-114074930D01*
X87008533Y-113846867D01*
X87020127Y-113641405D01*
X87074388Y-113478296D01*
X87193382Y-113331715D01*
X87322594Y-113223220D01*
X87480466Y-113162305D01*
X87708533Y-113146867D01*
X87914008Y-113158462D01*
G37*
G36*
X95047342Y-100491795D02*
G01*
X95210442Y-100546058D01*
X95357018Y-100665055D01*
X95385465Y-100694229D01*
X95484664Y-100826712D01*
X95530899Y-100982216D01*
X95542606Y-101215410D01*
X95543345Y-101580909D01*
X97692606Y-103730933D01*
X97933548Y-103972092D01*
X98403646Y-104443864D01*
X98790448Y-104834640D01*
X99101916Y-105153189D01*
X99346015Y-105408280D01*
X99530710Y-105608682D01*
X99663964Y-105763162D01*
X99753743Y-105880490D01*
X99808010Y-105969435D01*
X99834730Y-106038763D01*
X99841867Y-106097246D01*
X99864072Y-106252887D01*
X99930246Y-106313534D01*
X99939493Y-106314329D01*
X100048205Y-106369707D01*
X100180246Y-106485571D01*
X100314891Y-106711236D01*
X100354772Y-106983321D01*
X100300718Y-107256503D01*
X100160494Y-107492724D01*
X99941867Y-107653921D01*
X99855112Y-107681563D01*
X99594964Y-107690229D01*
X99327869Y-107620062D01*
X99115028Y-107483664D01*
X99015357Y-107362866D01*
X98956987Y-107204882D01*
X98941867Y-106973216D01*
X98942360Y-106910754D01*
X98961170Y-106715820D01*
X99025133Y-106579515D01*
X99158533Y-106442338D01*
X99210638Y-106392311D01*
X99328250Y-106245833D01*
X99375200Y-106130737D01*
X99359093Y-106099578D01*
X99261546Y-105977904D01*
X99083571Y-105778111D01*
X98834355Y-105509909D01*
X98523089Y-105183007D01*
X98158960Y-104807115D01*
X97751157Y-104391944D01*
X97308869Y-103947203D01*
X95242539Y-101881678D01*
X94877058Y-101880939D01*
X94820491Y-101880458D01*
X94607599Y-101863198D01*
X94461233Y-101807642D01*
X94326722Y-101695352D01*
X94218216Y-101566131D01*
X94157304Y-101408264D01*
X94141867Y-101180200D01*
X94153461Y-100974738D01*
X94207721Y-100811629D01*
X94326715Y-100665049D01*
X94455927Y-100556553D01*
X94613800Y-100495638D01*
X94841867Y-100480200D01*
X95047342Y-100491795D01*
G37*
G36*
X105513996Y-63158461D02*
G01*
X105677105Y-63212721D01*
X105823685Y-63331715D01*
X105965932Y-63554860D01*
X106020512Y-63831356D01*
X105981199Y-64109206D01*
X105846913Y-64341496D01*
X105830961Y-64358041D01*
X105698846Y-64468388D01*
X105596913Y-64513534D01*
X105576123Y-64532058D01*
X105557585Y-64599583D01*
X105542589Y-64726727D01*
X105530807Y-64924018D01*
X105521908Y-65201987D01*
X105515561Y-65571164D01*
X105511437Y-66042079D01*
X105509204Y-66625262D01*
X105508533Y-67331242D01*
X105508533Y-70148951D01*
X103908533Y-71744783D01*
X103908533Y-78216035D01*
X105242891Y-79545385D01*
X105607524Y-79546126D01*
X105662020Y-79546578D01*
X105875514Y-79563736D01*
X106022241Y-79619277D01*
X106157012Y-79731715D01*
X106261504Y-79854877D01*
X106325535Y-80013752D01*
X106341867Y-80241383D01*
X106308656Y-80508208D01*
X106176627Y-80755760D01*
X105941867Y-80920588D01*
X105855116Y-80948229D01*
X105594966Y-80956897D01*
X105327870Y-80886728D01*
X105115028Y-80750325D01*
X105100512Y-80735581D01*
X105000899Y-80604669D01*
X104953501Y-80447990D01*
X104941126Y-80212360D01*
X104940386Y-79847563D01*
X104191126Y-79096172D01*
X103441867Y-78344781D01*
X103441867Y-71544783D01*
X105041867Y-69948951D01*
X105041867Y-64578321D01*
X104825200Y-64384729D01*
X104785359Y-64348362D01*
X104670933Y-64216841D01*
X104620086Y-64071838D01*
X104608533Y-63853851D01*
X104621334Y-63634560D01*
X104675904Y-63475473D01*
X104793382Y-63331715D01*
X104922594Y-63223220D01*
X105080466Y-63162305D01*
X105308533Y-63146867D01*
X105513996Y-63158461D01*
G37*
G36*
X100513996Y-80358461D02*
G01*
X100677105Y-80412721D01*
X100823685Y-80531715D01*
X100965932Y-80754860D01*
X101020512Y-81031356D01*
X100981199Y-81309206D01*
X100846913Y-81541496D01*
X100830961Y-81558041D01*
X100698846Y-81668388D01*
X100596913Y-81713534D01*
X100583637Y-81718693D01*
X100560488Y-81766079D01*
X100542374Y-81873128D01*
X100528759Y-82052116D01*
X100519104Y-82315320D01*
X100512873Y-82675015D01*
X100509529Y-83143478D01*
X100508533Y-83732986D01*
X100508533Y-85752439D01*
X100810614Y-86048909D01*
X100983675Y-86210296D01*
X101120423Y-86300601D01*
X101267448Y-86338279D01*
X101475759Y-86346123D01*
X101526399Y-86346523D01*
X101741018Y-86363489D01*
X101888423Y-86419002D01*
X102023678Y-86531715D01*
X102128171Y-86654877D01*
X102192202Y-86813752D01*
X102208533Y-87041383D01*
X102175323Y-87308208D01*
X102043293Y-87555760D01*
X101808533Y-87720588D01*
X101721782Y-87748229D01*
X101461633Y-87756897D01*
X101194537Y-87686728D01*
X100981695Y-87550325D01*
X100968356Y-87536795D01*
X100868036Y-87405543D01*
X100820272Y-87248846D01*
X100807791Y-87013370D01*
X100805189Y-86866243D01*
X100784906Y-86722584D01*
X100727620Y-86599462D01*
X100613935Y-86458909D01*
X100424458Y-86262959D01*
X100041867Y-85876334D01*
X100041867Y-81778321D01*
X99825200Y-81584729D01*
X99785359Y-81548362D01*
X99670933Y-81416841D01*
X99620086Y-81271838D01*
X99608533Y-81053851D01*
X99621334Y-80834560D01*
X99675904Y-80675473D01*
X99793382Y-80531715D01*
X99922594Y-80423220D01*
X100080466Y-80362305D01*
X100308533Y-80346867D01*
X100513996Y-80358461D01*
G37*
G36*
X117654173Y-96226334D02*
G01*
X117813261Y-96280904D01*
X117957018Y-96398382D01*
X118065514Y-96527594D01*
X118126429Y-96685466D01*
X118141867Y-96913534D01*
X118130273Y-97118996D01*
X118076013Y-97282105D01*
X117957018Y-97428685D01*
X117733873Y-97570932D01*
X117457378Y-97625512D01*
X117179527Y-97586199D01*
X116947238Y-97451913D01*
X116930692Y-97435961D01*
X116820345Y-97303846D01*
X116775200Y-97201913D01*
X116771160Y-97166923D01*
X116726034Y-97113534D01*
X116721027Y-97115426D01*
X116643960Y-97177760D01*
X116490999Y-97317819D01*
X116277073Y-97521436D01*
X116017109Y-97774443D01*
X115726034Y-98062671D01*
X114775200Y-99011809D01*
X114775200Y-104081181D01*
X111407572Y-107446867D01*
X110258053Y-107446867D01*
X110027972Y-107447340D01*
X109655373Y-107451623D01*
X109392731Y-107461356D01*
X109224443Y-107477737D01*
X109134911Y-107501968D01*
X109108533Y-107535246D01*
X109092275Y-107589568D01*
X108997583Y-107717704D01*
X108855354Y-107847702D01*
X108708533Y-107936483D01*
X108610789Y-107961197D01*
X108365290Y-107953380D01*
X108112659Y-107878232D01*
X107915028Y-107750331D01*
X107820143Y-107636956D01*
X107758069Y-107477963D01*
X107741867Y-107246867D01*
X107753461Y-107041405D01*
X107807721Y-106878296D01*
X107926715Y-106731715D01*
X108063238Y-106618550D01*
X108220090Y-106561269D01*
X108448851Y-106546867D01*
X108511313Y-106547360D01*
X108706247Y-106566170D01*
X108842552Y-106630133D01*
X108979729Y-106763534D01*
X109173321Y-106980200D01*
X111274136Y-106980200D01*
X112791335Y-105464077D01*
X114308533Y-103947954D01*
X114308533Y-98881630D01*
X115424465Y-97764248D01*
X115627474Y-97562377D01*
X115929138Y-97267837D01*
X116193887Y-97015874D01*
X116407597Y-96819631D01*
X116556144Y-96692248D01*
X116625404Y-96646867D01*
X116652977Y-96639902D01*
X116766685Y-96563587D01*
X116904005Y-96430200D01*
X116940371Y-96390359D01*
X117071892Y-96275933D01*
X117216896Y-96225086D01*
X117434883Y-96213534D01*
X117654173Y-96226334D01*
G37*
G36*
X93577980Y-94680694D02*
G01*
X93772914Y-94699504D01*
X93909219Y-94763467D01*
X94046396Y-94896867D01*
X94133581Y-94990007D01*
X94226320Y-95059935D01*
X94342854Y-95096772D01*
X94519696Y-95111108D01*
X94793354Y-95113534D01*
X95346720Y-95113534D01*
X96527627Y-96301070D01*
X97708533Y-97488607D01*
X97708533Y-99282582D01*
X98408986Y-99980651D01*
X99109438Y-100678719D01*
X99474131Y-100679460D01*
X99528774Y-100679914D01*
X99742224Y-100697079D01*
X99888926Y-100752621D01*
X100023678Y-100865049D01*
X100128171Y-100988211D01*
X100192202Y-101147085D01*
X100208533Y-101374716D01*
X100175323Y-101641542D01*
X100043293Y-101889093D01*
X99808533Y-102053921D01*
X99721782Y-102081562D01*
X99461633Y-102090231D01*
X99194537Y-102020062D01*
X98981695Y-101883658D01*
X98967126Y-101868860D01*
X98867545Y-101737963D01*
X98820163Y-101581285D01*
X98807793Y-101345648D01*
X98807053Y-100980805D01*
X97241867Y-99411531D01*
X97241867Y-97681716D01*
X96192648Y-96630958D01*
X95143430Y-95580200D01*
X94659315Y-95580200D01*
X94585679Y-95580566D01*
X94345257Y-95591333D01*
X94214620Y-95619541D01*
X94175200Y-95668579D01*
X94174405Y-95677826D01*
X94119027Y-95786539D01*
X94003163Y-95918579D01*
X93777897Y-96050511D01*
X93500655Y-96092354D01*
X93223512Y-96040275D01*
X92993382Y-95895352D01*
X92884887Y-95766140D01*
X92823972Y-95608267D01*
X92808533Y-95380200D01*
X92820127Y-95174738D01*
X92874388Y-95011629D01*
X92993382Y-94865049D01*
X93129905Y-94751883D01*
X93286756Y-94694602D01*
X93515517Y-94680200D01*
X93577980Y-94680694D01*
G37*
G36*
X129320840Y-118759668D02*
G01*
X129479928Y-118814237D01*
X129623685Y-118931715D01*
X129732180Y-119060927D01*
X129793095Y-119218800D01*
X129808533Y-119446867D01*
X129796940Y-119652329D01*
X129742679Y-119815438D01*
X129623685Y-119962018D01*
X129400540Y-120104265D01*
X129124044Y-120158845D01*
X128846194Y-120119532D01*
X128613904Y-119985246D01*
X128597359Y-119969294D01*
X128487012Y-119837179D01*
X128441867Y-119735246D01*
X128439230Y-119725422D01*
X128398799Y-119701191D01*
X128299866Y-119682238D01*
X128129960Y-119667998D01*
X127876613Y-119657906D01*
X127527355Y-119651396D01*
X127069715Y-119647905D01*
X126491226Y-119646867D01*
X124540585Y-119646867D01*
X121943149Y-122246867D01*
X107062532Y-122246867D01*
X106935533Y-122388069D01*
X106821845Y-122493007D01*
X106675200Y-122587255D01*
X106588445Y-122614896D01*
X106328298Y-122623563D01*
X106061202Y-122553396D01*
X105848361Y-122416998D01*
X105753476Y-122303622D01*
X105691402Y-122144630D01*
X105675200Y-121913534D01*
X105686794Y-121708071D01*
X105741054Y-121544962D01*
X105860049Y-121398382D01*
X105983202Y-121293900D01*
X106142081Y-121229866D01*
X106369716Y-121213534D01*
X106658122Y-121253018D01*
X106895461Y-121391059D01*
X107047868Y-121630200D01*
X107105233Y-121780200D01*
X121743149Y-121780200D01*
X124340585Y-119180200D01*
X128377080Y-119180200D01*
X128570671Y-118963534D01*
X128607038Y-118923692D01*
X128738559Y-118809266D01*
X128883562Y-118758419D01*
X129101550Y-118746867D01*
X129320840Y-118759668D01*
G37*
G36*
X107847329Y-69025127D02*
G01*
X108010438Y-69079388D01*
X108157018Y-69198382D01*
X108265514Y-69327594D01*
X108326429Y-69485466D01*
X108341867Y-69713534D01*
X108330256Y-69919129D01*
X108275974Y-70082149D01*
X108156950Y-70228685D01*
X108094176Y-70287811D01*
X107970483Y-70368278D01*
X107814254Y-70404875D01*
X107575360Y-70413534D01*
X107178686Y-70413534D01*
X106175200Y-71410196D01*
X106175200Y-74128532D01*
X106175603Y-74670529D01*
X106177521Y-75268059D01*
X106181337Y-75751176D01*
X106187398Y-76130589D01*
X106196054Y-76417004D01*
X106207652Y-76621132D01*
X106222540Y-76753679D01*
X106241066Y-76825355D01*
X106263579Y-76846867D01*
X106272826Y-76847662D01*
X106381539Y-76903040D01*
X106513579Y-77018904D01*
X106648224Y-77244570D01*
X106688105Y-77516654D01*
X106634051Y-77789837D01*
X106493828Y-78026057D01*
X106275200Y-78187255D01*
X106188445Y-78214896D01*
X105928298Y-78223563D01*
X105661202Y-78153396D01*
X105448361Y-78016998D01*
X105312123Y-77795672D01*
X105263884Y-77522325D01*
X105305261Y-77247053D01*
X105436821Y-77018904D01*
X105452773Y-77002359D01*
X105584888Y-76892012D01*
X105686821Y-76846867D01*
X105707614Y-76828334D01*
X105726152Y-76760797D01*
X105741146Y-76633640D01*
X105752928Y-76436335D01*
X105761826Y-76158350D01*
X105768173Y-75789156D01*
X105772297Y-75318224D01*
X105774529Y-74735024D01*
X105775200Y-74029026D01*
X105775200Y-71211184D01*
X106949204Y-70128492D01*
X106945535Y-69755990D01*
X106945508Y-69669531D01*
X106961853Y-69468259D01*
X107016481Y-69329021D01*
X107126715Y-69198511D01*
X107256097Y-69089813D01*
X107413878Y-69028951D01*
X107641867Y-69013534D01*
X107847329Y-69025127D01*
G37*
G36*
X110980675Y-122758462D02*
G01*
X111143776Y-122812725D01*
X111290352Y-122931722D01*
X111313018Y-122954839D01*
X111415720Y-123089149D01*
X111463738Y-123244760D01*
X111475950Y-123477149D01*
X111487385Y-123698105D01*
X111535844Y-123868932D01*
X111637571Y-124008960D01*
X111798442Y-124180200D01*
X129729511Y-124180200D01*
X130521858Y-124962788D01*
X131314205Y-125745375D01*
X131676514Y-125746121D01*
X131725286Y-125746498D01*
X131940453Y-125763369D01*
X132088187Y-125818869D01*
X132223678Y-125931715D01*
X132328171Y-126054877D01*
X132392202Y-126213752D01*
X132408533Y-126441383D01*
X132375323Y-126708208D01*
X132243293Y-126955760D01*
X132008533Y-127120588D01*
X131921695Y-127148242D01*
X131661604Y-127156878D01*
X131394583Y-127086770D01*
X131181883Y-126950520D01*
X131089209Y-126839901D01*
X131024079Y-126677530D01*
X131004046Y-126441990D01*
X130999182Y-126106433D01*
X130271661Y-125376650D01*
X129544141Y-124646867D01*
X111680822Y-124646867D01*
X111425561Y-124397612D01*
X111336684Y-124313535D01*
X111189239Y-124204921D01*
X111033668Y-124158024D01*
X110807606Y-124147612D01*
X110757877Y-124147223D01*
X110542991Y-124130303D01*
X110395425Y-124074797D01*
X110260055Y-123962018D01*
X110151550Y-123832798D01*
X110090637Y-123674930D01*
X110075200Y-123446867D01*
X110086794Y-123241405D01*
X110141054Y-123078296D01*
X110260049Y-122931715D01*
X110389260Y-122823220D01*
X110547133Y-122762305D01*
X110775200Y-122746867D01*
X110980675Y-122758462D01*
G37*
G36*
X95913996Y-87891794D02*
G01*
X96077105Y-87946054D01*
X96223685Y-88065049D01*
X96365932Y-88288194D01*
X96420512Y-88564689D01*
X96381199Y-88842540D01*
X96246913Y-89074829D01*
X96230961Y-89091375D01*
X96098846Y-89201722D01*
X95996913Y-89246867D01*
X95969683Y-89264624D01*
X95944921Y-89340398D01*
X95927456Y-89489702D01*
X95916256Y-89727478D01*
X95910292Y-90068667D01*
X95908533Y-90528210D01*
X95908533Y-91809553D01*
X98708533Y-94620621D01*
X98708533Y-96812181D01*
X99891172Y-97996191D01*
X99947026Y-98052096D01*
X100301576Y-98405653D01*
X100577605Y-98676649D01*
X100788338Y-98876000D01*
X100947002Y-99014625D01*
X101066819Y-99103440D01*
X101161016Y-99153363D01*
X101242816Y-99175310D01*
X101325445Y-99180200D01*
X101437358Y-99173691D01*
X101606569Y-99113156D01*
X101770671Y-98963534D01*
X101807038Y-98923692D01*
X101938559Y-98809266D01*
X102083562Y-98758419D01*
X102301550Y-98746867D01*
X102520840Y-98759668D01*
X102679928Y-98814237D01*
X102823685Y-98931715D01*
X102928167Y-99054868D01*
X102992201Y-99213748D01*
X103008533Y-99441383D01*
X102975323Y-99708208D01*
X102843293Y-99955760D01*
X102608533Y-100120588D01*
X102537707Y-100144241D01*
X102313786Y-100158341D01*
X102075274Y-100109756D01*
X101859138Y-100013220D01*
X101702346Y-99883471D01*
X101641867Y-99735246D01*
X101627037Y-99699972D01*
X101518365Y-99659558D01*
X101292462Y-99646867D01*
X100943058Y-99646867D01*
X99592462Y-98297477D01*
X98241867Y-96948087D01*
X98241867Y-94817514D01*
X95441867Y-92006446D01*
X95441867Y-89311654D01*
X95225200Y-89118062D01*
X95185359Y-89081696D01*
X95070933Y-88950175D01*
X95020086Y-88805171D01*
X95008533Y-88587184D01*
X95021334Y-88367894D01*
X95075904Y-88208806D01*
X95193382Y-88065049D01*
X95322594Y-87956553D01*
X95480466Y-87895638D01*
X95708533Y-87880200D01*
X95913996Y-87891794D01*
G37*
G36*
X122447329Y-103491794D02*
G01*
X122610438Y-103546054D01*
X122757018Y-103665049D01*
X122865514Y-103794260D01*
X122926429Y-103952133D01*
X122941867Y-104180200D01*
X122930256Y-104385795D01*
X122875974Y-104548815D01*
X122756950Y-104695352D01*
X122695346Y-104753452D01*
X122571399Y-104834548D01*
X122415261Y-104871457D01*
X122176637Y-104880200D01*
X121781241Y-104880200D01*
X112863375Y-113780200D01*
X109652621Y-113780200D01*
X109208873Y-113780378D01*
X108522522Y-113781676D01*
X107954003Y-113784464D01*
X107493412Y-113789014D01*
X107130848Y-113795598D01*
X106856410Y-113804490D01*
X106660194Y-113815961D01*
X106532300Y-113830285D01*
X106462825Y-113847733D01*
X106441867Y-113868579D01*
X106425608Y-113922901D01*
X106330916Y-114051037D01*
X106188687Y-114181035D01*
X106041867Y-114269817D01*
X105944123Y-114294530D01*
X105698623Y-114286713D01*
X105445992Y-114211566D01*
X105248361Y-114083664D01*
X105153476Y-113970289D01*
X105091402Y-113811296D01*
X105075200Y-113580200D01*
X105086794Y-113374738D01*
X105141054Y-113211629D01*
X105260049Y-113065049D01*
X105396571Y-112951883D01*
X105553423Y-112894602D01*
X105782184Y-112880200D01*
X105844647Y-112880694D01*
X106039581Y-112899504D01*
X106175885Y-112963467D01*
X106313062Y-113096867D01*
X106506654Y-113313534D01*
X112675576Y-113313534D01*
X117099094Y-108889640D01*
X121522612Y-104465747D01*
X121534969Y-104155092D01*
X121571642Y-103914301D01*
X121702511Y-103673655D01*
X121926192Y-103528694D01*
X122241867Y-103480200D01*
X122447329Y-103491794D01*
G37*
G36*
X102580662Y-68225127D02*
G01*
X102743771Y-68279388D01*
X102890352Y-68398382D01*
X103032599Y-68621527D01*
X103087179Y-68898023D01*
X103047865Y-69175873D01*
X102913579Y-69408163D01*
X102897627Y-69424708D01*
X102765513Y-69535055D01*
X102663579Y-69580200D01*
X102644724Y-69591909D01*
X102623323Y-69651856D01*
X102606567Y-69773436D01*
X102593961Y-69968597D01*
X102585014Y-70249288D01*
X102579234Y-70627457D01*
X102576126Y-71115053D01*
X102575200Y-71724022D01*
X102575200Y-73867844D01*
X101791867Y-74661009D01*
X101008533Y-75454174D01*
X101008533Y-75843447D01*
X101007125Y-75919562D01*
X100957320Y-76226348D01*
X100828137Y-76442069D01*
X100608533Y-76587255D01*
X100521778Y-76614896D01*
X100261631Y-76623563D01*
X99994536Y-76553396D01*
X99781695Y-76416998D01*
X99686809Y-76303622D01*
X99624736Y-76144630D01*
X99608533Y-75913534D01*
X99635269Y-75670599D01*
X99755491Y-75422995D01*
X99971543Y-75268035D01*
X100282513Y-75206672D01*
X100369994Y-75201688D01*
X100475975Y-75183847D01*
X100579157Y-75140792D01*
X100698865Y-75058620D01*
X100854424Y-74923427D01*
X101065158Y-74721310D01*
X101350395Y-74438363D01*
X102108533Y-73682375D01*
X102108533Y-69644987D01*
X101891867Y-69451396D01*
X101852025Y-69415029D01*
X101737600Y-69283508D01*
X101686753Y-69138505D01*
X101675200Y-68920517D01*
X101688001Y-68701227D01*
X101742570Y-68542139D01*
X101860049Y-68398382D01*
X101989260Y-68289887D01*
X102147133Y-68228972D01*
X102375200Y-68213534D01*
X102580662Y-68225127D01*
G37*
%TD*%
%LPC*%
D10*
%TO.C,J5*%
X79252283Y-114734896D03*
D11*
X75696283Y-112829896D03*
D10*
X77220283Y-114734896D03*
D11*
X80776283Y-109654896D03*
D10*
X78236283Y-109654896D03*
D11*
X75696283Y-109654896D03*
X80776283Y-112829896D03*
%TD*%
%TO.C,J2*%
X76454000Y-100330000D03*
X81534000Y-100330000D03*
D10*
X80010000Y-102235000D03*
X77978000Y-102235000D03*
D11*
X81534000Y-94615000D03*
D10*
X78994000Y-94615000D03*
D11*
X76454000Y-94615000D03*
%TD*%
D12*
%TO.C,J3*%
X84582000Y-110744000D03*
D13*
X85852000Y-110744000D03*
X84582000Y-112014000D03*
X85852000Y-112014000D03*
X84582000Y-113284000D03*
X85852000Y-113284000D03*
%TD*%
D12*
%TO.C,J4*%
X86077435Y-95634251D03*
D13*
X87347435Y-95634251D03*
X86077435Y-96904251D03*
X87347435Y-96904251D03*
X86077435Y-98174251D03*
X87347435Y-98174251D03*
X86077435Y-99444251D03*
X87347435Y-99444251D03*
X86077435Y-100714251D03*
X87347435Y-100714251D03*
%TD*%
M02*
